<?xml version="1.0" encoding="UTF-8"?>
<svg xmlns="http://www.w3.org/2000/svg" xmlns:xlink="http://www.w3.org/1999/xlink" viewBox="0 0 1033.74 852.19">
  <defs>
    <style>
      .cls-1 {
        fill: #f4f4f5;
      }

      .cls-2 {
        fill: none;
        stroke: #86c65e;
        stroke-width: 2px;
      }

      .cls-2, .cls-3, .cls-4 {
        stroke-miterlimit: 10;
      }

      .cls-5, .cls-3 {
        fill: #fff;
      }

      .cls-6 {
        fill: #f3fafe;
      }

      .cls-3 {
        stroke: #ddd;
        stroke-width: .79px;
      }

      .cls-7 {
        filter: url(#drop-shadow-1);
      }

      .cls-4 {
        fill: url(#linear-gradient);
        stroke: #999;
      }

      .cls-8 {
        fill: #3a3a3a;
        font-size: 12.11px;
      }

      .cls-8, .cls-9 {
        font-family: Rubik-Regular, Rubik;
      }

      .cls-9 {
        fill: #ababab;
        font-size: 9.83px;
      }

      .cls-10 {
        fill: #d2d2d1;
      }

      .cls-11 {
        fill: #3d3a3b;
      }

      .cls-12 {
        fill: #86c65e;
      }
    </style>
    <linearGradient id="linear-gradient" x1="336.62" y1="444.33" x2="707.72" y2="444.33" gradientUnits="userSpaceOnUse">
      <stop offset="0" stop-color="#c7c8ca"/>
      <stop offset="1" stop-color="#9fa1a4"/>
    </linearGradient>
    <filter id="drop-shadow-1" x="376.93" y="295.13" width="287.76" height="227.28" filterUnits="userSpaceOnUse">
      <feOffset dx="2.83" dy="7"/>
      <feGaussianBlur result="blur" stdDeviation="5"/>
      <feFlood flood-color="#596070" flood-opacity=".15"/>
      <feComposite in2="blur" operator="in"/>
      <feComposite in="SourceGraphic"/>
    </filter>
  </defs>
  <g id="Layer_1">
    <g>
      <g>
        <path class="cls-4" d="M560.86,643.93c8.98,0,23.91-1.49,28.19-13.6l118.02-350.2c.08-.25.16-.54.24-.87.89-3.81.3-7.82-1.5-11.3l-12-23.23-357.18,358.63,4.33,21.68c1.5,9.71,7.88,16.19,17.7,16.24l202.21,2.66Z"/>
        <path d="M555.18,620.45l-198.55-1.09c-14.39-.08-24.28-14.5-19.18-27.95l132.08-347.88c3.09-8.13,10.94-13.45,19.64-13.31l186.55,3.16c14.04.24,23.75,14.13,19.14,27.4l-120.09,345.81c-2.9,8.34-10.78,13.91-19.6,13.86Z"/>
      </g>
      <path class="cls-6" d="M553.4,617.13l-193.05.3c-13.99.02-23.56-14.1-18.54-27.38l129.68-343.28c3.03-8.02,10.69-13.31,19.14-13.23l181.38,1.82c13.65.14,23.04,13.74,18.51,26.83l-118.01,341.16c-2.85,8.23-10.53,13.77-19.11,13.78Z"/>
      <ellipse cx="572.88" cy="245.73" rx="4.73" ry="3.88" transform="translate(117.97 671.92) rotate(-66.35)"/>
    </g>
  </g>
  <g id="Layer_7">
    <g>
      <line class="cls-2" x1="723.73" y1="294.49" x2="626.9" y2="363.83"/>
      <line class="cls-2" x1="430.99" y1="392.42" x2="385.26" y2="329.14"/>
      <line class="cls-2" x1="701.1" y1="413.23" x2="606.11" y2="428.16"/>
      <line class="cls-2" x1="406.65" y1="461.4" x2="320.02" y2="448.96"/>
      <line class="cls-2" x1="650.54" y1="546.55" x2="586.2" y2="495.61"/>
    </g>
  </g>
  <g id="Layer_4" class="cls-7">
    <g>
      <g>
        <polygon class="cls-12" points="635.92 340.92 448.96 338.35 462.11 303.32 646.65 305.8 635.92 340.92"/>
        <polygon class="cls-1" points="587.21 500.35 389.3 497.31 449.37 337.26 636.25 339.83 587.21 500.35"/>
        <g>
          <path class="cls-11" d="M556.67,352.41c-.06,0-.09-.02-.12-.06s-.02-.09,0-.15l.88-2.63c.02-.06.05-.11.1-.15s.1-.06.16-.06h.4c.05,0,.09.03.11.07s.02.09,0,.15l-.88,2.63c-.02.06-.05.11-.1.15s-.1.06-.15.06h-.4Z"/>
          <path class="cls-11" d="M557.77,354.52c-.06,0-.09-.02-.12-.06-.02-.04-.02-.09,0-.15l.45-1.35c.09-.28.2-.54.34-.78s.31-.48.53-.71c.22-.22.51-.43.87-.62l.18.61c-.24.13-.44.29-.6.46-.16.18-.29.36-.38.54-.1.19-.17.37-.23.54l-.44,1.31c-.02.06-.05.11-.1.15s-.1.06-.16.06h-.33ZM561,354.57c-.06,0-.1-.02-.12-.06-.02-.04-.04-.07-.06-.1l-1.5-4.67c-.02-.07-.02-.12,0-.17s.05-.09.1-.12c.05-.04.09-.05.14-.05h.39c.06,0,.1.02.13.06.02.04.04.07.05.1l1.51,4.67s.01.08.01.1c0,.02,0,.05-.01.07-.02.05-.05.09-.09.13s-.09.05-.13.05h-.41ZM560.88,352.91l-.13-.62c.32-.13.56-.28.72-.42.16-.15.28-.3.36-.47.08-.16.14-.34.2-.52l.41-1.24c.02-.06.05-.11.1-.15.05-.04.1-.06.16-.06h.35c.06,0,.09.03.12.06.02.04.02.09,0,.15l-.42,1.28c-.08.25-.19.49-.32.73-.13.23-.32.45-.55.66-.24.2-.56.4-.98.6Z"/>
          <path class="cls-11" d="M562.63,354.59c-.06,0-.09-.02-.12-.06-.02-.04-.02-.09,0-.15l.1-.31c.02-.06.05-.11.1-.15.05-.04.1-.06.16-.06l2.37.03.72-2.17c.16-.48.17-.85.04-1.12s-.44-.41-.93-.41h-.89c-.06-.01-.09-.03-.12-.07-.02-.04-.02-.09,0-.15l.1-.3c.02-.06.05-.11.1-.15.05-.04.1-.06.16-.06h.93c.47.02.84.11,1.1.28.26.17.41.42.46.75.05.33,0,.73-.16,1.22l-.73,2.2h.31c.06,0,.09.03.12.06.02.04.02.09,0,.15l-.1.31c-.02.06-.05.11-.1.15s-.1.06-.16.06l-3.45-.05Z"/>
          <path class="cls-11" d="M567.17,354.65c-.06,0-.09-.02-.12-.06-.02-.04-.02-.09,0-.15l.1-.31c.02-.06.05-.11.1-.15.05-.04.1-.06.16-.06l2.24.03-1.26-4.08s0-.07-.01-.09,0-.05,0-.08c.02-.05.05-.09.09-.12s.09-.05.14-.05h.4c.06,0,.1.02.12.06.02.03.04.07.05.1l1.32,4.23s.02.09.03.13c0,.05,0,.1-.02.15l-.1.3c-.02.06-.05.11-.1.15-.05.04-.1.06-.16.06l-3-.04ZM569.94,352.63l-.17-.59c.33-.11.6-.29.81-.55.21-.26.38-.58.5-.95l.25-.77c.02-.06.05-.11.1-.15.05-.04.1-.06.16-.06h.35c.05,0,.09.03.11.06s.02.09,0,.15l-.29.88c-.16.48-.39.9-.7,1.23-.31.34-.69.59-1.12.74Z"/>
          <path class="cls-11" d="M576.07,354.78c-.06,0-.09-.02-.12-.06-.02-.04-.02-.09,0-.15l.88-2.69c.16-.48.17-.85.03-1.12s-.45-.41-.94-.41l-1.08-.02c-.06,0-.09-.02-.12-.06-.02-.04-.02-.09,0-.15l.1-.3c.02-.06.05-.11.1-.15.05-.04.1-.06.16-.06l1.12.02c.47,0,.84.09,1.1.26.26.17.41.41.46.74.05.33,0,.73-.16,1.22l-.89,2.73c-.02.06-.05.11-.1.15-.05.04-.1.06-.16.06h-.37Z"/>
          <path class="cls-11" d="M578.05,354.8c-.06,0-.09-.02-.12-.06-.02-.04-.02-.09,0-.15l1.53-4.71c.02-.06.05-.11.1-.15.05-.04.1-.06.16-.06h.39c.06,0,.1.03.12.07.02.04.02.09,0,.15l-1.53,4.71c-.02.06-.05.11-.1.15-.05.04-.1.06-.16.06h-.39Z"/>
          <path class="cls-11" d="M581.15,354.39c-.25.15-.48.26-.69.34s-.41.14-.62.18c-.06,0-.1,0-.13-.02-.03-.02-.04-.06-.02-.12l.15-.45c.03-.1.12-.18.25-.22.04-.02.12-.04.24-.08s.25-.08.39-.13c.14-.05.26-.11.37-.17.17-.09.34-.22.53-.37.18-.15.34-.31.49-.47.14-.16.24-.31.28-.43l.5-.06c-.09.26-.23.52-.41.78-.19.26-.39.5-.62.71-.23.21-.46.38-.69.51ZM582.07,354.86c-.06,0-.09-.02-.11-.06-.02-.04-.02-.09-.01-.15l.39-2.77c.05-.32.07-.58.06-.8,0-.21-.05-.38-.14-.49s-.24-.17-.45-.17h-.3c-.06,0-.09-.02-.12-.06s-.03-.09,0-.15l.1-.32c.02-.06.05-.11.1-.15s.1-.06.16-.06h.31c.37,0,.64.09.82.25.17.16.28.4.31.72.03.32.02.72-.05,1.19l-.4,2.81c0,.06-.04.11-.09.15-.05.04-.11.06-.16.06h-.4Z"/>
          <path class="cls-11" d="M583.52,354.88c-.06,0-.09-.02-.12-.06-.02-.04-.03-.09,0-.15l.1-.31c.02-.06.05-.11.1-.15.05-.04.1-.06.16-.06l2.33.03-.18.55c-.02.06-.05.1-.1.13-.05.03-.09.04-.15.04l-2.14-.03ZM585.35,354.91c-.06,0-.09-.02-.11-.06s-.02-.09-.01-.15l.74-2.78c.08-.29.14-.55.18-.76.04-.22.03-.38-.04-.51-.06-.12-.21-.18-.45-.19h-.34c-.05,0-.09-.03-.12-.07-.02-.04-.03-.09,0-.15l.1-.3c.02-.06.05-.11.1-.15.05-.04.1-.06.16-.06h.35c.31,0,.55.06.71.16.16.1.26.25.31.44.05.19.05.42.01.68-.04.26-.1.56-.19.88l-.75,2.81c-.01.06-.05.11-.1.15s-.1.06-.16.06h-.4Z"/>
          <path class="cls-11" d="M588.93,355.05c-.69,0-1.14-.21-1.35-.61-.21-.4-.2-.95.03-1.67l.89-2.76c.02-.06.05-.11.1-.15s.1-.06.15-.06l1.99.03c.49,0,.86.09,1.1.26.24.17.38.41.41.72s-.01.7-.15,1.17c-.01.06-.04.16-.08.29l-.13.4c-.04.13-.08.23-.1.29-.16.46-.36.84-.61,1.16s-.56.56-.93.71c-.37.16-.81.23-1.32.23ZM589.17,354.31c.52,0,.93-.11,1.22-.34s.52-.59.69-1.08c.02-.06.06-.15.09-.27l.11-.35c.04-.11.06-.2.08-.26.14-.48.13-.84-.03-1.09-.16-.25-.45-.37-.85-.38l-1.41-.02-.72,2.25c-.15.48-.16.85-.03,1.12.13.27.42.4.86.41Z"/>
          <path class="cls-11" d="M594.11,356.15c-.06,0-.09-.02-.12-.06-.02-.04-.03-.09,0-.15l1.86-5.83c.02-.06.05-.11.1-.15.05-.04.1-.06.15-.06h.38c.06,0,.09.03.11.07s.02.09,0,.15l-1.86,5.83c-.02.06-.05.11-.1.15-.05.04-.1.06-.15.06h-.38Z"/>
          <path class="cls-11" d="M599.65,355.1c-.05,0-.09-.02-.12-.06s-.03-.09,0-.15l.85-2.69c.15-.48.16-.85.02-1.12-.14-.27-.45-.41-.94-.41l-1.55-.02c-.05,0-.09-.02-.12-.06s-.03-.09,0-.15l.1-.31c.02-.06.05-.11.1-.15s.1-.06.15-.06l1.6.02c.72,0,1.19.21,1.41.59s.22.93,0,1.65l-.86,2.72c-.02.06-.05.11-.1.15-.05.04-.1.06-.16.06h-.37ZM596.5,355.06c-.05,0-.09-.02-.12-.06s-.03-.09,0-.15l.96-3c.02-.06.05-.11.1-.15s.1-.06.15-.06h.38c.05,0,.09.03.11.07s.02.09,0,.15l-.96,3c-.02.06-.05.11-.1.15s-.1.06-.15.06h-.38Z"/>
          <path class="cls-11" d="M601.63,355.13c-.06,0-.09-.02-.12-.06-.02-.04-.03-.09,0-.15l.1-.32c.02-.06.05-.11.1-.15.05-.04.1-.06.15-.06l1.18.02c.49,0,.89-.12,1.19-.39.3-.26.54-.63.71-1.11.05-.13.08-.24.11-.31s.05-.18.09-.31c.13-.48.13-.85,0-1.12-.13-.27-.45-.41-.94-.41l-1.18-.02c-.06,0-.09-.02-.12-.06-.02-.04-.03-.09,0-.15l.1-.32c.02-.06.05-.11.1-.15.05-.04.1-.06.15-.06l1.22.02c.49,0,.85.1,1.1.28.25.18.39.44.44.77.05.33,0,.73-.13,1.2-.03.12-.06.23-.1.33s-.07.22-.12.34c-.16.46-.36.86-.62,1.19-.26.33-.57.59-.93.76-.36.17-.78.26-1.27.25l-1.23-.02Z"/>
          <path class="cls-11" d="M609.13,350.8c-.05,0-.09-.02-.12-.06-.02-.04-.03-.09,0-.15l.1-.31c.02-.06.05-.11.1-.15.05-.04.1-.06.15-.06l3.55.05c.06,0,.09.02.12.06s.03.09,0,.15l-.1.31c-.02.06-.05.11-.1.15s-.1.06-.15.06l-3.55-.05ZM609.98,355.25c-.12,0-.16-.07-.12-.2l1.01-3.21c.11-.35.24-.63.37-.82.14-.2.27-.29.38-.29h.81c-.14,0-.29.12-.44.35-.16.23-.29.51-.39.84l-.99,3.15c-.02.06-.05.11-.1.14-.05.04-.1.05-.16.05h-.37Z"/>
          <path class="cls-11" d="M612.3,355.78c-.06.02-.11.02-.15-.02s-.05-.08-.03-.14l.1-.31c.02-.05.04-.1.08-.15.04-.05.08-.08.14-.1l1.94-.6c.35-.11.64-.25.87-.43s.41-.39.56-.62c.14-.24.26-.5.35-.78l.7-2.24c.02-.06.05-.11.1-.15.05-.04.1-.06.15-.06h.37c.06,0,.1.03.12.07.02.04.02.09,0,.15l-.77,2.49c-.11.35-.28.67-.52.98-.24.31-.53.57-.87.8-.34.23-.71.4-1.11.51l-2.01.59ZM613.61,355.08l.26-4.57s0-.08,0-.11c0-.02,0-.05.01-.07.01-.05.04-.09.09-.12s.09-.05.13-.05h.4c.1,0,.15.05.15.14l-.28,4.59-.77.2Z"/>
          <path class="cls-11" d="M619.68,350.97l-.98-.02c-.06,0-.1-.02-.12-.06-.03-.04-.03-.08,0-.14l.49-1.57c.02-.06.05-.11.1-.15.05-.04.1-.06.15-.06h.35c.06,0,.1.03.12.06.02.04.02.09,0,.15l-.32,1.04h.46s-.24.74-.24.74ZM618.28,355.44c-.06.02-.1,0-.13-.02-.03-.03-.04-.08-.02-.14l.13-.41c.02-.05.05-.1.09-.14.04-.04.1-.07.17-.1l.37-.13c.25-.1.48-.22.71-.36.22-.14.43-.34.61-.59.18-.25.33-.58.46-.99s.17-.7.16-.93c-.01-.23-.11-.4-.28-.5-.17-.1-.43-.15-.78-.16h-.25c-.06,0-.09-.02-.12-.06-.02-.04-.03-.09,0-.15l.1-.32c.02-.06.05-.11.1-.15.05-.04.1-.06.15-.06h.36c.5.01.88.1,1.13.26.25.16.39.41.41.76.02.35-.05.8-.22,1.35-.13.42-.29.78-.49,1.09s-.42.56-.67.78c-.25.21-.5.39-.77.53-.27.14-.54.25-.81.34l-.38.12Z"/>
          <path class="cls-11" d="M622.86,354.97c-.25.15-.48.26-.68.34s-.41.14-.62.18c-.06,0-.1,0-.14-.02-.03-.02-.04-.06-.02-.12l.14-.45c.03-.1.11-.18.24-.22.04-.02.13-.04.24-.08.12-.04.24-.08.38-.13s.26-.11.37-.17c.17-.09.34-.22.52-.37.18-.15.34-.31.48-.47.14-.16.23-.31.27-.43l.5-.06c-.08.26-.22.52-.4.78-.18.26-.38.5-.61.71-.23.21-.45.38-.68.51ZM623.79,355.44c-.05,0-.09-.02-.11-.06s-.02-.09-.02-.15l.35-2.77c.04-.32.06-.58.05-.8,0-.21-.06-.38-.15-.49s-.24-.17-.46-.17h-.3c-.06,0-.09-.02-.12-.06-.02-.04-.03-.09,0-.15l.1-.32c.02-.06.05-.11.1-.15.05-.04.1-.06.15-.06h.31c.37,0,.64.09.82.25.18.16.28.4.32.72.04.32.03.72-.03,1.19l-.36,2.81c0,.06-.04.11-.09.15s-.11.06-.16.06h-.4Z"/>
        </g>
        <g>
          <path class="cls-5" d="M494.76,316.02h.63c.27.01.44.07.5.2.06.12.05.26-.03.42-.28.48-.54.92-.76,1.34-.22.42-.42.84-.61,1.27s-.37.9-.56,1.42l-1.84,5.37c-.05.13-.13.25-.24.34-.11.09-.24.14-.38.14l-3.24-.06c-.13,0-.21-.05-.27-.14-.05-.09-.05-.21,0-.34l.39-1.08c.05-.13.13-.25.25-.34.12-.09.24-.14.37-.14l1.47.04,1.35-3.74c.18-.49.35-.95.53-1.38s.37-.86.6-1.3c.23-.44.5-.92.83-1.43.11-.16.24-.29.39-.4.15-.11.36-.17.62-.16ZM492.33,317.17c-.12,0-.21-.05-.27-.14-.05-.09-.05-.21,0-.36l.41-1.14c.05-.13.13-.24.25-.34s.24-.14.37-.13l4.57.06c1.09.01,1.93.2,2.53.56.6.36.95.91,1.07,1.64.11.73-.03,1.64-.42,2.73l-2.18,6.07c-.05.13-.13.25-.25.34-.12.09-.24.14-.37.14l-1.47-.02c-.14,0-.23-.05-.28-.14-.05-.09-.05-.21,0-.35l2.14-5.97c.33-.91.36-1.61.12-2.12s-.84-.76-1.77-.78l-4.46-.06Z"/>
          <path class="cls-5" d="M501.41,326.65c-.12,0-.21-.05-.27-.15-.05-.09-.06-.21,0-.34l3.74-10.46c.05-.13.13-.24.25-.34s.24-.14.37-.13l1.54.02c.12,0,.21.05.27.14.05.09.06.21,0,.34l-3.73,10.46c-.05.13-.13.25-.25.34s-.24.14-.37.14l-1.55-.02Z"/>
          <path class="cls-5" d="M505.92,326.71c-.14,0-.23-.05-.28-.15-.05-.09-.05-.21,0-.34l.41-1.16c.05-.13.13-.25.24-.34.11-.09.24-.14.38-.14l5.61.08-.6,1.71c-.05.13-.13.24-.24.31-.11.07-.23.11-.36.11l-5.17-.07ZM509.82,326.76c-.12,0-.21-.05-.25-.14-.04-.09-.05-.21-.03-.34l1.89-6.17c.18-.59.31-1.08.37-1.49.06-.41.03-.72-.11-.94-.14-.22-.44-.34-.91-.34h-.86c-.12-.01-.21-.06-.27-.16-.05-.09-.06-.21,0-.34l.4-1.14c.05-.13.13-.25.25-.34.12-.09.24-.14.37-.14h.89c.76.02,1.35.13,1.78.35s.72.53.88.94.2.93.13,1.53c-.07.61-.23,1.3-.46,2.07l-1.89,6.19c-.04.13-.11.25-.23.34s-.25.14-.39.14l-1.55-.02Z"/>
          <path class="cls-5" d="M514.34,326.82c-.12,0-.21-.05-.27-.15-.05-.09-.06-.21-.01-.34l3.69-10.46c.05-.13.13-.24.25-.34s.24-.14.37-.13l1.54.02c.12,0,.21.05.27.14.05.09.06.21.01.34l-3.68,10.46c-.05.13-.13.25-.25.34s-.24.14-.37.14l-1.55-.02Z"/>
          <path class="cls-5" d="M524.72,326.96c-.14,0-.23-.05-.28-.14-.05-.09-.05-.21,0-.35l2.08-5.97c.32-.91.35-1.61.09-2.12s-.85-.76-1.78-.78l-2.6-.04c-.14,0-.23-.05-.28-.14-.05-.09-.05-.21,0-.36l.4-1.14c.05-.13.13-.24.24-.34.11-.09.24-.14.37-.13l2.71.04c1.09.01,1.94.2,2.55.54.61.35.97.88,1.08,1.61.12.72-.02,1.65-.42,2.78l-2.11,6.07c-.05.13-.13.25-.24.34-.11.09-.24.14-.38.14l-1.46-.02Z"/>
          <path class="cls-5" d="M529.54,327.03c-.12,0-.21-.05-.27-.15-.06-.09-.06-.21-.01-.34l3.63-10.46c.05-.13.13-.24.25-.34s.24-.14.36-.13l3.98.05c1.1.01,1.96.2,2.56.56.61.36.97.9,1.08,1.64.11.74-.03,1.68-.42,2.82l-2.06,5.99c-.05.13-.13.25-.25.34-.12.09-.24.14-.37.14l-1.48-.02c-.13,0-.22-.05-.27-.14-.06-.09-.06-.21,0-.35l2.06-5.97c.31-.91.34-1.61.09-2.12-.25-.5-.84-.76-1.77-.78l-1.97-.03-3.06,8.83c-.05.13-.13.25-.25.34-.12.09-.24.14-.37.14l-1.47-.02Z"/>
          <path class="cls-5" d="M541.04,327.19c-.12,0-.21-.05-.27-.15-.06-.09-.06-.22,0-.36l.95-2.77c.23-.68.5-1.3.82-1.86.31-.56.71-1.08,1.21-1.56s1.13-.94,1.9-1.37l.54,1.81c-.46.26-.85.57-1.16.92-.31.35-.55.71-.73,1.08-.18.37-.33.72-.44,1.05l-.93,2.73c-.05.15-.13.27-.25.36s-.24.14-.37.14l-1.25-.02ZM548.21,327.28c-.16,0-.27-.05-.33-.15l-.13-.22-3.24-10.42c-.03-.12-.03-.23,0-.32.04-.12.11-.22.21-.3.1-.08.21-.12.32-.12l1.47.02c.17,0,.29.05.34.14.05.09.1.17.12.24l3.31,10.4c.02.08.03.14.03.19s-.01.09-.03.13c-.04.12-.12.22-.22.3s-.21.12-.31.12l-1.55-.02ZM548.67,323.5l-.49-1.82c.6-.26,1.06-.54,1.37-.84.31-.3.55-.61.7-.92.15-.32.28-.65.4-.98l.88-2.59c.05-.15.13-.26.24-.36.11-.09.24-.14.37-.13l1.3.02c.14,0,.23.05.29.14.05.09.06.21,0,.36l-.91,2.69c-.19.55-.43,1.08-.74,1.6s-.73,1.01-1.26,1.48c-.53.47-1.26.92-2.16,1.35Z"/>
          <path class="cls-5" d="M562.96,316.95h.63c.27.01.44.07.51.2.07.12.06.26-.02.42-.27.48-.51.93-.72,1.34-.21.42-.4.84-.57,1.27s-.35.9-.52,1.42l-1.71,5.38c-.05.13-.12.25-.24.34-.11.09-.24.14-.37.14l-3.24-.06c-.13,0-.22-.05-.27-.14-.06-.09-.06-.21-.02-.34l.37-1.08c.05-.13.13-.25.24-.34.12-.09.24-.14.37-.14l1.47.04,1.26-3.75c.17-.49.33-.95.49-1.38s.35-.86.57-1.3c.22-.44.48-.92.79-1.43.1-.16.23-.29.38-.41.15-.11.35-.17.62-.16ZM560.56,318.1c-.12,0-.21-.05-.27-.14-.06-.09-.06-.21,0-.36l.38-1.14c.04-.13.13-.24.24-.34s.24-.14.36-.13l4.58.06c1.09.01,1.94.2,2.55.57.61.36.98.91,1.11,1.64.13.73.01,1.64-.35,2.73l-2.02,6.07c-.04.13-.13.25-.24.34-.12.09-.24.14-.36.14l-1.48-.02c-.14,0-.23-.05-.28-.14-.05-.09-.05-.21,0-.35l1.99-5.97c.3-.91.32-1.61.06-2.12s-.86-.76-1.79-.78l-4.47-.06Z"/>
          <path class="cls-5" d="M569.89,327.58c-.12,0-.22-.05-.27-.15-.06-.09-.06-.21-.02-.34l3.47-10.47c.04-.13.12-.24.24-.34s.24-.14.36-.13l1.54.02c.12,0,.21.05.27.14.06.09.06.21.02.34l-3.46,10.47c-.04.13-.13.25-.24.34s-.24.14-.36.14l-1.55-.02Z"/>
          <path class="cls-5" d="M574.91,327.65c-.12,0-.22-.05-.27-.15-.06-.09-.06-.21-.02-.34l3.45-10.47c.04-.13.12-.24.24-.34s.24-.14.36-.14l3.98.05c1.1.01,1.96.2,2.58.56.61.36.98.9,1.11,1.64.13.74,0,1.68-.37,2.83l-1.96,6c-.04.13-.13.25-.24.34-.12.09-.24.14-.36.14l-1.48-.02c-.13,0-.22-.05-.27-.14-.06-.09-.06-.21-.02-.35l1.96-5.98c.3-.91.32-1.61.06-2.12-.26-.5-.85-.76-1.78-.78l-1.97-.03-2.91,8.83c-.04.13-.13.25-.24.34-.12.09-.24.14-.36.14l-1.48-.02Z"/>
          <path class="cls-5" d="M588.2,323.11c-.12,0-.22-.05-.27-.14-.06-.09-.06-.21-.02-.34l1.88-5.78c.04-.13.12-.24.24-.34s.24-.14.36-.14l1.55.02c.14,0,.23.05.28.14.05.09.05.21.01.34l-1.88,5.78c-.04.13-.12.25-.23.34-.11.09-.24.14-.37.14l-1.55-.02Z"/>
          <path class="cls-5" d="M597.44,325.96c.73.02,1.41-.12,2.04-.43.63-.31,1.18-.74,1.65-1.3.47-.56.82-1.2,1.06-1.92l1.69-5.28c.05-.15.12-.26.23-.35s.23-.13.37-.13l1.3.02c.14,0,.23.05.28.14.05.09.05.21.01.34l-1.73,5.42c-.28.87-.66,1.65-1.16,2.36-.49.71-1.06,1.3-1.71,1.79-.64.49-1.34.86-2.07,1.11-.74.25-1.49.37-2.26.34l-1.59-.02c-.91-.01-1.64-.23-2.2-.65-.55-.42-.9-.99-1.05-1.71-.15-.72-.07-1.54.22-2.44l2.06-6.36c.04-.13.12-.24.24-.34s.24-.14.36-.14l1.32.02c.12,0,.22.05.27.13.06.09.06.2.02.35l-1.72,5.44c-.37,1.14-.37,2.01,0,2.63.37.62.98.93,1.83.94h.52ZM594.19,324.06l.58-1.84c.75,0,1.37-.13,1.87-.39.49-.25.9-.61,1.21-1.07.31-.46.56-.99.75-1.59l.7-2.18c.05-.15.13-.27.24-.36.11-.09.23-.14.37-.13l1.3.02c.12,0,.21.05.27.14.06.09.06.21.02.36l-.72,2.24c-.32.99-.78,1.84-1.39,2.56-.61.72-1.35,1.28-2.22,1.67-.88.39-1.87.58-2.98.56Z"/>
        </g>
        <polygon class="cls-10" points="627.85 367.33 439.08 364.68 439.34 363.99 628.06 366.63 627.85 367.33"/>
        <polygon class="cls-10" points="618.26 398.71 427.34 395.97 427.6 395.26 618.48 397.99 618.26 398.71"/>
        <g>
          <path class="cls-11" d="M517.03,382.23c-.06,0-.1-.02-.12-.06-.02-.04-.02-.09,0-.15l.94-2.74c.17-.49.19-.87.06-1.14s-.44-.42-.94-.42l-1.57-.02c-.06,0-.09-.02-.12-.06-.02-.04-.02-.09,0-.15l.11-.31c.02-.06.06-.11.11-.15.05-.04.1-.06.16-.06l1.61.02c.72.01,1.19.21,1.41.6s.2.95-.05,1.68l-.95,2.77c-.02.06-.06.11-.11.15-.05.04-.1.06-.16.06h-.38ZM513.85,382.18c-.06,0-.1-.02-.12-.06-.02-.04-.02-.09,0-.15l1.06-3.06c.02-.06.06-.11.11-.15.05-.04.1-.06.16-.06h.38c.06,0,.09.03.11.07s.02.09,0,.15l-1.06,3.06c-.02.06-.06.11-.1.15s-.1.06-.15.06h-.38Z"/>
          <path class="cls-11" d="M519.02,382.25c-.06,0-.1-.02-.12-.06s-.02-.09,0-.15l.11-.33c.02-.06.06-.11.11-.15.05-.04.1-.06.16-.06l1.2.02c.5,0,.9-.12,1.21-.39.31-.27.56-.65.75-1.14.05-.13.09-.24.12-.32s.06-.18.1-.31c.15-.49.16-.87.04-1.14s-.44-.42-.93-.42l-1.19-.02c-.06,0-.09-.02-.12-.06s-.02-.09,0-.15l.11-.33c.02-.06.06-.11.11-.15s.1-.06.16-.06l1.23.02c.49,0,.86.1,1.1.29.24.18.39.45.42.79.04.34-.02.75-.17,1.23-.04.12-.07.24-.11.34s-.08.22-.13.35c-.17.47-.39.88-.66,1.22-.27.34-.59.6-.96.77-.37.18-.8.26-1.29.25l-1.24-.02Z"/>
          <path class="cls-11" d="M525.96,377.85l-.99-.02c-.06,0-.1-.02-.12-.06-.02-.04-.02-.09,0-.15l.55-1.6c.02-.06.06-.11.11-.15.05-.04.1-.06.16-.06h.35c.06,0,.1.03.12.07.02.04.02.09,0,.15l-.36,1.06h.47s-.27.76-.27.76ZM524.39,382.41c-.06.02-.1,0-.13-.02-.03-.03-.04-.08-.02-.14l.14-.42c.02-.05.05-.1.1-.15.05-.04.1-.08.17-.1l.37-.13c.25-.1.49-.22.73-.37.23-.14.44-.34.63-.6.19-.26.36-.59.5-1.01s.2-.71.19-.95c0-.24-.09-.41-.26-.51-.17-.1-.43-.16-.78-.16h-.25c-.06,0-.09-.02-.12-.06-.02-.04-.02-.09,0-.15l.11-.33c.02-.06.06-.11.11-.15.05-.04.1-.06.16-.06h.37c.51.01.88.1,1.13.26.25.16.38.42.39.77.01.35-.08.81-.27,1.38-.15.43-.32.8-.54,1.11s-.45.57-.7.79c-.26.22-.52.4-.8.54-.28.14-.56.26-.83.34l-.39.12Z"/>
          <path class="cls-11" d="M527.74,382.38c-.05,0-.09-.02-.1-.07s-.01-.1.01-.16l2.24-4.48c.03-.06.07-.11.12-.14.05-.03.1-.04.15-.03l.33.02c.05,0,.09.03.11.08s.01.1-.02.16l-2.17,4.4c-.03.06-.07.11-.12.16s-.11.06-.17.06h-.38ZM531.38,377.93l-2.03-.03c-.06,0-.1-.02-.12-.06s-.02-.09,0-.15l.11-.33c.02-.06.05-.11.1-.15s.1-.06.16-.06l2.12.03c.35,0,.62.1.83.28.21.18.34.44.38.77.04.33-.02.74-.18,1.21l-.94,2.79c-.02.06-.05.11-.1.15-.05.04-.1.06-.16.06l-2.16-.03c-.06,0-.1-.02-.12-.06-.02-.04-.02-.09,0-.15l.11-.31c.02-.06.06-.11.11-.15.05-.04.1-.06.16-.06l1.59.02.75-2.21c.11-.31.15-.58.13-.82-.02-.23-.09-.41-.22-.54-.13-.13-.3-.19-.51-.2Z"/>
          <path class="cls-11" d="M537.4,378.01l-.99-.02c-.06,0-.1-.02-.12-.06-.02-.04-.03-.09,0-.15l.54-1.6c.02-.06.06-.11.11-.15.05-.04.1-.06.16-.06h.35c.06,0,.1.03.12.07.02.04.02.09,0,.15l-.36,1.06h.47s-.27.76-.27.76ZM535.84,382.58c-.06.02-.1,0-.13-.02-.03-.03-.04-.08-.02-.14l.14-.42c.02-.06.05-.1.1-.15.04-.04.1-.08.17-.1l.37-.13c.25-.1.49-.22.72-.37s.44-.34.63-.6c.19-.26.35-.59.49-1.01s.2-.71.19-.95c0-.24-.1-.41-.26-.51s-.43-.16-.78-.16h-.25c-.06,0-.1-.02-.12-.06-.02-.04-.02-.09,0-.15l.11-.33c.02-.06.06-.11.11-.15.05-.04.1-.06.16-.06h.37c.51.01.88.1,1.13.26.25.16.38.42.39.77.01.35-.08.81-.27,1.38-.14.43-.32.8-.53,1.11-.21.31-.44.57-.7.79-.26.22-.52.4-.8.54-.28.14-.55.26-.83.34l-.39.12Z"/>
          <path class="cls-11" d="M539.21,382.54c-.06,0-.1-.02-.12-.06-.02-.04-.02-.09,0-.15l.1-.31c.02-.06.06-.11.11-.15.05-.04.1-.06.16-.06l2.4.03.74-2.22c.16-.49.18-.87.05-1.14s-.44-.42-.94-.42h-.9c-.06-.01-.1-.03-.12-.07-.02-.04-.02-.09,0-.15l.1-.31c.02-.06.06-.11.1-.15.05-.04.1-.06.16-.06h.94c.48.02.85.11,1.11.29.26.17.41.43.46.76.05.34-.01.75-.18,1.24l-.75,2.25h.31c.06,0,.1.03.12.07.02.04.02.09,0,.15l-.1.31c-.02.06-.06.11-.1.15s-.1.06-.16.06l-3.49-.05Z"/>
          <path class="cls-11" d="M543.97,382.61c-.06,0-.1-.02-.12-.06-.02-.04-.02-.09,0-.15l1.61-4.81c.02-.06.05-.11.1-.15.05-.04.1-.06.16-.06h.39c.06,0,.1.03.12.07.02.04.02.09,0,.15l-1.61,4.81c-.02.06-.05.11-.1.15-.05.04-.1.06-.16.06h-.39Z"/>
          <path class="cls-11" d="M548.44,381.98c.36.01.69-.06.99-.21s.56-.37.79-.65c.23-.28.4-.61.52-.97l.82-2.48c.02-.06.06-.11.1-.15.05-.04.1-.06.16-.06h.35c.06,0,.09.03.11.07s.02.09,0,.15l-.85,2.55c-.13.39-.3.74-.52,1.06-.22.31-.46.58-.75.8s-.58.39-.9.5c-.32.11-.65.16-.98.14h-.63c-.36-.01-.66-.11-.89-.3-.23-.19-.37-.45-.43-.78-.06-.33-.01-.72.13-1.15l.96-2.88c.02-.06.06-.11.1-.15s.1-.06.16-.06h.35c.06,0,.09.03.12.07.02.04.02.09,0,.15l-.88,2.7c-.18.53-.18.93,0,1.22.17.29.47.43.88.44h.26ZM546.95,380.88l.21-.67c.41,0,.75-.06,1.01-.19s.47-.3.63-.52c.16-.22.28-.46.37-.72l.38-1.14c.02-.06.05-.11.1-.15s.1-.06.16-.06h.34c.06,0,.1.03.12.07.02.04.03.09,0,.15l-.39,1.17c-.13.4-.33.75-.6,1.07-.27.32-.6.56-.99.74-.39.18-.84.26-1.35.25Z"/>
          <path class="cls-11" d="M554.03,382.75c-.06,0-.1-.02-.12-.06s-.02-.09,0-.15l1.59-4.81c.02-.06.06-.11.1-.15s.1-.06.16-.06l1.59.02c.48,0,.85.1,1.1.27.26.17.41.42.45.76.04.33-.01.75-.18,1.24l-.92,2.79c-.02.06-.05.11-.1.15s-.1.06-.16.06l-3.52-.05ZM554.8,382.02l2.44.03.73-2.22c.16-.49.17-.87.04-1.14-.13-.27-.45-.42-.94-.42h-1.03s-1.25,3.75-1.25,3.75Z"/>
          <path class="cls-11" d="M560.34,378.08s-.07-.02-.09-.06,0-.08.02-.14l.62-1.31c.03-.07.08-.14.13-.19.05-.05.12-.08.19-.08h.56s.07.03.08.06c.01.03.01.07,0,.11-.02.05-.04.1-.08.15l-.85,1.25c-.04.06-.09.11-.14.15s-.11.06-.17.06h-.28ZM561.67,378.1c-.05,0-.08-.02-.09-.06s0-.08.02-.14l.62-1.31c.04-.07.08-.14.13-.19.05-.05.11-.08.19-.08h.55s.07.03.09.06c.01.03.02.07,0,.11-.02.05-.04.1-.08.15l-.84,1.25c-.04.06-.09.11-.14.15-.05.04-.11.06-.18.06h-.27Z"/>
          <path class="cls-11" d="M563.25,382.41c-.26.15-.49.27-.7.35s-.42.14-.63.18c-.06,0-.1,0-.14-.02-.03-.02-.04-.06-.02-.12l.15-.46c.03-.1.12-.18.25-.23.05-.02.13-.05.25-.08.12-.04.25-.08.39-.14s.27-.11.38-.17c.17-.1.35-.22.53-.38.18-.15.35-.31.5-.48.15-.17.24-.31.28-.44l.51-.06c-.09.26-.23.53-.42.8-.19.27-.4.51-.63.73-.23.22-.47.39-.7.52ZM564.17,382.89c-.06,0-.09-.02-.11-.06s-.02-.09-.01-.15l.41-2.82c.05-.32.07-.6.07-.81,0-.22-.05-.38-.14-.5s-.24-.17-.46-.18h-.3c-.06,0-.1-.03-.12-.07-.02-.04-.02-.09,0-.15l.11-.33c.02-.06.05-.11.1-.15.05-.04.1-.06.16-.06h.31c.37,0,.65.09.82.26.18.16.28.41.31.74.03.33.01.73-.06,1.21l-.43,2.87c0,.06-.04.11-.1.15s-.11.06-.17.06h-.4Z"/>
          <path class="cls-11" d="M567.62,383.04c-.7,0-1.15-.22-1.36-.62-.21-.41-.2-.97.04-1.7l.92-2.82c.02-.06.05-.11.1-.15s.1-.06.16-.06l2.01.03c.5,0,.86.09,1.1.26.24.17.38.41.41.74s-.02.72-.16,1.19c-.01.06-.04.16-.09.29l-.13.4c-.04.13-.08.23-.1.29-.16.46-.37.86-.63,1.18s-.57.57-.95.73c-.37.16-.82.24-1.34.23ZM567.87,382.28c.53,0,.94-.11,1.24-.35s.53-.61.7-1.1c.03-.06.06-.15.1-.28l.12-.36c.04-.12.06-.2.08-.27.15-.49.14-.86-.02-1.11-.16-.25-.45-.38-.86-.38l-1.43-.02-.75,2.3c-.16.49-.17.87-.04,1.14.13.27.42.41.87.42Z"/>
          <path class="cls-11" d="M573.9,380.65c-.06,0-.1-.02-.12-.06-.02-.04-.03-.09,0-.15l.11-.35c.02-.06.05-.11.1-.15s.1-.06.16-.06l2.51.04c.06,0,.1.02.12.06s.02.09,0,.15l-.11.35c-.02.06-.05.11-.1.15-.05.04-.1.06-.16.06l-2.51-.04Z"/>
          <path class="cls-11" d="M579.3,383.11c-.06,0-.1-.02-.12-.06s-.03-.09,0-.15l1.55-4.81c.02-.06.05-.11.1-.15s.1-.06.16-.06l1.6.02c.48,0,.85.1,1.11.27.26.17.41.42.46.76.05.33,0,.75-.17,1.24l-.89,2.79c-.02.06-.05.11-.1.15s-.1.06-.16.06l-3.52-.05ZM580.07,382.38l2.44.03.71-2.22c.16-.49.17-.87.03-1.15-.14-.27-.45-.42-.95-.42h-1.03s-1.21,3.75-1.21,3.75Z"/>
          <path class="cls-11" d="M585.08,381.05c-.06,0-.1-.02-.12-.06-.02-.04-.03-.09,0-.15l.86-2.68c.02-.06.05-.11.1-.15.05-.04.1-.06.16-.06h.4c.06,0,.09.03.11.07s.02.09,0,.15l-.86,2.68c-.02.06-.05.11-.1.15s-.1.06-.15.06h-.4Z"/>
          <path class="cls-11" d="M586.42,383.21c-.06,0-.1-.02-.12-.06s-.03-.09,0-.15l1.54-4.81c.02-.06.05-.11.1-.15s.1-.06.16-.06h.39c.06,0,.1.03.12.07s.02.09,0,.15l-1.53,4.81c-.02.06-.05.11-.1.15s-.1.06-.16.06h-.39Z"/>
          <path class="cls-11" d="M588.48,383.24c-.06,0-.1-.02-.12-.06-.02-.04-.03-.09,0-.15l1.53-4.81c.02-.06.05-.11.1-.15.05-.04.1-.06.16-.06h.39c.06,0,.1.03.12.07.02.04.02.09,0,.15l-1.53,4.81c-.02.06-.05.11-.1.15-.05.04-.1.06-.16.06h-.39Z"/>
          <path class="cls-11" d="M591.17,381.14c-.06,0-.1-.02-.12-.06s-.03-.09,0-.15l.85-2.69c.02-.06.05-.11.1-.15s.1-.06.16-.06h.4c.06,0,.09.03.11.07s.02.09,0,.15l-.85,2.69c-.02.06-.05.11-.1.15s-.1.06-.15.06h-.4Z"/>
          <path class="cls-11" d="M594.78,378.82l-.99-.02c-.06,0-.1-.02-.12-.06-.02-.04-.03-.09,0-.15l.51-1.6c.02-.06.05-.11.1-.15.05-.04.1-.06.16-.06h.35c.06,0,.1.03.12.07.02.04.02.09,0,.15l-.34,1.06h.47s-.25.76-.25.76ZM593.32,383.39c-.06.02-.1,0-.13-.02-.03-.03-.04-.08-.02-.14l.13-.42c.02-.06.05-.1.09-.15.04-.04.1-.08.17-.1l.37-.13c.25-.1.49-.22.72-.37s.43-.34.62-.6c.18-.26.34-.59.47-1.01s.18-.71.17-.95c-.01-.24-.1-.41-.28-.51s-.43-.16-.78-.16h-.25c-.06,0-.1-.02-.12-.06-.02-.04-.03-.09,0-.15l.1-.33c.02-.06.05-.11.1-.15.05-.04.1-.06.16-.06h.37c.51.01.89.1,1.14.26.25.16.39.42.41.77.02.35-.06.81-.24,1.38-.14.43-.31.8-.51,1.11-.2.31-.43.57-.68.79-.25.22-.51.4-.79.54-.27.14-.55.26-.82.34l-.38.12Z"/>
          <path class="cls-11" d="M601.02,378.91l-.99-.02c-.06,0-.1-.02-.12-.06-.02-.04-.03-.09,0-.15l.5-1.6c.02-.06.05-.11.1-.15.05-.04.1-.06.16-.06h.35c.06,0,.1.03.12.07.02.04.02.09,0,.15l-.33,1.06h.47s-.25.76-.25.76ZM599.57,383.48c-.06.02-.1,0-.13-.02-.03-.03-.04-.08-.02-.14l.13-.42c.02-.06.05-.1.09-.15.04-.04.1-.08.17-.1l.37-.13c.25-.1.49-.22.72-.37s.43-.34.62-.6c.18-.26.34-.59.47-1.01s.18-.71.17-.95c-.01-.24-.1-.41-.28-.51s-.43-.16-.78-.16h-.25c-.06,0-.1-.02-.12-.06-.02-.04-.03-.09,0-.15l.1-.33c.02-.06.05-.11.1-.15.05-.04.1-.06.16-.06h.37c.51.01.89.1,1.14.26.25.16.39.42.41.77.02.35-.06.81-.23,1.38-.13.43-.3.8-.51,1.11-.2.31-.43.57-.68.79-.25.22-.51.4-.79.54-.27.14-.55.26-.82.34l-.38.12Z"/>
          <path class="cls-11" d="M604.4,378.7s-.07-.02-.09-.06,0-.08.01-.14l.6-1.31c.03-.07.08-.14.13-.19.05-.05.12-.08.19-.08h.56s.07.03.08.06c.01.03.02.07,0,.11-.02.05-.04.1-.08.15l-.83,1.25c-.04.06-.09.11-.13.15-.05.04-.11.06-.17.06h-.28ZM605.74,378.72c-.05,0-.08-.02-.09-.06-.01-.04,0-.08.02-.14l.6-1.31c.03-.07.08-.14.13-.19.05-.05.11-.08.19-.08h.55s.07.03.09.06c.01.03.02.07,0,.11-.02.05-.04.1-.08.15l-.83,1.25c-.04.06-.09.11-.13.15-.05.04-.11.06-.18.06h-.27Z"/>
          <path class="cls-11" d="M606.18,383.49c-.05,0-.09-.02-.11-.07s-.02-.1,0-.16l2.11-4.48c.03-.06.07-.11.12-.14.05-.03.1-.04.15-.03l.33.02c.05,0,.09.03.11.08s.01.1-.02.16l-2.04,4.4c-.03.06-.06.11-.12.16s-.11.06-.17.06h-.38ZM609.69,379.03l-2.03-.03c-.06,0-.1-.02-.12-.06s-.02-.09,0-.15l.1-.33c.02-.06.05-.11.1-.15s.1-.06.16-.06l2.12.03c.35,0,.63.1.84.28s.35.44.4.77c.05.34,0,.74-.14,1.21l-.87,2.79c-.02.06-.05.11-.1.15s-.1.06-.16.06l-2.16-.03c-.06,0-.1-.02-.12-.06-.02-.04-.03-.09,0-.15l.1-.31c.02-.06.05-.11.1-.15.05-.04.1-.06.16-.06l1.59.02.69-2.21c.1-.31.13-.58.11-.82-.03-.23-.1-.41-.24-.54-.13-.13-.3-.19-.51-.2Z"/>
          <path class="cls-11" d="M611.61,383.57c-.06,0-.1-.02-.12-.06-.02-.04-.03-.09,0-.15l1.49-4.82c.02-.06.05-.11.1-.15.05-.04.1-.06.16-.06l1.63.02c.48,0,.85.1,1.11.27s.42.43.47.76c.05.34,0,.75-.15,1.25l-.85,2.77c-.02.06-.05.11-.1.15-.05.04-.1.06-.16.06h-.38c-.06,0-.1-.03-.12-.07s-.02-.09,0-.15l.85-2.75c.15-.49.16-.87.02-1.15s-.46-.42-.95-.42h-1.02s-1.33,4.28-1.33,4.28c-.02.06-.05.11-.1.15s-.1.06-.15.06h-.38Z"/>
        </g>
        <g>
          <path class="cls-11" d="M591.07,415.58c-.06,0-.1-.02-.13-.05-.02-.03-.03-.07-.04-.11l-.24-6.04s0-.08,0-.1c0-.02,0-.05,0-.07.02-.05.05-.09.1-.13.05-.04.09-.06.14-.05h.4c.06,0,.1.03.13.06s.04.09.04.17l.11,2.55c.43-.05.78-.21,1.06-.49.28-.28.49-.64.63-1.11l.29-.94c.02-.06.05-.11.1-.15.05-.04.1-.06.16-.06h.36c.06,0,.1.03.12.07s.03.09,0,.16l-.31.99c-.13.43-.32.8-.55,1.12s-.5.57-.81.77-.65.33-1.02.4l.11,2.65c0,.09,0,.15-.01.18-.02.05-.05.09-.09.13-.05.04-.09.06-.14.06h-.41Z"/>
          <path class="cls-11" d="M595.16,409.59s-.08-.02-.09-.06,0-.08.01-.14l.61-1.34c.03-.07.08-.14.13-.19.05-.05.12-.08.19-.08h.57s.07.03.08.06c.01.03.02.07,0,.11-.02.05-.04.1-.08.15l-.84,1.28c-.04.06-.09.11-.14.15s-.11.06-.18.06h-.28ZM596.51,409.61c-.05,0-.08-.02-.09-.06s0-.08.02-.14l.61-1.34c.04-.07.08-.14.13-.19.05-.05.12-.08.19-.08h.56s.07.03.09.06c.01.03.02.07,0,.11-.02.05-.04.1-.08.15l-.84,1.28c-.04.06-.09.11-.14.15-.05.04-.11.06-.18.06h-.27Z"/>
          <path class="cls-11" d="M599.07,409.91l-.23.73c-.06.23-.1.41-.09.56,0,.15.06.25.17.28l.28.1s.07.05.07.1c0,.05,0,.12-.02.19l-.07.23c-.02.07-.07.12-.14.15-.07.03-.14.04-.21.03l-.31-.08c-.17-.05-.29-.14-.38-.27-.09-.13-.13-.31-.13-.53,0-.22.06-.49.15-.8l.39-1.26c.02-.06.05-.11.1-.15s.1-.06.16-.06l1.56.02c.42,0,.75.1.97.29.22.19.36.46.4.81.04.35-.01.77-.15,1.26-.02.09-.06.21-.1.35s-.08.26-.12.35c-.16.48-.37.9-.62,1.25-.26.35-.55.61-.89.79-.34.18-.72.27-1.14.26l-1.46-.02c-.06,0-.1-.02-.12-.06-.02-.04-.03-.09,0-.16l.11-.34c.02-.06.05-.11.1-.15.05-.04.1-.06.16-.06l1.42.02c.39,0,.73-.13,1.03-.4.3-.28.54-.66.71-1.16.04-.09.07-.2.11-.32s.07-.23.09-.32c.14-.5.15-.89.02-1.17s-.39-.42-.78-.43h-1.03Z"/>
          <path class="cls-11" d="M603.57,414.67c-.06.02-.1,0-.13-.03s-.04-.08-.02-.15l.13-.43c.02-.06.05-.11.09-.15.04-.04.1-.08.17-.1l.36-.14c.26-.1.5-.23.73-.38s.44-.35.62-.61c.19-.26.34-.6.48-1.03s.18-.73.16-.97c-.02-.24-.11-.42-.29-.52s-.44-.16-.78-.17l-1.72-.02c-.06,0-.1-.02-.12-.06-.02-.04-.03-.09,0-.16l.1-.34c.02-.06.05-.11.1-.15.05-.04.1-.06.16-.06l1.82.03c.52,0,.9.09,1.15.26s.39.43.41.79c.02.36-.06.83-.24,1.41-.14.44-.31.82-.51,1.13-.2.32-.43.59-.69.81-.25.22-.52.41-.79.55-.27.14-.55.26-.83.35l-.4.13ZM601.41,416.36c-.06,0-.1-.02-.12-.06-.02-.04-.03-.09,0-.16l1.53-4.93c.02-.06.05-.11.1-.15.05-.04.1-.06.16-.06h.37c.06,0,.1.03.12.07s.02.09,0,.16l-1.53,4.93c-.02.06-.05.11-.1.15s-.1.06-.16.06h-.37Z"/>
        </g>
        <polygon class="cls-10" points="608.45 430.82 415.32 427.98 415.59 427.26 608.68 430.09 608.45 430.82"/>
        <g>
          <path class="cls-11" d="M494.01,445.2l-1.01-.02c-.06,0-.1-.02-.12-.06-.02-.04-.02-.09,0-.16l.58-1.68c.02-.06.06-.12.11-.16.05-.04.11-.06.16-.06h.36c.06,0,.1.03.12.07.02.04.02.1,0,.16l-.38,1.11h.48s-.29.79-.29.79ZM492.35,449.99c-.06.02-.1,0-.14-.03-.03-.04-.04-.09-.02-.15l.15-.44c.02-.06.05-.11.1-.15.05-.04.11-.08.18-.1l.38-.14c.26-.11.51-.24.75-.39s.46-.36.66-.63c.2-.27.37-.62.52-1.06s.21-.75.21-1c0-.25-.09-.43-.26-.53s-.44-.17-.8-.17h-.26c-.06,0-.1-.03-.12-.07-.02-.04-.02-.1,0-.16l.12-.35c.02-.06.06-.12.11-.16s.11-.06.16-.06h.38c.52.01.9.1,1.15.27.25.17.38.44.39.81,0,.37-.09.85-.3,1.45-.15.45-.34.84-.56,1.16-.22.33-.46.6-.73.83-.27.23-.54.42-.83.56-.29.15-.57.27-.86.36l-.4.13Z"/>
          <path class="cls-11" d="M496.71,447.72c-.06,0-.1-.02-.12-.06-.02-.04-.02-.1,0-.16l.97-2.82c.02-.06.06-.12.11-.16.05-.04.11-.06.16-.06h.41c.06,0,.1.03.12.07.02.04.02.09,0,.16l-.97,2.82c-.02.06-.06.12-.11.16-.05.04-.1.06-.16.06h-.41Z"/>
          <path class="cls-11" d="M499.12,449.51c-.27.16-.51.28-.72.36s-.43.15-.64.19c-.06,0-.11,0-.14-.02-.03-.02-.04-.06-.02-.13l.17-.48c.04-.11.12-.19.26-.24.05-.02.13-.05.25-.09.12-.04.26-.09.4-.14s.28-.12.39-.18c.18-.1.36-.23.56-.39s.37-.33.52-.51c.15-.17.25-.33.3-.46l.52-.06c-.1.28-.25.55-.45.83s-.42.54-.67.76c-.24.23-.49.41-.73.55ZM500.05,450.02c-.06,0-.09-.02-.11-.06-.02-.04-.02-.1,0-.16l.49-2.96c.06-.34.09-.63.09-.85,0-.23-.04-.4-.13-.52-.09-.12-.24-.18-.47-.19h-.31c-.06,0-.1-.03-.12-.07s-.02-.1,0-.16l.12-.35c.02-.06.06-.12.11-.16.05-.04.11-.06.16-.06h.32c.38.01.66.1.84.27.18.17.27.43.3.77.02.34,0,.77-.09,1.27l-.51,3.01c-.01.06-.04.12-.1.16-.06.04-.11.06-.17.06h-.41Z"/>
          <path class="cls-11" d="M506.02,445.38l-1.01-.02c-.06,0-.1-.02-.12-.06-.02-.04-.02-.09,0-.16l.57-1.68c.02-.06.06-.12.11-.16.05-.04.11-.06.16-.06h.36c.06,0,.1.03.12.07.02.04.02.1,0,.16l-.38,1.11h.48s-.29.79-.29.79ZM504.38,450.17c-.06.02-.1,0-.14-.03-.03-.04-.04-.09-.02-.15l.15-.44c.02-.06.05-.11.1-.15.05-.04.11-.08.18-.1l.38-.14c.26-.11.51-.24.75-.39s.46-.36.65-.63c.2-.27.37-.62.52-1.06s.21-.75.21-1c0-.25-.09-.43-.27-.53s-.44-.17-.8-.17h-.26c-.06,0-.1-.03-.12-.07-.02-.04-.02-.1,0-.16l.12-.35c.02-.06.06-.12.11-.16s.11-.06.16-.06h.38c.52.01.9.1,1.15.27.25.17.38.44.39.81,0,.37-.09.85-.29,1.45-.15.45-.34.84-.56,1.16-.22.33-.46.6-.73.83-.26.23-.54.42-.82.56-.29.15-.57.27-.85.36l-.4.13Z"/>
          <path class="cls-11" d="M507.83,450.14c-.06,0-.1-.02-.12-.06-.02-.04-.02-.1,0-.16l.49-1.45c.1-.3.22-.58.36-.84s.33-.52.56-.76.54-.46.91-.67l.17.65c-.26.14-.47.31-.63.5-.17.19-.3.38-.4.58-.1.2-.19.4-.25.58l-.48,1.41c-.02.06-.06.12-.11.16-.05.04-.11.06-.16.06h-.34ZM511.17,450.19c-.06,0-.1-.02-.13-.06-.02-.04-.04-.08-.06-.11l-1.46-5c-.02-.07-.02-.13,0-.18s.05-.1.1-.13c.05-.04.1-.06.14-.06h.4c.06,0,.11.03.13.07.02.04.04.07.05.11l1.47,5s.01.08.01.11c0,.03,0,.05-.01.08-.02.05-.05.1-.1.13s-.09.06-.14.06h-.42ZM511.08,448.41l-.13-.67c.33-.14.58-.29.75-.45.17-.16.3-.33.38-.5.08-.18.16-.36.22-.55l.45-1.33c.02-.06.06-.12.11-.16s.11-.06.16-.06h.36c.06,0,.1.03.12.07.02.04.02.09,0,.16l-.46,1.37c-.09.27-.21.53-.35.78-.14.25-.34.48-.59.7-.25.22-.59.43-1.03.64Z"/>
          <path class="cls-11" d="M513.77,447.98c-.06,0-.1-.02-.12-.06-.02-.04-.02-.1,0-.16l.95-2.82c.02-.06.06-.12.11-.16.05-.04.1-.06.16-.06h.41c.06,0,.1.03.12.07.02.04.02.09,0,.16l-.95,2.82c-.02.06-.06.12-.1.16-.05.04-.1.06-.16.06h-.41Z"/>
          <path class="cls-11" d="M517.65,450.28c-.06,0-.1-.02-.12-.06s-.02-.1,0-.16l.97-2.88c.17-.51.19-.91.06-1.2s-.45-.44-.96-.44l-1.12-.02c-.06,0-.1-.02-.12-.06-.02-.04-.02-.1,0-.16l.11-.33c.02-.06.06-.12.11-.16s.11-.06.16-.06l1.16.02c.49,0,.87.1,1.13.28s.42.44.46.79-.02.79-.2,1.31l-.98,2.93c-.02.06-.06.12-.11.16-.05.04-.11.06-.16.06h-.39Z"/>
          <path class="cls-11" d="M519.49,450.31c-.06,0-.1-.02-.12-.06s-.02-.1,0-.16l.48-1.45c.1-.3.22-.58.36-.84s.33-.52.56-.76.53-.46.91-.67l.18.65c-.26.14-.47.31-.63.5s-.3.38-.4.58c-.1.2-.18.4-.25.58l-.47,1.41c-.02.06-.06.12-.11.16-.05.04-.11.06-.16.06h-.34ZM522.83,450.36c-.06,0-.1-.02-.13-.06l-.06-.11-1.48-5c-.02-.07-.02-.13,0-.18s.05-.1.1-.13.1-.06.14-.06h.4c.06,0,.11.03.13.07.02.04.04.07.05.11l1.49,5s.01.08.01.11c0,.03,0,.05-.01.08-.02.05-.05.1-.1.13s-.09.06-.14.06h-.42ZM522.73,448.59l-.13-.67c.33-.14.58-.29.75-.45.17-.16.3-.33.38-.5.08-.18.15-.36.22-.55l.44-1.33c.02-.06.06-.12.11-.16.05-.04.1-.06.16-.06h.36c.06,0,.1.03.12.07s.02.09,0,.16l-.46,1.37c-.09.27-.21.53-.35.78-.14.25-.34.48-.58.7-.25.22-.59.43-1.03.64Z"/>
          <path class="cls-11" d="M526.83,450.42c-.06,0-.1-.02-.12-.06s-.02-.1,0-.16l1.68-5.05c.02-.06.06-.12.11-.16.05-.04.1-.06.16-.06l1.63.02c.49,0,.87.1,1.13.28.26.18.41.45.45.79.04.35-.02.78-.19,1.3l-.97,2.93c-.02.06-.06.12-.1.16-.05.04-.1.06-.17.06l-3.61-.05ZM527.62,449.66l2.5.04.77-2.33c.17-.51.19-.91.05-1.2s-.45-.44-.96-.44l-1.05-.02-1.31,3.96Z"/>
          <path class="cls-11" d="M533.33,445.51s-.07-.02-.09-.06,0-.09.02-.14l.65-1.37c.04-.08.08-.14.14-.2.06-.05.12-.08.19-.08h.57s.07.03.08.06c.01.04.01.07,0,.11-.02.05-.04.1-.09.15l-.88,1.31c-.04.06-.09.12-.14.16s-.11.06-.18.06h-.28ZM534.7,445.53c-.05,0-.08-.02-.09-.06-.01-.04,0-.09.02-.14l.65-1.37c.04-.08.08-.14.13-.2.05-.05.12-.08.2-.08h.56s.08.03.09.06c.01.04.01.07,0,.11-.02.05-.05.1-.09.15l-.88,1.31c-.04.06-.09.12-.14.16-.05.04-.11.06-.19.06h-.27Z"/>
          <path class="cls-11" d="M536.27,450.06c-.26.16-.5.28-.72.36s-.43.15-.64.19c-.06,0-.11,0-.14-.02-.03-.02-.04-.06-.02-.13l.16-.48c.04-.11.12-.19.26-.24.05-.02.13-.05.25-.09.12-.04.26-.09.4-.14.14-.06.27-.12.39-.18.18-.1.36-.23.55-.39.19-.16.36-.33.51-.51.15-.17.25-.33.29-.46l.52-.06c-.1.28-.24.55-.44.84-.2.28-.41.54-.66.76-.24.23-.48.41-.72.55ZM537.21,450.57c-.06,0-.09-.02-.11-.06-.02-.04-.02-.1-.01-.16l.45-2.97c.05-.34.08-.63.08-.85,0-.23-.05-.4-.14-.52-.09-.12-.24-.18-.47-.19h-.31c-.06,0-.1-.03-.12-.07-.02-.04-.02-.1,0-.16l.11-.35c.02-.06.06-.12.11-.16.05-.04.1-.06.16-.06h.32c.38.01.66.1.84.27.18.17.28.43.31.77.03.34,0,.77-.07,1.27l-.47,3.01c0,.06-.04.12-.1.16-.06.04-.11.06-.17.06h-.41Z"/>
          <path class="cls-11" d="M540.74,450.72c-.71-.01-1.18-.23-1.39-.66s-.19-1.02.06-1.79l.97-2.96c.02-.06.06-.12.11-.16.05-.04.1-.06.16-.06l2.06.03c.51,0,.88.1,1.13.28.25.18.38.43.41.77.03.34-.03.75-.17,1.25-.02.06-.05.17-.09.31l-.14.42c-.05.14-.08.24-.11.31-.17.49-.39.9-.66,1.24-.27.34-.59.6-.98.77-.39.17-.84.25-1.38.24ZM541,449.93c.54,0,.97-.11,1.27-.36.31-.25.55-.64.73-1.16.03-.06.06-.16.1-.29l.12-.38c.04-.12.07-.22.08-.28.16-.51.15-.9-.01-1.16-.16-.26-.46-.4-.88-.4l-1.46-.02-.79,2.41c-.17.51-.19.91-.05,1.2.13.29.43.43.88.44Z"/>
          <path class="cls-11" d="M547.21,448.22c-.06,0-.1-.02-.12-.06s-.02-.1,0-.16l.12-.37c.02-.06.06-.12.11-.16.05-.04.1-.06.16-.06l2.57.04c.06,0,.11.02.13.06.02.04.02.1,0,.16l-.12.37c-.02.06-.06.12-.1.16s-.1.06-.17.06l-2.57-.04Z"/>
          <path class="cls-11" d="M552.72,450.8c-.06,0-.1-.02-.12-.06s-.02-.1,0-.16l1.63-5.05c.02-.06.06-.12.11-.16.05-.04.1-.06.16-.06l1.67.02c.49,0,.87.1,1.13.28.27.18.42.45.47.8s-.01.79-.18,1.32l-.94,2.91c-.02.06-.06.12-.11.16s-.1.06-.16.06h-.39c-.06,0-.1-.03-.13-.07-.02-.04-.02-.1,0-.16l.93-2.88c.17-.51.18-.91.04-1.2s-.46-.44-.97-.44l-1.04-.02-1.46,4.51c-.02.06-.06.12-.1.16-.05.04-.1.06-.16.06h-.39Z"/>
          <path class="cls-11" d="M559.22,445.9s-.08-.02-.09-.06,0-.09.02-.14l.64-1.37c.04-.08.08-.14.14-.2.05-.05.12-.08.19-.08h.57s.07.03.08.06c.01.04.02.07,0,.11-.02.05-.04.1-.08.15l-.87,1.31c-.04.06-.09.12-.14.16s-.11.06-.18.06h-.28ZM560.59,445.92c-.05,0-.08-.02-.09-.06-.01-.04,0-.09.02-.14l.64-1.37c.04-.08.08-.14.13-.2.05-.05.12-.08.2-.08h.56s.08.03.09.06c.01.04.02.07,0,.11-.02.05-.04.1-.08.15l-.87,1.31c-.04.06-.09.12-.14.16-.05.04-.11.06-.19.06h-.27Z"/>
          <path class="cls-11" d="M561,450.93c-.06,0-.1-.02-.12-.06s-.03-.1,0-.16l.11-.34c.02-.06.06-.12.11-.16.05-.04.1-.06.16-.06l2.32.03-1.29-4.38s0-.07-.01-.1c0-.03,0-.06,0-.08.02-.05.05-.1.1-.13.05-.04.1-.06.14-.06h.41c.06,0,.11.03.13.06.02.04.04.07.05.11l1.35,4.54s.02.09.03.14,0,.1-.02.16l-.1.32c-.02.06-.06.12-.11.16-.05.04-.1.06-.16.06l-3.1-.05ZM563.87,448.76l-.18-.63c.34-.12.62-.32.84-.59s.4-.62.52-1.02l.26-.83c.02-.06.06-.12.11-.16s.1-.06.16-.06h.36c.06,0,.1.03.12.07.02.04.02.09,0,.16l-.3.94c-.17.52-.41.96-.73,1.32-.32.36-.71.63-1.17.8Z"/>
          <path class="cls-11" d="M565.52,450.99c-.05,0-.09-.02-.11-.07-.02-.05-.02-.1,0-.17l2.23-4.71c.03-.06.07-.11.12-.15.05-.03.1-.04.16-.03l.34.02c.06,0,.09.04.11.08s.01.11-.02.17l-2.16,4.62c-.03.06-.07.12-.13.16-.06.04-.11.07-.17.07h-.39ZM569.19,446.32l-2.08-.03c-.06,0-.11-.02-.13-.06-.02-.04-.02-.1,0-.16l.11-.35c.02-.06.05-.12.1-.16.05-.04.1-.06.17-.06l2.17.03c.35,0,.64.1.86.29.22.19.35.46.4.81.05.35,0,.77-.17,1.27l-.93,2.93c-.02.06-.05.12-.1.16-.05.04-.1.06-.17.06l-2.21-.03c-.06,0-.1-.02-.12-.06-.02-.04-.03-.1,0-.16l.1-.33c.02-.06.06-.12.11-.16.05-.04.1-.06.16-.06l1.63.02.74-2.32c.1-.33.14-.61.12-.86-.02-.24-.1-.43-.23-.57-.13-.13-.31-.2-.52-.21Z"/>
          <path class="cls-11" d="M574.4,452.33c-.06,0-.11-.02-.13-.05-.02-.03-.03-.07-.04-.12l-.2-6.2s0-.08,0-.1,0-.05,0-.07c.02-.05.05-.1.1-.13.05-.04.1-.06.14-.06h.4c.06,0,.11.03.13.07s.04.1.04.17l.09,2.62c.43-.05.79-.22,1.07-.5.28-.28.5-.66.65-1.14l.3-.96c.02-.06.06-.12.11-.16s.1-.06.16-.06h.36c.06,0,.1.03.12.07.02.04.03.09,0,.16l-.32,1.02c-.14.44-.33.82-.56,1.15s-.51.58-.83.79c-.32.2-.66.34-1.03.41l.1,2.72c0,.09,0,.15-.01.18-.02.05-.05.1-.09.13s-.09.06-.14.06h-.42Z"/>
          <path class="cls-11" d="M578.57,446.18s-.08-.02-.09-.06,0-.09.02-.14l.63-1.37c.04-.08.08-.14.13-.2.05-.05.12-.08.19-.08h.57s.07.03.08.06c.01.04.02.07,0,.11-.02.05-.04.1-.08.15l-.86,1.31c-.04.06-.09.12-.14.16-.05.04-.11.06-.18.06h-.28ZM579.94,446.2c-.05,0-.08-.02-.09-.06s0-.09.02-.14l.63-1.37c.04-.08.08-.14.13-.2.05-.05.12-.08.2-.08h.56s.08.03.09.06c.01.04.02.07,0,.11-.02.05-.04.1-.08.15l-.86,1.31c-.04.06-.09.12-.14.16s-.11.06-.19.06h-.27Z"/>
          <path class="cls-11" d="M580.35,451.21c-.06,0-.1-.02-.12-.06-.02-.04-.03-.1,0-.16l.1-.33c.02-.06.06-.12.11-.16.05-.04.1-.06.16-.06l2.46.04.73-2.33c.16-.51.17-.91.03-1.2s-.46-.44-.97-.44h-.92c-.06-.01-.1-.04-.12-.08-.02-.04-.03-.1,0-.16l.1-.33c.02-.06.06-.12.11-.16s.1-.06.16-.06h.97c.49.02.87.12,1.14.3.27.18.43.45.48.8s0,.79-.16,1.31l-.74,2.36h.32c.06,0,.1.03.12.07s.03.1,0,.16l-.1.33c-.02.06-.06.12-.11.16-.05.04-.1.06-.16.06l-3.58-.05Z"/>
          <path class="cls-11" d="M585.01,451.28c-.05,0-.09-.02-.11-.07-.02-.05-.02-.1,0-.17l2.2-4.71c.03-.06.07-.11.12-.15.05-.03.1-.04.16-.03l.34.02c.06,0,.09.04.11.08s.01.11-.02.17l-2.13,4.62c-.03.06-.07.12-.12.16-.06.04-.11.07-.17.07h-.39ZM588.64,446.6l-2.08-.03c-.06,0-.11-.02-.13-.06-.02-.04-.02-.1,0-.16l.11-.35c.02-.06.05-.12.1-.16.05-.04.1-.06.17-.06l2.17.03c.35,0,.64.1.86.29.22.19.35.46.4.81.05.35,0,.77-.16,1.27l-.91,2.93c-.02.06-.05.12-.1.16-.05.04-.1.06-.17.06l-2.21-.03c-.06,0-.1-.02-.12-.06-.02-.04-.03-.1,0-.16l.1-.33c.02-.06.06-.12.11-.16.05-.04.1-.06.16-.06l1.63.02.72-2.32c.1-.33.14-.61.12-.86-.02-.24-.1-.43-.24-.57-.13-.13-.31-.2-.53-.21Z"/>
          <path class="cls-11" d="M592.19,451.48c-.06.02-.1,0-.13-.03-.03-.04-.04-.09-.02-.15l.14-.44c.02-.06.05-.11.09-.15s.1-.08.17-.1l.37-.14c.26-.11.51-.24.74-.39.23-.15.44-.36.63-.63.19-.27.35-.62.49-1.06s.19-.75.17-1c-.02-.25-.11-.43-.29-.54-.18-.11-.44-.17-.79-.17l-1.74-.03c-.06,0-.1-.02-.12-.06-.02-.04-.03-.1,0-.16l.11-.35c.02-.06.06-.12.1-.16.05-.04.1-.06.16-.06l1.85.03c.52,0,.91.1,1.17.27.25.17.39.44.41.81s-.06.85-.25,1.45c-.14.45-.31.84-.52,1.16-.21.33-.44.6-.7.83-.26.23-.52.42-.8.56-.28.15-.56.27-.84.36l-.4.13ZM590,453.21c-.06,0-.1-.02-.12-.06-.02-.04-.03-.1,0-.16l1.57-5.06c.02-.06.06-.12.1-.16.05-.04.1-.06.16-.06h.38c.06,0,.11.03.13.07.02.04.02.1,0,.16l-1.57,5.06c-.02.06-.05.12-.1.16-.05.04-.1.06-.17.06h-.38Z"/>
        </g>
        <polygon class="cls-10" points="597.21 467.62 401.56 464.68 401.84 463.93 597.44 466.87 597.21 467.62"/>
        <g>
          <path class="cls-11" d="M493.15,485.41c-.06,0-.1-.02-.12-.07-.02-.04-.02-.1,0-.16l1.76-5.18c.02-.06.06-.12.11-.16.05-.04.11-.06.16-.06l1.69.03c.5,0,.88.1,1.14.29.26.18.42.46.46.82.04.36-.03.81-.21,1.35l-1.01,2.98c-.02.07-.06.12-.11.16s-.11.06-.16.06h-.39c-.06,0-.11-.03-.13-.07-.02-.04-.02-.1,0-.16l1-2.95c.18-.53.2-.94.07-1.23-.13-.3-.45-.45-.97-.46l-1.06-.02-1.57,4.62c-.02.07-.06.12-.11.16-.05.04-.1.06-.16.06h-.4Z"/>
          <path class="cls-11" d="M498.33,485.49c-.06,0-.1-.02-.12-.07s-.02-.1,0-.16l.11-.34c.02-.07.06-.12.11-.16.05-.04.11-.06.17-.06l2.49.04.81-2.39c.18-.53.2-.94.07-1.23s-.45-.45-.97-.46h-.93c-.06-.02-.1-.04-.12-.08s-.02-.1,0-.16l.11-.34c.02-.06.06-.12.11-.16.05-.04.11-.06.17-.06h.98c.5.02.88.12,1.14.31.27.19.42.46.47.82.04.36-.02.81-.2,1.34l-.82,2.42h.32c.06,0,.1.03.12.07.02.04.02.1,0,.16l-.11.34c-.02.07-.06.12-.11.16-.05.04-.11.06-.16.06l-3.62-.06Z"/>
          <path class="cls-11" d="M505.16,485.69c-.77-.01-1.26-.23-1.46-.67s-.17-1.03.09-1.79l1.04-3.09c.02-.06.06-.12.11-.16s.11-.06.16-.06h.35c.06,0,.11.03.13.07.02.04.02.1,0,.16l-1.02,3.04c-.18.53-.2.94-.06,1.23.14.29.45.44.93.45s.87-.12,1.19-.38.56-.65.75-1.18c.03-.07.06-.17.11-.3.04-.13.09-.27.13-.41l.1-.31c.17-.55.2-.95.09-1.2-.11-.25-.32-.38-.63-.39-.1,0-.22.02-.36.05s-.26.09-.37.15c-.06.03-.12.03-.17,0-.05-.03-.06-.08-.04-.15l.1-.31c.02-.07.05-.12.08-.17.03-.05.08-.09.14-.13.14-.08.29-.14.44-.19s.34-.07.55-.07c.37,0,.66.09.86.26.2.17.31.42.34.75.02.34-.05.77-.22,1.3-.02.07-.05.18-.1.34l-.16.48c-.06.16-.1.28-.12.35-.18.5-.4.92-.67,1.27-.27.35-.59.61-.96.79-.37.17-.82.26-1.34.25Z"/>
          <path class="cls-11" d="M508.46,485.64c-.05,0-.09-.02-.11-.07-.02-.05-.02-.1.01-.17l2.36-4.82c.03-.07.08-.12.13-.15.05-.04.11-.05.16-.03l.34.02c.06,0,.09.04.11.09s.01.11-.02.17l-2.28,4.74c-.03.07-.07.12-.13.17-.06.05-.12.07-.17.07h-.39ZM512.26,480.85l-2.1-.03c-.06,0-.11-.02-.13-.07-.02-.04-.02-.1,0-.16l.12-.36c.02-.06.06-.12.11-.16.05-.04.11-.06.17-.06l2.2.03c.36,0,.64.11.86.3.22.19.34.47.38.83.04.36-.03.79-.19,1.3l-1,3c-.02.07-.06.12-.11.16-.05.04-.11.06-.17.06l-2.24-.03c-.06,0-.1-.02-.12-.07-.02-.04-.02-.1,0-.16l.11-.34c.02-.07.06-.12.11-.16s.11-.06.16-.06l1.65.03.79-2.38c.11-.34.16-.63.14-.88s-.09-.45-.22-.58c-.13-.14-.31-.21-.53-.21Z"/>
          <path class="cls-11" d="M517.26,480.91c-.06,0-.1-.02-.12-.07s-.02-.1,0-.16l.11-.34c.02-.06.06-.12.11-.16.05-.04.11-.06.16-.06l3.71.06c.06,0,.1.02.12.07.02.04.02.1,0,.16l-.11.34c-.02.07-.06.12-.11.16-.05.04-.11.06-.16.06l-3.72-.06ZM518,485.79c-.13,0-.17-.08-.12-.22l1.17-3.53c.13-.39.27-.69.42-.91.15-.22.29-.32.41-.32h.85c-.14.01-.3.13-.48.38-.17.25-.32.56-.44.92l-1.14,3.46c-.02.07-.06.12-.11.16-.05.04-.11.06-.17.06h-.39Z"/>
          <path class="cls-11" d="M521.94,485.34c-.27.16-.51.29-.73.37s-.43.15-.65.19c-.06,0-.11,0-.14-.02-.03-.02-.04-.06-.02-.13l.16-.49c.04-.11.12-.19.26-.25.05-.02.13-.05.26-.09.12-.04.26-.09.41-.15s.28-.12.39-.18c.18-.1.37-.24.56-.4.19-.17.37-.34.52-.52.16-.18.26-.34.3-.48l.52-.06c-.1.28-.25.57-.45.86-.2.29-.42.55-.67.78-.25.23-.49.42-.74.57ZM522.9,485.86c-.06,0-.1-.02-.11-.07-.02-.04-.02-.1-.01-.16l.47-3.04c.06-.35.09-.64.08-.88s-.05-.41-.14-.54c-.09-.12-.25-.19-.47-.19h-.31c-.06,0-.1-.03-.12-.07-.02-.04-.02-.1,0-.16l.12-.36c.02-.06.06-.12.11-.16s.11-.06.16-.06h.32c.39.01.67.1.85.28.18.18.28.44.31.79.03.35,0,.79-.08,1.31l-.49,3.09c-.01.07-.04.12-.1.16-.06.04-.12.06-.17.06h-.42Z"/>
          <path class="cls-11" d="M524.42,485.89c-.06,0-.1-.02-.12-.07s-.02-.1,0-.16l.11-.34c.02-.07.06-.12.11-.16.05-.04.11-.06.16-.06l2.45.04-.2.6c-.02.07-.06.11-.1.14-.05.03-.1.04-.16.04l-2.25-.03ZM526.33,485.92c-.06,0-.1-.02-.11-.07-.02-.04-.02-.1-.01-.16l.84-3.05c.09-.32.16-.6.21-.84.05-.24.04-.42-.03-.56-.06-.13-.22-.2-.47-.21h-.35c-.06,0-.1-.03-.12-.07-.02-.04-.02-.1,0-.16l.11-.34c.02-.06.06-.12.11-.16s.11-.06.16-.06h.36c.33.01.58.07.74.18.17.11.27.27.32.48s.04.46,0,.75c-.05.29-.12.61-.22.97l-.85,3.08c-.02.07-.05.12-.11.16-.05.04-.11.06-.17.06h-.42Z"/>
          <path class="cls-11" d="M531.04,483.68c-.06,0-.1-.02-.12-.07-.02-.04-.02-.1,0-.16l.95-2.89c.02-.06.06-.12.11-.16.05-.04.11-.06.16-.06h.42c.06,0,.1.03.12.07.02.04.02.1,0,.16l-.94,2.89c-.02.07-.06.12-.11.16-.05.04-.1.06-.16.06h-.42Z"/>
          <path class="cls-11" d="M534.98,486.05c-.06,0-.1-.02-.12-.07-.02-.04-.02-.1,0-.16l.96-2.95c.17-.53.19-.94.05-1.23s-.46-.45-.97-.46l-1.13-.02c-.06,0-.1-.02-.12-.07s-.02-.1,0-.16l.11-.34c.02-.06.06-.12.11-.16.05-.04.11-.06.16-.06l1.18.02c.5,0,.88.1,1.15.29.27.18.43.45.47.81.05.36-.02.81-.19,1.34l-.98,3c-.02.07-.06.12-.11.16s-.11.06-.16.06h-.39Z"/>
          <path class="cls-11" d="M537.06,486.08c-.06,0-.1-.02-.12-.07-.02-.04-.02-.1,0-.16l1.68-5.18c.02-.06.06-.12.11-.16s.11-.06.16-.06h.41c.06,0,.11.03.13.07.02.04.02.1,0,.16l-1.68,5.18c-.02.07-.06.12-.11.16-.05.04-.1.06-.17.06h-.41Z"/>
          <path class="cls-11" d="M540.32,485.62c-.27.16-.51.29-.73.37s-.43.15-.65.19c-.06,0-.11,0-.14-.02-.03-.02-.04-.06-.02-.13l.16-.49c.04-.11.12-.19.26-.25.05-.02.13-.05.26-.09.12-.04.26-.09.41-.15.15-.06.28-.12.39-.18.18-.1.36-.24.56-.4.19-.17.37-.34.52-.52s.25-.34.3-.48l.53-.06c-.1.28-.24.57-.44.86-.2.29-.42.55-.66.78s-.49.42-.73.57ZM541.28,486.14c-.06,0-.1-.02-.11-.07-.02-.04-.02-.1-.01-.16l.45-3.04c.05-.35.08-.64.08-.88s-.05-.41-.14-.54c-.09-.12-.25-.19-.47-.19h-.31c-.06,0-.1-.03-.12-.07-.02-.04-.02-.1,0-.16l.12-.36c.02-.06.06-.12.11-.16.05-.04.11-.06.16-.06h.32c.39.01.67.1.85.28.18.18.29.44.31.79.03.35,0,.79-.07,1.31l-.47,3.09c-.01.07-.04.12-.1.16-.06.04-.12.06-.17.06h-.42Z"/>
          <path class="cls-11" d="M544.05,481.31c-.06,0-.1-.02-.12-.07-.02-.04-.03-.1,0-.16l.11-.34c.02-.06.06-.12.11-.16s.11-.06.16-.06l2.1.03c.06,0,.11.02.13.07.02.04.02.1,0,.16l-.11.34c-.02.07-.06.12-.1.16-.05.04-.1.06-.17.06l-2.1-.03ZM543.22,486.17c-.13,0-.17-.08-.12-.22l1.14-3.53c.12-.39.26-.69.41-.91.15-.22.28-.32.4-.32h.86c-.14.01-.3.13-.47.38-.17.25-.31.56-.43.93l-1.11,3.46c-.02.07-.06.12-.11.16-.05.04-.11.06-.17.06h-.39Z"/>
          <path class="cls-11" d="M550.48,486.28c-.06,0-.1-.02-.12-.07s-.03-.1,0-.16l.95-2.95c.17-.53.18-.94.05-1.23s-.46-.45-.98-.46l-1.13-.02c-.06,0-.1-.02-.12-.07-.02-.04-.03-.1,0-.16l.11-.34c.02-.06.06-.12.11-.16s.11-.06.16-.06l1.18.02c.5,0,.88.1,1.15.29.27.18.43.45.48.81.05.36-.01.81-.19,1.34l-.96,3c-.02.07-.06.12-.11.16-.05.04-.11.06-.16.06h-.39Z"/>
          <path class="cls-11" d="M552.56,486.32c-.06,0-.1-.02-.12-.07-.02-.04-.03-.1,0-.16l1.66-5.18c.02-.06.06-.12.11-.16.05-.04.11-.06.16-.06h.41c.06,0,.11.03.13.07.02.04.02.1,0,.16l-1.65,5.18c-.02.07-.06.12-.1.16-.05.04-.1.06-.17.06h-.41Z"/>
          <path class="cls-11" d="M554.49,486.35c-.06,0-.1-.02-.12-.07s-.03-.1,0-.16l.47-1.48c.1-.3.21-.59.35-.86s.33-.53.56-.78c.23-.25.54-.47.91-.69l.19.67c-.26.15-.47.32-.63.51-.17.19-.3.39-.4.6s-.18.41-.24.6l-.46,1.44c-.02.07-.06.12-.11.16-.05.04-.11.06-.16.06h-.35ZM557.88,486.4c-.06,0-.11-.02-.13-.06l-.06-.11-1.57-5.13c-.02-.07-.02-.14,0-.19s.05-.1.1-.14c.05-.04.1-.06.15-.06h.41c.06,0,.11.03.13.07.03.04.04.08.06.11l1.58,5.13s.01.08.01.11,0,.05-.01.08c-.02.05-.05.1-.1.14s-.09.06-.14.06h-.42ZM557.76,484.58l-.14-.69c.33-.15.58-.3.75-.47s.3-.33.38-.51c.08-.18.15-.37.21-.57l.43-1.36c.02-.06.06-.12.11-.16.05-.04.11-.06.16-.06h.36c.06,0,.1.03.12.07s.03.1,0,.16l-.45,1.41c-.09.28-.2.54-.34.8s-.33.5-.58.72c-.25.22-.59.44-1.03.65Z"/>
          <path class="cls-11" d="M559.58,486.42c-.05,0-.09-.02-.11-.07-.02-.05-.02-.1,0-.17l2.27-4.83c.03-.07.07-.12.13-.15.05-.04.1-.05.16-.03l.34.02c.06,0,.09.04.11.09s.01.11-.02.17l-2.2,4.74c-.03.07-.07.12-.13.17-.06.05-.12.07-.17.07h-.39ZM563.3,481.63l-2.11-.03c-.06,0-.11-.02-.13-.07-.02-.04-.02-.1,0-.16l.11-.36c.02-.06.06-.12.1-.16.05-.04.1-.06.17-.06l2.2.03c.36,0,.65.11.87.3.22.19.35.47.4.83.05.36-.01.8-.17,1.3l-.95,3c-.02.07-.06.12-.1.16-.05.04-.1.06-.17.06l-2.24-.03c-.06,0-.1-.02-.12-.07-.02-.04-.03-.1,0-.16l.11-.34c.02-.07.06-.12.11-.16s.11-.06.16-.06l1.65.03.75-2.38c.11-.34.15-.63.13-.88s-.1-.45-.23-.58c-.13-.14-.31-.21-.53-.21Z"/>
          <path class="cls-11" d="M569.74,486.58c-.06,0-.1-.02-.12-.07-.02-.04-.03-.1,0-.16l.93-2.96c.16-.53.18-.94.04-1.23s-.47-.45-.98-.46l-1.14-.02c-.06,0-.1-.02-.12-.07s-.03-.1,0-.16l.11-.34c.02-.06.06-.12.11-.16.05-.04.11-.06.16-.06l1.18.02c.5,0,.88.1,1.15.29.27.18.43.45.48.81.05.36,0,.81-.18,1.34l-.94,3c-.02.07-.06.12-.11.16s-.11.06-.16.06h-.39Z"/>
          <path class="cls-11" d="M572.99,481.5s-.08-.02-.09-.06,0-.09.02-.15l.64-1.41c.04-.08.08-.15.14-.2.05-.06.12-.08.19-.08h.58s.07.03.08.06.02.07,0,.11c-.02.05-.04.11-.08.16l-.87,1.34c-.04.06-.09.12-.14.16-.05.04-.11.06-.18.06h-.29ZM574.37,481.52c-.05,0-.08-.02-.09-.06s0-.09.02-.15l.64-1.41c.04-.08.08-.15.13-.2s.12-.08.2-.08h.57s.08.03.09.06.02.07,0,.11c-.02.05-.04.11-.08.16l-.87,1.34c-.04.06-.09.12-.14.16-.05.04-.11.06-.19.06h-.28Z"/>
          <path class="cls-11" d="M576.8,486.78c-.72-.01-1.2-.23-1.41-.67s-.21-1.05.04-1.83l.95-3.04c.02-.06.06-.12.11-.16s.1-.06.16-.06l2.09.03c.51,0,.9.1,1.15.29.25.18.39.45.43.79.03.35-.02.78-.16,1.28-.02.07-.04.17-.09.32l-.13.44c-.04.14-.08.25-.11.32-.17.5-.38.93-.65,1.28-.27.35-.59.61-.98.79-.39.17-.85.26-1.39.25ZM577.05,485.97c.55,0,.98-.12,1.29-.37.31-.26.55-.65.72-1.19.03-.07.06-.16.1-.3l.12-.38c.04-.13.07-.22.08-.29.15-.53.14-.93-.03-1.2-.17-.27-.47-.41-.89-.42l-1.48-.02-.77,2.48c-.16.53-.18.94-.04,1.23.14.29.44.44.9.45Z"/>
          <path class="cls-11" d="M582.98,486.78c-.06,0-.1-.02-.12-.07s-.03-.1,0-.16l.91-2.96c.16-.53.17-.94.03-1.23s-.47-.45-.98-.46l-1.14-.02c-.06,0-.1-.02-.12-.07-.02-.04-.03-.1,0-.16l.1-.34c.02-.07.06-.12.11-.16s.1-.06.16-.06l1.18.02c.5,0,.88.1,1.15.29.27.18.43.45.49.81.05.36,0,.81-.17,1.34l-.93,3.01c-.02.07-.06.12-.11.16-.05.04-.1.06-.16.06h-.39Z"/>
        </g>
        <polygon class="cls-10" points="587.21 500.35 389.31 497.31 389.6 496.54 587.44 499.58 587.21 500.35"/>
      </g>
      <g>
        <path class="cls-11" d="M457.28,353.45c-.05,0-.09-.02-.11-.05s-.02-.08,0-.13l1.63-4.42-1.72.99c-.06.03-.11.04-.15.04-.05,0-.08-.03-.1-.07l-.11-.26s0-.1.02-.14c.03-.05.07-.09.12-.12l2.26-1.3s.09-.04.12-.05c.03,0,.07,0,.11,0h.41c.05,0,.09.02.11.06.02.03.02.08,0,.13l-1.91,5.15c-.02.05-.05.1-.1.13s-.1.05-.15.05h-.43Z"/>
        <path class="cls-11" d="M460.9,353.58c-.34,0-.62-.05-.85-.13-.22-.09-.4-.2-.52-.34-.12-.14-.2-.29-.23-.46s-.01-.33.04-.5c.02-.05.05-.08.09-.11.04-.03.09-.04.14-.04h.4s.09.02.12.04c.03.02.05.07.04.14-.02.19.02.34.12.45.09.11.22.18.38.22.16.04.33.06.51.07.37,0,.71-.08,1.01-.25.3-.17.51-.42.63-.76s.11-.59-.05-.74-.42-.23-.8-.23h-.77c-.05-.01-.09-.03-.12-.06-.02-.03-.02-.08,0-.14l.08-.21s.04-.09.07-.12.06-.06.09-.09l2.19-1.65-2.39-.03c-.05,0-.09-.02-.12-.05-.02-.03-.02-.08,0-.13l.11-.3c.02-.06.06-.1.1-.14.05-.03.1-.05.15-.05l3.23.04c.06,0,.1.02.12.05.02.03.02.08,0,.14l-.1.28s-.04.07-.06.1c-.03.03-.06.06-.09.08l-2.19,1.67h.13c.35.03.64.09.87.21.23.12.37.29.43.52.06.23.03.52-.09.87s-.33.65-.6.9c-.27.25-.59.43-.95.56-.36.13-.74.19-1.14.19Z"/>
        <path class="cls-11" d="M465.16,350.79c-.05,0-.09-.02-.11-.05-.02-.03-.02-.08,0-.13l.2-.55c.02-.05.05-.1.1-.13.05-.03.1-.05.15-.05h.58c.05,0,.09.03.12.06.02.04.02.08,0,.13l-.2.55c-.02.05-.05.1-.1.13s-.1.05-.15.05h-.58ZM464.14,353.55c-.05,0-.09-.02-.12-.05-.02-.03-.02-.08,0-.13l.2-.55c.02-.05.05-.1.1-.13.05-.03.1-.05.15-.05h.58c.05,0,.09.03.12.06s.02.08,0,.13l-.2.55c-.02.05-.05.1-.1.13s-.1.05-.15.05h-.58Z"/>
        <path class="cls-11" d="M467.72,353.6c-.05,0-.09-.02-.12-.05s-.02-.08,0-.13l1.62-4.42-1.72.99c-.06.03-.11.04-.15.04-.05,0-.08-.03-.1-.07l-.12-.26s-.01-.1.02-.14c.03-.05.07-.09.12-.12l2.25-1.3s.09-.04.12-.05c.03,0,.07,0,.11,0h.41c.05,0,.09.02.12.06.02.03.02.08,0,.13l-1.89,5.16c-.02.05-.05.1-.1.13s-.1.05-.15.05h-.43Z"/>
        <path class="cls-11" d="M471.19,353.65c-.05,0-.09-.02-.12-.05s-.02-.08,0-.13l1.61-4.42-1.71.99c-.06.03-.11.04-.15.04-.05,0-.08-.03-.1-.07l-.12-.26s-.01-.1.02-.14c.03-.05.07-.09.12-.12l2.25-1.3s.09-.04.12-.05c.03,0,.07,0,.11,0h.41c.05,0,.09.02.12.06.02.03.02.08,0,.13l-1.88,5.16c-.02.05-.05.1-.1.13s-.1.05-.15.05h-.43Z"/>
      </g>
      <g>
        <path class="cls-11" d="M444.37,383.39c-.05,0-.09-.02-.12-.05s-.02-.08,0-.13l1.67-4.51-1.74,1.01c-.06.03-.11.04-.15.04-.05,0-.08-.03-.1-.07l-.11-.27s0-.1.02-.15c.03-.05.07-.09.12-.12l2.29-1.33s.09-.04.12-.05c.03,0,.07,0,.11,0h.42c.05,0,.09.02.12.06.02.04.02.08,0,.13l-1.95,5.27c-.02.05-.05.1-.1.13s-.1.05-.15.05h-.44Z"/>
        <path class="cls-11" d="M448.04,383.52c-.34,0-.63-.05-.86-.14-.23-.09-.4-.2-.52-.34-.12-.14-.2-.3-.23-.47s-.01-.34.05-.51c.02-.05.05-.09.09-.12.04-.03.09-.04.14-.04h.4s.09.02.12.04c.03.02.05.07.04.14-.02.19.02.35.12.46.09.11.22.19.39.23.16.04.33.07.52.07.38,0,.72-.08,1.02-.25.3-.17.51-.43.64-.78s.11-.6-.04-.75-.43-.23-.8-.24h-.78c-.05-.01-.09-.03-.12-.06-.02-.03-.02-.08,0-.14l.08-.22s.04-.09.08-.12.06-.06.1-.09l2.22-1.68-2.42-.03c-.05,0-.09-.02-.12-.05-.02-.03-.02-.08,0-.14l.11-.31c.02-.06.06-.11.11-.14.05-.03.1-.05.15-.05l3.27.05c.06,0,.1.02.12.05.02.04.02.08,0,.14l-.11.29s-.04.07-.07.1c-.03.03-.06.06-.09.08l-2.22,1.71h.13c.36.03.65.09.88.22.23.12.37.3.44.54.06.24.03.53-.1.89s-.34.67-.61.92c-.27.25-.59.44-.96.57-.37.13-.75.2-1.16.19Z"/>
        <path class="cls-11" d="M452.35,380.66c-.05,0-.09-.02-.12-.05-.02-.04-.02-.08,0-.13l.21-.56c.02-.05.05-.1.1-.13.05-.03.1-.05.15-.05h.59c.05,0,.09.03.12.06.02.04.02.08,0,.13l-.21.56c-.02.05-.05.1-.1.13s-.1.05-.15.05h-.59ZM451.31,383.48c-.05,0-.09-.02-.12-.05-.02-.04-.02-.08,0-.13l.21-.56c.02-.05.05-.1.1-.13.05-.03.1-.05.15-.05h.59c.05,0,.09.03.12.06s.02.08,0,.13l-.21.56c-.02.05-.05.1-.1.13s-.1.05-.15.05h-.59Z"/>
        <path class="cls-11" d="M455.08,383.62c-.34,0-.63-.05-.86-.14-.23-.09-.4-.2-.53-.34-.12-.14-.2-.3-.23-.47s-.01-.34.05-.51c.02-.05.05-.09.09-.12.04-.03.09-.04.14-.04h.4s.09.02.12.04c.03.02.05.07.04.14-.02.19.02.35.12.46.09.11.22.19.39.23.16.04.33.07.52.07.38,0,.72-.08,1.02-.25.3-.17.51-.43.64-.78s.11-.6-.05-.75-.43-.23-.8-.24h-.78c-.05-.01-.09-.03-.12-.06-.02-.03-.02-.08,0-.14l.08-.22s.04-.09.07-.12.06-.07.1-.09l2.22-1.68-2.42-.03c-.05,0-.09-.02-.12-.05-.02-.03-.02-.08,0-.14l.11-.31c.02-.06.06-.11.11-.14.05-.03.1-.05.15-.05l3.27.05c.06,0,.1.02.12.05.02.04.02.08,0,.14l-.11.29s-.04.07-.07.1c-.03.03-.06.06-.09.08l-2.22,1.71h.13c.36.03.65.09.88.22.23.12.37.3.44.54.06.24.03.53-.1.89s-.33.67-.61.92c-.27.25-.59.44-.96.57-.37.13-.75.2-1.16.19Z"/>
        <path class="cls-11" d="M460.17,383.69c-.38,0-.68-.07-.89-.19-.22-.12-.37-.28-.46-.49s-.12-.44-.1-.71.08-.54.18-.84c.05-.15.1-.3.16-.46.06-.16.12-.32.18-.49s.13-.32.19-.48c.11-.29.26-.57.43-.84.18-.26.38-.49.62-.69.24-.2.51-.35.81-.47.3-.11.64-.17,1.01-.16s.67.07.89.19c.22.12.37.28.46.48.09.2.13.44.11.7-.02.26-.08.54-.18.84-.05.15-.1.31-.16.48s-.12.33-.18.49c-.06.16-.12.31-.18.46-.11.3-.26.57-.43.84s-.38.49-.62.7c-.24.2-.51.36-.81.47-.3.11-.65.17-1.03.16ZM460.42,383c.43,0,.79-.13,1.1-.4s.55-.65.73-1.12c.07-.16.13-.31.18-.46l.16-.44c.05-.15.1-.29.14-.44.16-.47.2-.84.09-1.13s-.37-.43-.79-.44-.79.13-1.09.41c-.31.28-.55.65-.73,1.12-.05.15-.11.29-.16.44-.06.15-.11.3-.16.44s-.11.3-.16.46c-.16.48-.19.86-.08,1.13s.37.42.79.42Z"/>
      </g>
      <g>
        <path class="cls-11" d="M435.6,413.96c-.06,0-.09-.02-.12-.06s-.02-.08,0-.14l1.71-4.61-1.77,1.03c-.06.03-.11.05-.16.04-.05,0-.08-.03-.1-.08l-.11-.28s0-.1.02-.15c.03-.05.07-.09.12-.12l2.32-1.36s.09-.04.13-.05c.04,0,.07,0,.11,0h.42c.06,0,.09.03.12.06.02.04.02.08,0,.14l-1.99,5.39c-.02.06-.06.1-.1.14s-.1.05-.16.05h-.44Z"/>
        <path class="cls-11" d="M439.31,414.09c-.35,0-.64-.05-.87-.14-.23-.09-.41-.21-.53-.35-.12-.15-.2-.31-.23-.48s-.01-.35.05-.53c.02-.05.05-.09.09-.12.04-.03.09-.04.14-.04h.41s.09.02.12.05c.03.03.05.07.04.15-.02.2.02.35.12.47.09.11.22.19.39.23.16.04.34.07.52.07.38,0,.73-.08,1.03-.26.3-.18.52-.44.65-.79s.12-.61-.04-.77-.43-.24-.81-.24h-.79c-.06-.01-.09-.03-.12-.06-.02-.03-.02-.08,0-.14l.08-.22s.04-.09.08-.13.06-.07.1-.09l2.25-1.72-2.45-.04c-.06,0-.09-.02-.12-.05-.02-.03-.02-.08,0-.14l.12-.31c.02-.06.06-.11.11-.14.05-.03.1-.05.16-.05l3.31.05c.06,0,.1.02.13.06.02.04.02.08,0,.14l-.11.3s-.04.07-.07.1c-.03.03-.06.06-.09.09l-2.25,1.75h.13c.36.03.66.1.89.22.23.13.38.31.44.55.06.24.03.54-.1.91s-.34.68-.62.94c-.28.26-.6.45-.97.59-.37.14-.76.2-1.17.19Z"/>
        <path class="cls-11" d="M443.68,411.17c-.06,0-.09-.02-.12-.06-.02-.04-.02-.08,0-.14l.21-.58c.02-.05.05-.1.1-.14.05-.03.1-.05.16-.05h.6c.06,0,.09.03.12.06.02.04.02.08,0,.14l-.21.58c-.02.05-.05.1-.1.14s-.1.05-.16.05h-.6ZM442.62,414.06c-.06,0-.09-.02-.12-.06-.02-.04-.02-.08,0-.14l.21-.58c.02-.06.05-.1.1-.14.05-.04.1-.05.16-.05h.6c.06,0,.09.03.12.06s.02.08,0,.14l-.21.58c-.02.06-.05.1-.1.14s-.1.05-.16.05h-.6Z"/>
        <path class="cls-11" d="M446.27,414.11c-.06,0-.09-.02-.12-.06s-.02-.08,0-.14l1.69-4.62-1.76,1.03c-.06.03-.11.05-.16.04-.05,0-.08-.03-.1-.08l-.12-.28s0-.1.02-.15c.03-.05.07-.09.12-.12l2.31-1.36s.09-.04.13-.05c.04,0,.07,0,.11,0h.42c.06,0,.09.03.12.06.02.04.02.08,0,.14l-1.97,5.39c-.02.06-.05.1-.1.14s-.1.05-.16.05h-.44Z"/>
        <path class="cls-11" d="M450.14,414.25c-.32,0-.6-.05-.84-.13s-.43-.2-.56-.36c-.13-.16-.22-.34-.24-.56-.03-.21,0-.45.11-.72.12-.34.31-.62.56-.86.25-.24.54-.42.85-.54-.17-.13-.28-.3-.33-.5-.05-.21-.02-.45.08-.73.12-.33.3-.61.55-.83.25-.23.54-.4.88-.52.34-.12.71-.18,1.1-.17s.71.07.96.2c.25.13.42.31.49.54.08.23.06.51-.06.83-.1.28-.25.52-.45.73-.2.2-.42.37-.68.49.22.13.37.32.45.56.07.24.05.53-.07.87-.13.36-.33.67-.61.92-.28.26-.61.46-.98.59-.38.14-.78.2-1.21.19ZM450.39,413.59c.25,0,.5-.04.74-.12s.45-.21.63-.37c.18-.16.31-.35.39-.57s.09-.42.03-.58c-.07-.16-.18-.28-.36-.37-.17-.09-.39-.13-.64-.14s-.5.04-.74.12c-.24.08-.45.2-.63.36-.18.15-.31.34-.39.57s-.09.41-.03.58c.06.16.18.29.36.38.18.09.39.14.65.14ZM451.4,410.79c.21,0,.42-.03.63-.11.21-.07.39-.18.55-.31.16-.13.27-.29.34-.48s.08-.35.02-.49c-.05-.14-.16-.25-.31-.32-.15-.08-.34-.12-.56-.12s-.43.03-.64.1-.39.17-.54.31c-.16.14-.27.3-.33.48s-.08.36-.02.49c.06.14.16.24.31.32s.34.11.56.12Z"/>
      </g>
      <g>
        <path class="cls-11" d="M422.13,449.11c-.06,0-.1-.02-.12-.06s-.02-.08,0-.14l1.75-4.73-1.79,1.06c-.06.03-.11.05-.16.04-.05,0-.08-.03-.1-.08l-.11-.28c-.02-.05,0-.1.02-.15.03-.05.07-.09.13-.13l2.35-1.39s.09-.04.13-.05c.04,0,.07,0,.11,0h.43c.06,0,.1.03.12.06.02.04.02.08,0,.14l-2.04,5.53c-.02.06-.06.1-.11.14s-.1.05-.16.05h-.45Z"/>
        <path class="cls-11" d="M425.89,449.25c-.35,0-.65-.05-.88-.15s-.41-.21-.53-.36c-.12-.15-.2-.31-.23-.49-.03-.18,0-.36.05-.54.02-.05.05-.09.1-.12s.09-.05.14-.04h.41c.05,0,.09.02.12.05.03.03.05.08.04.15-.02.2.02.36.12.48s.23.19.39.24c.17.05.34.07.53.07.39,0,.73-.08,1.04-.27.31-.18.53-.45.66-.82s.12-.63-.04-.79-.43-.24-.82-.25h-.8c-.06-.01-.1-.03-.12-.06s-.02-.08,0-.14l.08-.23c.02-.05.04-.09.08-.13s.07-.07.1-.1l2.29-1.77-2.48-.04c-.06,0-.1-.02-.12-.05-.02-.03-.02-.08,0-.14l.12-.32c.02-.06.06-.11.11-.15.05-.04.1-.05.16-.05l3.35.05c.06,0,.1.02.13.06.02.04.02.09,0,.15l-.11.3s-.04.07-.07.1c-.03.03-.06.06-.1.09l-2.29,1.79h.13c.37.03.66.1.9.23.23.13.38.32.44.56s.03.56-.11.93-.35.7-.63.96c-.28.26-.61.46-.99.6-.38.14-.77.21-1.19.2Z"/>
        <path class="cls-11" d="M430.33,446.26c-.06,0-.1-.02-.12-.06-.02-.04-.02-.08,0-.14l.22-.59c.02-.06.06-.1.11-.14.05-.04.1-.05.16-.05h.6c.06,0,.1.03.12.07s.02.08,0,.14l-.22.59c-.02.06-.06.1-.11.14s-.1.05-.16.05h-.6ZM429.24,449.22c-.06,0-.1-.02-.12-.06-.02-.04-.02-.08,0-.14l.22-.59c.02-.06.06-.1.11-.14.05-.04.1-.05.16-.05h.61c.06,0,.1.03.12.07s.02.08,0,.14l-.22.59c-.02.06-.06.1-.11.14s-.1.05-.16.05h-.61Z"/>
        <path class="cls-11" d="M431.22,449.25c-.06,0-.1-.02-.12-.06s-.02-.08,0-.14l.1-.27c.02-.05.05-.11.1-.17.05-.06.13-.13.24-.2l2.44-1.77c.37-.24.68-.44.9-.61.23-.17.41-.33.53-.49.13-.16.22-.32.28-.49.12-.32.12-.58.01-.77-.11-.19-.34-.29-.69-.29-.22,0-.43.04-.63.13-.2.09-.37.21-.52.37-.15.16-.28.34-.38.54-.04.07-.09.12-.14.15-.06.03-.11.04-.15.04h-.44c-.05,0-.09-.02-.11-.06-.02-.03-.03-.07,0-.11.08-.21.21-.43.37-.64.16-.22.36-.41.59-.58.23-.18.49-.31.77-.42.28-.1.59-.15.91-.15.44,0,.77.09,1,.26.22.16.35.38.39.65s0,.56-.12.87c-.09.25-.22.47-.37.68s-.35.4-.58.59-.5.39-.81.59l-2.22,1.63,2.62.04c.06,0,.1.02.13.05s.02.08,0,.15l-.13.35c-.02.06-.06.1-.11.14s-.11.05-.17.05l-3.71-.06Z"/>
        <path class="cls-11" d="M436.16,449.32c-.06,0-.1-.02-.12-.06s-.02-.08,0-.14l.1-.27c.02-.05.05-.11.1-.17.05-.06.13-.13.24-.2l2.44-1.77c.37-.24.67-.44.9-.61.23-.17.41-.33.53-.49.13-.16.22-.32.28-.49.12-.32.12-.58,0-.77-.11-.19-.34-.29-.69-.29-.22,0-.43.04-.63.13-.2.09-.37.21-.52.37-.15.16-.28.34-.38.54-.04.07-.09.12-.14.15-.06.03-.11.04-.15.04h-.44c-.05,0-.09-.02-.11-.06-.02-.03-.03-.07,0-.11.08-.21.21-.43.37-.64.16-.22.36-.41.59-.58.23-.18.49-.31.77-.42.28-.1.59-.15.91-.15.44,0,.77.09,1,.26.22.16.36.38.39.65s0,.56-.11.87c-.09.25-.21.47-.37.68s-.35.4-.58.59-.5.39-.81.59l-2.21,1.63,2.62.04c.06,0,.1.02.13.05s.03.08,0,.15l-.13.35c-.02.06-.06.1-.11.14s-.11.05-.17.05l-3.71-.06Z"/>
      </g>
      <g>
        <path class="cls-11" d="M409.15,483.62c-.06,0-.1-.02-.12-.06s-.02-.09,0-.14l1.8-4.85-1.82,1.09c-.06.03-.11.05-.16.04-.05,0-.08-.03-.1-.08l-.11-.29c-.01-.05,0-.1.02-.16.03-.05.07-.1.13-.13l2.39-1.42c.05-.03.09-.05.13-.05.04,0,.07,0,.11,0h.43c.06,0,.1.03.12.06.02.04.02.09,0,.14l-2.09,5.66c-.02.06-.06.11-.11.14s-.1.06-.16.05h-.45Z"/>
        <path class="cls-11" d="M412.95,483.77c-.36,0-.65-.06-.89-.15-.23-.09-.41-.22-.54-.37-.13-.15-.2-.32-.23-.51s0-.37.05-.55c.02-.05.05-.09.1-.13s.09-.05.15-.05h.42c.05,0,.09.02.13.05.03.03.05.08.04.15-.02.21.02.37.11.49.1.12.23.2.4.25.17.05.35.07.53.07.39,0,.74-.08,1.06-.27.31-.19.54-.46.68-.84s.13-.64-.04-.81-.44-.25-.83-.26h-.81c-.06-.01-.1-.03-.12-.07-.02-.03-.02-.08,0-.15l.09-.23c.02-.05.05-.1.08-.13s.07-.07.1-.1l2.32-1.81-2.51-.04c-.06,0-.1-.02-.12-.05s-.02-.08,0-.15l.12-.33c.02-.06.06-.11.11-.15.05-.04.1-.05.16-.05l3.39.05c.06,0,.1.02.13.06.02.04.02.09,0,.15l-.11.31s-.04.08-.07.11c-.03.03-.06.06-.1.09l-2.32,1.83h.13c.37.03.67.1.9.23.23.13.38.32.45.58s.02.57-.12.95-.36.72-.64.98c-.29.27-.62.47-1,.62-.38.14-.78.21-1.2.2Z"/>
        <path class="cls-11" d="M417.46,480.7c-.06,0-.1-.02-.12-.06-.02-.04-.02-.09,0-.14l.22-.6c.02-.06.06-.1.11-.14.05-.04.1-.05.16-.05h.61c.06.01.1.03.12.07.02.04.02.09,0,.14l-.22.6c-.02.06-.06.1-.11.14s-.1.06-.16.05h-.61ZM416.34,483.73c-.06,0-.1-.02-.12-.06-.02-.04-.02-.09,0-.14l.22-.61c.02-.06.06-.11.11-.14.05-.04.1-.06.16-.05h.61c.06.01.1.03.12.07s.02.09,0,.14l-.22.61c-.02.06-.06.11-.11.14s-.1.06-.16.05h-.61Z"/>
        <path class="cls-11" d="M418.35,483.76c-.06,0-.1-.02-.12-.06s-.02-.09,0-.14l.1-.28c.02-.05.05-.11.11-.17.05-.06.13-.13.25-.21l2.48-1.81c.38-.24.69-.45.92-.63.23-.17.41-.34.54-.5.13-.16.23-.33.29-.5.12-.33.13-.59.01-.79-.11-.2-.34-.3-.7-.3-.23,0-.44.04-.64.13s-.37.22-.52.38c-.15.16-.28.35-.39.55-.04.07-.09.13-.15.15-.06.03-.11.04-.15.04h-.44c-.05,0-.09-.02-.11-.06-.02-.03-.03-.07,0-.12.09-.22.21-.44.38-.66.17-.22.37-.42.6-.6.23-.18.49-.32.78-.43.29-.11.59-.16.92-.15.45,0,.78.09,1.01.26.23.17.36.39.39.66s0,.57-.12.89c-.09.25-.22.49-.38.69-.16.21-.36.41-.59.61s-.51.4-.82.6l-2.25,1.67,2.65.04c.06,0,.11.02.13.05.02.03.03.08,0,.15l-.13.36c-.02.06-.06.11-.11.14s-.11.06-.17.05l-3.75-.06Z"/>
        <path class="cls-11" d="M425.41,483.96c-.33,0-.62-.05-.86-.14-.25-.09-.44-.21-.57-.38-.14-.16-.22-.36-.25-.58-.03-.22.01-.48.12-.76.13-.35.32-.66.58-.91.26-.25.55-.44.88-.57-.17-.14-.28-.31-.33-.53-.05-.22-.02-.47.09-.77.13-.35.32-.64.57-.87.25-.24.56-.42.91-.55.35-.13.73-.19,1.13-.18s.72.08.98.21c.26.13.42.32.5.57.08.24.06.54-.07.88-.11.29-.26.55-.47.76-.2.22-.44.39-.7.52.23.14.38.33.46.59.07.26.05.56-.08.91-.14.38-.35.7-.64.97-.29.27-.63.48-1.01.62-.39.14-.8.21-1.25.2ZM425.66,483.26c.26,0,.51-.04.76-.13.24-.09.46-.22.65-.39.19-.17.32-.37.41-.6s.1-.44.03-.61c-.07-.17-.19-.3-.36-.39-.18-.09-.4-.14-.66-.15s-.51.04-.76.12c-.24.09-.46.21-.64.37-.19.16-.32.36-.41.6s-.1.43-.03.6c.06.17.18.31.36.4.18.1.4.15.66.15ZM426.73,480.33c.22,0,.43-.03.64-.11.21-.08.4-.19.56-.32.16-.14.28-.3.35-.5s.08-.37.03-.51c-.05-.15-.16-.26-.31-.34-.16-.08-.35-.12-.57-.13s-.45.03-.66.11c-.21.08-.4.18-.56.33-.16.14-.28.31-.35.51s-.08.37-.03.52c.06.14.16.25.32.33s.35.12.58.12Z"/>
      </g>
    </g>
  </g>
  <g id="Layer_6">
    <g>
      <rect class="cls-3" x="268.76" y="310.82" width="125.31" height="40.34" rx="3.91" ry="3.91"/>
      <text class="cls-8" transform="translate(314.76 327.21)"><tspan x="0" y="0">098972950</tspan></text>
      <text class="cls-9" transform="translate(354.78 343.39)"><tspan x="0" y="0">13:30</tspan></text>
    </g>
    <g>
      <rect class="cls-3" x="197.97" y="414.41" width="125.31" height="40.34" rx="3.91" ry="3.91"/>
      <text class="cls-8" transform="translate(236.32 430.8)"><tspan x="0" y="0">0586695478</tspan></text>
      <text class="cls-9" transform="translate(284.43 446.98)"><tspan x="0" y="0">13:26</tspan></text>
    </g>
    <g>
      <rect class="cls-3" x="722.01" y="264.91" width="125.31" height="40.34" rx="3.91" ry="3.91"/>
      <text class="cls-8" transform="translate(762.02 281.3)"><tspan x="0" y="0">0526648512</tspan></text>
      <text class="cls-9" transform="translate(810.14 297.49)"><tspan x="0" y="0">13:19</tspan></text>
    </g>
    <g>
      <rect class="cls-3" x="689.15" y="385.87" width="125.31" height="40.34" rx="3.91" ry="3.91"/>
      <text class="cls-8" transform="translate(779.56 402.26)"><tspan x="0" y="0">1111</tspan></text>
      <text class="cls-9" transform="translate(775.77 418.44)"><tspan x="0" y="0">13:22</tspan></text>
    </g>
    <g>
      <rect class="cls-3" x="646.81" y="510.49" width="125.31" height="40.34" rx="3.91" ry="3.91"/>
      <text class="cls-8" transform="translate(686.25 526.88)"><tspan x="0" y="0">0502265481</tspan></text>
      <text class="cls-9" transform="translate(733.23 543.06)"><tspan x="0" y="0">13:35</tspan></text>
    </g>
  </g>
</svg>