<?xml version="1.0" encoding="UTF-8"?>
<svg xmlns="http://www.w3.org/2000/svg" xmlns:xlink="http://www.w3.org/1999/xlink" viewBox="0 0 1033.74 852.19">
  <defs>
    <style>
      .cls-1 {
        fill: #f4f4f5;
      }

      .cls-2 {
        stroke: #3a6db6;
        stroke-width: 2px;
      }

      .cls-2, .cls-3 {
        fill: #3a6db6;
      }

      .cls-2, .cls-4, .cls-5, .cls-6, .cls-7 {
        stroke-miterlimit: 10;
      }

      .cls-8, .cls-4 {
        fill: #fff;
      }

      .cls-9 {
        fill: #f3fafe;
      }

      .cls-4 {
        stroke: #ddd;
        stroke-width: .79px;
      }

      .cls-10 {
        filter: url(#drop-shadow-1);
      }

      .cls-5 {
        fill: url(#linear-gradient);
        stroke: #999;
      }

      .cls-6 {
        stroke: #3d3a3b;
        stroke-width: .5px;
      }

      .cls-6, .cls-11 {
        fill: #3d3a3b;
      }

      .cls-12 {
        fill: #3a3a3a;
        font-size: 14px;
      }

      .cls-12, .cls-13 {
        font-family: Rubik-Regular, Rubik;
      }

      .cls-13 {
        fill: #ababab;
        font-size: 12px;
      }

      .cls-7 {
        fill: #4d98d3;
        opacity: .35;
        stroke: #4d98d2;
      }

      .cls-14 {
        fill: #d2d2d1;
      }
    </style>
    <linearGradient id="linear-gradient" x1="336.62" y1="444.33" x2="707.72" y2="444.33" gradientUnits="userSpaceOnUse">
      <stop offset="0" stop-color="#c7c8ca"/>
      <stop offset="1" stop-color="#9fa1a4"/>
    </linearGradient>
    <filter id="drop-shadow-1" x="376.45" y="295.13" width="288.24" height="227.28" filterUnits="userSpaceOnUse">
      <feOffset dx="2.83" dy="7"/>
      <feGaussianBlur result="blur" stdDeviation="5"/>
      <feFlood flood-color="#596070" flood-opacity=".15"/>
      <feComposite in2="blur" operator="in"/>
      <feComposite in="SourceGraphic"/>
    </filter>
  </defs>
  <g id="Layer_1" data-name="Layer 1">
    <g>
      <g>
        <path class="cls-5" d="M560.86,643.93c8.98,0,23.91-1.49,28.19-13.6l118.02-350.2c.08-.25.16-.54.24-.87.89-3.81.3-7.82-1.5-11.3l-12-23.23-357.18,358.63,4.33,21.68c1.5,9.71,7.88,16.19,17.7,16.24l202.21,2.66Z"/>
        <path d="M555.18,620.45l-198.55-1.09c-14.39-.08-24.28-14.5-19.18-27.95l132.08-347.88c3.09-8.13,10.94-13.45,19.64-13.31l186.55,3.16c14.04.24,23.75,14.13,19.14,27.4l-120.09,345.81c-2.9,8.34-10.78,13.91-19.6,13.86Z"/>
      </g>
      <path class="cls-9" d="M553.4,617.13l-193.05.3c-13.99.02-23.56-14.1-18.54-27.38l129.68-343.28c3.03-8.02,10.69-13.31,19.14-13.23l181.38,1.82c13.65.14,23.04,13.74,18.51,26.83l-118.01,341.16c-2.85,8.23-10.53,13.77-19.11,13.78Z"/>
      <ellipse cx="572.88" cy="245.73" rx="4.73" ry="3.88" transform="translate(117.97 671.92) rotate(-66.35)"/>
    </g>
  </g>
  <g id="Layer_7" data-name="Layer 7">
    <g>
      <line class="cls-2" x1="724.02" y1="282.33" x2="627.19" y2="351.67"/>
      <line class="cls-2" x1="431.28" y1="380.26" x2="385.55" y2="316.98"/>
      <line class="cls-2" x1="701.4" y1="401.07" x2="606.4" y2="415.99"/>
      <line class="cls-2" x1="406.95" y1="449.24" x2="320.32" y2="436.8"/>
      <line class="cls-2" x1="650.83" y1="534.39" x2="586.5" y2="483.45"/>
    </g>
  </g>
  <g id="Layer_4" data-name="Layer 4" class="cls-10">
    <g>
      <g>
        <polygon class="cls-3" points="635.92 340.92 448.96 338.35 462.11 303.32 646.65 305.8 635.92 340.92"/>
        <polygon class="cls-1" points="587.21 500.35 389.3 497.31 449.37 337.26 636.25 339.83 587.21 500.35"/>
        <polygon class="cls-7" points="402.21 465.78 596.85 468.69 587.44 498.45 389.6 495.51 402.21 465.78"/>
        <polygon class="cls-7" points="415.99 429.31 608.14 431.9 596.96 465.62 402.21 463.12 415.99 429.31"/>
        <polyline class="cls-7" points="427.51 397.27 617.34 399.94 608.66 429.04 417.05 425.78"/>
        <polyline class="cls-7" points="438.26 365.66 626.27 368.4 617.67 398.21 427.9 394.87"/>
        <polyline class="cls-7" points="450.25 336.93 636.25 339.38 627.74 366.02 440.01 363.04"/>
        <g>
          <path class="cls-6" d="M544.75,352.35c-.07,0-.11-.03-.14-.08s-.03-.12,0-.21l1.06-3.63c.02-.08.07-.15.12-.2s.12-.08.19-.08h.48c.07,0,.11.04.14.09s.02.12,0,.21l-1.05,3.63c-.02.08-.06.15-.12.2s-.12.08-.18.08h-.48Z"/>
          <path class="cls-6" d="M546.08,355.27c-.07,0-.11-.03-.14-.08-.03-.05-.03-.12,0-.21l.54-1.86c.11-.38.24-.74.4-1.08s.37-.67.64-.97c.27-.31.61-.59,1.04-.86l.22.84c-.29.19-.54.4-.73.64-.19.24-.34.49-.46.75-.12.26-.21.51-.28.75l-.53,1.81c-.02.08-.07.15-.12.2s-.12.08-.19.08h-.4ZM549.96,355.33c-.07,0-.12-.03-.15-.08-.03-.05-.05-.1-.07-.14l-1.8-6.45c-.02-.09-.02-.17,0-.24s.06-.12.11-.17c.06-.05.11-.07.17-.07h.47c.07,0,.12.03.15.08.03.05.05.1.06.14l1.81,6.45c.01.06.01.1.02.14,0,.03,0,.07-.01.1-.02.07-.06.12-.11.17s-.11.07-.16.07h-.49ZM549.82,353.05l-.16-.86c.38-.19.67-.38.86-.58.2-.2.34-.42.43-.65.09-.23.17-.46.25-.71l.49-1.71c.02-.08.07-.15.12-.2.06-.05.12-.08.19-.08h.42c.07,0,.11.04.14.09.03.05.03.12,0,.21l-.51,1.77c-.1.35-.23.68-.39,1-.16.32-.38.62-.67.91-.29.28-.68.56-1.18.82Z"/>
          <path class="cls-6" d="M551.93,355.36c-.07,0-.11-.03-.14-.08-.03-.05-.03-.12,0-.21l.12-.42c.02-.08.07-.15.12-.2.06-.05.12-.08.19-.08l2.86.05.86-3c.19-.66.2-1.18.05-1.55s-.53-.56-1.12-.57l-1.07-.02c-.07,0-.11-.03-.14-.08-.03-.05-.03-.12,0-.21l.12-.42c.02-.08.07-.15.12-.2.06-.05.12-.08.19-.08l1.12.02c.57,0,1.01.13,1.32.37.31.24.5.58.56,1.04.06.45,0,1.01-.2,1.68l-.87,3.04h.37c.07,0,.11.04.14.09.03.05.03.12,0,.21l-.12.42c-.02.08-.07.15-.12.2s-.12.08-.19.08l-4.15-.07Z"/>
          <path class="cls-6" d="M557.39,355.45c-.07,0-.11-.03-.14-.08-.03-.05-.03-.12,0-.21l.12-.44c.02-.08.07-.15.12-.2.06-.05.12-.08.19-.08l2.7.04-1.51-5.64s-.01-.09-.01-.13,0-.07.01-.11c.02-.07.06-.12.11-.17s.11-.07.17-.07h.48c.07,0,.12.03.15.08.03.05.05.09.06.14l1.59,5.84c.02.06.03.12.03.18,0,.06,0,.13-.02.21l-.12.41c-.02.08-.06.15-.12.2-.06.05-.12.08-.19.08l-3.6-.06ZM560.72,352.66l-.21-.81c.4-.15.72-.41.98-.76.25-.36.46-.8.61-1.32l.3-1.07c.02-.08.06-.15.12-.2.06-.05.12-.08.19-.08h.42c.07,0,.11.04.14.09s.02.12,0,.21l-.35,1.21c-.19.67-.47,1.24-.85,1.7-.37.47-.82.81-1.35,1.03Z"/>
          <path class="cls-6" d="M568.1,355.62c-.07,0-.11-.03-.14-.08-.03-.05-.03-.12,0-.21l1.05-3.71c.19-.66.2-1.18.04-1.55s-.54-.56-1.13-.57l-1.3-.02c-.07,0-.11-.03-.14-.08-.03-.05-.03-.12,0-.21l.12-.42c.02-.08.06-.15.12-.2.06-.05.12-.08.19-.08l1.35.02c.57,0,1.01.13,1.32.36.31.23.5.57.55,1.02.06.45,0,1.01-.2,1.68l-1.07,3.77c-.02.08-.06.15-.12.2-.06.05-.12.08-.19.08h-.45Z"/>
          <path class="cls-6" d="M570.48,355.66c-.07,0-.11-.03-.14-.08-.03-.05-.03-.12,0-.21l1.85-6.51c.02-.08.06-.15.12-.2.06-.05.12-.08.19-.08h.47c.07,0,.12.04.15.09.03.05.03.12,0,.21l-1.84,6.51c-.02.08-.06.15-.12.2-.06.05-.12.08-.19.08h-.47Z"/>
          <path class="cls-6" d="M574.21,355.08c-.3.2-.58.36-.83.47s-.5.19-.74.24c-.07,0-.12,0-.16-.03-.04-.03-.05-.08-.02-.16l.18-.62c.04-.14.14-.24.3-.31.05-.02.15-.06.29-.11s.3-.11.46-.19c.17-.07.31-.15.44-.23.2-.13.41-.3.63-.51.22-.21.41-.43.59-.65.17-.23.28-.43.33-.6l.6-.08c-.11.36-.27.71-.49,1.08-.22.36-.47.69-.75.99-.28.29-.55.53-.83.71ZM575.32,355.74c-.07,0-.11-.03-.13-.08-.02-.05-.03-.12-.02-.21l.47-3.82c.06-.44.08-.81.08-1.1,0-.29-.06-.52-.17-.67s-.29-.23-.55-.24h-.36c-.07,0-.11-.03-.14-.09s-.03-.12,0-.21l.13-.45c.02-.08.06-.15.12-.2s.12-.08.19-.08h.37c.44.01.77.13.98.35.21.22.33.55.37.99.04.44.02.99-.06,1.64l-.48,3.88c-.01.08-.05.15-.11.2-.07.05-.13.08-.2.08h-.48Z"/>
          <path class="cls-6" d="M577.06,355.76c-.07,0-.11-.03-.14-.08-.03-.05-.03-.12,0-.21l.12-.42c.02-.08.06-.15.12-.2.06-.05.12-.08.19-.08l2.81.04-.21.76c-.02.08-.06.14-.12.18-.05.04-.11.05-.18.05l-2.58-.04ZM579.27,355.8c-.07,0-.11-.03-.13-.08s-.03-.12-.02-.21l.89-3.84c.1-.41.17-.76.22-1.06.05-.3.03-.53-.04-.7-.08-.17-.26-.25-.54-.26h-.41c-.07,0-.11-.04-.14-.09-.03-.05-.03-.12,0-.21l.12-.42c.02-.08.06-.15.12-.2.06-.05.12-.08.19-.08h.42c.38.01.66.09.86.23.19.14.32.34.37.6.06.26.06.58.02.94-.05.36-.12.77-.23,1.22l-.9,3.88c-.02.08-.06.15-.12.2s-.13.08-.19.08h-.48Z"/>
          <path class="cls-6" d="M583.58,355.99c-.83-.01-1.37-.29-1.63-.84-.25-.55-.24-1.32.03-2.3l1.07-3.82c.02-.08.06-.15.12-.2s.12-.08.19-.08l2.4.04c.59,0,1.03.13,1.32.36.29.23.45.56.5,1s-.02.97-.17,1.61c-.02.08-.05.22-.1.4l-.15.55c-.05.18-.09.31-.12.4-.19.63-.43,1.16-.74,1.6s-.68.77-1.12.99c-.44.22-.98.32-1.59.31ZM583.86,354.97c.63.01,1.12-.15,1.47-.47s.63-.82.83-1.49c.03-.08.07-.21.11-.37l.14-.48c.04-.16.07-.28.09-.36.17-.66.16-1.16-.03-1.5-.19-.34-.54-.51-1.03-.52l-1.7-.03-.87,3.11c-.19.66-.2,1.18-.04,1.55.16.37.51.56,1.04.57Z"/>
          <path class="cls-6" d="M589.8,357.52c-.07,0-.11-.03-.14-.08-.03-.05-.03-.12,0-.21l2.24-8.06c.02-.08.06-.15.12-.2.06-.05.12-.08.19-.08h.46c.07,0,.11.04.14.09s.03.12,0,.21l-2.24,8.06c-.02.08-.06.15-.12.2-.05.05-.12.08-.18.08h-.46Z"/>
          <path class="cls-6" d="M596.47,356.07c-.07,0-.11-.03-.14-.08s-.03-.12,0-.21l1.03-3.71c.18-.66.19-1.18.03-1.55-.16-.37-.54-.56-1.13-.57l-1.87-.03c-.07,0-.11-.03-.14-.08s-.03-.12,0-.21l.12-.42c.02-.08.06-.15.12-.2s.12-.08.19-.08l1.92.03c.86.01,1.43.28,1.7.81s.27,1.29,0,2.28l-1.04,3.75c-.02.08-.06.15-.12.2-.06.05-.12.08-.19.08h-.45ZM592.68,356.01c-.07,0-.11-.03-.14-.08s-.03-.12,0-.21l1.15-4.15c.02-.08.06-.15.12-.2s.12-.08.19-.08h.46c.07,0,.11.04.14.09s.03.12,0,.21l-1.15,4.15c-.02.08-.06.15-.12.2s-.12.08-.18.08h-.46Z"/>
          <path class="cls-6" d="M598.85,356.11c-.07,0-.11-.03-.14-.08-.03-.05-.03-.12,0-.21l.12-.45c.02-.08.06-.15.12-.2.06-.05.12-.08.19-.08l1.42.02c.59,0,1.07-.17,1.43-.53.36-.36.64-.88.85-1.54.06-.18.1-.33.13-.43s.07-.25.11-.42c.16-.66.16-1.18,0-1.55-.16-.37-.54-.56-1.13-.57l-1.42-.02c-.07,0-.11-.03-.14-.08-.03-.05-.03-.12,0-.21l.12-.45c.02-.08.06-.15.12-.2.06-.05.12-.08.19-.08l1.47.02c.58,0,1.02.14,1.32.39.3.25.47.61.53,1.07.06.46,0,1.02-.16,1.66-.04.17-.08.32-.12.46s-.08.3-.14.47c-.19.64-.44,1.19-.75,1.65-.31.46-.68.81-1.11,1.05-.43.24-.94.35-1.53.34l-1.47-.02Z"/>
          <path class="cls-6" d="M607.88,350.13c-.07,0-.11-.03-.14-.08-.03-.05-.03-.12,0-.21l.12-.42c.02-.08.06-.15.12-.2.06-.05.12-.08.19-.08l4.27.07c.07,0,.11.03.14.08s.03.12,0,.21l-.11.42c-.02.08-.06.15-.12.2s-.12.08-.19.08l-4.27-.07ZM608.91,356.27c-.15,0-.19-.09-.14-.28l1.21-4.43c.13-.49.28-.87.45-1.14.17-.27.32-.41.46-.4l.98.02c-.17,0-.34.15-.53.46-.19.31-.35.7-.47,1.16l-1.19,4.35c-.02.08-.06.15-.12.2-.06.05-.12.07-.19.07h-.45Z"/>
          <path class="cls-6" d="M611.69,357c-.08.03-.14.02-.19-.02s-.06-.11-.04-.19l.12-.42c.02-.07.05-.14.1-.21.04-.07.1-.11.17-.14l2.34-.82c.42-.15.77-.35,1.04-.59s.5-.53.67-.86c.17-.33.31-.69.42-1.08l.84-3.09c.02-.08.06-.15.12-.2.06-.05.12-.08.19-.08h.45c.07,0,.12.04.15.09.03.05.03.12,0,.21l-.93,3.44c-.13.48-.34.93-.63,1.36-.29.42-.64.79-1.04,1.11-.41.31-.86.55-1.34.71l-2.42.81ZM613.26,356.04l.31-6.32c0-.07,0-.12,0-.15,0-.03,0-.07.01-.1.02-.07.05-.12.11-.17s.11-.07.16-.07h.49c.13,0,.18.07.18.2l-.33,6.34-.93.27Z"/>
          <path class="cls-6" d="M620.57,350.36l-1.18-.03c-.07,0-.11-.03-.14-.08-.03-.05-.03-.12-.01-.2l.59-2.17c.02-.08.06-.15.12-.2.06-.05.12-.08.19-.08h.42c.07,0,.12.04.15.09.03.05.03.12,0,.21l-.39,1.44h.56s-.29,1.03-.29,1.03ZM618.88,356.54c-.07.02-.12.01-.16-.03-.04-.05-.05-.11-.03-.19l.15-.57c.02-.07.06-.14.11-.2.05-.06.12-.1.2-.13l.44-.18c.3-.14.58-.3.85-.5.27-.2.51-.47.73-.81.22-.35.4-.8.55-1.36s.21-.97.19-1.29c-.02-.32-.13-.55-.33-.69-.21-.14-.52-.21-.94-.22h-.3c-.07,0-.11-.03-.14-.09-.03-.05-.03-.12,0-.21l.12-.45c.02-.08.06-.15.12-.2.06-.05.12-.08.19-.08h.44c.6.02,1.06.13,1.36.35.3.22.46.57.49,1.05.03.48-.06,1.1-.27,1.87-.16.58-.35,1.08-.59,1.5s-.51.78-.81,1.07c-.3.29-.61.54-.93.73-.33.19-.65.35-.98.47l-.46.17Z"/>
          <path class="cls-6" d="M624.4,355.88c-.3.2-.58.36-.82.47s-.49.19-.74.24c-.07,0-.12,0-.16-.03-.04-.03-.05-.08-.03-.16l.17-.62c.04-.14.14-.24.29-.31.05-.02.15-.06.29-.11.14-.05.29-.11.46-.19s.31-.15.44-.23c.2-.13.41-.3.63-.51.22-.21.41-.43.58-.65.17-.23.28-.43.33-.6l.6-.08c-.1.36-.26.72-.48,1.08-.22.36-.46.69-.74.99-.27.29-.55.53-.82.71ZM625.51,356.54c-.07,0-.11-.03-.13-.08s-.03-.12-.02-.21l.42-3.82c.05-.44.07-.81.06-1.1-.01-.29-.07-.52-.18-.68s-.29-.23-.55-.24h-.36c-.07,0-.11-.03-.14-.09-.03-.05-.03-.12,0-.21l.12-.45c.02-.08.06-.15.12-.2.06-.05.12-.08.19-.08h.37c.44.01.77.13.99.35.21.22.34.56.39,1,.04.44.03.99-.04,1.64l-.43,3.89c0,.08-.05.15-.11.2s-.13.08-.2.08h-.48Z"/>
        </g>
        <g>
          <path class="cls-8" d="M494.76,316.02h.63c.27.01.44.07.5.2.06.12.05.26-.03.42-.28.48-.54.92-.76,1.34-.22.42-.42.84-.61,1.27s-.37.9-.56,1.42l-1.84,5.37c-.05.13-.13.25-.24.34-.11.09-.24.14-.38.14l-3.24-.06c-.13,0-.21-.05-.27-.14-.05-.09-.05-.21,0-.34l.39-1.08c.05-.13.13-.25.25-.34.12-.09.24-.14.37-.14l1.47.04,1.35-3.74c.18-.49.35-.95.53-1.38s.37-.86.6-1.3c.23-.44.5-.92.83-1.43.11-.16.24-.29.39-.4.15-.11.36-.17.62-.16ZM492.33,317.17c-.12,0-.21-.05-.27-.14-.05-.09-.05-.21,0-.36l.41-1.14c.05-.13.13-.24.25-.34s.24-.14.37-.13l4.57.06c1.09.01,1.93.2,2.53.56.6.36.95.91,1.07,1.64.11.73-.03,1.64-.42,2.73l-2.18,6.07c-.05.13-.13.25-.25.34-.12.09-.24.14-.37.14l-1.47-.02c-.14,0-.23-.05-.28-.14-.05-.09-.05-.21,0-.35l2.14-5.97c.33-.91.36-1.61.12-2.12s-.84-.76-1.77-.78l-4.46-.06Z"/>
          <path class="cls-8" d="M501.41,326.65c-.12,0-.21-.05-.27-.15-.05-.09-.06-.21,0-.34l3.74-10.46c.05-.13.13-.24.25-.34s.24-.14.37-.13l1.54.02c.12,0,.21.05.27.14.05.09.06.21,0,.34l-3.73,10.46c-.05.13-.13.25-.25.34s-.24.14-.37.14l-1.55-.02Z"/>
          <path class="cls-8" d="M505.92,326.71c-.14,0-.23-.05-.28-.15-.05-.09-.05-.21,0-.34l.41-1.16c.05-.13.13-.25.24-.34.11-.09.24-.14.38-.14l5.61.08-.6,1.71c-.05.13-.13.24-.24.31-.11.07-.23.11-.36.11l-5.17-.07ZM509.82,326.76c-.12,0-.21-.05-.25-.14-.04-.09-.05-.21-.03-.34l1.89-6.17c.18-.59.31-1.08.37-1.49.06-.41.03-.72-.11-.94-.14-.22-.44-.34-.91-.34h-.86c-.12-.01-.21-.06-.27-.16-.05-.09-.06-.21,0-.34l.4-1.14c.05-.13.13-.25.25-.34.12-.09.24-.14.37-.14h.89c.76.02,1.35.13,1.78.35s.72.53.88.94.2.93.13,1.53c-.07.61-.23,1.3-.46,2.07l-1.89,6.19c-.04.13-.11.25-.23.34s-.25.14-.39.14l-1.55-.02Z"/>
          <path class="cls-8" d="M514.34,326.82c-.12,0-.21-.05-.27-.15-.05-.09-.06-.21-.01-.34l3.69-10.46c.05-.13.13-.24.25-.34s.24-.14.37-.13l1.54.02c.12,0,.21.05.27.14.05.09.06.21.01.34l-3.68,10.46c-.05.13-.13.25-.25.34s-.24.14-.37.14l-1.55-.02Z"/>
          <path class="cls-8" d="M524.72,326.96c-.14,0-.23-.05-.28-.14-.05-.09-.05-.21,0-.35l2.08-5.97c.32-.91.35-1.61.09-2.12s-.85-.76-1.78-.78l-2.6-.04c-.14,0-.23-.05-.28-.14-.05-.09-.05-.21,0-.36l.4-1.14c.05-.13.13-.24.24-.34.11-.09.24-.14.37-.13l2.71.04c1.09.01,1.94.2,2.55.54.61.35.97.88,1.08,1.61.12.72-.02,1.65-.42,2.78l-2.11,6.07c-.05.13-.13.25-.24.34-.11.09-.24.14-.38.14l-1.46-.02Z"/>
          <path class="cls-8" d="M529.54,327.03c-.12,0-.21-.05-.27-.15-.06-.09-.06-.21-.01-.34l3.63-10.46c.05-.13.13-.24.25-.34s.24-.14.36-.13l3.98.05c1.1.01,1.96.2,2.56.56.61.36.97.9,1.08,1.64.11.74-.03,1.68-.42,2.82l-2.06,5.99c-.05.13-.13.25-.25.34-.12.09-.24.14-.37.14l-1.48-.02c-.13,0-.22-.05-.27-.14-.06-.09-.06-.21,0-.35l2.06-5.97c.31-.91.34-1.61.09-2.12-.25-.5-.84-.76-1.77-.78l-1.97-.03-3.06,8.83c-.05.13-.13.25-.25.34-.12.09-.24.14-.37.14l-1.47-.02Z"/>
          <path class="cls-8" d="M541.04,327.19c-.12,0-.21-.05-.27-.15-.06-.09-.06-.22,0-.36l.95-2.77c.23-.68.5-1.3.82-1.86.31-.56.71-1.08,1.21-1.56s1.13-.94,1.9-1.37l.54,1.81c-.46.26-.85.57-1.16.92-.31.35-.55.71-.73,1.08-.18.37-.33.72-.44,1.05l-.93,2.73c-.05.15-.13.27-.25.36s-.24.14-.37.14l-1.25-.02ZM548.21,327.28c-.16,0-.27-.05-.33-.15l-.13-.22-3.24-10.42c-.03-.12-.03-.23,0-.32.04-.12.11-.22.21-.3.1-.08.21-.12.32-.12l1.47.02c.17,0,.29.05.34.14.05.09.1.17.12.24l3.31,10.4c.02.08.03.14.03.19s-.01.09-.03.13c-.04.12-.12.22-.22.3s-.21.12-.31.12l-1.55-.02ZM548.67,323.5l-.49-1.82c.6-.26,1.06-.54,1.37-.84.31-.3.55-.61.7-.92.15-.32.28-.65.4-.98l.88-2.59c.05-.15.13-.26.24-.36.11-.09.24-.14.37-.13l1.3.02c.14,0,.23.05.29.14.05.09.06.21,0,.36l-.91,2.69c-.19.55-.43,1.08-.74,1.6s-.73,1.01-1.26,1.48c-.53.47-1.26.92-2.16,1.35Z"/>
          <path class="cls-8" d="M562.96,316.95h.63c.27.01.44.07.51.2.07.12.06.26-.02.42-.27.48-.51.93-.72,1.34-.21.42-.4.84-.57,1.27s-.35.9-.52,1.42l-1.71,5.38c-.05.13-.12.25-.24.34-.11.09-.24.14-.37.14l-3.24-.06c-.13,0-.22-.05-.27-.14-.06-.09-.06-.21-.02-.34l.37-1.08c.05-.13.13-.25.24-.34.12-.09.24-.14.37-.14l1.47.04,1.26-3.75c.17-.49.33-.95.49-1.38s.35-.86.57-1.3c.22-.44.48-.92.79-1.43.1-.16.23-.29.38-.41.15-.11.35-.17.62-.16ZM560.56,318.1c-.12,0-.21-.05-.27-.14-.06-.09-.06-.21,0-.36l.38-1.14c.04-.13.13-.24.24-.34s.24-.14.36-.13l4.58.06c1.09.01,1.94.2,2.55.57.61.36.98.91,1.11,1.64.13.73.01,1.64-.35,2.73l-2.02,6.07c-.04.13-.13.25-.24.34-.12.09-.24.14-.36.14l-1.48-.02c-.14,0-.23-.05-.28-.14-.05-.09-.05-.21,0-.35l1.99-5.97c.3-.91.32-1.61.06-2.12s-.86-.76-1.79-.78l-4.47-.06Z"/>
          <path class="cls-8" d="M569.89,327.58c-.12,0-.22-.05-.27-.15-.06-.09-.06-.21-.02-.34l3.47-10.47c.04-.13.12-.24.24-.34s.24-.14.36-.13l1.54.02c.12,0,.21.05.27.14.06.09.06.21.02.34l-3.46,10.47c-.04.13-.13.25-.24.34s-.24.14-.36.14l-1.55-.02Z"/>
          <path class="cls-8" d="M574.91,327.65c-.12,0-.22-.05-.27-.15-.06-.09-.06-.21-.02-.34l3.45-10.47c.04-.13.12-.24.24-.34s.24-.14.36-.14l3.98.05c1.1.01,1.96.2,2.58.56.61.36.98.9,1.11,1.64.13.74,0,1.68-.37,2.83l-1.96,6c-.04.13-.13.25-.24.34-.12.09-.24.14-.36.14l-1.48-.02c-.13,0-.22-.05-.27-.14-.06-.09-.06-.21-.02-.35l1.96-5.98c.3-.91.32-1.61.06-2.12-.26-.5-.85-.76-1.78-.78l-1.97-.03-2.91,8.83c-.04.13-.13.25-.24.34-.12.09-.24.14-.36.14l-1.48-.02Z"/>
          <path class="cls-8" d="M588.2,323.11c-.12,0-.22-.05-.27-.14-.06-.09-.06-.21-.02-.34l1.88-5.78c.04-.13.12-.24.24-.34s.24-.14.36-.14l1.55.02c.14,0,.23.05.28.14.05.09.05.21.01.34l-1.88,5.78c-.04.13-.12.25-.23.34-.11.09-.24.14-.37.14l-1.55-.02Z"/>
          <path class="cls-8" d="M597.44,325.96c.73.02,1.41-.12,2.04-.43.63-.31,1.18-.74,1.65-1.3.47-.56.82-1.2,1.06-1.92l1.69-5.28c.05-.15.12-.26.23-.35s.23-.13.37-.13l1.3.02c.14,0,.23.05.28.14.05.09.05.21.01.34l-1.73,5.42c-.28.87-.66,1.65-1.16,2.36-.49.71-1.06,1.3-1.71,1.79-.64.49-1.34.86-2.07,1.11-.74.25-1.49.37-2.26.34l-1.59-.02c-.91-.01-1.64-.23-2.2-.65-.55-.42-.9-.99-1.05-1.71-.15-.72-.07-1.54.22-2.44l2.06-6.36c.04-.13.12-.24.24-.34s.24-.14.36-.14l1.32.02c.12,0,.22.05.27.13.06.09.06.2.02.35l-1.72,5.44c-.37,1.14-.37,2.01,0,2.63.37.62.98.93,1.83.94h.52ZM594.19,324.06l.58-1.84c.75,0,1.37-.13,1.87-.39.49-.25.9-.61,1.21-1.07.31-.46.56-.99.75-1.59l.7-2.18c.05-.15.13-.27.24-.36.11-.09.23-.14.37-.13l1.3.02c.12,0,.21.05.27.14.06.09.06.21.02.36l-.72,2.24c-.32.99-.78,1.84-1.39,2.56-.61.72-1.35,1.28-2.22,1.67-.88.39-1.87.58-2.98.56Z"/>
        </g>
        <polygon class="cls-14" points="627.85 367.33 439.08 364.68 439.34 363.99 628.06 366.63 627.85 367.33"/>
        <polygon class="cls-14" points="618.26 398.71 427.34 395.97 427.6 395.26 618.48 397.99 618.26 398.71"/>
        <g>
          <path class="cls-6" d="M498.5,383.62c-.07,0-.12-.03-.14-.09-.03-.06-.03-.13,0-.22l1.15-3.98c.2-.71.23-1.26.07-1.66s-.53-.6-1.14-.61l-1.9-.03c-.07,0-.12-.03-.14-.09-.03-.06-.03-.13,0-.22l.13-.45c.03-.09.07-.16.13-.22.06-.06.12-.08.19-.08l1.95.03c.88.01,1.45.3,1.71.87s.24,1.38-.07,2.44l-1.16,4.02c-.03.09-.07.16-.13.22-.06.06-.12.08-.19.08h-.46ZM494.64,383.55c-.07,0-.12-.03-.14-.09-.03-.06-.03-.13,0-.22l1.28-4.45c.03-.09.07-.16.13-.22.06-.06.12-.08.19-.08h.47c.07,0,.11.04.14.1s.02.13,0,.22l-1.28,4.45c-.03.09-.07.16-.13.22s-.12.08-.19.08h-.47Z"/>
          <path class="cls-6" d="M500.92,383.66c-.07,0-.12-.03-.14-.09s-.03-.13,0-.22l.14-.48c.03-.09.07-.16.13-.22.06-.06.13-.08.19-.08l1.45.02c.6.01,1.09-.18,1.47-.57.38-.39.68-.94.91-1.65.06-.2.11-.35.14-.47s.07-.27.12-.45c.18-.71.2-1.26.04-1.66s-.53-.6-1.13-.61l-1.45-.02c-.07,0-.12-.03-.14-.09s-.03-.13,0-.22l.14-.48c.03-.09.07-.16.13-.22s.12-.08.19-.08l1.5.03c.59.01,1.04.15,1.34.42.3.27.47.65.51,1.14.05.5-.02,1.09-.21,1.78-.04.18-.09.34-.13.49s-.1.32-.15.51c-.21.68-.48,1.27-.81,1.77-.33.49-.72.87-1.16,1.12-.45.26-.97.38-1.56.37l-1.5-.03Z"/>
          <path class="cls-6" d="M509.34,377.26l-1.2-.03c-.07,0-.12-.03-.14-.08-.03-.05-.03-.13,0-.21l.66-2.32c.03-.09.07-.16.13-.22.06-.06.12-.08.19-.08h.43c.07,0,.12.04.15.1.02.06.02.13,0,.22l-.44,1.54h.57s-.33,1.1-.33,1.1ZM507.43,383.89c-.07.03-.12.01-.16-.04-.04-.05-.05-.12-.02-.21l.18-.61c.02-.08.06-.15.12-.21.06-.06.12-.11.21-.14l.45-.19c.31-.15.6-.32.88-.53.28-.21.54-.5.77-.87.23-.37.43-.86.6-1.46s.24-1.04.24-1.38c0-.34-.11-.59-.32-.74-.21-.15-.52-.23-.95-.24h-.3c-.07,0-.12-.04-.14-.09-.03-.06-.03-.13,0-.22l.14-.48c.03-.09.07-.16.13-.22.06-.06.12-.08.19-.08h.45c.61.02,1.07.14,1.37.38.3.24.46.61.47,1.12.01.51-.1,1.18-.33,2.01-.18.62-.39,1.16-.65,1.61s-.54.83-.85,1.15c-.31.32-.63.58-.97.78-.34.2-.67.37-1.01.5l-.47.18Z"/>
          <path class="cls-6" d="M511.5,383.84c-.06,0-.1-.03-.13-.1s-.02-.14.01-.23l2.72-6.51c.04-.09.09-.16.15-.2.06-.05.12-.06.19-.04l.4.03c.07,0,.11.05.13.12s.01.14-.03.23l-2.63,6.39c-.03.09-.08.16-.15.23s-.14.09-.2.09h-.46ZM515.92,377.37l-2.46-.04c-.07,0-.12-.03-.15-.09s-.02-.13,0-.22l.14-.48c.03-.09.07-.16.12-.22s.12-.08.2-.08l2.57.04c.42,0,.76.14,1.01.4.25.26.41.64.46,1.12.05.49-.02,1.07-.22,1.75l-1.15,4.05c-.03.09-.07.16-.12.22-.06.06-.12.08-.2.08l-2.62-.04c-.07,0-.12-.03-.14-.09-.03-.06-.03-.13,0-.22l.13-.45c.03-.09.07-.16.13-.22.06-.06.12-.08.19-.08l1.93.03.91-3.21c.13-.45.18-.85.16-1.19-.02-.34-.11-.6-.27-.79-.16-.18-.36-.28-.62-.28Z"/>
          <path class="cls-6" d="M523.22,377.49l-1.2-.03c-.07,0-.12-.03-.15-.08-.03-.05-.03-.13,0-.21l.66-2.32c.03-.09.07-.16.13-.22.06-.06.12-.08.19-.08h.42c.07,0,.12.04.15.1.02.06.02.13,0,.22l-.43,1.54h.57s-.33,1.1-.33,1.1ZM521.33,384.13c-.07.03-.12.01-.16-.04-.04-.05-.05-.12-.02-.21l.17-.61c.02-.08.06-.15.12-.21.05-.06.12-.11.21-.14l.45-.19c.31-.15.6-.32.88-.53s.53-.5.77-.87c.23-.37.43-.86.6-1.46s.24-1.04.23-1.38c0-.34-.12-.59-.32-.74s-.52-.23-.95-.24h-.3c-.07,0-.12-.04-.14-.09-.03-.06-.03-.13,0-.22l.13-.48c.02-.09.07-.16.13-.22.06-.06.12-.08.19-.08h.45c.61.02,1.07.14,1.37.38.3.24.46.61.47,1.12.02.51-.09,1.18-.32,2.01-.17.62-.39,1.16-.65,1.61-.26.45-.54.83-.85,1.15-.31.32-.63.58-.97.78-.34.2-.67.37-1.01.5l-.47.18Z"/>
          <path class="cls-6" d="M525.42,384.08c-.07,0-.12-.03-.14-.09-.03-.06-.03-.13,0-.22l.13-.45c.02-.09.07-.16.13-.22.06-.06.12-.08.19-.08l2.91.05.9-3.22c.2-.71.22-1.26.06-1.66s-.54-.6-1.14-.61l-1.09-.02c-.07,0-.12-.03-.14-.09-.03-.06-.03-.13,0-.22l.13-.45c.02-.09.07-.16.13-.22.06-.06.12-.08.19-.08l1.14.02c.58,0,1.03.14,1.34.4.32.25.5.62.56,1.11.06.49-.01,1.09-.22,1.81l-.91,3.26h.37c.07,0,.12.04.14.1.03.06.03.13,0,.22l-.13.45c-.02.09-.07.16-.13.22s-.12.08-.19.08l-4.23-.07Z"/>
          <path class="cls-6" d="M531.2,384.17c-.07,0-.12-.03-.14-.09-.03-.06-.03-.13,0-.22l1.95-6.99c.02-.09.07-.16.13-.22.06-.06.12-.08.19-.08h.48c.07,0,.12.04.15.1.03.06.03.13,0,.22l-1.95,6.99c-.02.09-.07.16-.12.22-.06.06-.12.08-.2.08h-.48Z"/>
          <path class="cls-6" d="M536.63,383.26c.44.02.84-.08,1.2-.3s.68-.53.95-.94c.27-.41.48-.88.63-1.41l1-3.61c.02-.09.07-.16.13-.22.06-.06.12-.08.19-.08h.43c.07,0,.11.04.14.1s.02.13,0,.22l-1.03,3.7c-.16.57-.37,1.08-.63,1.54-.26.46-.56.84-.9,1.16s-.7.56-1.09.73c-.39.16-.79.23-1.19.21h-.76c-.44-.02-.8-.16-1.08-.43-.28-.27-.45-.65-.52-1.13-.07-.48-.02-1.04.16-1.67l1.17-4.19c.02-.09.07-.16.13-.22s.12-.08.19-.08h.43c.07,0,.11.04.14.1.03.06.03.13,0,.22l-1.06,3.93c-.21.76-.21,1.35,0,1.77.21.42.57.63,1.07.63h.31ZM534.81,381.66l.25-.97c.5,0,.91-.09,1.23-.28s.57-.44.77-.76c.19-.32.34-.67.45-1.05l.46-1.65c.02-.09.07-.16.12-.22s.12-.08.2-.08h.41c.07,0,.12.04.14.1.03.06.03.13,0,.22l-.47,1.7c-.16.58-.4,1.09-.73,1.55-.32.46-.72.82-1.2,1.08-.48.26-1.02.38-1.63.36Z"/>
          <path class="cls-6" d="M543.42,384.38c-.07,0-.12-.03-.14-.09s-.03-.13,0-.22l1.93-6.99c.02-.09.07-.16.13-.22s.12-.08.19-.08l1.94.03c.58,0,1.03.14,1.34.39.31.25.49.62.55,1.1.05.48-.02,1.08-.22,1.8l-1.12,4.05c-.02.09-.06.16-.12.22s-.12.08-.2.08l-4.27-.07ZM544.35,383.32l2.96.05.89-3.22c.2-.71.21-1.26.05-1.66-.16-.4-.54-.6-1.14-.61l-1.25-.02-1.51,5.47Z"/>
          <path class="cls-6" d="M551.07,377.59c-.05,0-.09-.03-.11-.08s0-.12.02-.2l.76-1.9c.04-.11.1-.2.16-.27.06-.07.14-.11.23-.11h.68s.08.04.1.09c.02.05.02.1,0,.15-.02.07-.05.14-.1.21l-1.03,1.81c-.05.09-.11.16-.17.22s-.13.08-.21.08h-.33ZM552.69,377.62c-.06,0-.1-.03-.11-.08s0-.12.02-.2l.75-1.9c.04-.11.09-.2.16-.27.06-.07.14-.11.23-.11h.67c.05.01.09.04.11.09.02.05.02.1,0,.15-.02.07-.05.14-.1.21l-1.03,1.81c-.05.09-.11.16-.17.22-.06.06-.13.08-.22.08h-.32Z"/>
          <path class="cls-6" d="M554.6,383.89c-.31.22-.59.39-.85.5s-.51.2-.76.26c-.07,0-.13,0-.17-.03-.04-.03-.05-.09-.02-.17l.18-.67c.04-.15.14-.26.3-.33.05-.03.15-.07.3-.12.14-.06.3-.12.47-.2s.32-.16.46-.25c.21-.14.42-.32.65-.54.22-.22.43-.46.6-.7.18-.24.29-.46.34-.64l.61-.08c-.11.38-.28.77-.51,1.16-.23.39-.48.74-.77,1.06-.28.32-.57.57-.85.76ZM555.72,384.59c-.07,0-.11-.03-.13-.09s-.03-.13-.02-.22l.5-4.1c.06-.47.09-.87.08-1.18,0-.32-.06-.56-.17-.72s-.29-.25-.56-.26h-.36c-.07,0-.12-.04-.14-.1-.03-.06-.03-.13,0-.22l.13-.48c.02-.09.07-.16.13-.22.06-.06.12-.08.19-.08h.37c.45.01.79.14,1,.38.21.24.34.6.38,1.07.04.47.01,1.06-.07,1.76l-.52,4.17c-.01.09-.05.16-.12.22s-.13.08-.2.08h-.49Z"/>
          <path class="cls-6" d="M559.91,384.8c-.85-.01-1.4-.32-1.65-.91-.25-.59-.24-1.41.05-2.47l1.12-4.1c.02-.09.07-.16.13-.22s.12-.08.19-.08l2.44.04c.6.01,1.05.14,1.34.38.29.25.46.6.5,1.07s-.02,1.04-.19,1.73c-.02.09-.05.23-.11.43l-.16.59c-.05.19-.09.34-.13.43-.2.68-.45,1.25-.76,1.72s-.69.83-1.15,1.06c-.45.23-1,.34-1.63.33ZM560.21,383.7c.64.01,1.14-.16,1.5-.5s.64-.88.85-1.6c.03-.09.07-.22.12-.4l.14-.52c.05-.17.08-.3.09-.39.18-.71.17-1.25-.03-1.61-.2-.36-.54-.55-1.04-.56l-1.73-.03-.91,3.34c-.19.71-.21,1.26-.05,1.66.16.4.51.6,1.05.61Z"/>
          <path class="cls-6" d="M567.54,381.33c-.07,0-.12-.03-.14-.09-.03-.06-.03-.13,0-.22l.14-.51c.02-.09.07-.16.13-.22s.12-.08.19-.08l3.04.05c.07,0,.13.03.15.09s.03.13,0,.22l-.14.51c-.02.09-.06.16-.12.22-.06.06-.12.09-.2.08l-3.04-.05Z"/>
          <path class="cls-6" d="M574.09,384.9c-.07,0-.12-.03-.14-.09s-.03-.13,0-.22l1.88-6.99c.02-.09.07-.16.12-.22s.12-.08.19-.08l1.94.03c.58,0,1.03.14,1.34.39.31.25.5.62.56,1.1.06.48,0,1.08-.2,1.8l-1.08,4.05c-.02.09-.06.16-.12.22s-.12.09-.2.08l-4.28-.07ZM575.02,383.85l2.96.05.86-3.23c.19-.71.2-1.26.04-1.66-.16-.4-.55-.6-1.15-.61l-1.25-.02-1.47,5.48Z"/>
          <path class="cls-6" d="M581.1,381.91c-.07,0-.12-.03-.14-.09-.03-.06-.03-.13,0-.22l1.04-3.9c.02-.09.07-.16.13-.22.06-.06.12-.08.19-.08h.49c.07,0,.11.04.14.1s.03.13,0,.22l-1.04,3.9c-.02.09-.06.16-.12.22s-.12.08-.19.08h-.49Z"/>
          <path class="cls-6" d="M582.72,385.05c-.07,0-.12-.03-.14-.09s-.03-.13,0-.22l1.86-7c.02-.09.07-.16.12-.22s.12-.08.19-.08h.48c.07,0,.12.04.15.1s.03.13,0,.22l-1.86,7c-.02.09-.06.16-.12.22s-.12.09-.2.08h-.48Z"/>
          <path class="cls-6" d="M585.23,385.09c-.07,0-.12-.03-.14-.09-.03-.06-.03-.13,0-.22l1.86-7c.02-.09.06-.16.12-.22.06-.06.12-.08.19-.08h.48c.07,0,.12.04.15.1.03.06.03.13,0,.22l-1.86,7c-.02.09-.06.16-.12.22-.06.06-.12.09-.2.08h-.48Z"/>
          <path class="cls-6" d="M588.49,382.04c-.07,0-.12-.03-.14-.09s-.03-.13,0-.22l1.03-3.9c.02-.09.07-.16.12-.22s.12-.08.19-.08h.49c.07,0,.11.04.14.1s.03.13,0,.22l-1.03,3.9c-.02.09-.06.16-.12.22s-.12.08-.19.08h-.49Z"/>
          <path class="cls-6" d="M592.88,378.67l-1.2-.03c-.07,0-.12-.03-.15-.08-.03-.05-.03-.13,0-.21l.62-2.33c.02-.09.07-.16.12-.22.06-.06.12-.08.19-.08h.43c.07,0,.12.04.15.1.03.06.03.13,0,.22l-.41,1.54h.57s-.31,1.1-.31,1.1ZM591.1,385.31c-.07.03-.12.01-.16-.04-.04-.05-.05-.12-.03-.21l.16-.61c.02-.08.06-.15.11-.21.05-.06.12-.11.21-.14l.45-.19c.3-.15.59-.33.87-.53s.53-.5.75-.87c.22-.37.42-.86.57-1.46s.22-1.04.21-1.38c-.02-.34-.13-.59-.33-.74s-.53-.23-.95-.24h-.3c-.07,0-.12-.04-.15-.09-.03-.06-.03-.13,0-.22l.13-.48c.02-.09.06-.16.12-.22.06-.06.12-.08.19-.08h.45c.61.02,1.07.14,1.38.38.3.24.47.61.49,1.12.02.51-.07,1.18-.29,2.01-.16.62-.37,1.16-.62,1.61-.25.45-.52.83-.83,1.15-.3.32-.62.58-.96.78-.33.2-.67.37-1,.5l-.47.18Z"/>
          <path class="cls-6" d="M600.46,378.8l-1.2-.03c-.07,0-.12-.03-.15-.08-.03-.05-.03-.13,0-.21l.61-2.33c.02-.09.06-.16.12-.22.06-.06.12-.08.19-.08h.43c.07,0,.12.04.15.1.03.06.03.13,0,.22l-.4,1.54h.57s-.31,1.1-.31,1.1ZM598.69,385.44c-.07.03-.12.01-.16-.04-.04-.05-.05-.12-.03-.21l.16-.61c.02-.08.06-.15.11-.21.05-.06.12-.11.21-.14l.45-.19c.3-.15.59-.33.87-.53s.53-.5.75-.87c.22-.37.41-.86.57-1.46s.22-1.04.2-1.38c-.02-.34-.13-.59-.34-.74s-.53-.23-.95-.24h-.3c-.07,0-.12-.04-.15-.09-.03-.06-.03-.13,0-.22l.13-.48c.02-.09.06-.16.12-.22.06-.06.12-.08.19-.08h.45c.61.02,1.07.14,1.38.38.3.24.47.61.49,1.12.03.51-.07,1.18-.29,2.01-.16.62-.37,1.16-.62,1.61-.25.45-.52.83-.83,1.15-.3.32-.62.58-.95.78-.33.2-.67.37-1,.5l-.47.18Z"/>
          <path class="cls-6" d="M604.56,378.5c-.05,0-.09-.03-.11-.08s-.01-.12.02-.2l.73-1.9c.04-.11.09-.2.16-.27.06-.07.14-.11.23-.11h.68s.08.04.1.09c.02.05.02.1,0,.15-.02.07-.05.14-.1.21l-1,1.81c-.05.09-.1.16-.16.22-.06.06-.13.08-.21.08h-.33ZM606.18,378.53c-.06,0-.1-.03-.11-.08-.01-.05,0-.12.02-.2l.73-1.9c.04-.11.09-.2.15-.27.06-.07.14-.11.23-.11h.67c.05.01.09.04.11.09.02.05.02.1,0,.15-.02.07-.05.14-.1.21l-1,1.81c-.05.09-.1.16-.16.22-.06.06-.13.08-.22.08h-.32Z"/>
          <path class="cls-6" d="M606.71,385.46c-.06,0-.1-.03-.13-.1s-.02-.14,0-.23l2.56-6.52c.04-.09.08-.16.14-.2.06-.05.12-.06.18-.04l.4.03c.07,0,.11.05.13.12s.02.15-.02.23l-2.48,6.4c-.03.09-.08.16-.15.23s-.13.09-.2.09h-.46ZM610.98,378.98l-2.47-.04c-.07,0-.12-.03-.15-.09s-.03-.13,0-.22l.12-.48c.02-.09.06-.16.12-.22s.12-.08.19-.08l2.58.04c.42,0,.76.14,1.02.41s.42.64.48,1.12c.06.49,0,1.07-.18,1.76l-1.05,4.06c-.02.09-.06.16-.12.22s-.12.09-.2.08l-2.62-.04c-.07,0-.12-.03-.14-.09-.03-.06-.03-.13,0-.22l.12-.45c.02-.09.06-.16.12-.22.06-.06.12-.08.19-.08l1.93.03.83-3.21c.12-.45.16-.85.13-1.19-.03-.34-.13-.6-.29-.79-.16-.18-.37-.28-.62-.28Z"/>
          <path class="cls-6" d="M613.31,385.57c-.07,0-.12-.03-.15-.09-.03-.06-.03-.13,0-.22l1.81-7c.02-.09.06-.16.12-.22.06-.06.12-.08.19-.08l1.98.03c.58,0,1.03.14,1.35.39s.51.62.58,1.11c.06.49,0,1.1-.18,1.82l-1.04,4.03c-.02.09-.06.16-.12.22-.06.06-.12.09-.19.08h-.46c-.08,0-.12-.04-.15-.1s-.03-.13,0-.22l1.03-3.99c.18-.71.19-1.27.02-1.66s-.55-.6-1.16-.61l-1.24-.02-1.61,6.24c-.02.09-.06.16-.12.22s-.12.09-.18.08h-.47Z"/>
        </g>
        <g>
          <path class="cls-6" d="M584.72,419.22c-.1,0-.16-.02-.2-.06-.03-.04-.05-.08-.06-.14l-.37-7.15c0-.05,0-.09-.01-.12,0-.03,0-.05.01-.08.02-.06.07-.11.15-.15.07-.04.15-.07.22-.06h.62c.1,0,.16.03.2.08s.06.11.06.2l.17,3.02c.67-.06,1.22-.25,1.65-.58.43-.33.76-.76.98-1.31l.46-1.11c.03-.07.08-.13.16-.18.08-.05.16-.07.25-.07h.55c.09,0,.15.03.19.08s.04.11.01.18l-.49,1.18c-.21.51-.5.95-.86,1.32s-.78.67-1.27.91-1.01.39-1.59.47l.17,3.14c0,.1,0,.17-.02.21-.02.06-.07.11-.14.15-.07.04-.14.07-.21.07h-.65Z"/>
          <path class="cls-6" d="M591.09,412.14c-.07,0-.12-.02-.14-.07s-.01-.1.02-.17l.96-1.58c.05-.09.12-.16.21-.23.08-.06.18-.09.3-.09h.88c.06.01.1.03.13.07.02.04.03.08,0,.13-.02.06-.07.12-.13.18l-1.31,1.51c-.07.07-.14.13-.21.18s-.17.07-.27.07h-.43ZM593.2,412.16c-.08,0-.13-.02-.14-.07s0-.1.03-.17l.95-1.58c.05-.09.12-.16.2-.23.08-.06.18-.09.3-.09h.87c.07.01.12.03.14.07.02.04.03.08,0,.13-.02.06-.07.12-.13.18l-1.31,1.51c-.07.07-.14.13-.21.18-.08.05-.17.07-.29.07h-.42Z"/>
          <path class="cls-6" d="M597.2,412.51l-.35.87c-.1.27-.15.49-.15.67,0,.18.09.29.27.34l.44.12c.07.02.1.06.12.12.01.06,0,.14-.03.23l-.11.28c-.03.08-.1.14-.22.18-.11.04-.22.05-.33.03l-.48-.09c-.26-.06-.46-.17-.6-.32-.14-.15-.21-.36-.2-.63,0-.26.09-.58.24-.95l.61-1.49c.03-.07.08-.13.15-.18s.16-.07.25-.07l2.44.03c.66,0,1.16.12,1.51.35.35.22.56.54.62.95.06.41-.02.91-.24,1.49-.04.11-.09.25-.16.42s-.13.31-.18.42c-.25.57-.58,1.06-.97,1.47-.4.41-.86.73-1.39.94-.53.21-1.13.32-1.78.31l-2.28-.03c-.09,0-.15-.03-.19-.07-.04-.05-.04-.11-.01-.18l.16-.4c.03-.07.08-.14.16-.18.08-.05.16-.07.25-.07l2.22.02c.61,0,1.14-.15,1.61-.48.46-.33.84-.79,1.11-1.38.05-.11.11-.24.17-.38s.11-.27.14-.38c.22-.59.24-1.05.03-1.39s-.61-.5-1.22-.51l-1.61-.02Z"/>
          <path class="cls-6" d="M604.21,418.15c-.09.02-.16.01-.21-.03s-.06-.1-.03-.17l.21-.51c.03-.07.08-.13.14-.18.07-.05.16-.09.27-.12l.57-.16c.4-.12.78-.27,1.14-.45s.68-.42.97-.73c.29-.31.54-.72.74-1.22s.28-.86.26-1.15c-.03-.29-.17-.49-.44-.62s-.68-.19-1.22-.2l-2.68-.03c-.09,0-.15-.03-.19-.07-.04-.05-.04-.11-.01-.18l.16-.4c.03-.07.08-.13.16-.18.08-.05.16-.07.25-.07l2.85.03c.81,0,1.41.11,1.8.31s.61.51.64.94c.03.43-.09.99-.37,1.67-.21.52-.48.97-.8,1.34-.32.38-.68.7-1.07.96-.39.26-.81.48-1.23.65-.43.17-.86.31-1.29.42l-.62.15ZM600.85,420.15c-.09,0-.15-.03-.19-.07-.04-.05-.04-.11-.01-.18l2.38-5.84c.03-.07.08-.13.16-.18.08-.05.16-.07.25-.07h.58c.1,0,.16.03.19.08s.04.11,0,.18l-2.38,5.84c-.03.07-.08.13-.16.18s-.16.07-.25.07h-.58Z"/>
        </g>
        <polygon class="cls-14" points="608.45 430.82 415.32 427.98 415.59 427.26 608.68 430.09 608.45 430.82"/>
        <g>
          <path class="cls-6" d="M447.3,444.52l-1.5-.03c-.08,0-.14-.02-.18-.07-.03-.04-.04-.1,0-.17l.86-1.87c.03-.07.09-.13.16-.18.08-.05.16-.07.24-.07h.53c.09,0,.15.03.18.08.03.05.03.11,0,.18l-.57,1.24h.71s-.43.89-.43.89ZM444.83,449.87c-.09.02-.15.01-.2-.03-.05-.04-.06-.1-.03-.17l.23-.5c.03-.06.08-.12.15-.17.07-.05.16-.09.26-.12l.57-.16c.39-.12.75-.26,1.11-.43s.68-.4.97-.7c.29-.3.55-.69.77-1.18s.32-.84.31-1.11c0-.28-.13-.48-.39-.6s-.65-.18-1.18-.19h-.38c-.08,0-.14-.03-.18-.08-.03-.05-.03-.11,0-.18l.18-.39c.03-.07.09-.13.16-.18s.16-.07.24-.07h.56c.77.01,1.33.11,1.71.31.37.19.56.49.57.91.01.41-.13.95-.44,1.62-.23.5-.51.93-.83,1.3-.33.36-.68.67-1.08.93-.39.25-.8.47-1.22.63-.42.16-.84.3-1.27.4l-.59.14Z"/>
          <path class="cls-6" d="M451.29,447.34c-.08,0-.14-.02-.18-.07-.03-.05-.03-.11,0-.18l1.43-3.15c.03-.07.09-.13.16-.18.08-.05.16-.07.24-.07h.61c.08,0,.14.03.17.08.03.05.03.11,0,.18l-1.43,3.15c-.03.07-.08.13-.16.18-.07.05-.15.07-.23.07h-.61Z"/>
          <path class="cls-6" d="M454.85,449.33c-.39.18-.75.31-1.07.41s-.64.16-.95.21c-.09,0-.16,0-.21-.02-.05-.02-.06-.07-.03-.14l.24-.54c.06-.12.18-.21.39-.27.07-.02.19-.05.38-.1.18-.05.38-.1.59-.16s.41-.13.57-.2c.26-.11.54-.26.82-.44s.54-.37.77-.56c.23-.19.38-.37.44-.52l.77-.07c-.15.31-.37.62-.66.93s-.62.6-.98.85c-.36.26-.72.46-1.08.61ZM456.23,449.9c-.08,0-.14-.03-.16-.07-.03-.05-.03-.11-.01-.18l.72-3.31c.09-.38.13-.7.13-.95,0-.25-.06-.45-.19-.58-.13-.14-.36-.2-.69-.21h-.45c-.08,0-.14-.03-.18-.08s-.03-.11,0-.18l.18-.39c.03-.07.09-.13.16-.18.08-.05.16-.07.24-.07h.47c.56.01.98.11,1.24.3.26.19.41.48.44.86.03.38,0,.86-.13,1.42l-.75,3.36c-.02.07-.07.13-.15.18-.08.05-.17.07-.25.07h-.61Z"/>
          <path class="cls-6" d="M465.06,444.72l-1.5-.03c-.08,0-.14-.02-.18-.07-.03-.04-.04-.1,0-.17l.85-1.88c.03-.07.09-.13.16-.18.08-.05.16-.07.24-.07h.53c.09,0,.15.03.18.08.03.05.03.11,0,.18l-.56,1.24h.71s-.42.89-.42.89ZM462.62,450.07c-.09.02-.15.01-.2-.03-.05-.04-.06-.1-.03-.17l.22-.5c.03-.06.08-.12.15-.17.07-.05.16-.09.26-.12l.57-.16c.39-.12.75-.26,1.1-.43s.67-.4.97-.7c.29-.3.55-.69.77-1.18s.31-.84.3-1.11c0-.28-.14-.48-.39-.6s-.65-.19-1.18-.19h-.38c-.08,0-.14-.03-.18-.08-.03-.05-.03-.11,0-.18l.17-.39c.03-.07.09-.13.16-.18s.16-.07.24-.07h.56c.77.01,1.34.11,1.71.31.37.19.56.49.58.91.01.41-.13.95-.43,1.62-.23.5-.5.93-.83,1.3-.32.36-.68.67-1.07.93-.39.25-.8.47-1.22.63-.42.16-.84.3-1.26.4l-.59.14Z"/>
          <path class="cls-6" d="M467.73,450.03c-.08,0-.14-.03-.18-.07-.03-.05-.03-.11,0-.18l.73-1.61c.15-.33.33-.64.54-.94s.49-.58.83-.84.79-.51,1.35-.75l.26.73c-.38.16-.69.35-.94.56-.25.21-.45.43-.6.65-.15.23-.27.44-.37.65l-.71,1.57c-.03.07-.09.13-.16.18-.08.05-.16.07-.24.07h-.51ZM472.66,450.09c-.09,0-.15-.02-.19-.07-.03-.04-.06-.08-.09-.12l-2.16-5.59c-.02-.08-.02-.15,0-.2s.08-.11.15-.15c.07-.04.15-.06.21-.06h.59c.09,0,.16.03.19.07.04.04.06.08.08.12l2.18,5.59c.01.05.02.09.02.12,0,.03,0,.06-.02.09-.03.06-.07.11-.14.15s-.14.06-.21.06h-.62ZM472.53,448.11l-.19-.75c.49-.16.86-.33,1.11-.51.25-.18.44-.36.56-.56.12-.2.23-.4.33-.62l.66-1.48c.03-.07.09-.13.16-.18s.16-.07.24-.07h.53c.08,0,.14.03.18.08.03.05.04.11,0,.18l-.69,1.53c-.13.3-.31.59-.52.87-.21.28-.5.54-.87.78-.37.24-.88.48-1.52.71Z"/>
          <path class="cls-6" d="M476.5,447.62c-.08,0-.14-.02-.18-.07-.03-.05-.04-.11,0-.18l1.41-3.15c.03-.07.09-.13.16-.18.08-.05.15-.07.24-.07h.61c.08,0,.14.03.17.08.03.05.03.11,0,.18l-1.4,3.15c-.03.07-.08.13-.15.18-.07.05-.15.07-.23.07h-.61Z"/>
          <path class="cls-6" d="M482.24,450.19c-.08,0-.14-.03-.18-.07s-.03-.11,0-.18l1.43-3.22c.25-.57.28-1.02.09-1.34s-.67-.49-1.42-.5l-1.66-.02c-.08,0-.14-.03-.18-.07-.03-.05-.03-.11,0-.18l.16-.36c.03-.07.09-.13.16-.18s.16-.07.24-.07l1.72.02c.72,0,1.28.11,1.67.31s.62.49.68.89-.03.88-.29,1.46l-1.45,3.27c-.03.07-.09.13-.16.18-.08.05-.16.07-.24.07h-.57Z"/>
          <path class="cls-6" d="M484.96,450.22c-.08,0-.14-.03-.18-.07s-.03-.11,0-.18l.72-1.61c.15-.33.32-.64.53-.94s.48-.58.83-.84.79-.51,1.34-.75l.26.73c-.38.16-.69.35-.93.56s-.44.43-.59.65c-.15.23-.27.44-.36.65l-.7,1.57c-.03.07-.09.13-.16.18-.08.05-.16.07-.24.07h-.51ZM489.9,450.28c-.09,0-.15-.02-.19-.07l-.09-.12-2.19-5.59c-.02-.08-.02-.15,0-.2s.08-.11.15-.15.14-.06.21-.06h.59c.09,0,.16.03.19.07.04.04.06.08.08.12l2.21,5.59c.01.05.02.09.02.12,0,.03,0,.06-.02.09-.03.06-.07.11-.14.15s-.14.06-.21.06h-.62ZM489.76,448.3l-.19-.75c.49-.16.86-.33,1.11-.51.25-.18.44-.36.56-.56.12-.2.23-.4.32-.62l.65-1.48c.03-.07.08-.13.16-.18.08-.05.15-.07.24-.07h.53c.08,0,.14.03.18.08s.04.11,0,.18l-.68,1.53c-.13.3-.3.59-.51.87-.21.28-.5.54-.86.78-.37.24-.87.48-1.52.71Z"/>
          <path class="cls-6" d="M495.81,450.35c-.08,0-.14-.03-.18-.07s-.04-.11,0-.18l2.48-5.64c.03-.07.08-.13.16-.18.08-.05.15-.07.24-.07l2.41.03c.72,0,1.28.11,1.67.31.39.2.61.5.67.89.06.39-.03.87-.29,1.45l-1.43,3.27c-.03.07-.08.13-.15.18-.07.05-.15.07-.25.07l-5.33-.06ZM496.99,449.49l3.7.04,1.14-2.6c.25-.57.28-1.02.08-1.34s-.67-.49-1.42-.5l-1.56-.02-1.94,4.42Z"/>
          <path class="cls-6" d="M505.43,444.87c-.07,0-.11-.02-.13-.07s-.01-.1.03-.16l.96-1.53c.05-.09.12-.16.2-.22.08-.06.18-.09.29-.09h.85c.06.01.1.03.12.07.02.04.02.08,0,.12-.03.06-.07.11-.13.17l-1.3,1.46c-.07.07-.14.13-.21.18s-.16.07-.27.07h-.42ZM507.45,444.89c-.08,0-.12-.02-.14-.07-.02-.04,0-.1.03-.16l.96-1.53c.05-.09.12-.16.2-.22.08-.06.17-.09.29-.09h.83c.07.01.11.03.13.07.02.04.02.08,0,.12-.03.06-.07.11-.13.17l-1.3,1.46c-.06.07-.13.13-.21.18-.07.05-.17.07-.28.07h-.4Z"/>
          <path class="cls-6" d="M509.77,449.95c-.39.18-.74.31-1.06.41s-.63.16-.95.21c-.09,0-.16,0-.21-.02-.05-.02-.06-.07-.03-.14l.24-.54c.05-.12.18-.21.38-.27.07-.02.19-.05.37-.1.18-.05.38-.1.59-.16.21-.06.4-.13.57-.2.26-.11.53-.26.82-.44.28-.18.54-.37.76-.56.22-.2.37-.37.44-.52l.77-.07c-.14.31-.36.62-.65.93-.29.31-.61.6-.97.85-.36.26-.71.46-1.07.61ZM511.17,450.52c-.08,0-.14-.03-.17-.07-.03-.05-.03-.11-.02-.18l.67-3.31c.08-.38.12-.7.12-.95,0-.25-.07-.45-.2-.58-.13-.14-.36-.2-.69-.21h-.46c-.08,0-.14-.03-.18-.08-.03-.05-.04-.11,0-.18l.17-.39c.03-.07.08-.13.16-.18.07-.05.15-.07.24-.07h.47c.56.01.98.11,1.24.3.26.19.42.48.46.86.04.38,0,.86-.1,1.42l-.69,3.37c-.01.07-.06.13-.15.18-.08.05-.17.07-.25.07h-.61Z"/>
          <path class="cls-6" d="M516.39,450.69c-1.06-.01-1.74-.26-2.05-.73s-.28-1.14.09-1.99l1.44-3.31c.03-.07.08-.13.16-.18.07-.05.15-.07.24-.07l3.05.03c.75,0,1.31.11,1.67.31.36.2.57.49.61.86.04.38-.04.84-.25,1.39-.02.07-.07.19-.14.34l-.2.47c-.07.16-.12.27-.16.34-.25.55-.58,1.01-.97,1.39-.4.38-.88.67-1.45.85-.57.19-1.25.28-2.03.27ZM516.77,449.8c.8,0,1.43-.13,1.88-.41.45-.28.81-.71,1.08-1.29.04-.07.09-.18.15-.32l.18-.42c.06-.14.1-.24.12-.31.23-.57.23-1.01-.02-1.3-.24-.29-.67-.44-1.3-.45l-2.16-.02-1.17,2.7c-.25.57-.28,1.02-.08,1.34.2.32.63.48,1.31.49Z"/>
          <path class="cls-6" d="M525.95,447.89c-.08,0-.14-.03-.18-.07s-.04-.11,0-.18l.18-.41c.03-.07.08-.13.16-.18.07-.05.15-.07.24-.07l3.8.04c.09,0,.16.03.19.07.03.05.03.11,0,.18l-.18.41c-.03.07-.08.13-.15.18s-.15.07-.25.07l-3.8-.04Z"/>
          <path class="cls-6" d="M534.09,450.78c-.08,0-.14-.03-.18-.07s-.04-.11,0-.18l2.42-5.65c.03-.07.08-.13.16-.18.07-.05.15-.07.24-.07l2.47.03c.73,0,1.28.11,1.68.32.39.2.62.5.69.89s-.02.88-.27,1.47l-1.39,3.25c-.03.07-.08.13-.16.18s-.15.07-.24.07h-.57c-.09,0-.15-.03-.19-.08-.03-.05-.03-.11,0-.18l1.37-3.22c.24-.57.27-1.02.06-1.34s-.68-.49-1.43-.5l-1.54-.02-2.15,5.03c-.03.07-.08.13-.15.18-.07.05-.15.07-.23.07h-.58Z"/>
          <path class="cls-6" d="M543.71,445.3c-.07,0-.11-.02-.13-.07s-.01-.1.02-.16l.94-1.53c.05-.09.12-.16.2-.22.08-.06.18-.09.29-.09h.85c.06.01.1.03.12.07.02.04.02.08,0,.12-.02.06-.07.11-.12.17l-1.28,1.46c-.06.07-.13.13-.21.18s-.16.07-.26.07h-.42ZM545.73,445.32c-.08,0-.12-.02-.14-.07-.02-.04,0-.1.03-.16l.94-1.53c.05-.09.12-.16.19-.22.08-.06.17-.09.29-.09h.83c.07.01.11.03.13.07.02.04.02.08,0,.12-.02.06-.07.11-.12.17l-1.28,1.46c-.06.07-.13.13-.21.18-.07.05-.17.07-.28.07h-.4Z"/>
          <path class="cls-6" d="M546.33,450.91c-.08,0-.14-.03-.18-.07s-.04-.11,0-.18l.16-.38c.03-.07.08-.13.16-.18.07-.05.15-.07.24-.07l3.43.04-1.91-4.89s-.01-.08-.02-.11c0-.03,0-.06.01-.09.02-.06.07-.11.15-.15.07-.04.14-.06.21-.06h.61c.09,0,.16.03.19.07.04.04.06.08.08.12l2,5.07c.02.05.04.1.04.16s0,.11-.03.18l-.15.36c-.03.07-.08.13-.16.18-.07.05-.15.07-.24.07l-4.59-.05ZM550.58,448.49l-.26-.7c.51-.13.92-.35,1.25-.66.33-.31.58-.69.77-1.14l.39-.92c.03-.07.08-.13.16-.18s.15-.07.24-.07h.53c.08,0,.14.03.17.08.03.05.03.11,0,.18l-.44,1.05c-.25.58-.61,1.07-1.08,1.48-.48.41-1.05.7-1.72.89Z"/>
          <path class="cls-6" d="M553.03,450.99c-.08,0-.13-.03-.16-.08-.03-.05-.02-.11.01-.18l3.3-5.26c.05-.07.11-.13.18-.16.08-.04.15-.05.23-.04l.5.03c.08,0,.14.04.16.09s.02.12-.03.19l-3.19,5.16c-.04.07-.1.13-.19.18-.08.05-.17.07-.25.07h-.57ZM558.45,445.76l-3.07-.03c-.09,0-.16-.03-.19-.07-.03-.05-.03-.11,0-.18l.16-.39c.03-.07.08-.13.15-.18.07-.05.15-.07.25-.07l3.21.04c.52,0,.95.12,1.27.33.32.21.52.51.59.91.07.39-.01.86-.24,1.42l-1.37,3.27c-.03.07-.08.13-.15.18-.07.05-.15.07-.24.07l-3.27-.04c-.08,0-.14-.03-.18-.07-.03-.05-.04-.11,0-.18l.15-.37c.03-.07.08-.13.16-.18.08-.05.15-.07.24-.07l2.41.03,1.09-2.59c.15-.37.21-.68.18-.96-.03-.27-.15-.48-.34-.63-.2-.15-.45-.23-.77-.23Z"/>
          <path class="cls-6" d="M566.15,452.48c-.09,0-.16-.02-.19-.06-.03-.04-.05-.08-.05-.13l-.3-6.92s0-.09,0-.11,0-.05.01-.08c.02-.06.07-.11.15-.15.07-.04.14-.06.21-.06h.59c.09,0,.16.03.19.07s.05.11.06.19l.14,2.93c.64-.06,1.17-.24,1.59-.56.42-.32.73-.74.96-1.27l.45-1.07c.03-.07.08-.13.16-.18s.15-.07.24-.07h.53c.08,0,.14.03.18.08.04.05.04.11,0,.18l-.47,1.14c-.21.49-.48.92-.83,1.28s-.76.65-1.23.88c-.47.23-.98.38-1.53.46l.14,3.04c0,.1,0,.17-.02.21-.02.06-.07.11-.14.15s-.14.06-.2.06h-.62Z"/>
          <path class="cls-6" d="M572.32,445.62c-.07,0-.11-.02-.13-.07s-.01-.1.02-.16l.93-1.53c.05-.09.12-.16.2-.22.08-.06.17-.09.28-.09h.85c.06.01.1.03.12.07.02.04.02.08,0,.12-.02.06-.07.11-.12.17l-1.27,1.46c-.06.07-.13.13-.21.18-.07.05-.16.07-.26.07h-.42ZM574.34,445.64c-.08,0-.12-.02-.14-.07s0-.1.03-.16l.93-1.53c.05-.09.12-.16.19-.22.08-.06.17-.09.29-.09h.83c.07.01.11.03.13.07.02.04.02.08,0,.12-.02.06-.06.11-.12.17l-1.27,1.46c-.06.07-.13.13-.21.18s-.17.07-.28.07h-.41Z"/>
          <path class="cls-6" d="M574.95,451.24c-.08,0-.14-.03-.18-.07-.03-.05-.04-.11,0-.18l.15-.37c.03-.07.08-.13.16-.18.07-.05.15-.07.24-.07l3.64.04,1.08-2.61c.24-.57.25-1.02.05-1.34s-.68-.49-1.43-.5l-1.37-.02c-.08,0-.14-.03-.18-.07-.03-.05-.04-.11,0-.18l.15-.36c.03-.07.08-.13.16-.18s.15-.07.24-.07l1.43.02c.73,0,1.29.11,1.68.32.4.21.64.51.72.9s0,.88-.24,1.46l-1.09,2.64h.47c.08,0,.14.03.18.08s.04.11,0,.18l-.15.37c-.03.07-.08.13-.16.18-.07.05-.15.07-.24.07l-5.29-.06Z"/>
          <path class="cls-6" d="M581.83,451.31c-.08,0-.13-.03-.16-.08-.03-.05-.02-.11.01-.18l3.25-5.26c.05-.07.11-.13.18-.17.08-.04.15-.05.23-.04l.5.03c.08,0,.14.04.16.09s.02.12-.03.19l-3.15,5.16c-.04.07-.1.13-.18.18-.08.05-.17.07-.25.07h-.57ZM587.2,446.09l-3.08-.03c-.09,0-.16-.03-.19-.07-.03-.05-.03-.11,0-.18l.16-.39c.03-.07.08-.13.15-.18.07-.05.15-.07.24-.07l3.21.04c.52,0,.95.12,1.27.33.32.21.52.51.59.91.07.39,0,.87-.23,1.42l-1.34,3.27c-.03.07-.08.13-.15.18-.07.05-.15.07-.24.07l-3.27-.04c-.08,0-.14-.03-.18-.07-.03-.05-.04-.11,0-.18l.15-.37c.03-.07.08-.13.16-.18.07-.05.15-.07.24-.07l2.41.03,1.07-2.59c.15-.37.21-.69.17-.96-.04-.27-.15-.48-.35-.63-.2-.15-.46-.23-.78-.23Z"/>
          <path class="cls-6" d="M592.46,451.53c-.08.02-.15.01-.2-.03-.05-.04-.06-.1-.03-.17l.2-.5c.03-.06.07-.12.14-.17s.15-.09.26-.12l.55-.16c.39-.12.76-.26,1.1-.43.35-.17.66-.4.94-.7.28-.3.52-.69.72-1.18s.27-.84.25-1.12c-.02-.28-.16-.48-.42-.6-.26-.12-.65-.19-1.17-.19l-2.57-.03c-.08,0-.14-.03-.18-.07-.04-.05-.04-.11,0-.18l.16-.39c.03-.07.08-.13.15-.18.07-.05.15-.07.24-.07l2.74.03c.78,0,1.35.11,1.73.3.38.19.58.49.61.91s-.09.95-.36,1.62c-.21.5-.46.94-.77,1.3-.31.36-.66.67-1.04.93-.38.26-.78.47-1.19.63-.41.17-.83.3-1.24.4l-.6.14ZM589.22,453.47c-.08,0-.14-.03-.18-.07-.04-.05-.04-.11,0-.18l2.32-5.66c.03-.07.08-.13.15-.18.07-.05.15-.07.24-.07h.56c.09,0,.16.03.19.08.03.05.03.11,0,.18l-2.32,5.66c-.03.07-.08.13-.15.18-.07.05-.15.07-.24.07h-.56Z"/>
        </g>
        <polygon class="cls-14" points="597.21 467.62 401.56 464.68 401.84 463.93 597.44 466.87 597.21 467.62"/>
        <g>
          <path class="cls-6" d="M459.3,485.82c-.08,0-.14-.03-.17-.08-.03-.05-.03-.12,0-.19l2.45-6.13c.03-.08.08-.14.15-.19.07-.05.15-.07.23-.07l2.35.03c.69,0,1.22.12,1.59.34.37.22.58.54.64.97.05.43-.04.96-.3,1.6l-1.4,3.53c-.03.08-.08.14-.16.19s-.15.07-.23.07h-.54c-.09,0-.15-.03-.17-.09-.03-.05-.03-.12,0-.19l1.39-3.49c.25-.62.28-1.11.1-1.46-.18-.35-.63-.53-1.35-.54l-1.47-.02-2.18,5.46c-.03.08-.08.14-.15.19-.07.05-.14.07-.22.07h-.56Z"/>
          <path class="cls-6" d="M466.5,485.91c-.08,0-.14-.03-.17-.08s-.03-.12,0-.19l.16-.4c.03-.08.08-.14.16-.19.07-.05.15-.07.23-.07l3.46.04,1.12-2.83c.25-.62.28-1.11.09-1.46s-.63-.53-1.35-.54l-1.3-.02c-.08,0-.14-.03-.17-.08s-.03-.12,0-.19l.16-.4c.03-.08.08-.14.15-.19.07-.05.15-.07.23-.07l1.36.02c.69,0,1.22.13,1.59.35.37.22.59.55.65.97.06.43-.03.96-.28,1.59l-1.13,2.86h.45c.08,0,.14.03.17.08.03.05.03.12,0,.19l-.16.4c-.03.08-.08.14-.15.19-.07.05-.15.07-.23.07l-5.03-.07Z"/>
          <path class="cls-6" d="M476,486.15c-1.08-.01-1.75-.28-2.03-.79-.27-.51-.23-1.22.12-2.11l1.45-3.65c.03-.08.08-.14.15-.19s.15-.07.23-.07h.49c.09,0,.15.03.17.08.03.05.03.12,0,.19l-1.42,3.59c-.25.62-.27,1.11-.08,1.45.19.35.62.52,1.29.53s1.22-.14,1.65-.45.78-.77,1.04-1.4c.04-.08.09-.2.15-.36.06-.16.12-.32.18-.48l.14-.36c.24-.65.28-1.12.13-1.42-.15-.3-.44-.45-.88-.46-.14,0-.3.02-.5.06s-.37.11-.52.18c-.09.04-.17.04-.23,0-.07-.04-.08-.1-.05-.18l.14-.36c.03-.08.07-.15.1-.2.04-.06.1-.11.2-.16.2-.09.4-.16.61-.22s.47-.08.76-.08c.52,0,.92.11,1.2.3.28.2.43.49.47.89.03.4-.07.91-.31,1.53-.02.08-.07.21-.14.4l-.23.57c-.08.19-.14.33-.17.41-.25.59-.56,1.09-.93,1.51-.37.41-.82.72-1.34.93-.52.2-1.14.3-1.87.29Z"/>
          <path class="cls-6" d="M480.58,486.09c-.07,0-.12-.03-.15-.08-.03-.05-.02-.12.02-.2l3.27-5.71c.05-.08.11-.14.18-.18.07-.04.15-.06.22-.04l.47.03c.08,0,.13.04.15.1s.01.13-.03.2l-3.17,5.6c-.04.08-.1.14-.18.2-.08.05-.16.08-.24.08h-.54ZM485.87,480.42l-2.93-.04c-.09,0-.15-.03-.17-.08-.03-.05-.03-.12,0-.19l.17-.42c.03-.08.08-.14.15-.19.07-.05.15-.07.23-.07l3.06.04c.5,0,.9.13,1.2.36.3.23.48.56.53.98.05.43-.04.94-.27,1.54l-1.39,3.55c-.03.08-.08.14-.15.19-.07.05-.15.07-.23.07l-3.11-.04c-.08,0-.14-.03-.17-.08-.03-.05-.03-.12,0-.19l.16-.4c.03-.08.08-.14.15-.19s.15-.07.23-.07l2.29.03,1.1-2.82c.16-.4.22-.74.2-1.04s-.13-.53-.31-.69c-.18-.16-.43-.25-.73-.25Z"/>
          <path class="cls-6" d="M492.82,480.49c-.08,0-.14-.03-.17-.08s-.03-.12,0-.19l.16-.4c.03-.08.08-.14.15-.19.07-.05.15-.07.23-.07l5.16.07c.08,0,.14.03.17.08.03.05.03.12,0,.19l-.15.4c-.03.08-.08.14-.15.19-.07.05-.15.07-.23.07l-5.17-.07ZM493.84,486.27c-.18,0-.23-.09-.16-.26l1.62-4.17c.18-.46.37-.82.59-1.07.21-.25.4-.38.57-.38l1.18.02c-.2,0-.42.14-.66.44-.24.29-.44.66-.61,1.09l-1.59,4.09c-.03.08-.08.14-.16.19-.07.05-.15.07-.23.07h-.54Z"/>
          <path class="cls-6" d="M499.33,485.74c-.37.19-.71.34-1.01.44s-.6.18-.91.23c-.08,0-.15,0-.2-.03-.05-.02-.06-.07-.03-.15l.23-.58c.05-.13.17-.23.37-.29.07-.02.18-.06.36-.11.17-.05.36-.11.56-.17s.39-.14.54-.22c.25-.12.51-.28.78-.48.27-.2.51-.4.73-.61.22-.21.35-.4.42-.56l.73-.07c-.14.33-.35.67-.62,1.01-.28.34-.59.65-.93.93-.34.28-.68.5-1.02.67ZM500.66,486.35c-.08,0-.13-.03-.16-.08-.03-.05-.03-.12-.02-.19l.65-3.6c.08-.41.12-.76.12-1.04s-.06-.49-.19-.64c-.12-.15-.34-.22-.66-.23h-.43c-.08,0-.14-.03-.17-.08-.03-.05-.03-.12,0-.19l.16-.42c.03-.08.08-.14.15-.19s.15-.07.23-.07h.44c.54.01.93.12,1.18.33.25.21.39.52.43.94.04.42,0,.93-.11,1.55l-.68,3.66c-.01.08-.06.14-.14.19-.08.05-.16.07-.24.07h-.58Z"/>
          <path class="cls-6" d="M502.77,486.38c-.08,0-.14-.03-.17-.08s-.03-.12,0-.19l.15-.4c.03-.08.08-.14.15-.19.07-.05.15-.07.23-.07l3.4.04-.28.71c-.03.08-.08.13-.14.17-.07.03-.14.05-.22.05l-3.12-.04ZM505.43,486.42c-.08,0-.13-.03-.16-.08-.03-.05-.03-.12-.02-.19l1.16-3.61c.13-.38.23-.71.29-.99.06-.28.05-.5-.04-.66-.09-.16-.31-.24-.65-.24h-.49c-.08,0-.14-.03-.17-.08-.03-.05-.03-.12,0-.19l.15-.4c.03-.08.08-.14.15-.19s.15-.07.23-.07h.51c.46.01.8.08,1.03.21.23.13.38.32.44.57s.06.54,0,.89c-.06.34-.16.72-.3,1.15l-1.18,3.65c-.02.08-.07.14-.15.19-.08.05-.15.07-.23.07h-.58Z"/>
          <path class="cls-6" d="M511.98,483.77c-.08,0-.14-.03-.17-.08-.03-.05-.03-.12,0-.19l1.31-3.42c.03-.08.08-.14.15-.19.07-.05.15-.07.23-.07h.58c.08,0,.13.03.16.09.03.05.03.12,0,.19l-1.31,3.42c-.03.08-.08.14-.15.19-.07.05-.14.07-.22.07h-.58Z"/>
          <path class="cls-6" d="M517.46,486.57c-.08,0-.14-.03-.17-.08-.03-.05-.03-.12,0-.19l1.34-3.5c.24-.62.26-1.11.07-1.46s-.64-.53-1.35-.54l-1.58-.02c-.08,0-.14-.03-.17-.08s-.03-.12,0-.19l.15-.4c.03-.08.08-.14.15-.19.07-.05.15-.07.23-.07l1.64.02c.69,0,1.22.12,1.59.34.37.22.59.54.65.96.06.43-.03.96-.27,1.59l-1.36,3.55c-.03.08-.08.14-.15.19s-.15.07-.23.07h-.54Z"/>
          <path class="cls-6" d="M520.34,486.61c-.08,0-.14-.03-.17-.08-.03-.05-.03-.12,0-.19l2.34-6.13c.03-.08.08-.14.15-.19s.15-.07.23-.07h.57c.09,0,.15.03.18.09.03.05.03.12,0,.19l-2.34,6.13c-.03.08-.08.14-.15.19-.07.05-.14.07-.23.07h-.57Z"/>
          <path class="cls-6" d="M524.88,486.07c-.37.19-.71.34-1.01.44s-.6.18-.91.23c-.08,0-.15,0-.2-.03-.05-.02-.06-.07-.03-.15l.22-.58c.05-.13.17-.23.36-.29.07-.02.18-.06.36-.11.17-.05.36-.11.56-.17.2-.07.38-.14.54-.22.25-.12.51-.28.78-.48.27-.2.51-.4.72-.61s.35-.4.41-.56l.73-.07c-.14.33-.34.67-.61,1.01-.28.34-.58.65-.92.93s-.68.5-1.02.67ZM526.21,486.69c-.08,0-.13-.03-.16-.08-.03-.05-.03-.12-.02-.19l.63-3.6c.08-.41.11-.76.11-1.04s-.07-.49-.19-.64c-.13-.15-.35-.22-.66-.23h-.43c-.08,0-.14-.03-.17-.08-.03-.05-.03-.12,0-.19l.16-.42c.03-.08.08-.14.15-.19.07-.05.15-.07.23-.07h.45c.54.01.93.12,1.18.33.25.21.4.52.44.94.04.42,0,.93-.1,1.55l-.65,3.66c-.01.08-.06.14-.14.19-.08.05-.16.07-.24.07h-.58Z"/>
          <path class="cls-6" d="M530.07,480.97c-.08,0-.14-.03-.17-.08-.03-.05-.03-.12,0-.19l.15-.4c.03-.08.08-.14.15-.19s.15-.07.23-.07l2.91.04c.09,0,.15.03.18.08.03.05.03.12,0,.19l-.15.4c-.03.08-.08.14-.14.19-.07.05-.15.07-.23.07l-2.92-.04ZM528.91,486.72c-.18,0-.23-.09-.17-.26l1.58-4.17c.17-.46.36-.82.58-1.07.21-.25.39-.38.55-.38l1.19.02c-.2,0-.42.14-.66.44-.24.29-.44.66-.6,1.09l-1.55,4.09c-.03.08-.08.14-.16.19-.07.05-.15.07-.23.07h-.54Z"/>
          <path class="cls-6" d="M539.01,486.85c-.08,0-.14-.03-.17-.08s-.04-.12,0-.19l1.31-3.5c.23-.62.26-1.11.06-1.46s-.64-.53-1.36-.54l-1.58-.02c-.08,0-.14-.03-.17-.08-.03-.05-.04-.12,0-.19l.15-.4c.03-.08.08-.14.15-.19s.15-.07.23-.07l1.64.02c.69,0,1.22.12,1.6.34.37.22.6.54.66.96.07.43-.02.96-.26,1.59l-1.34,3.55c-.03.08-.08.14-.15.19-.07.05-.15.07-.23.07h-.54Z"/>
          <path class="cls-6" d="M541.89,486.89c-.08,0-.14-.03-.17-.08-.03-.05-.04-.12,0-.19l2.3-6.13c.03-.08.08-.14.15-.19.07-.05.15-.07.23-.07h.57c.09,0,.15.03.18.09.03.05.03.12,0,.19l-2.3,6.13c-.03.08-.08.14-.14.19-.07.05-.15.07-.23.07h-.57Z"/>
          <path class="cls-6" d="M544.59,486.92c-.08,0-.14-.03-.17-.08s-.04-.12,0-.19l.66-1.76c.13-.36.3-.7.49-1.02s.45-.63.77-.92c.32-.29.74-.56,1.27-.81l.26.79c-.36.17-.65.38-.88.6-.23.23-.42.46-.56.71s-.25.48-.34.71l-.64,1.71c-.03.08-.08.14-.15.19-.07.05-.15.07-.23.07h-.48ZM549.29,486.98c-.09,0-.15-.03-.18-.07l-.08-.13-2.18-6.07c-.02-.09-.02-.16,0-.22s.07-.12.14-.16c.07-.05.14-.07.2-.07h.57c.09,0,.15.03.18.08.04.05.06.09.08.13l2.19,6.08c.01.06.02.1.02.13s0,.06-.02.09c-.02.06-.07.12-.13.16s-.13.07-.19.07h-.59ZM549.13,484.83l-.19-.81c.46-.17.81-.36,1.05-.55s.41-.4.52-.61c.11-.21.21-.44.3-.67l.6-1.61c.03-.08.08-.14.15-.19.07-.05.15-.07.23-.07h.51c.08,0,.14.03.17.08s.04.12,0,.19l-.62,1.67c-.12.33-.28.64-.47.94s-.46.59-.81.85c-.35.27-.82.52-1.43.77Z"/>
          <path class="cls-6" d="M551.66,487.02c-.07,0-.12-.03-.15-.08-.03-.05-.02-.12.01-.2l3.16-5.71c.04-.08.1-.14.18-.18.07-.04.15-.06.22-.04l.47.03c.08,0,.13.04.16.1s.02.13-.03.2l-3.05,5.61c-.04.08-.1.14-.18.2-.08.05-.16.08-.24.08h-.54ZM556.84,481.34l-2.93-.04c-.09,0-.15-.03-.18-.08-.03-.05-.03-.12,0-.19l.16-.42c.03-.08.08-.14.14-.19.07-.05.14-.07.23-.07l3.06.04c.5,0,.9.13,1.21.36.31.23.49.56.56.99.06.43-.02.94-.24,1.54l-1.32,3.55c-.03.08-.08.14-.14.19-.07.05-.15.07-.23.07l-3.11-.04c-.08,0-.14-.03-.17-.08-.03-.05-.04-.12,0-.19l.15-.4c.03-.08.08-.14.15-.19s.15-.07.23-.07l2.29.03,1.04-2.82c.15-.4.21-.74.17-1.04s-.14-.53-.33-.69c-.19-.16-.43-.25-.74-.25Z"/>
          <path class="cls-6" d="M565.78,487.2c-.08,0-.14-.03-.17-.08-.03-.05-.04-.12,0-.19l1.29-3.5c.23-.62.25-1.11.05-1.46s-.65-.53-1.36-.54l-1.58-.02c-.08,0-.14-.03-.17-.08s-.04-.12,0-.19l.15-.4c.03-.08.08-.14.15-.19.07-.05.15-.07.23-.07l1.64.02c.69,0,1.22.12,1.6.34.38.22.6.54.67.96.07.43-.01.96-.24,1.59l-1.31,3.56c-.03.08-.08.14-.15.19s-.15.07-.23.07h-.54Z"/>
          <path class="cls-6" d="M570.3,481.19c-.07,0-.11-.02-.13-.07s-.01-.11.02-.18l.89-1.66c.05-.09.11-.17.19-.24.08-.07.17-.1.27-.1h.81c.06.01.09.03.11.08s.02.09,0,.13c-.02.06-.06.12-.12.19l-1.21,1.59c-.06.08-.13.14-.2.19-.07.05-.15.07-.25.07h-.4ZM572.22,481.21c-.07,0-.12-.02-.13-.07s0-.11.03-.18l.89-1.66c.05-.09.11-.17.18-.24s.17-.1.28-.1h.79c.06.01.11.03.13.08s.02.09,0,.13c-.02.06-.06.12-.12.19l-1.21,1.59c-.06.08-.13.14-.2.19-.07.05-.16.07-.26.07h-.39Z"/>
          <path class="cls-6" d="M575.59,487.44c-1.01-.01-1.66-.28-1.97-.8s-.29-1.24.05-2.17l1.32-3.6c.03-.08.08-.14.15-.19s.15-.07.23-.07l2.9.04c.72,0,1.25.12,1.6.34.35.22.55.53.6.94.05.41-.03.92-.22,1.52-.02.08-.06.2-.12.37l-.19.51c-.06.17-.11.3-.15.37-.23.59-.53,1.1-.9,1.51-.37.41-.82.72-1.36.93-.54.2-1.18.3-1.93.29ZM575.94,486.48c.76,0,1.36-.14,1.79-.44.43-.3.76-.77,1.01-1.4.04-.08.08-.19.14-.35l.17-.46c.05-.15.09-.26.11-.34.21-.62.2-1.09-.04-1.41-.23-.32-.65-.48-1.24-.49l-2.06-.03-1.07,2.93c-.23.62-.25,1.11-.05,1.46.19.35.61.52,1.25.53Z"/>
          <path class="cls-6" d="M584.2,487.44c-.08,0-.14-.03-.17-.08s-.04-.12,0-.19l1.27-3.5c.23-.62.24-1.11.05-1.46s-.65-.53-1.37-.54l-1.58-.02c-.08,0-.14-.03-.17-.08-.03-.05-.04-.12,0-.19l.14-.4c.03-.08.08-.14.15-.19s.15-.07.23-.07l1.64.02c.69,0,1.23.12,1.6.34.38.22.6.54.67.96.07.43,0,.96-.24,1.59l-1.29,3.56c-.03.08-.08.14-.15.19-.07.05-.15.07-.23.07h-.54Z"/>
        </g>
        <polygon class="cls-14" points="587.21 500.35 389.31 497.31 389.6 496.54 587.44 499.58 587.21 500.35"/>
      </g>
      <g>
        <path class="cls-11" d="M455.98,354.09c-.06,0-.11-.02-.13-.07s-.03-.1,0-.16l1.9-5.47-2,1.23c-.06.04-.12.05-.18.05-.05,0-.09-.04-.11-.09l-.13-.33c-.02-.06-.01-.12.02-.18.03-.06.08-.11.14-.15l2.62-1.61c.06-.03.1-.05.14-.06.04,0,.08,0,.13,0h.48c.06,0,.11.03.13.07.03.04.03.1,0,.16l-2.22,6.39c-.02.07-.06.12-.12.16s-.11.06-.18.06h-.5Z"/>
        <path class="cls-11" d="M460.2,354.25c-.4,0-.73-.06-.99-.17-.26-.11-.46-.24-.61-.42-.14-.17-.23-.36-.26-.57s-.02-.41.05-.62c.02-.06.06-.11.11-.14.05-.03.1-.05.16-.05h.46c.06,0,.1.02.14.05.04.03.05.09.05.17-.02.24.03.42.14.55.11.13.26.23.44.28.19.05.39.08.59.08.43,0,.82-.1,1.17-.31.34-.21.59-.53.73-.94s.13-.73-.05-.91-.49-.28-.92-.29h-.9c-.06-.01-.11-.03-.14-.07-.03-.04-.03-.1,0-.17l.09-.26c.02-.06.05-.11.09-.15s.07-.08.11-.11l2.55-2.04-2.78-.04c-.06,0-.11-.02-.14-.06-.03-.04-.03-.1,0-.17l.13-.37c.02-.07.06-.13.12-.17.06-.04.11-.06.18-.06l3.76.06c.07,0,.12.02.14.07.03.04.03.1,0,.17l-.12.35s-.04.09-.07.12c-.03.04-.07.07-.11.1l-2.54,2.07h.15c.41.03.75.11,1.01.26.26.15.43.36.51.65.08.29.04.64-.11,1.07s-.38.81-.7,1.11c-.31.3-.68.54-1.1.7-.42.16-.86.24-1.33.23Z"/>
        <path class="cls-11" d="M465.14,350.79c-.06,0-.11-.02-.13-.07-.03-.04-.03-.1,0-.16l.24-.68c.02-.07.06-.12.12-.16.05-.04.11-.06.18-.06h.68c.06.01.11.03.13.08.03.04.03.1,0,.16l-.24.68c-.02.07-.06.12-.12.16s-.11.06-.18.06h-.68ZM463.96,354.21c-.06,0-.11-.02-.13-.07-.03-.04-.03-.1,0-.16l.24-.69c.02-.07.06-.12.12-.16.06-.04.11-.06.18-.06h.68c.06.01.11.03.13.08s.03.1,0,.16l-.24.69c-.02.07-.06.12-.12.16s-.11.06-.18.06h-.68Z"/>
        <path class="cls-11" d="M468.12,354.27c-.06,0-.11-.02-.13-.07s-.03-.1,0-.16l1.88-5.47-1.99,1.23c-.06.04-.12.05-.18.05-.05,0-.09-.04-.11-.09l-.13-.33c-.02-.06-.01-.12.02-.18.03-.06.08-.11.14-.15l2.62-1.61c.06-.03.1-.05.14-.06.04,0,.08,0,.13,0h.48c.06,0,.11.03.13.07.03.04.03.1,0,.16l-2.19,6.39c-.02.07-.06.12-.12.16s-.11.06-.18.06h-.5Z"/>
        <path class="cls-11" d="M472.16,354.33c-.06,0-.11-.02-.13-.07s-.03-.1,0-.16l1.87-5.47-1.99,1.23c-.06.04-.12.05-.18.05-.05,0-.09-.04-.11-.09l-.13-.33c-.02-.06-.01-.12.02-.18.03-.06.08-.11.14-.15l2.62-1.61c.06-.03.1-.05.14-.06.04,0,.08,0,.13,0h.48c.06,0,.11.03.13.07.03.04.03.1,0,.16l-2.19,6.39c-.02.07-.06.12-.12.16s-.11.06-.18.06h-.5Z"/>
      </g>
      <g>
        <path class="cls-11" d="M443.08,383.9c-.06,0-.11-.02-.13-.06s-.03-.1,0-.16l1.9-5.38-1.98,1.2c-.06.04-.12.05-.18.05-.05,0-.09-.04-.11-.09l-.13-.32c-.02-.06-.01-.12.02-.17.03-.06.08-.11.14-.14l2.6-1.58c.05-.03.1-.05.14-.06.04,0,.08,0,.12,0h.48c.06,0,.11.03.13.07.03.04.03.1,0,.16l-2.22,6.28c-.02.06-.06.12-.12.16s-.11.06-.18.06h-.49Z"/>
        <path class="cls-11" d="M447.25,384.06c-.39,0-.72-.06-.97-.16-.26-.1-.46-.24-.6-.41-.14-.17-.23-.36-.26-.56s-.01-.41.05-.61c.02-.06.05-.1.1-.14.05-.03.1-.05.16-.05h.46c.06,0,.1.02.14.05.04.03.05.09.05.17-.02.23.02.41.13.54.11.13.25.22.44.27.19.05.38.08.59.08.43,0,.82-.09,1.16-.3.34-.21.59-.52.73-.93s.13-.72-.05-.9-.48-.28-.91-.28h-.89c-.06-.01-.11-.03-.13-.07-.03-.04-.03-.09,0-.16l.09-.26c.02-.06.05-.11.09-.15s.07-.08.11-.11l2.53-2.01-2.75-.04c-.06,0-.11-.02-.13-.06-.03-.04-.03-.09,0-.16l.13-.36c.02-.07.06-.13.12-.17.05-.04.11-.06.18-.06l3.72.06c.07,0,.12.02.14.06.03.04.03.1,0,.17l-.12.35s-.04.08-.07.12c-.03.04-.07.07-.11.1l-2.53,2.04h.15c.41.03.74.11,1,.26.26.15.42.36.5.64.07.28.04.63-.11,1.06s-.38.79-.69,1.09c-.31.3-.68.53-1.09.68-.42.16-.85.23-1.31.23Z"/>
        <path class="cls-11" d="M452.16,380.65c-.06,0-.11-.02-.13-.06-.03-.04-.03-.1,0-.16l.24-.67c.02-.06.06-.12.12-.16.05-.04.11-.06.18-.06h.67c.06.01.11.03.13.07.03.04.03.1,0,.16l-.24.67c-.02.06-.06.12-.12.16s-.11.06-.18.06h-.67ZM450.97,384.02c-.06,0-.11-.02-.13-.06-.03-.04-.03-.1,0-.16l.24-.67c.02-.06.06-.12.12-.16.05-.04.11-.06.18-.06h.67c.06.01.11.03.13.07s.03.1,0,.16l-.24.67c-.02.06-.06.12-.12.16s-.11.06-.18.06h-.67Z"/>
        <path class="cls-11" d="M455.25,384.18c-.39,0-.72-.06-.98-.16-.26-.1-.46-.24-.6-.41-.14-.17-.23-.36-.26-.56s-.01-.41.05-.61c.02-.06.05-.1.1-.14.05-.03.1-.05.16-.05h.46c.06,0,.1.02.14.05.04.03.05.09.05.17-.02.23.03.41.13.54.11.13.25.22.44.27.19.05.38.08.59.08.43,0,.82-.09,1.16-.3.34-.21.58-.52.73-.93s.13-.72-.05-.9-.48-.28-.91-.28h-.89c-.06-.01-.11-.03-.13-.07-.03-.04-.03-.09,0-.16l.09-.26c.02-.06.05-.11.09-.15s.07-.08.11-.11l2.52-2.01-2.75-.04c-.06,0-.11-.02-.13-.06-.03-.04-.03-.09,0-.16l.13-.36c.02-.07.06-.13.12-.17.05-.04.11-.06.18-.06l3.72.06c.07,0,.12.02.14.06.03.04.03.1,0,.17l-.12.35s-.04.08-.07.12c-.03.04-.07.07-.11.1l-2.52,2.04h.15c.41.03.74.11,1,.26.26.15.42.36.5.64.07.28.04.63-.11,1.06s-.38.79-.69,1.09c-.31.3-.67.53-1.09.68-.42.16-.85.23-1.31.23Z"/>
        <path class="cls-11" d="M461.04,384.26c-.43,0-.77-.08-1.02-.22-.25-.14-.42-.34-.52-.58s-.14-.53-.11-.84.09-.65.2-1c.05-.17.11-.36.18-.55.06-.19.13-.39.2-.59s.14-.39.21-.57c.13-.35.29-.68.49-1,.2-.31.43-.59.7-.82.27-.24.58-.42.92-.55.34-.13.73-.2,1.15-.19s.77.08,1.01.22c.25.14.42.33.53.58.1.24.15.52.13.84-.02.32-.09.65-.2,1-.06.18-.12.37-.18.57s-.13.39-.2.59c-.07.19-.14.37-.2.55-.13.35-.29.69-.49,1s-.43.59-.7.83c-.27.24-.57.43-.92.56-.34.13-.73.2-1.17.19ZM461.33,383.43c.49,0,.9-.15,1.25-.47s.62-.77.83-1.34c.08-.19.15-.37.21-.54l.18-.53c.06-.18.12-.35.16-.52.19-.56.22-1,.11-1.34s-.42-.51-.9-.52-.89.16-1.24.49c-.35.33-.63.78-.83,1.33-.06.17-.12.35-.19.52-.06.18-.13.35-.18.53s-.12.36-.18.54c-.19.57-.22,1.02-.1,1.35s.42.5.89.51Z"/>
      </g>
      <g>
        <path class="cls-11" d="M428.51,415.1c-.07,0-.11-.02-.14-.07s-.03-.1,0-.16l2.06-5.4-2.13,1.21c-.07.04-.13.05-.19.05-.06,0-.1-.04-.12-.09l-.14-.32c-.02-.06-.01-.12.02-.17.03-.06.08-.11.15-.14l2.8-1.58c.06-.03.11-.05.15-.06.04,0,.09,0,.13,0h.51c.07,0,.11.03.14.07.03.04.03.1,0,.16l-2.41,6.3c-.02.06-.07.12-.13.16s-.12.06-.19.06h-.53Z"/>
        <path class="cls-11" d="M432.99,415.26c-.42,0-.77-.06-1.05-.16-.28-.1-.49-.24-.64-.41-.15-.17-.24-.36-.27-.56s-.01-.41.06-.62c.02-.06.06-.1.11-.14.05-.03.11-.05.17-.05h.49c.06,0,.11.02.15.05.04.03.06.09.05.17-.02.23.03.41.14.54.11.13.27.22.47.27.2.05.41.08.63.08.46,0,.88-.09,1.25-.3.37-.21.63-.52.79-.93s.14-.72-.05-.9-.52-.28-.98-.28h-.95c-.07-.01-.11-.03-.14-.07-.03-.04-.03-.09,0-.17l.1-.26c.02-.06.05-.11.09-.15s.08-.08.12-.11l2.72-2.01-2.96-.04c-.07,0-.11-.02-.14-.06-.03-.04-.03-.09,0-.16l.14-.37c.03-.07.07-.13.13-.17.06-.04.12-.06.19-.06l4,.06c.07,0,.12.02.15.06.03.04.03.1,0,.17l-.13.35s-.04.08-.08.12c-.04.04-.08.07-.11.1l-2.72,2.04h.16c.44.03.79.11,1.07.26.28.15.45.36.53.64.08.28.04.64-.13,1.06s-.41.8-.75,1.09c-.34.3-.73.53-1.17.69-.45.16-.92.23-1.41.23Z"/>
        <path class="cls-11" d="M438.27,411.84c-.07,0-.11-.02-.14-.07-.03-.04-.03-.1,0-.16l.26-.67c.02-.06.07-.12.13-.16.06-.04.12-.06.19-.06h.72c.07.01.11.03.14.07.03.04.03.1,0,.16l-.26.67c-.02.06-.07.12-.13.16s-.12.06-.19.06h-.72ZM436.99,415.22c-.07,0-.11-.02-.14-.07-.03-.04-.03-.1,0-.16l.26-.68c.02-.06.07-.12.13-.16.06-.04.12-.06.19-.06h.72c.07.01.11.03.14.08s.03.1,0,.16l-.26.68c-.02.06-.07.12-.13.16s-.12.06-.19.06h-.72Z"/>
        <path class="cls-11" d="M441.4,415.28c-.07,0-.11-.02-.14-.07s-.03-.1,0-.16l2.04-5.4-2.13,1.21c-.07.04-.13.05-.19.05-.06,0-.1-.04-.12-.09l-.14-.32c-.02-.06-.01-.12.02-.17.03-.06.08-.11.15-.14l2.8-1.59c.06-.03.11-.05.15-.06.04,0,.09,0,.13,0h.51c.07,0,.11.03.14.07.03.04.03.1,0,.16l-2.38,6.3c-.02.06-.07.12-.13.16s-.12.06-.19.06h-.53Z"/>
        <path class="cls-11" d="M446.09,415.44c-.39,0-.73-.06-1.02-.15s-.52-.24-.68-.42c-.16-.18-.26-.4-.3-.65-.03-.25,0-.53.13-.85.15-.39.37-.73.68-1.01.3-.28.65-.49,1.03-.63-.2-.15-.34-.35-.39-.59-.06-.24-.02-.52.1-.85.15-.38.37-.71.66-.97.3-.26.65-.47,1.07-.61.41-.14.86-.21,1.33-.2s.85.08,1.16.23c.3.15.5.36.6.63.1.27.07.6-.07.98-.12.33-.3.61-.54.85-.24.24-.51.43-.82.57.27.15.45.37.54.66.09.29.06.62-.08,1.02-.16.42-.4.78-.74,1.08-.34.3-.73.53-1.19.69-.46.16-.95.23-1.47.23ZM446.38,414.67c.31,0,.6-.04.89-.14s.54-.24.76-.43c.22-.19.38-.41.47-.67s.11-.49.03-.67c-.08-.19-.22-.33-.43-.43-.21-.1-.47-.16-.78-.16s-.61.04-.89.14c-.29.1-.54.23-.76.42-.22.18-.37.4-.47.67s-.11.48-.03.67c.08.19.22.34.43.45.21.11.47.16.78.17ZM447.61,411.4c.25,0,.51-.04.76-.12.25-.09.47-.21.66-.36.19-.15.32-.34.41-.56s.09-.41.03-.57c-.06-.16-.19-.29-.37-.38-.18-.09-.41-.14-.68-.14s-.53.04-.78.12-.47.2-.66.36c-.19.16-.32.35-.4.57s-.09.42-.03.58c.07.16.19.28.38.37s.41.13.68.14Z"/>
      </g>
      <g>
        <path class="cls-11" d="M414.49,449.39c-.06,0-.11-.02-.13-.07s-.03-.1,0-.16l1.98-5.43-2.03,1.21c-.07.04-.13.05-.18.05-.05,0-.09-.04-.11-.09l-.13-.32c-.02-.06-.01-.12.02-.17.03-.06.08-.11.14-.14l2.67-1.59c.06-.03.1-.05.14-.06.04,0,.08,0,.13,0h.48c.06,0,.11.03.13.07.03.04.03.1,0,.16l-2.31,6.34c-.02.06-.06.12-.12.16s-.12.06-.18.06h-.5Z"/>
        <path class="cls-11" d="M418.74,449.55c-.4,0-.73-.06-.99-.17s-.46-.24-.61-.41c-.14-.17-.23-.36-.26-.57-.03-.21-.01-.41.06-.62.02-.06.06-.1.11-.14s.11-.05.16-.05h.47c.06,0,.1.02.14.05.04.03.05.09.05.17-.02.23.02.42.13.55s.26.22.45.27c.19.05.39.08.6.08.44,0,.83-.1,1.18-.31.35-.21.6-.52.75-.94s.14-.72-.04-.91-.49-.28-.93-.29h-.9c-.06-.01-.11-.03-.14-.07s-.03-.09,0-.17l.09-.26c.02-.06.05-.11.09-.15s.07-.08.11-.11l2.59-2.03-2.8-.04c-.06,0-.11-.02-.14-.06-.03-.04-.03-.09,0-.17l.13-.37c.03-.07.07-.13.12-.17.06-.04.12-.06.18-.06l3.79.06c.07,0,.12.02.14.06.03.04.03.1,0,.17l-.13.35s-.04.08-.08.12c-.04.04-.07.07-.11.1l-2.59,2.05h.15c.41.03.75.11,1.01.26.26.15.43.36.5.65s.03.64-.12,1.07-.4.8-.72,1.1c-.32.3-.69.53-1.12.69-.43.16-.87.24-1.34.23Z"/>
        <path class="cls-11" d="M423.77,446.11c-.06,0-.11-.02-.13-.07-.03-.04-.03-.1,0-.16l.25-.68c.02-.06.06-.12.12-.16.06-.04.12-.06.18-.06h.68c.06.01.11.03.13.08s.03.1,0,.16l-.25.68c-.02.07-.06.12-.12.16s-.12.06-.18.06h-.68ZM422.53,449.51c-.06,0-.11-.02-.13-.07-.03-.04-.03-.1,0-.16l.25-.68c.02-.07.06-.12.12-.16.06-.04.12-.06.18-.06h.69c.06.01.11.03.13.08s.03.1,0,.16l-.25.68c-.02.06-.06.12-.12.16s-.12.06-.18.06h-.69Z"/>
        <path class="cls-11" d="M424.78,449.54c-.06,0-.11-.02-.13-.07s-.03-.1,0-.16l.11-.31c.02-.06.06-.12.12-.19.06-.07.15-.15.28-.23l2.76-2.03c.42-.27.76-.51,1.02-.7.26-.19.46-.38.6-.56.14-.18.25-.37.32-.56.13-.37.14-.66.01-.88-.12-.22-.39-.33-.79-.34-.25,0-.49.05-.71.15-.22.1-.42.25-.59.43-.17.18-.31.39-.44.62-.04.08-.1.14-.16.17-.07.03-.12.05-.16.05h-.49c-.06,0-.1-.03-.12-.06-.03-.04-.03-.08-.01-.13.1-.25.24-.49.42-.74.19-.25.41-.47.67-.67.26-.2.55-.36.87-.48.32-.12.66-.17,1.03-.17.5,0,.88.11,1.13.29.25.19.4.44.44.74s0,.64-.13,1c-.1.28-.24.54-.42.78s-.4.46-.66.68-.57.45-.92.67l-2.51,1.86,2.97.04c.07,0,.12.02.15.06s.03.09,0,.17l-.14.4c-.02.06-.06.12-.12.16s-.12.06-.19.06l-4.2-.06Z"/>
        <path class="cls-11" d="M430.37,449.63c-.06,0-.11-.02-.13-.07s-.03-.1,0-.16l.11-.31c.02-.06.06-.12.12-.19.06-.07.15-.15.27-.23l2.76-2.03c.42-.27.76-.51,1.02-.7.26-.19.46-.38.6-.56.14-.18.25-.37.32-.56.13-.37.14-.66.01-.88-.13-.22-.39-.33-.79-.34-.25,0-.49.05-.71.15-.22.1-.42.25-.58.43-.17.18-.31.39-.43.62-.04.08-.1.14-.16.17-.07.03-.12.05-.16.05h-.49c-.06,0-.1-.03-.12-.06-.03-.04-.03-.08-.01-.13.1-.25.23-.49.42-.74.19-.25.41-.47.67-.67.26-.2.55-.36.87-.48.32-.12.66-.17,1.03-.17.5,0,.88.11,1.13.29.25.19.4.44.45.74s0,.64-.13,1c-.1.28-.24.54-.42.78s-.4.46-.66.68-.57.45-.92.67l-2.51,1.86,2.97.04c.07,0,.12.02.15.06s.03.09,0,.17l-.14.4c-.02.06-.06.12-.12.16s-.12.06-.19.06l-4.2-.06Z"/>
      </g>
      <g>
        <path class="cls-11" d="M408.16,483.93c-.06,0-.11-.02-.13-.06s-.03-.09,0-.16l1.98-5.37-2,1.2c-.06.04-.12.05-.18.05-.05,0-.09-.04-.11-.09l-.13-.32c-.02-.06,0-.12.02-.17.03-.06.08-.11.14-.14l2.63-1.58c.06-.03.1-.05.14-.06.04,0,.08,0,.13,0h.48c.06,0,.11.03.13.07.03.04.03.1,0,.16l-2.31,6.27c-.02.06-.06.12-.12.16s-.12.06-.18.06h-.5Z"/>
        <path class="cls-11" d="M412.34,484.09c-.39,0-.72-.06-.98-.16-.26-.1-.45-.24-.59-.41-.14-.17-.22-.36-.25-.56s0-.41.06-.61c.02-.06.06-.1.11-.14s.1-.05.16-.05h.46c.06,0,.1.02.14.05.04.03.05.09.05.17-.02.23.02.41.13.54.11.13.25.22.44.27.19.05.38.08.59.08.43,0,.82-.09,1.17-.3.35-.21.59-.52.74-.93s.14-.71-.04-.9-.48-.28-.91-.28h-.89c-.06-.01-.11-.04-.13-.07-.03-.04-.03-.09,0-.16l.1-.26c.02-.06.05-.11.09-.15s.07-.08.11-.11l2.56-2-2.76-.04c-.06,0-.11-.02-.13-.06s-.03-.09,0-.16l.13-.36c.03-.07.07-.13.12-.17.06-.04.11-.06.18-.06l3.73.06c.07,0,.12.02.14.06.03.04.03.1,0,.17l-.13.34s-.04.09-.08.12c-.04.03-.07.07-.11.1l-2.56,2.03h.15c.41.03.74.11,1,.26.26.15.42.36.49.64s.03.63-.13,1.05-.39.79-.71,1.09c-.32.3-.68.53-1.1.68-.42.16-.86.23-1.32.23Z"/>
        <path class="cls-11" d="M417.31,480.69c-.06,0-.11-.02-.13-.06-.03-.04-.03-.09,0-.16l.24-.67c.02-.06.06-.12.12-.16.05-.04.11-.06.18-.06h.67c.06.01.11.03.13.07.03.04.03.1,0,.16l-.24.67c-.02.06-.06.12-.12.16s-.11.06-.18.06h-.67ZM416.08,484.05c-.06,0-.11-.02-.13-.06-.03-.04-.03-.09,0-.16l.25-.67c.02-.06.06-.12.12-.16.06-.04.11-.06.18-.06h.67c.06.01.11.03.13.08s.03.1,0,.16l-.25.67c-.02.06-.06.12-.12.16s-.11.06-.18.06h-.67Z"/>
        <path class="cls-11" d="M418.29,484.09c-.06,0-.11-.02-.13-.06s-.03-.09,0-.16l.11-.31c.02-.06.06-.12.12-.19.06-.07.15-.15.27-.23l2.73-2.01c.42-.27.76-.5,1.01-.69.26-.19.45-.38.6-.55.14-.18.25-.36.32-.55.13-.37.14-.66.02-.87-.12-.22-.38-.33-.77-.33-.25,0-.48.04-.7.15s-.41.24-.58.43c-.17.18-.31.39-.43.61-.04.08-.1.14-.16.17-.07.03-.12.05-.16.05h-.49c-.06,0-.1-.03-.12-.06-.03-.03-.03-.08,0-.13.1-.24.23-.49.42-.73.18-.24.4-.47.66-.66.26-.2.54-.36.86-.47.32-.12.65-.17,1.02-.17.49,0,.86.1,1.11.29.25.19.39.43.43.73s0,.63-.13.99c-.1.28-.24.54-.42.77-.18.23-.4.46-.66.68s-.56.44-.91.67l-2.48,1.85,2.92.04c.07,0,.12.02.14.06.03.04.03.09,0,.16l-.14.39c-.02.06-.06.12-.12.16s-.12.06-.19.06l-4.14-.06Z"/>
        <path class="cls-11" d="M426.07,484.3c-.36,0-.68-.06-.95-.16-.27-.1-.48-.24-.63-.42-.15-.18-.24-.4-.27-.65-.03-.25.01-.53.13-.84.14-.39.36-.73.64-1,.29-.28.61-.49.97-.63-.19-.15-.31-.34-.36-.58-.05-.24-.02-.52.1-.85.14-.38.35-.71.63-.97.28-.26.61-.46,1-.61.39-.14.8-.21,1.24-.2s.8.09,1.08.23c.28.15.47.36.55.63.09.27.06.6-.07.97-.12.33-.29.61-.51.85-.22.24-.48.43-.77.57.25.15.42.37.5.65.08.28.05.62-.09,1.01-.15.42-.38.77-.7,1.08-.32.3-.69.53-1.12.69-.43.16-.89.23-1.37.23ZM426.35,483.54c.29,0,.57-.04.83-.14.27-.1.51-.24.71-.43.21-.19.35-.41.45-.66s.11-.49.04-.67c-.07-.18-.2-.33-.4-.43-.2-.1-.44-.16-.72-.16s-.57.04-.84.14c-.27.1-.51.23-.71.41-.2.18-.35.4-.45.66s-.1.48-.04.67c.07.19.2.34.4.45.2.11.44.16.73.17ZM427.53,480.28c.24,0,.47-.04.71-.12.24-.09.44-.21.62-.36.18-.15.31-.34.38-.55s.09-.41.03-.57c-.06-.16-.17-.29-.34-.38-.17-.09-.38-.14-.63-.14s-.49.04-.73.12c-.23.08-.44.2-.62.36-.18.16-.3.35-.38.56s-.09.41-.03.57c.06.16.18.28.35.37s.38.13.63.13Z"/>
      </g>
    </g>
  </g>
  <g id="Layer_6" data-name="Layer 6">
    <g>
      <rect class="cls-4" x="285.87" y="316.24" width="125.31" height="40.34" rx="3.91" ry="3.91"/>
      <text class="cls-12" transform="translate(321.71 332.63)"><tspan x="0" y="0">098972950</tspan></text>
      <text class="cls-13" transform="translate(366.42 348.81)"><tspan x="0" y="0">13:30</tspan></text>
    </g>
    <g>
      <rect class="cls-4" x="245.67" y="418.28" width="125.31" height="40.34" rx="3.91" ry="3.91"/>
      <text class="cls-12" transform="translate(272.68 434.67)"><tspan x="0" y="0">0586695478</tspan></text>
      <text class="cls-13" transform="translate(326.78 450.85)"><tspan x="0" y="0">13:26</tspan></text>
    </g>
    <g>
      <rect class="cls-4" x="691.66" y="276.87" width="125.31" height="40.34" rx="3.91" ry="3.91"/>
      <text class="cls-12" transform="translate(720.59 293.26)"><tspan x="0" y="0">0526648512</tspan></text>
      <text class="cls-13" transform="translate(774.8 309.44)"><tspan x="0" y="0">13:19</tspan></text>
    </g>
    <g>
      <rect class="cls-4" x="661.34" y="384.59" width="125.31" height="40.34" rx="3.91" ry="3.91"/>
      <text class="cls-12" transform="translate(748.52 400.97)"><tspan x="0" y="0">1111</tspan></text>
      <text class="cls-13" transform="translate(742.64 417.16)"><tspan x="0" y="0">13:22</tspan></text>
    </g>
    <g>
      <rect class="cls-4" x="608.19" y="501.62" width="125.31" height="40.34" rx="3.91" ry="3.91"/>
      <text class="cls-12" transform="translate(636.46 518.01)"><tspan x="0" y="0">0502265481</tspan></text>
      <text class="cls-13" transform="translate(689.24 535.19)"><tspan x="0" y="0">13:35</tspan></text>
    </g>
  </g>
</svg>