<?xml version="1.0" encoding="UTF-8"?>
<svg xmlns="http://www.w3.org/2000/svg" xmlns:xlink="http://www.w3.org/1999/xlink" viewBox="0 0 1033.74 852.19">
  <defs>
    <style>
      .cls-1 {
        fill: #f4f4f5;
      }

      .cls-2 {
        stroke: #3a6db6;
        stroke-width: 2px;
      }

      .cls-2, .cls-3 {
        fill: #3a6db6;
      }

      .cls-2, .cls-4, .cls-5, .cls-6 {
        stroke-miterlimit: 10;
      }

      .cls-7, .cls-4 {
        fill: #fff;
      }

      .cls-8 {
        fill: #f3fafe;
      }

      .cls-4 {
        stroke: #ddd;
        stroke-width: .79px;
      }

      .cls-9 {
        filter: url(#drop-shadow-1);
      }

      .cls-5 {
        fill: url(#linear-gradient);
        stroke: #999;
      }

      .cls-10 {
        fill: #3a3a3a;
        font-size: 12.11px;
      }

      .cls-10, .cls-11 {
        font-family: Rubik-Regular, Rubik;
      }

      .cls-11 {
        fill: #ababab;
        font-size: 9.83px;
      }

      .cls-6 {
        fill: #4d98d3;
        opacity: .35;
        stroke: #4d98d2;
      }

      .cls-12 {
        fill: #d2d2d1;
      }

      .cls-13 {
        fill: #3d3a3b;
      }
    </style>
    <linearGradient id="linear-gradient" x1="336.62" y1="444.33" x2="707.72" y2="444.33" gradientUnits="userSpaceOnUse">
      <stop offset="0" stop-color="#c7c8ca"/>
      <stop offset="1" stop-color="#9fa1a4"/>
    </linearGradient>
    <filter id="drop-shadow-1" x="376.45" y="295.13" width="288.24" height="227.28" filterUnits="userSpaceOnUse">
      <feOffset dx="2.83" dy="7"/>
      <feGaussianBlur result="blur" stdDeviation="5"/>
      <feFlood flood-color="#596070" flood-opacity=".15"/>
      <feComposite in2="blur" operator="in"/>
      <feComposite in="SourceGraphic"/>
    </filter>
  </defs>
  <g id="Layer_1" data-name="Layer 1">
    <g>
      <g>
        <path class="cls-5" d="M560.86,643.93c8.98,0,23.91-1.49,28.19-13.6l118.02-350.2c.08-.25.16-.54.24-.87.89-3.81.3-7.82-1.5-11.3l-12-23.23-357.18,358.63,4.33,21.68c1.5,9.71,7.88,16.19,17.7,16.24l202.21,2.66Z"/>
        <path d="M555.18,620.45l-198.55-1.09c-14.39-.08-24.28-14.5-19.18-27.95l132.08-347.88c3.09-8.13,10.94-13.45,19.64-13.31l186.55,3.16c14.04.24,23.75,14.13,19.14,27.4l-120.09,345.81c-2.9,8.34-10.78,13.91-19.6,13.86Z"/>
      </g>
      <path class="cls-8" d="M553.4,617.13l-193.05.3c-13.99.02-23.56-14.1-18.54-27.38l129.68-343.28c3.03-8.02,10.69-13.31,19.14-13.23l181.38,1.82c13.65.14,23.04,13.74,18.51,26.83l-118.01,341.16c-2.85,8.23-10.53,13.77-19.11,13.78Z"/>
      <ellipse cx="572.88" cy="245.73" rx="4.73" ry="3.88" transform="translate(117.97 671.92) rotate(-66.35)"/>
    </g>
  </g>
  <g id="Layer_7" data-name="Layer 7">
    <g>
      <line class="cls-2" x1="723.73" y1="294.49" x2="626.9" y2="363.83"/>
      <line class="cls-2" x1="430.99" y1="392.42" x2="385.26" y2="329.14"/>
      <line class="cls-2" x1="701.1" y1="413.23" x2="606.11" y2="428.16"/>
      <line class="cls-2" x1="406.65" y1="461.4" x2="320.02" y2="448.96"/>
      <line class="cls-2" x1="650.54" y1="546.55" x2="586.2" y2="495.61"/>
    </g>
  </g>
  <g id="Layer_4" data-name="Layer 4" class="cls-9">
    <g>
      <g>
        <polygon class="cls-3" points="635.92 340.92 448.96 338.35 462.11 303.32 646.65 305.8 635.92 340.92"/>
        <polygon class="cls-1" points="587.21 500.35 389.3 497.31 449.37 337.26 636.25 339.83 587.21 500.35"/>
        <polygon class="cls-6" points="402.21 465.78 596.85 468.69 587.44 498.45 389.6 495.51 402.21 465.78"/>
        <polygon class="cls-6" points="415.99 429.31 608.14 431.9 596.96 465.62 402.21 463.12 415.99 429.31"/>
        <polyline class="cls-6" points="427.51 397.27 617.34 399.94 608.66 429.04 417.05 425.78"/>
        <polyline class="cls-6" points="438.26 365.66 626.27 368.4 617.67 398.21 427.9 394.87"/>
        <polyline class="cls-6" points="450.25 336.93 636.25 339.38 627.74 366.02 440.01 363.04"/>
        <g>
          <path class="cls-13" d="M556.81,352.35c-.06,0-.09-.03-.12-.08s-.02-.12,0-.21l.87-3.63c.02-.08.05-.15.1-.2s.1-.08.15-.08h.4c.05,0,.09.04.11.09s.02.12,0,.21l-.87,3.63c-.02.08-.05.15-.1.2s-.1.08-.15.08h-.4Z"/>
          <path class="cls-13" d="M557.91,355.27c-.06,0-.09-.03-.12-.08-.02-.05-.02-.12,0-.21l.45-1.86c.09-.38.2-.74.33-1.08s.31-.67.53-.97c.22-.31.51-.59.86-.86l.18.84c-.24.19-.44.4-.6.64-.16.24-.28.49-.38.75-.1.26-.17.51-.23.75l-.43,1.81c-.02.08-.05.15-.1.2s-.1.08-.16.08h-.33ZM561.12,355.33c-.06,0-.1-.03-.12-.08-.02-.05-.04-.1-.06-.14l-1.49-6.45c-.02-.09-.02-.17,0-.24s.05-.12.09-.17c.05-.05.09-.07.14-.07h.39c.06,0,.1.03.13.08.02.05.04.1.05.14l1.5,6.45c0,.06.01.1.01.14,0,.03,0,.07-.01.1-.02.07-.05.12-.09.17s-.09.07-.13.07h-.4ZM561.01,353.05l-.13-.86c.31-.19.55-.38.71-.58.16-.2.28-.42.36-.65.08-.23.14-.46.2-.71l.41-1.71c.02-.08.05-.15.1-.2.05-.05.1-.08.16-.08h.35c.06,0,.09.04.12.09.02.05.02.12,0,.21l-.42,1.77c-.08.35-.19.68-.32,1-.13.32-.32.62-.55.91-.24.28-.56.56-.98.82Z"/>
          <path class="cls-13" d="M562.75,355.36c-.06,0-.09-.03-.12-.08-.02-.05-.02-.12,0-.21l.1-.42c.02-.08.05-.15.1-.2.05-.05.1-.08.16-.08l2.36.05.71-3c.16-.66.17-1.18.04-1.55s-.44-.56-.93-.57l-.89-.02c-.06,0-.09-.03-.12-.08-.02-.05-.02-.12,0-.21l.1-.42c.02-.08.05-.15.1-.2.05-.05.1-.08.16-.08l.93.02c.47,0,.84.13,1.09.37.26.24.41.58.46,1.04.05.45,0,1.01-.16,1.68l-.72,3.04h.3c.06,0,.09.04.12.09.02.05.02.12,0,.21l-.1.42c-.02.08-.05.15-.1.2s-.1.08-.16.08l-3.44-.07Z"/>
          <path class="cls-13" d="M567.27,355.45c-.06,0-.09-.03-.12-.08-.02-.05-.02-.12,0-.21l.1-.44c.02-.08.05-.15.1-.2.05-.05.1-.08.16-.08l2.23.04-1.25-5.64s0-.09-.01-.13,0-.07,0-.11c.02-.07.05-.12.09-.17s.09-.07.14-.07h.4c.06,0,.1.03.12.08.02.05.04.09.05.14l1.31,5.84c.01.06.02.12.03.18,0,.06,0,.13-.02.21l-.1.41c-.02.08-.05.15-.1.2-.05.05-.1.08-.16.08l-2.98-.06ZM570.03,352.66l-.17-.81c.33-.15.6-.41.81-.76.21-.36.38-.8.5-1.32l.25-1.07c.02-.08.05-.15.1-.2.05-.05.1-.08.15-.08h.35c.05,0,.09.04.11.09s.02.12,0,.21l-.29,1.21c-.16.67-.39,1.24-.7,1.7-.31.47-.68.81-1.12,1.03Z"/>
          <path class="cls-13" d="M576.13,355.62c-.06,0-.09-.03-.12-.08-.02-.05-.02-.12,0-.21l.87-3.71c.16-.66.17-1.18.03-1.55s-.44-.56-.93-.57l-1.08-.02c-.06,0-.09-.03-.12-.08-.02-.05-.02-.12,0-.21l.1-.42c.02-.08.05-.15.1-.2.05-.05.1-.08.16-.08l1.12.02c.47,0,.84.13,1.09.36.26.23.41.57.46,1.02.05.45,0,1.01-.16,1.68l-.89,3.77c-.02.08-.05.15-.1.2-.05.05-.1.08-.16.08h-.37Z"/>
          <path class="cls-13" d="M578.1,355.66c-.06,0-.09-.03-.12-.08-.02-.05-.02-.12,0-.21l1.53-6.51c.02-.08.05-.15.1-.2.05-.05.1-.08.15-.08h.39c.06,0,.1.04.12.09.02.05.02.12,0,.21l-1.53,6.51c-.02.08-.05.15-.1.2-.05.05-.1.08-.16.08h-.39Z"/>
          <path class="cls-13" d="M581.19,355.08c-.25.2-.48.36-.68.47s-.41.19-.62.24c-.06,0-.1,0-.13-.03-.03-.03-.04-.08-.02-.16l.15-.62c.03-.14.11-.24.25-.31.04-.02.12-.06.24-.11s.24-.11.38-.19c.14-.07.26-.15.37-.23.17-.13.34-.3.52-.51.18-.21.34-.43.49-.65.14-.23.24-.43.28-.6l.5-.08c-.09.36-.22.71-.41,1.08-.18.36-.39.69-.62.99-.23.29-.46.53-.69.71ZM582.11,355.74c-.06,0-.09-.03-.11-.08-.02-.05-.02-.12-.01-.21l.39-3.82c.05-.44.07-.81.06-1.1,0-.29-.05-.52-.14-.67s-.24-.23-.45-.24h-.3c-.06,0-.09-.03-.12-.09s-.02-.12,0-.21l.1-.45c.02-.08.05-.15.1-.2s.1-.08.15-.08h.3c.37.01.64.13.81.35.17.22.28.55.31.99.03.44.02.99-.05,1.64l-.4,3.88c0,.08-.04.15-.09.2-.05.05-.11.08-.16.08h-.4Z"/>
          <path class="cls-13" d="M583.55,355.76c-.06,0-.09-.03-.12-.08-.02-.05-.03-.12,0-.21l.1-.42c.02-.08.05-.15.1-.2.05-.05.1-.08.15-.08l2.32.04-.18.76c-.02.08-.05.14-.1.18-.04.04-.09.05-.15.05l-2.14-.04ZM585.37,355.8c-.06,0-.09-.03-.11-.08s-.02-.12-.01-.21l.74-3.84c.08-.41.14-.76.18-1.06.04-.3.03-.53-.04-.7-.06-.17-.21-.25-.45-.26h-.34c-.05,0-.09-.04-.12-.09-.02-.05-.03-.12,0-.21l.1-.42c.02-.08.05-.15.1-.2.05-.05.1-.08.15-.08h.35c.31.01.55.09.71.23.16.14.26.34.31.6.05.26.05.58.01.94-.04.36-.1.77-.19,1.22l-.74,3.88c-.01.08-.05.15-.1.2s-.1.08-.16.08h-.4Z"/>
          <path class="cls-13" d="M588.94,355.99c-.69-.01-1.14-.29-1.35-.84-.21-.55-.2-1.32.03-2.3l.89-3.82c.02-.08.05-.15.1-.2s.1-.08.15-.08l1.98.04c.49,0,.85.13,1.09.36.24.23.38.56.41,1s-.01.97-.14,1.61c-.01.08-.04.22-.08.4l-.13.55c-.04.18-.08.31-.1.4-.16.63-.36,1.16-.61,1.6s-.56.77-.93.99c-.37.22-.81.32-1.32.31ZM589.18,354.97c.52.01.93-.15,1.22-.47s.52-.82.68-1.49c.02-.08.06-.21.09-.37l.11-.48c.04-.16.06-.28.07-.36.14-.66.13-1.16-.03-1.5-.16-.34-.44-.51-.85-.52l-1.41-.03-.72,3.11c-.15.66-.16,1.18-.03,1.55.13.37.42.56.86.57Z"/>
          <path class="cls-13" d="M594.09,357.52c-.06,0-.09-.03-.12-.08-.02-.05-.03-.12,0-.21l1.85-8.06c.02-.08.05-.15.1-.2.05-.05.1-.08.15-.08h.38c.06,0,.09.04.11.09s.02.12,0,.21l-1.85,8.06c-.02.08-.05.15-.1.2-.05.05-.1.08-.15.08h-.38Z"/>
          <path class="cls-13" d="M599.61,356.07c-.05,0-.09-.03-.12-.08s-.03-.12,0-.21l.85-3.71c.15-.66.16-1.18.02-1.55-.14-.37-.45-.56-.94-.57l-1.55-.03c-.05,0-.09-.03-.12-.08s-.03-.12,0-.21l.1-.42c.02-.08.05-.15.1-.2s.1-.08.15-.08l1.59.03c.71.01,1.18.28,1.41.81s.22,1.29,0,2.28l-.86,3.75c-.02.08-.05.15-.1.2-.05.05-.1.08-.15.08h-.37ZM596.47,356.01c-.05,0-.09-.03-.12-.08s-.03-.12,0-.21l.95-4.15c.02-.08.05-.15.1-.2s.1-.08.15-.08h.38c.05,0,.09.04.11.09s.02.12,0,.21l-.95,4.15c-.02.08-.05.15-.1.2s-.1.08-.15.08h-.38Z"/>
          <path class="cls-13" d="M601.58,356.11c-.06,0-.09-.03-.12-.08-.02-.05-.03-.12,0-.21l.1-.45c.02-.08.05-.15.1-.2.05-.05.1-.08.15-.08l1.18.02c.49,0,.88-.17,1.18-.53.3-.36.53-.88.71-1.54.05-.18.08-.33.11-.43s.05-.25.09-.42c.13-.66.13-1.18,0-1.55-.13-.37-.44-.56-.93-.57l-1.18-.02c-.06,0-.09-.03-.12-.08-.02-.05-.03-.12,0-.21l.1-.45c.02-.08.05-.15.1-.2.05-.05.1-.08.15-.08l1.22.02c.48,0,.85.14,1.09.39.25.25.39.61.44,1.07.05.46,0,1.02-.13,1.66-.03.17-.06.32-.1.46s-.07.3-.12.47c-.16.64-.36,1.19-.62,1.65-.26.46-.56.81-.92,1.05-.36.24-.78.35-1.26.34l-1.22-.02Z"/>
          <path class="cls-13" d="M609.06,350.13c-.05,0-.09-.03-.12-.08-.02-.05-.03-.12,0-.21l.1-.42c.02-.08.05-.15.1-.2.05-.05.1-.08.15-.08l3.53.07c.06,0,.09.03.12.08s.03.12,0,.21l-.1.42c-.02.08-.05.15-.1.2s-.1.08-.15.08l-3.53-.07ZM609.9,356.27c-.12,0-.16-.09-.12-.28l1-4.43c.11-.49.23-.87.37-1.14.14-.27.27-.41.38-.4l.81.02c-.14,0-.28.15-.44.46-.16.31-.29.7-.39,1.16l-.98,4.35c-.02.08-.05.15-.1.2-.05.05-.1.07-.16.07h-.37Z"/>
          <path class="cls-13" d="M612.21,357c-.06.03-.11.02-.15-.02s-.05-.11-.03-.19l.1-.42c.02-.07.04-.14.08-.21.04-.07.08-.11.14-.14l1.93-.82c.35-.15.64-.35.86-.59s.41-.53.55-.86c.14-.33.26-.69.35-1.08l.69-3.09c.02-.08.05-.15.1-.2.05-.05.1-.08.15-.08h.37c.06,0,.1.04.12.09.02.05.02.12,0,.21l-.77,3.44c-.11.48-.28.93-.52,1.36-.24.42-.53.79-.86,1.11-.34.31-.71.55-1.11.71l-2,.81ZM613.51,356.04l.25-6.32c0-.07,0-.12,0-.15,0-.03,0-.07.01-.1.01-.07.04-.12.09-.17s.09-.07.13-.07h.4c.1,0,.15.07.15.2l-.28,6.34-.77.27Z"/>
          <path class="cls-13" d="M619.56,350.36l-.98-.03c-.06,0-.09-.03-.12-.08-.02-.05-.03-.12,0-.2l.49-2.17c.02-.08.05-.15.1-.2.05-.05.1-.08.15-.08h.35c.06,0,.1.04.12.09.02.05.02.12,0,.21l-.32,1.44h.46s-.24,1.03-.24,1.03ZM618.16,356.54c-.06.02-.1.01-.13-.03-.03-.05-.04-.11-.02-.19l.13-.57c.02-.07.05-.14.09-.2.04-.06.1-.1.17-.13l.36-.18c.25-.14.48-.3.7-.5.22-.2.42-.47.6-.81.18-.35.33-.8.46-1.36s.17-.97.16-1.29c-.01-.32-.11-.55-.28-.69-.17-.14-.43-.21-.77-.22h-.25c-.06,0-.09-.03-.12-.09-.02-.05-.03-.12,0-.21l.1-.45c.02-.08.05-.15.1-.2.05-.05.1-.08.15-.08h.36c.5.02.87.13,1.12.35.25.22.38.57.41,1.05.02.48-.05,1.1-.22,1.87-.13.58-.29,1.08-.49,1.5s-.42.78-.67,1.07c-.24.29-.5.54-.77.73-.27.19-.54.35-.81.47l-.38.17Z"/>
          <path class="cls-13" d="M622.73,355.88c-.25.2-.48.36-.68.47s-.41.19-.61.24c-.06,0-.1,0-.14-.03-.03-.03-.04-.08-.02-.16l.14-.62c.03-.14.11-.24.24-.31.04-.02.12-.06.24-.11.12-.05.24-.11.38-.19s.26-.15.37-.23c.17-.13.34-.3.52-.51.18-.21.34-.43.48-.65.14-.23.23-.43.27-.6l.5-.08c-.08.36-.22.72-.4,1.08-.18.36-.38.69-.61.99-.23.29-.45.53-.68.71ZM623.65,356.54c-.05,0-.09-.03-.11-.08s-.02-.12-.02-.21l.34-3.82c.04-.44.06-.81.05-1.1,0-.29-.06-.52-.15-.68s-.24-.23-.46-.24h-.3c-.06,0-.09-.03-.12-.09-.02-.05-.03-.12,0-.21l.1-.45c.02-.08.05-.15.1-.2.05-.05.1-.08.15-.08h.3c.37.01.64.13.82.35.18.22.28.56.32,1,.04.44.03.99-.03,1.64l-.36,3.89c0,.08-.04.15-.09.2s-.11.08-.16.08h-.4Z"/>
        </g>
        <g>
          <path class="cls-7" d="M494.76,316.02h.63c.27.01.44.07.5.2.06.12.05.26-.03.42-.28.48-.54.92-.76,1.34-.22.42-.42.84-.61,1.27s-.37.9-.56,1.42l-1.84,5.37c-.05.13-.13.25-.24.34-.11.09-.24.14-.38.14l-3.24-.06c-.13,0-.21-.05-.27-.14-.05-.09-.05-.21,0-.34l.39-1.08c.05-.13.13-.25.25-.34.12-.09.24-.14.37-.14l1.47.04,1.35-3.74c.18-.49.35-.95.53-1.38s.37-.86.6-1.3c.23-.44.5-.92.83-1.43.11-.16.24-.29.39-.4.15-.11.36-.17.62-.16ZM492.33,317.17c-.12,0-.21-.05-.27-.14-.05-.09-.05-.21,0-.36l.41-1.14c.05-.13.13-.24.25-.34s.24-.14.37-.13l4.57.06c1.09.01,1.93.2,2.53.56.6.36.95.91,1.07,1.64.11.73-.03,1.64-.42,2.73l-2.18,6.07c-.05.13-.13.25-.25.34-.12.09-.24.14-.37.14l-1.47-.02c-.14,0-.23-.05-.28-.14-.05-.09-.05-.21,0-.35l2.14-5.97c.33-.91.36-1.61.12-2.12s-.84-.76-1.77-.78l-4.46-.06Z"/>
          <path class="cls-7" d="M501.41,326.65c-.12,0-.21-.05-.27-.15-.05-.09-.06-.21,0-.34l3.74-10.46c.05-.13.13-.24.25-.34s.24-.14.37-.13l1.54.02c.12,0,.21.05.27.14.05.09.06.21,0,.34l-3.73,10.46c-.05.13-.13.25-.25.34s-.24.14-.37.14l-1.55-.02Z"/>
          <path class="cls-7" d="M505.92,326.71c-.14,0-.23-.05-.28-.15-.05-.09-.05-.21,0-.34l.41-1.16c.05-.13.13-.25.24-.34.11-.09.24-.14.38-.14l5.61.08-.6,1.71c-.05.13-.13.24-.24.31-.11.07-.23.11-.36.11l-5.17-.07ZM509.82,326.76c-.12,0-.21-.05-.25-.14-.04-.09-.05-.21-.03-.34l1.89-6.17c.18-.59.31-1.08.37-1.49.06-.41.03-.72-.11-.94-.14-.22-.44-.34-.91-.34h-.86c-.12-.01-.21-.06-.27-.16-.05-.09-.06-.21,0-.34l.4-1.14c.05-.13.13-.25.25-.34.12-.09.24-.14.37-.14h.89c.76.02,1.35.13,1.78.35s.72.53.88.94.2.93.13,1.53c-.07.61-.23,1.3-.46,2.07l-1.89,6.19c-.04.13-.11.25-.23.34s-.25.14-.39.14l-1.55-.02Z"/>
          <path class="cls-7" d="M514.34,326.82c-.12,0-.21-.05-.27-.15-.05-.09-.06-.21-.01-.34l3.69-10.46c.05-.13.13-.24.25-.34s.24-.14.37-.13l1.54.02c.12,0,.21.05.27.14.05.09.06.21.01.34l-3.68,10.46c-.05.13-.13.25-.25.34s-.24.14-.37.14l-1.55-.02Z"/>
          <path class="cls-7" d="M524.72,326.96c-.14,0-.23-.05-.28-.14-.05-.09-.05-.21,0-.35l2.08-5.97c.32-.91.35-1.61.09-2.12s-.85-.76-1.78-.78l-2.6-.04c-.14,0-.23-.05-.28-.14-.05-.09-.05-.21,0-.36l.4-1.14c.05-.13.13-.24.24-.34.11-.09.24-.14.37-.13l2.71.04c1.09.01,1.94.2,2.55.54.61.35.97.88,1.08,1.61.12.72-.02,1.65-.42,2.78l-2.11,6.07c-.05.13-.13.25-.24.34-.11.09-.24.14-.38.14l-1.46-.02Z"/>
          <path class="cls-7" d="M529.54,327.03c-.12,0-.21-.05-.27-.15-.06-.09-.06-.21-.01-.34l3.63-10.46c.05-.13.13-.24.25-.34s.24-.14.36-.13l3.98.05c1.1.01,1.96.2,2.56.56.61.36.97.9,1.08,1.64.11.74-.03,1.68-.42,2.82l-2.06,5.99c-.05.13-.13.25-.25.34-.12.09-.24.14-.37.14l-1.48-.02c-.13,0-.22-.05-.27-.14-.06-.09-.06-.21,0-.35l2.06-5.97c.31-.91.34-1.61.09-2.12-.25-.5-.84-.76-1.77-.78l-1.97-.03-3.06,8.83c-.05.13-.13.25-.25.34-.12.09-.24.14-.37.14l-1.47-.02Z"/>
          <path class="cls-7" d="M541.04,327.19c-.12,0-.21-.05-.27-.15-.06-.09-.06-.22,0-.36l.95-2.77c.23-.68.5-1.3.82-1.86.31-.56.71-1.08,1.21-1.56s1.13-.94,1.9-1.37l.54,1.81c-.46.26-.85.57-1.16.92-.31.35-.55.71-.73,1.08-.18.37-.33.72-.44,1.05l-.93,2.73c-.05.15-.13.27-.25.36s-.24.14-.37.14l-1.25-.02ZM548.21,327.28c-.16,0-.27-.05-.33-.15l-.13-.22-3.24-10.42c-.03-.12-.03-.23,0-.32.04-.12.11-.22.21-.3.1-.08.21-.12.32-.12l1.47.02c.17,0,.29.05.34.14.05.09.1.17.12.24l3.31,10.4c.02.08.03.14.03.19s-.01.09-.03.13c-.04.12-.12.22-.22.3s-.21.12-.31.12l-1.55-.02ZM548.67,323.5l-.49-1.82c.6-.26,1.06-.54,1.37-.84.31-.3.55-.61.7-.92.15-.32.28-.65.4-.98l.88-2.59c.05-.15.13-.26.24-.36.11-.09.24-.14.37-.13l1.3.02c.14,0,.23.05.29.14.05.09.06.21,0,.36l-.91,2.69c-.19.55-.43,1.08-.74,1.6s-.73,1.01-1.26,1.48c-.53.47-1.26.92-2.16,1.35Z"/>
          <path class="cls-7" d="M562.96,316.95h.63c.27.01.44.07.51.2.07.12.06.26-.02.42-.27.48-.51.93-.72,1.34-.21.42-.4.84-.57,1.27s-.35.9-.52,1.42l-1.71,5.38c-.05.13-.12.25-.24.34-.11.09-.24.14-.37.14l-3.24-.06c-.13,0-.22-.05-.27-.14-.06-.09-.06-.21-.02-.34l.37-1.08c.05-.13.13-.25.24-.34.12-.09.24-.14.37-.14l1.47.04,1.26-3.75c.17-.49.33-.95.49-1.38s.35-.86.57-1.3c.22-.44.48-.92.79-1.43.1-.16.23-.29.38-.41.15-.11.35-.17.62-.16ZM560.56,318.1c-.12,0-.21-.05-.27-.14-.06-.09-.06-.21,0-.36l.38-1.14c.04-.13.13-.24.24-.34s.24-.14.36-.13l4.58.06c1.09.01,1.94.2,2.55.57.61.36.98.91,1.11,1.64.13.73.01,1.64-.35,2.73l-2.02,6.07c-.04.13-.13.25-.24.34-.12.09-.24.14-.36.14l-1.48-.02c-.14,0-.23-.05-.28-.14-.05-.09-.05-.21,0-.35l1.99-5.97c.3-.91.32-1.61.06-2.12s-.86-.76-1.79-.78l-4.47-.06Z"/>
          <path class="cls-7" d="M569.89,327.58c-.12,0-.22-.05-.27-.15-.06-.09-.06-.21-.02-.34l3.47-10.47c.04-.13.12-.24.24-.34s.24-.14.36-.13l1.54.02c.12,0,.21.05.27.14.06.09.06.21.02.34l-3.46,10.47c-.04.13-.13.25-.24.34s-.24.14-.36.14l-1.55-.02Z"/>
          <path class="cls-7" d="M574.91,327.65c-.12,0-.22-.05-.27-.15-.06-.09-.06-.21-.02-.34l3.45-10.47c.04-.13.12-.24.24-.34s.24-.14.36-.14l3.98.05c1.1.01,1.96.2,2.58.56.61.36.98.9,1.11,1.64.13.74,0,1.68-.37,2.83l-1.96,6c-.04.13-.13.25-.24.34-.12.09-.24.14-.36.14l-1.48-.02c-.13,0-.22-.05-.27-.14-.06-.09-.06-.21-.02-.35l1.96-5.98c.3-.91.32-1.61.06-2.12-.26-.5-.85-.76-1.78-.78l-1.97-.03-2.91,8.83c-.04.13-.13.25-.24.34-.12.09-.24.14-.36.14l-1.48-.02Z"/>
          <path class="cls-7" d="M588.2,323.11c-.12,0-.22-.05-.27-.14-.06-.09-.06-.21-.02-.34l1.88-5.78c.04-.13.12-.24.24-.34s.24-.14.36-.14l1.55.02c.14,0,.23.05.28.14.05.09.05.21.01.34l-1.88,5.78c-.04.13-.12.25-.23.34-.11.09-.24.14-.37.14l-1.55-.02Z"/>
          <path class="cls-7" d="M597.44,325.96c.73.02,1.41-.12,2.04-.43.63-.31,1.18-.74,1.65-1.3.47-.56.82-1.2,1.06-1.92l1.69-5.28c.05-.15.12-.26.23-.35s.23-.13.37-.13l1.3.02c.14,0,.23.05.28.14.05.09.05.21.01.34l-1.73,5.42c-.28.87-.66,1.65-1.16,2.36-.49.71-1.06,1.3-1.71,1.79-.64.49-1.34.86-2.07,1.11-.74.25-1.49.37-2.26.34l-1.59-.02c-.91-.01-1.64-.23-2.2-.65-.55-.42-.9-.99-1.05-1.71-.15-.72-.07-1.54.22-2.44l2.06-6.36c.04-.13.12-.24.24-.34s.24-.14.36-.14l1.32.02c.12,0,.22.05.27.13.06.09.06.2.02.35l-1.72,5.44c-.37,1.14-.37,2.01,0,2.63.37.62.98.93,1.83.94h.52ZM594.19,324.06l.58-1.84c.75,0,1.37-.13,1.87-.39.49-.25.9-.61,1.21-1.07.31-.46.56-.99.75-1.59l.7-2.18c.05-.15.13-.27.24-.36.11-.09.23-.14.37-.13l1.3.02c.12,0,.21.05.27.14.06.09.06.21.02.36l-.72,2.24c-.32.99-.78,1.84-1.39,2.56-.61.72-1.35,1.28-2.22,1.67-.88.39-1.87.58-2.98.56Z"/>
        </g>
        <polygon class="cls-12" points="627.85 367.33 439.08 364.68 439.34 363.99 628.06 366.63 627.85 367.33"/>
        <polygon class="cls-12" points="618.26 398.71 427.34 395.97 427.6 395.26 618.48 397.99 618.26 398.71"/>
        <g>
          <path class="cls-13" d="M513.38,382.98c-.06,0-.1-.03-.13-.08-.02-.05-.02-.12,0-.2l1.02-3.57c.18-.63.2-1.13.06-1.49s-.47-.54-1.01-.55l-1.69-.03c-.06,0-.1-.03-.13-.08-.02-.05-.02-.12,0-.2l.12-.4c.02-.08.06-.14.11-.2.05-.05.11-.08.17-.07l1.73.03c.78.01,1.28.27,1.51.78s.21,1.24-.06,2.19l-1.03,3.6c-.02.08-.06.14-.12.2-.05.05-.11.08-.17.07h-.4ZM509.96,382.92c-.06,0-.1-.03-.13-.08-.02-.05-.02-.12,0-.2l1.14-3.98c.02-.08.06-.14.11-.2.05-.05.11-.08.17-.07h.41c.06,0,.1.03.12.09s.02.12,0,.2l-1.14,3.98c-.02.08-.06.14-.11.2s-.11.08-.17.08h-.41Z"/>
          <path class="cls-13" d="M515.53,383.02c-.06,0-.1-.03-.13-.08s-.02-.12,0-.2l.12-.43c.02-.08.06-.15.11-.2.05-.05.11-.08.17-.07l1.29.02c.53,0,.97-.16,1.3-.51.33-.35.6-.84.81-1.48.05-.17.1-.31.13-.42s.06-.24.11-.41c.16-.64.17-1.13.04-1.49s-.47-.54-1-.55l-1.28-.02c-.06,0-.1-.03-.13-.08s-.02-.12,0-.2l.12-.43c.02-.08.06-.14.11-.2s.11-.08.17-.07l1.33.02c.53,0,.92.13,1.18.37.26.24.41.58.45,1.02.04.44-.02.98-.18,1.59-.04.16-.08.31-.12.44s-.08.29-.14.45c-.19.61-.42,1.14-.71,1.58-.29.44-.63.78-1.03,1.01-.4.23-.86.34-1.39.33l-1.33-.02Z"/>
          <path class="cls-13" d="M522.99,377.29l-1.06-.03c-.06,0-.1-.03-.13-.07-.03-.05-.03-.11,0-.19l.59-2.08c.02-.08.06-.14.11-.2.05-.05.11-.08.17-.07h.38c.07,0,.11.03.13.09.02.05.02.12,0,.2l-.39,1.38h.5s-.29.98-.29.98ZM521.3,383.23c-.06.02-.11.01-.14-.03-.04-.04-.04-.11-.02-.19l.16-.55c.02-.07.05-.14.1-.19.05-.06.11-.1.19-.13l.4-.17c.27-.13.53-.29.78-.48.25-.19.48-.45.68-.78.2-.33.38-.77.54-1.31s.21-.93.21-1.24c0-.31-.1-.53-.28-.66-.18-.13-.46-.21-.84-.21h-.27c-.06,0-.1-.03-.13-.08-.02-.05-.03-.12,0-.2l.12-.43c.02-.08.06-.14.11-.2.05-.05.11-.08.17-.07h.4c.54.02.95.13,1.21.34.27.21.4.55.42,1.01.01.46-.09,1.06-.29,1.8-.16.56-.35,1.04-.58,1.44s-.48.75-.76,1.03c-.27.28-.56.52-.86.7-.3.18-.6.33-.89.45l-.42.16Z"/>
          <path class="cls-13" d="M524.91,383.18c-.05,0-.09-.03-.11-.09s-.02-.12.01-.2l2.41-5.83c.03-.08.08-.14.13-.18.05-.04.11-.06.16-.04l.35.03c.06,0,.1.04.12.1s.01.13-.02.21l-2.33,5.72c-.03.08-.07.15-.13.2s-.12.08-.18.08h-.4ZM528.82,377.39l-2.18-.04c-.07,0-.11-.03-.13-.08s-.02-.12,0-.2l.12-.43c.02-.08.06-.14.11-.2s.11-.08.18-.07l2.28.04c.37,0,.67.13.89.36.23.24.36.57.4,1.01.04.44-.02.96-.19,1.57l-1.02,3.63c-.02.08-.06.14-.11.2-.05.05-.11.08-.17.07l-2.32-.04c-.06,0-.1-.03-.13-.08-.02-.05-.03-.12,0-.2l.11-.41c.02-.08.06-.15.11-.2.05-.05.11-.08.17-.07l1.71.03.81-2.87c.11-.4.16-.76.14-1.06-.02-.3-.1-.54-.24-.7-.14-.17-.32-.25-.55-.25Z"/>
          <path class="cls-13" d="M535.29,377.5l-1.06-.03c-.06,0-.1-.03-.13-.07-.03-.05-.03-.11,0-.19l.58-2.08c.02-.08.06-.14.11-.2.05-.05.11-.08.17-.07h.38c.07,0,.11.03.13.09.02.05.02.12,0,.2l-.39,1.38h.5s-.29.98-.29.98ZM533.62,383.44c-.06.02-.11.01-.14-.03-.04-.04-.04-.11-.02-.19l.15-.55c.02-.07.05-.14.1-.19.05-.06.11-.1.18-.13l.4-.17c.27-.13.53-.29.78-.48s.47-.45.68-.78c.2-.33.38-.77.53-1.31s.21-.93.2-1.24c0-.31-.1-.53-.28-.66s-.46-.21-.84-.21h-.27c-.06,0-.1-.03-.13-.08-.02-.05-.03-.12,0-.2l.12-.43c.02-.08.06-.14.11-.2.05-.05.11-.08.17-.07h.39c.54.02.95.13,1.22.34.27.21.41.55.42,1.01.01.46-.08,1.06-.29,1.8-.15.56-.35,1.04-.57,1.44-.23.4-.48.75-.75,1.03-.27.28-.56.52-.86.7-.3.18-.6.33-.89.45l-.41.16Z"/>
          <path class="cls-13" d="M537.25,383.39c-.06,0-.1-.03-.13-.08-.02-.05-.03-.12,0-.2l.11-.41c.02-.08.06-.15.11-.2.05-.05.11-.08.17-.07l2.58.04.8-2.89c.18-.64.19-1.13.05-1.49s-.48-.54-1.01-.55l-.97-.02c-.06,0-.1-.03-.13-.08-.02-.05-.03-.12,0-.2l.11-.4c.02-.08.06-.14.11-.2.05-.05.11-.08.17-.07l1.01.02c.51,0,.91.13,1.19.36.28.23.45.56.5.99.05.44-.01.98-.19,1.62l-.81,2.92h.33c.06,0,.1.03.13.09.02.05.03.12,0,.2l-.11.41c-.02.08-.06.14-.11.2s-.11.08-.17.08l-3.75-.06Z"/>
          <path class="cls-13" d="M542.36,383.48c-.06,0-.1-.03-.13-.08-.03-.05-.03-.12,0-.2l1.73-6.26c.02-.08.06-.14.11-.2.05-.05.11-.08.17-.07h.42c.07,0,.11.03.13.09.02.05.02.12,0,.2l-1.73,6.26c-.02.08-.06.14-.11.2-.05.05-.11.08-.17.07h-.42Z"/>
          <path class="cls-13" d="M547.18,382.66c.39.02.74-.07,1.06-.27s.6-.48.85-.84c.24-.37.43-.79.56-1.27l.89-3.23c.02-.08.06-.14.11-.2.05-.05.11-.08.17-.07h.38c.06,0,.1.03.12.09s.02.12,0,.2l-.91,3.31c-.14.51-.33.97-.56,1.38-.23.41-.5.76-.8,1.04s-.62.5-.97.65c-.34.15-.7.21-1.06.19h-.67c-.39-.02-.71-.14-.95-.39-.25-.24-.4-.58-.46-1.02-.06-.43-.01-.93.14-1.5l1.04-3.75c.02-.08.06-.14.11-.2s.11-.08.17-.07h.38c.06,0,.1.03.13.09.02.05.03.12,0,.2l-.94,3.52c-.19.68-.19,1.21,0,1.58.19.37.5.56.95.57h.28ZM545.57,381.23l.22-.87c.44,0,.81-.08,1.09-.25s.51-.39.68-.68c.17-.28.31-.6.4-.94l.41-1.48c.02-.08.06-.14.11-.2s.11-.08.17-.07h.37c.06,0,.1.03.13.09.03.05.03.12,0,.2l-.42,1.52c-.14.52-.36.98-.65,1.39-.29.41-.64.73-1.06.96-.42.23-.9.34-1.45.32Z"/>
          <path class="cls-13" d="M553.19,383.66c-.06,0-.1-.03-.13-.08s-.03-.12,0-.2l1.71-6.26c.02-.08.06-.14.11-.2s.11-.08.17-.07l1.72.03c.51,0,.91.13,1.19.35.28.22.44.55.49.98.05.43-.02.97-.19,1.61l-.99,3.63c-.02.08-.06.14-.11.2s-.11.08-.17.07l-3.79-.07ZM554.02,382.72l2.63.05.79-2.89c.17-.64.19-1.13.05-1.49-.14-.36-.48-.54-1.01-.55l-1.1-.02-1.34,4.9Z"/>
          <path class="cls-13" d="M559.97,377.59s-.08-.03-.09-.07,0-.11.02-.18l.67-1.7c.04-.09.08-.18.14-.24.06-.07.12-.1.2-.1h.6s.07.03.09.08c.01.04.02.09,0,.14-.02.06-.05.13-.09.19l-.91,1.62c-.05.08-.09.14-.15.19s-.12.08-.19.07h-.3ZM561.41,377.61c-.05,0-.09-.03-.1-.07s0-.11.02-.18l.67-1.7c.04-.09.08-.18.14-.24.05-.07.12-.1.21-.1h.59s.08.03.09.08c.01.04.02.09,0,.14-.02.06-.05.13-.09.19l-.91,1.62c-.05.08-.09.14-.15.19-.05.05-.12.08-.2.07h-.29Z"/>
          <path class="cls-13" d="M563.1,383.22c-.28.2-.53.35-.75.45s-.45.18-.67.23c-.06,0-.11,0-.15-.03-.03-.02-.04-.08-.02-.16l.16-.6c.04-.14.13-.23.27-.3.05-.02.14-.06.27-.11.13-.05.27-.11.42-.18s.29-.14.4-.22c.18-.12.38-.29.57-.49.2-.2.38-.41.54-.63.16-.22.26-.41.3-.58l.54-.07c-.1.34-.25.69-.45,1.04-.2.35-.43.66-.68.95-.25.28-.5.51-.75.68ZM564.1,383.85c-.06,0-.1-.03-.12-.08s-.02-.12-.01-.2l.44-3.67c.05-.42.08-.78.07-1.06,0-.28-.05-.5-.15-.65s-.26-.23-.49-.23h-.32c-.06,0-.1-.03-.13-.09-.03-.05-.03-.12,0-.2l.12-.43c.02-.08.06-.14.11-.2.05-.05.11-.08.17-.07h.33c.4.01.7.12.88.34.19.21.3.53.33.96.03.42.01.95-.06,1.58l-.46,3.73c0,.08-.04.14-.1.2s-.12.08-.18.07h-.43Z"/>
          <path class="cls-13" d="M567.81,384.04c-.75-.01-1.24-.28-1.46-.81-.23-.53-.21-1.27.05-2.21l.99-3.67c.02-.08.06-.14.11-.2s.11-.08.17-.07l2.17.04c.53,0,.93.12,1.19.34.26.22.41.54.44.96s-.02.94-.17,1.55c-.02.08-.05.21-.09.38l-.14.52c-.05.17-.08.3-.11.38-.17.6-.4,1.12-.68,1.54s-.62.74-1.02.95c-.4.21-.88.31-1.44.3ZM568.08,383.06c.57,0,1.01-.14,1.33-.45s.57-.79.76-1.43c.03-.08.06-.2.11-.36l.12-.46c.04-.15.07-.27.08-.35.16-.64.15-1.12-.02-1.44-.17-.33-.48-.49-.93-.5l-1.54-.03-.81,2.99c-.17.64-.19,1.13-.04,1.49.14.35.45.54.93.54Z"/>
          <path class="cls-13" d="M574.57,380.94c-.06,0-.1-.03-.13-.08-.02-.05-.03-.12,0-.2l.12-.45c.02-.08.06-.14.11-.2s.11-.08.17-.07l2.7.05c.07,0,.11.03.13.08s.02.12,0,.2l-.12.45c-.02.08-.06.15-.11.2-.05.05-.11.08-.17.08l-2.7-.05Z"/>
          <path class="cls-13" d="M580.38,384.13c-.06,0-.1-.03-.13-.08s-.03-.12,0-.2l1.67-6.26c.02-.08.06-.14.11-.2s.11-.08.17-.07l1.72.03c.52,0,.91.13,1.19.35.28.22.44.55.49.98.05.43,0,.97-.18,1.61l-.96,3.63c-.02.08-.06.14-.11.2s-.11.08-.17.07l-3.79-.07ZM581.2,383.19l2.63.05.77-2.89c.17-.64.18-1.13.03-1.49-.15-.36-.49-.54-1.02-.55l-1.11-.02-1.3,4.9Z"/>
          <path class="cls-13" d="M586.6,381.45c-.06,0-.1-.03-.13-.08-.03-.05-.03-.12,0-.2l.92-3.49c.02-.08.06-.14.11-.2.05-.05.11-.08.17-.07h.43c.06,0,.1.03.12.09s.02.12,0,.2l-.92,3.49c-.02.08-.06.14-.11.2s-.1.08-.16.08h-.43Z"/>
          <path class="cls-13" d="M588.03,384.26c-.06,0-.1-.03-.13-.08s-.03-.12,0-.2l1.65-6.26c.02-.08.06-.14.11-.2s.11-.08.17-.07h.42c.07,0,.11.03.13.09s.02.12,0,.2l-1.65,6.26c-.02.08-.06.14-.11.2s-.11.08-.17.07h-.42Z"/>
          <path class="cls-13" d="M590.26,384.3c-.06,0-.1-.03-.13-.08-.03-.05-.03-.12,0-.2l1.65-6.26c.02-.08.06-.14.11-.2.05-.05.11-.08.17-.07h.42c.07,0,.11.03.13.09.02.05.02.12,0,.2l-1.65,6.26c-.02.08-.06.14-.11.2-.05.05-.11.08-.17.07h-.42Z"/>
          <path class="cls-13" d="M593.15,381.57c-.06,0-.1-.03-.13-.08s-.03-.12,0-.2l.92-3.49c.02-.08.06-.14.11-.2s.11-.08.17-.07h.43c.06,0,.1.03.12.09s.02.12,0,.2l-.92,3.49c-.02.08-.06.14-.11.2s-.1.08-.16.08h-.43Z"/>
          <path class="cls-13" d="M597.03,378.55l-1.07-.03c-.06,0-.1-.03-.13-.07-.03-.05-.03-.11,0-.19l.55-2.08c.02-.08.06-.14.11-.2.05-.05.11-.08.17-.07h.38c.07,0,.11.03.13.09.02.05.02.12,0,.2l-.36,1.38h.5s-.27.99-.27.99ZM595.46,384.5c-.06.02-.11.01-.15-.03-.04-.04-.04-.11-.02-.19l.14-.55c.02-.07.05-.14.1-.19.05-.06.11-.1.18-.13l.4-.17c.27-.13.53-.29.77-.48s.47-.45.67-.78c.2-.33.37-.77.51-1.31s.2-.93.18-1.24c-.01-.31-.11-.53-.3-.66s-.47-.21-.84-.21h-.27c-.06,0-.1-.03-.13-.08-.03-.05-.03-.12,0-.2l.11-.43c.02-.08.06-.14.11-.2.05-.05.11-.08.17-.07h.4c.54.02.95.13,1.22.34.27.21.42.55.44,1.01.02.46-.06,1.06-.26,1.8-.15.56-.33,1.04-.55,1.44-.22.4-.46.75-.73,1.03-.27.28-.55.52-.85.7-.3.18-.59.33-.89.45l-.41.16Z"/>
          <path class="cls-13" d="M603.75,378.67l-1.07-.03c-.06,0-.1-.03-.13-.07-.03-.05-.03-.11,0-.19l.54-2.08c.02-.08.06-.14.11-.2.05-.05.11-.08.17-.07h.38c.07,0,.11.03.13.09.02.05.02.12,0,.2l-.36,1.38h.5s-.27.99-.27.99ZM602.19,384.61c-.06.02-.11.01-.15-.03-.04-.04-.04-.11-.02-.19l.14-.55c.02-.07.05-.14.1-.19.05-.06.11-.1.18-.13l.4-.17c.27-.13.53-.29.77-.48s.47-.45.66-.78c.2-.33.37-.77.51-1.31s.19-.93.18-1.24c-.01-.31-.11-.53-.3-.66s-.47-.21-.84-.21h-.27c-.06,0-.1-.03-.13-.08-.03-.05-.03-.12,0-.2l.11-.43c.02-.08.06-.14.11-.2.05-.05.11-.08.17-.07h.4c.55.02.95.13,1.22.34.27.21.42.55.44,1.01.02.46-.06,1.06-.25,1.8-.14.56-.33,1.04-.55,1.44-.22.4-.46.75-.73,1.03-.27.28-.55.52-.85.7-.3.18-.59.33-.88.45l-.41.16Z"/>
          <path class="cls-13" d="M607.39,378.4s-.08-.03-.09-.07-.01-.11.01-.18l.65-1.7c.04-.09.08-.18.14-.24.06-.07.12-.1.2-.1h.6s.07.03.09.08c.02.04.02.09,0,.14-.02.06-.04.13-.09.19l-.89,1.62c-.04.08-.09.14-.15.19-.05.05-.12.08-.19.07h-.3ZM608.83,378.42c-.05,0-.09-.03-.1-.07-.01-.05,0-.11.02-.18l.65-1.7c.04-.09.08-.18.13-.24.05-.07.12-.1.21-.1h.59s.08.03.1.08c.02.04.02.09,0,.14-.02.06-.05.13-.09.19l-.89,1.62c-.04.08-.09.14-.14.19-.05.05-.12.08-.2.07h-.29Z"/>
          <path class="cls-13" d="M609.29,384.63c-.05,0-.09-.03-.11-.09s-.02-.12,0-.2l2.27-5.84c.03-.08.07-.14.13-.18.05-.04.11-.06.16-.04l.35.03c.06,0,.1.04.12.1s.01.13-.02.21l-2.2,5.73c-.03.08-.07.15-.13.2s-.12.08-.18.08h-.41ZM613.07,378.83l-2.19-.04c-.07,0-.11-.03-.13-.08s-.02-.12,0-.2l.11-.43c.02-.08.06-.14.1-.2s.11-.08.17-.07l2.28.04c.37,0,.67.13.9.36s.37.57.43,1.01c.05.44,0,.96-.16,1.57l-.93,3.63c-.02.08-.06.14-.1.2s-.11.08-.17.08l-2.32-.04c-.06,0-.1-.03-.13-.08-.03-.05-.03-.12,0-.2l.1-.41c.02-.08.06-.15.11-.2.05-.05.11-.08.17-.08l1.71.03.74-2.88c.1-.41.14-.76.12-1.06-.03-.3-.11-.54-.25-.7-.14-.17-.33-.25-.55-.25Z"/>
          <path class="cls-13" d="M615.14,384.73c-.06,0-.1-.03-.13-.08-.03-.05-.03-.12,0-.2l1.6-6.27c.02-.08.06-.14.11-.2.05-.05.11-.08.17-.07l1.75.03c.52,0,.91.13,1.2.35s.45.55.51.99c.06.44,0,.98-.16,1.63l-.92,3.61c-.02.08-.06.14-.11.2-.05.05-.11.08-.17.08h-.4c-.07,0-.11-.03-.13-.09s-.02-.12,0-.2l.91-3.57c.16-.64.17-1.13.02-1.49s-.49-.54-1.02-.55l-1.1-.02-1.43,5.59c-.02.08-.06.14-.11.2s-.1.08-.16.08h-.41Z"/>
        </g>
        <g>
          <path class="cls-13" d="M588.41,419.22c-.08,0-.13-.02-.15-.06-.02-.04-.04-.08-.04-.14l-.29-7.15c0-.05,0-.09,0-.12,0-.03,0-.05.01-.08.02-.06.06-.11.12-.15.06-.04.11-.07.17-.06h.48c.08,0,.13.03.15.08s.04.11.05.2l.13,3.02c.52-.06.95-.25,1.28-.58.33-.33.59-.76.77-1.31l.36-1.11c.02-.07.07-.13.13-.18.06-.05.12-.07.19-.07h.43c.07,0,.12.03.15.08s.03.11,0,.18l-.38,1.18c-.16.51-.39.95-.67,1.32s-.61.67-.99.91-.79.39-1.23.47l.14,3.14c0,.1,0,.17-.02.21-.02.06-.06.11-.11.15-.06.04-.11.07-.17.07h-.5Z"/>
          <path class="cls-13" d="M593.37,412.14c-.06,0-.09-.02-.11-.07s-.01-.1.02-.17l.74-1.58c.04-.09.09-.16.16-.23.06-.06.14-.09.23-.09h.69s.08.03.1.07c.02.04.02.08,0,.13-.02.06-.05.12-.1.18l-1.02,1.51c-.05.07-.11.13-.17.18s-.13.07-.21.07h-.34ZM595.01,412.16c-.06,0-.1-.02-.11-.07s0-.1.02-.17l.74-1.58c.04-.09.09-.16.15-.23.06-.06.14-.09.24-.09h.68c.06.01.09.03.11.07.02.04.02.08,0,.13-.02.06-.05.12-.1.18l-1.02,1.51c-.05.07-.11.13-.17.18-.06.05-.13.07-.22.07h-.33Z"/>
          <path class="cls-13" d="M598.12,412.51l-.28.87c-.08.27-.12.49-.11.67,0,.18.07.29.21.34l.34.12c.05.02.08.06.09.12.01.06,0,.14-.03.23l-.09.28c-.03.08-.08.14-.17.18-.09.04-.17.05-.26.03l-.37-.09c-.2-.06-.36-.17-.46-.32-.11-.15-.16-.36-.16-.63,0-.26.07-.58.19-.95l.47-1.49c.02-.07.06-.13.12-.18s.12-.07.2-.07l1.9.03c.51,0,.9.12,1.18.35.27.22.43.54.48.95.05.41-.01.91-.18,1.49-.03.11-.07.25-.12.42s-.1.31-.14.42c-.19.57-.45,1.06-.76,1.47-.31.41-.67.73-1.08.94-.41.21-.88.32-1.39.31l-1.78-.03c-.07,0-.12-.03-.15-.07-.03-.05-.03-.11,0-.18l.13-.4c.02-.07.06-.14.13-.18.06-.05.12-.07.19-.07l1.73.02c.47,0,.89-.15,1.25-.48.36-.33.65-.79.87-1.38.04-.11.09-.24.13-.38s.08-.27.11-.38c.17-.59.18-1.05.02-1.39s-.47-.5-.95-.51l-1.25-.02Z"/>
          <path class="cls-13" d="M603.58,418.15c-.07.02-.12.01-.16-.03s-.05-.1-.02-.17l.16-.51c.02-.07.06-.13.11-.18.05-.05.12-.09.21-.12l.44-.16c.31-.12.61-.27.89-.45s.53-.42.76-.73c.23-.31.42-.72.58-1.22s.22-.86.2-1.15c-.02-.29-.13-.49-.35-.62s-.53-.19-.95-.2l-2.08-.03c-.07,0-.12-.03-.15-.07-.03-.05-.03-.11,0-.18l.13-.4c.02-.07.06-.13.12-.18.06-.05.12-.07.19-.07l2.21.03c.63,0,1.1.11,1.4.31s.47.51.5.94c.03.43-.07.99-.29,1.67-.16.52-.37.97-.62,1.34-.25.38-.53.7-.83.96-.31.26-.63.48-.96.65-.33.17-.67.31-1,.42l-.48.15ZM600.96,420.15c-.07,0-.12-.03-.15-.07-.03-.05-.03-.11,0-.18l1.85-5.84c.02-.07.06-.13.12-.18.06-.05.12-.07.19-.07h.45c.08,0,.13.03.15.08s.03.11,0,.18l-1.85,5.84c-.02.07-.06.13-.12.18s-.12.07-.2.07h-.45Z"/>
        </g>
        <polygon class="cls-12" points="608.45 430.82 415.32 427.98 415.59 427.26 608.68 430.09 608.45 430.82"/>
        <g>
          <path class="cls-13" d="M478.79,444.86l-1.22-.03c-.07,0-.12-.02-.15-.07-.03-.04-.03-.1,0-.17l.7-1.87c.03-.07.07-.13.13-.18.06-.05.13-.07.2-.07h.43c.08,0,.12.03.15.08.02.05.02.11,0,.18l-.46,1.24h.58s-.35.89-.35.89ZM476.78,450.21c-.07.02-.12.01-.17-.03-.04-.04-.05-.1-.02-.17l.18-.5c.02-.06.06-.12.12-.17.06-.05.13-.09.21-.12l.46-.16c.31-.12.61-.26.9-.43s.55-.4.79-.7c.24-.3.45-.69.63-1.18s.26-.84.25-1.11c0-.28-.11-.48-.32-.6s-.53-.18-.96-.19h-.31c-.07,0-.12-.03-.14-.08-.03-.05-.03-.11,0-.18l.14-.39c.03-.07.07-.13.13-.18s.13-.07.2-.07h.45c.62.01,1.09.11,1.39.31.3.19.46.49.46.91,0,.41-.11.95-.36,1.62-.19.5-.41.93-.68,1.3-.27.36-.56.67-.88.93-.32.25-.65.47-1,.63-.34.16-.69.3-1.03.4l-.48.14Z"/>
          <path class="cls-13" d="M482.04,447.68c-.07,0-.12-.02-.14-.07-.03-.05-.03-.11,0-.18l1.17-3.15c.03-.07.07-.13.13-.18.06-.05.13-.07.2-.07h.49c.07,0,.12.03.14.08.02.05.02.11,0,.18l-1.16,3.15c-.03.07-.07.13-.13.18-.06.05-.12.07-.19.07h-.5Z"/>
          <path class="cls-13" d="M484.94,449.67c-.32.18-.61.31-.87.41s-.52.16-.78.21c-.07,0-.13,0-.17-.02-.04-.02-.05-.07-.02-.14l.2-.54c.04-.12.15-.21.32-.27.06-.02.16-.05.31-.1.15-.05.31-.1.48-.16s.33-.13.47-.2c.21-.11.44-.26.67-.44s.44-.37.63-.56c.19-.19.31-.37.36-.52l.62-.07c-.12.31-.3.62-.54.93s-.51.6-.8.85c-.3.26-.59.46-.88.61ZM486.07,450.24c-.07,0-.11-.03-.13-.07-.02-.05-.02-.11-.01-.18l.59-3.31c.07-.38.11-.7.11-.95,0-.25-.05-.45-.16-.58-.11-.14-.29-.2-.56-.21h-.37c-.07,0-.12-.03-.14-.08s-.03-.11,0-.18l.14-.39c.03-.07.07-.13.13-.18.06-.05.13-.07.2-.07h.38c.46.01.8.11,1.01.3.21.19.33.48.36.86.03.38,0,.86-.11,1.42l-.61,3.36c-.01.07-.05.13-.12.18-.07.05-.14.07-.21.07h-.5Z"/>
          <path class="cls-13" d="M493.26,445.06l-1.22-.03c-.07,0-.12-.02-.15-.07-.03-.04-.03-.1,0-.17l.69-1.88c.03-.07.07-.13.13-.18.06-.05.13-.07.2-.07h.43c.08,0,.12.03.15.08.02.05.02.11,0,.18l-.46,1.24h.58s-.34.89-.34.89ZM491.28,450.41c-.07.02-.12.01-.17-.03-.04-.04-.05-.1-.02-.17l.18-.5c.02-.06.06-.12.12-.17.06-.05.13-.09.21-.12l.46-.16c.31-.12.61-.26.9-.43s.55-.4.79-.7c.24-.3.45-.69.62-1.18s.25-.84.25-1.11c0-.28-.11-.48-.32-.6s-.53-.19-.96-.19h-.31c-.07,0-.12-.03-.15-.08-.03-.05-.03-.11,0-.18l.14-.39c.03-.07.07-.13.13-.18s.13-.07.2-.07h.45c.62.01,1.09.11,1.39.31.3.19.46.49.47.91.01.41-.11.95-.35,1.62-.18.5-.41.93-.67,1.3-.26.36-.56.67-.87.93-.32.25-.65.47-.99.63-.34.16-.69.3-1.03.4l-.48.14Z"/>
          <path class="cls-13" d="M495.44,450.37c-.07,0-.12-.03-.15-.07-.03-.05-.03-.11,0-.18l.59-1.61c.12-.33.27-.64.44-.94s.4-.58.68-.84.65-.51,1.1-.75l.21.73c-.31.16-.56.35-.76.56-.2.21-.36.43-.49.65-.12.23-.22.44-.3.65l-.57,1.57c-.03.07-.07.13-.13.18-.06.05-.13.07-.2.07h-.41ZM499.46,450.42c-.08,0-.13-.02-.15-.07-.03-.04-.05-.08-.07-.12l-1.76-5.59c-.02-.08-.02-.15,0-.2s.06-.11.12-.15c.06-.04.12-.06.17-.06h.48c.08,0,.13.03.16.07.03.04.05.08.06.12l1.77,5.59c0,.05.01.09.01.12,0,.03,0,.06-.02.09-.02.06-.06.11-.12.15s-.11.06-.17.06h-.51ZM499.35,448.44l-.15-.75c.4-.16.7-.33.9-.51.21-.18.36-.36.46-.56.1-.2.19-.4.27-.62l.54-1.48c.03-.07.07-.13.13-.18s.13-.07.2-.07h.43c.07,0,.12.03.14.08.03.05.03.11,0,.18l-.56,1.53c-.11.3-.25.59-.42.87-.17.28-.41.54-.71.78-.3.24-.71.48-1.24.71Z"/>
          <path class="cls-13" d="M502.59,447.96c-.07,0-.12-.02-.14-.07-.03-.05-.03-.11,0-.18l1.15-3.15c.03-.07.07-.13.13-.18.06-.05.13-.07.2-.07h.49c.07,0,.12.03.14.08.02.05.02.11,0,.18l-1.14,3.15c-.03.07-.07.13-.13.18-.06.05-.12.07-.19.07h-.5Z"/>
          <path class="cls-13" d="M507.26,450.53c-.07,0-.12-.03-.14-.07s-.03-.11,0-.18l1.17-3.22c.21-.57.23-1.02.07-1.34s-.54-.49-1.16-.5l-1.35-.02c-.07,0-.12-.03-.15-.07-.03-.05-.03-.11,0-.18l.13-.36c.03-.07.07-.13.13-.18s.13-.07.2-.07l1.4.02c.59,0,1.04.11,1.36.31s.5.49.55.89-.03.88-.24,1.46l-1.18,3.27c-.03.07-.07.13-.13.18-.06.05-.13.07-.2.07h-.46Z"/>
          <path class="cls-13" d="M509.48,450.56c-.07,0-.12-.03-.14-.07s-.03-.11,0-.18l.58-1.61c.12-.33.26-.64.43-.94s.39-.58.67-.84.64-.51,1.09-.75l.21.73c-.31.16-.56.35-.76.56s-.36.43-.48.65c-.12.23-.22.44-.3.65l-.57,1.57c-.03.07-.07.13-.13.18-.06.05-.13.07-.2.07h-.41ZM513.5,450.62c-.08,0-.13-.02-.15-.07l-.07-.12-1.79-5.59c-.02-.08-.02-.15,0-.2s.06-.11.12-.15.12-.06.17-.06h.48c.08,0,.13.03.16.07.03.04.05.08.07.12l1.8,5.59c0,.05.01.09.01.12,0,.03,0,.06-.02.09-.02.06-.06.11-.12.15s-.11.06-.17.06h-.51ZM513.39,448.64l-.15-.75c.4-.16.7-.33.9-.51.2-.18.36-.36.46-.56.1-.2.19-.4.26-.62l.53-1.48c.03-.07.07-.13.13-.18.06-.05.13-.07.19-.07h.43c.07,0,.12.03.14.08s.03.11,0,.18l-.55,1.53c-.11.3-.25.59-.42.87-.17.28-.4.54-.7.78-.3.24-.71.48-1.24.71Z"/>
          <path class="cls-13" d="M518.32,450.68c-.07,0-.12-.03-.15-.07s-.03-.11,0-.18l2.02-5.64c.03-.07.07-.13.13-.18.06-.05.13-.07.19-.07l1.97.03c.59,0,1.04.11,1.36.31.31.2.5.5.55.89.05.39-.03.87-.23,1.45l-1.17,3.27c-.03.07-.07.13-.13.18-.06.05-.12.07-.2.07l-4.34-.06ZM519.28,449.83l3.01.04.93-2.6c.2-.57.23-1.02.07-1.34s-.55-.49-1.16-.5l-1.27-.02-1.58,4.42Z"/>
          <path class="cls-13" d="M526.16,445.21c-.05,0-.09-.02-.11-.07s0-.1.02-.16l.78-1.53c.04-.09.1-.16.17-.22.07-.06.14-.09.23-.09h.69s.08.03.1.07c.02.04.02.08,0,.12-.02.06-.05.11-.1.17l-1.06,1.46c-.05.07-.11.13-.17.18s-.13.07-.22.07h-.34ZM527.81,445.23c-.06,0-.1-.02-.11-.07-.01-.04,0-.1.03-.16l.78-1.53c.04-.09.1-.16.16-.22.06-.06.14-.09.24-.09h.68c.05.01.09.03.11.07.02.04.02.08,0,.12-.02.06-.06.11-.1.17l-1.06,1.46c-.05.07-.11.13-.17.18-.06.05-.14.07-.23.07h-.33Z"/>
          <path class="cls-13" d="M529.7,450.29c-.32.18-.61.31-.86.41s-.52.16-.78.21c-.07,0-.13,0-.17-.02-.04-.02-.05-.07-.02-.14l.19-.54c.04-.12.15-.21.31-.27.06-.02.16-.05.3-.1.15-.05.31-.1.48-.16.17-.06.33-.13.46-.2.21-.11.43-.26.66-.44.23-.18.44-.37.62-.56.18-.2.3-.37.35-.52l.63-.07c-.12.31-.29.62-.53.93-.24.31-.5.6-.79.85-.29.26-.58.46-.87.61ZM530.83,450.86c-.07,0-.11-.03-.14-.07-.02-.05-.03-.11-.01-.18l.54-3.31c.07-.38.1-.7.1-.95,0-.25-.06-.45-.17-.58-.11-.14-.29-.2-.56-.21h-.37c-.07,0-.12-.03-.15-.08-.03-.05-.03-.11,0-.18l.14-.39c.03-.07.07-.13.13-.18.06-.05.13-.07.19-.07h.38c.46.01.8.11,1.01.3.21.19.34.48.37.86.03.38,0,.86-.08,1.42l-.56,3.37c-.01.07-.05.13-.12.18-.07.05-.14.07-.21.07h-.49Z"/>
          <path class="cls-13" d="M535.09,451.02c-.86-.01-1.42-.26-1.67-.73s-.23-1.14.07-1.99l1.17-3.31c.03-.07.07-.13.13-.18.06-.05.13-.07.19-.07l2.48.03c.61,0,1.07.11,1.36.31.3.2.46.49.5.86.04.38-.03.84-.21,1.39-.02.07-.06.19-.11.34l-.17.47c-.06.16-.1.27-.13.34-.21.55-.47,1.01-.79,1.39-.32.38-.71.67-1.18.85-.46.19-1.02.28-1.66.27ZM535.4,450.14c.65,0,1.16-.13,1.53-.41.37-.28.66-.71.88-1.29.03-.07.07-.18.12-.32l.15-.42c.05-.14.08-.24.1-.31.19-.57.18-1.01-.01-1.3-.2-.29-.55-.44-1.06-.45l-1.76-.02-.95,2.7c-.2.57-.22,1.02-.06,1.34.16.32.52.48,1.07.49Z"/>
          <path class="cls-13" d="M542.88,448.23c-.07,0-.12-.03-.15-.07s-.03-.11,0-.18l.14-.41c.02-.07.07-.13.13-.18.06-.05.13-.07.19-.07l3.09.04c.08,0,.13.03.15.07.02.05.02.11,0,.18l-.14.41c-.03.07-.07.13-.12.18s-.12.07-.2.07l-3.09-.04Z"/>
          <path class="cls-13" d="M549.51,451.11c-.07,0-.12-.03-.15-.07s-.03-.11,0-.18l1.97-5.65c.03-.07.07-.13.13-.18.06-.05.13-.07.19-.07l2.01.03c.59,0,1.05.11,1.37.32.32.2.51.5.57.89s-.02.88-.22,1.47l-1.13,3.25c-.02.07-.07.13-.13.18s-.13.07-.19.07h-.46c-.08,0-.13-.03-.15-.08-.02-.05-.02-.11,0-.18l1.12-3.22c.2-.57.22-1.02.05-1.34s-.55-.49-1.16-.5l-1.26-.02-1.75,5.03c-.02.07-.07.13-.12.18-.06.05-.12.07-.19.07h-.47Z"/>
          <path class="cls-13" d="M557.35,445.64c-.05,0-.09-.02-.11-.07s0-.1.02-.16l.77-1.53c.04-.09.1-.16.16-.22.07-.06.14-.09.23-.09h.69s.08.03.1.07c.02.04.02.08,0,.12-.02.06-.05.11-.1.17l-1.04,1.46c-.05.07-.11.13-.17.18s-.13.07-.22.07h-.34ZM559,445.66c-.06,0-.1-.02-.11-.07-.01-.04,0-.1.02-.16l.77-1.53c.04-.09.1-.16.16-.22.06-.06.14-.09.24-.09h.68c.05.01.09.03.11.07.02.04.02.08,0,.12-.02.06-.05.11-.1.17l-1.04,1.46c-.05.07-.11.13-.17.18-.06.05-.14.07-.22.07h-.33Z"/>
          <path class="cls-13" d="M559.49,451.25c-.07,0-.12-.03-.15-.07s-.03-.11,0-.18l.13-.38c.02-.07.07-.13.13-.18.06-.05.13-.07.19-.07l2.8.04-1.56-4.89s-.01-.08-.01-.11c0-.03,0-.06.01-.09.02-.06.06-.11.12-.15.06-.04.12-.06.17-.06h.49c.08,0,.13.03.15.07.03.04.05.08.06.12l1.63,5.07c.02.05.03.1.03.16s0,.11-.02.18l-.12.36c-.02.07-.07.13-.13.18-.06.05-.13.07-.19.07l-3.74-.05ZM562.95,448.83l-.21-.7c.41-.13.75-.35,1.02-.66s.48-.69.63-1.14l.32-.92c.02-.07.07-.13.13-.18s.13-.07.19-.07h.43c.07,0,.12.03.14.08.03.05.03.11,0,.18l-.36,1.05c-.2.58-.49,1.07-.88,1.48-.39.41-.86.7-1.4.89Z"/>
          <path class="cls-13" d="M564.94,451.33c-.06,0-.11-.03-.13-.08-.02-.05-.02-.11.01-.18l2.69-5.26c.04-.07.09-.13.15-.16.06-.04.12-.05.19-.04l.41.03c.07,0,.11.04.13.09s.01.12-.02.19l-2.6,5.16c-.03.07-.08.13-.15.18-.07.05-.14.07-.21.07h-.46ZM569.36,446.1l-2.51-.03c-.08,0-.13-.03-.15-.07-.02-.05-.03-.11,0-.18l.13-.39c.02-.07.07-.13.12-.18.06-.05.12-.07.2-.07l2.62.04c.43,0,.77.12,1.03.33.26.21.42.51.48.91.06.39-.01.86-.2,1.42l-1.12,3.27c-.02.07-.07.13-.12.18-.06.05-.12.07-.2.07l-2.66-.04c-.07,0-.12-.03-.15-.07-.03-.05-.03-.11,0-.18l.13-.37c.02-.07.07-.13.13-.18.06-.05.13-.07.2-.07l1.96.03.89-2.59c.13-.37.17-.68.15-.96-.03-.27-.12-.48-.28-.63-.16-.15-.37-.23-.63-.23Z"/>
          <path class="cls-13" d="M575.63,452.82c-.08,0-.13-.02-.15-.06-.03-.04-.04-.08-.04-.13l-.24-6.92s0-.09,0-.11,0-.05.01-.08c.02-.06.06-.11.12-.15.06-.04.12-.06.17-.06h.48c.08,0,.13.03.15.07s.04.11.05.19l.11,2.93c.52-.06.96-.24,1.29-.56.34-.32.6-.74.78-1.27l.37-1.07c.02-.07.07-.13.13-.18s.13-.07.19-.07h.43c.07,0,.12.03.15.08.03.05.03.11,0,.18l-.39,1.14c-.17.49-.39.92-.68,1.28s-.62.65-1,.88c-.38.23-.8.38-1.25.46l.12,3.04c0,.1,0,.17-.02.21-.02.06-.06.11-.11.15s-.11.06-.17.06h-.51Z"/>
          <path class="cls-13" d="M580.66,445.96c-.06,0-.09-.02-.11-.07s0-.1.02-.16l.76-1.53c.04-.09.1-.16.16-.22.06-.06.14-.09.23-.09h.69s.08.03.1.07c.02.04.02.08,0,.12-.02.06-.05.11-.1.17l-1.03,1.46c-.05.07-.11.13-.17.18-.06.05-.13.07-.21.07h-.34ZM582.31,445.98c-.06,0-.1-.02-.11-.07s0-.1.02-.16l.76-1.53c.04-.09.1-.16.16-.22.06-.06.14-.09.24-.09h.68c.06.01.09.03.11.07.02.04.02.08,0,.12-.02.06-.05.11-.1.17l-1.03,1.46c-.05.07-.11.13-.17.18s-.14.07-.22.07h-.33Z"/>
          <path class="cls-13" d="M582.8,451.57c-.07,0-.12-.03-.15-.07-.03-.05-.03-.11,0-.18l.12-.37c.02-.07.07-.13.13-.18.06-.05.13-.07.19-.07l2.96.04.88-2.61c.19-.57.21-1.02.04-1.34s-.56-.49-1.17-.5l-1.11-.02c-.07,0-.12-.03-.15-.07-.03-.05-.03-.11,0-.18l.12-.36c.02-.07.07-.13.13-.18s.13-.07.19-.07l1.17.02c.59,0,1.05.11,1.37.32.32.21.52.51.58.9s0,.88-.2,1.46l-.89,2.64h.38c.07,0,.12.03.15.08s.03.11,0,.18l-.12.37c-.02.07-.07.13-.13.18-.06.05-.12.07-.19.07l-4.31-.06Z"/>
          <path class="cls-13" d="M588.41,451.65c-.06,0-.11-.03-.13-.08-.02-.05-.02-.11.01-.18l2.65-5.26c.04-.07.09-.13.15-.17.06-.04.12-.05.19-.04l.41.03c.07,0,.11.04.13.09s.02.12-.02.19l-2.56,5.16c-.03.07-.08.13-.15.18-.07.05-.14.07-.21.07h-.46ZM592.79,446.43l-2.51-.03c-.08,0-.13-.03-.15-.07-.03-.05-.03-.11,0-.18l.13-.39c.02-.07.06-.13.12-.18.06-.05.12-.07.2-.07l2.62.04c.43,0,.77.12,1.04.33.26.21.43.51.48.91.06.39,0,.87-.19,1.42l-1.1,3.27c-.02.07-.06.13-.12.18-.06.05-.12.07-.2.07l-2.67-.04c-.07,0-.12-.03-.15-.07-.03-.05-.03-.11,0-.18l.12-.37c.02-.07.07-.13.13-.18.06-.05.13-.07.19-.07l1.96.03.87-2.59c.12-.37.17-.69.14-.96-.03-.27-.12-.48-.28-.63-.16-.15-.37-.23-.63-.23Z"/>
          <path class="cls-13" d="M597.07,451.87c-.07.02-.12.01-.16-.03-.04-.04-.05-.1-.02-.17l.17-.5c.02-.06.06-.12.11-.17s.12-.09.21-.12l.45-.16c.32-.12.62-.26.9-.43.28-.17.54-.4.76-.7.23-.3.42-.69.59-1.18s.22-.84.21-1.12c-.02-.28-.13-.48-.35-.6-.21-.12-.53-.19-.96-.19l-2.09-.03c-.07,0-.12-.03-.15-.07-.03-.05-.03-.11,0-.18l.13-.39c.02-.07.07-.13.13-.18.06-.05.13-.07.19-.07l2.23.03c.63,0,1.1.11,1.41.3.31.19.47.49.5.91s-.07.95-.3,1.62c-.17.5-.38.94-.63,1.3-.25.36-.53.67-.84.93-.31.26-.63.47-.97.63-.34.17-.67.3-1.01.4l-.48.14ZM594.43,453.8c-.07,0-.12-.03-.15-.07-.03-.05-.03-.11,0-.18l1.89-5.66c.02-.07.07-.13.13-.18.06-.05.13-.07.19-.07h.45c.08,0,.13.03.15.08.03.05.03.11,0,.18l-1.89,5.66c-.02.07-.06.13-.12.18-.06.05-.12.07-.2.07h-.46Z"/>
        </g>
        <polygon class="cls-12" points="597.21 467.62 401.56 464.68 401.84 463.93 597.44 466.87 597.21 467.62"/>
        <g>
          <path class="cls-13" d="M489.43,485.82c-.06,0-.11-.03-.13-.08-.02-.05-.03-.12,0-.19l1.91-6.13c.02-.08.06-.14.12-.19.06-.05.12-.07.18-.07l1.82.03c.54,0,.95.12,1.23.34.29.22.45.54.5.97.04.43-.03.96-.23,1.6l-1.09,3.53c-.02.08-.06.14-.12.19s-.12.07-.18.07h-.42c-.07,0-.11-.03-.14-.09-.02-.05-.02-.12,0-.19l1.08-3.49c.19-.62.22-1.11.08-1.46-.14-.35-.49-.53-1.05-.54l-1.14-.02-1.7,5.46c-.02.08-.06.14-.12.19-.05.05-.11.07-.17.07h-.43Z"/>
          <path class="cls-13" d="M495.03,485.91c-.06,0-.11-.03-.13-.08s-.03-.12,0-.19l.12-.4c.02-.08.06-.14.12-.19.06-.05.12-.07.18-.07l2.69.04.87-2.83c.19-.62.22-1.11.07-1.46s-.49-.53-1.05-.54l-1.01-.02c-.06,0-.11-.03-.13-.08s-.03-.12,0-.19l.12-.4c.02-.08.06-.14.12-.19.06-.05.12-.07.18-.07l1.06.02c.54,0,.95.13,1.24.35.29.22.46.55.5.97.05.43-.03.96-.22,1.59l-.88,2.86h.35c.06,0,.11.03.13.08.02.05.03.12,0,.19l-.12.4c-.02.08-.06.14-.12.19-.06.05-.12.07-.18.07l-3.91-.07Z"/>
          <path class="cls-13" d="M502.42,486.15c-.84-.01-1.36-.28-1.58-.79s-.18-1.22.09-2.11l1.12-3.65c.02-.08.06-.14.12-.19s.11-.07.18-.07h.38c.07,0,.11.03.14.08.02.05.02.12,0,.19l-1.11,3.59c-.19.62-.21,1.11-.06,1.45.15.35.49.52,1,.53s.95-.14,1.28-.45.61-.77.81-1.4c.03-.08.07-.2.11-.36.04-.16.09-.32.14-.48l.11-.36c.18-.65.22-1.12.1-1.42-.12-.3-.35-.45-.68-.46-.11,0-.24.02-.39.06s-.29.11-.4.18c-.07.04-.13.04-.18,0-.05-.04-.07-.1-.04-.18l.11-.36c.02-.08.05-.15.08-.2.03-.06.08-.11.15-.16.15-.09.31-.16.48-.22s.36-.08.59-.08c.4,0,.72.11.93.3.22.2.34.49.36.89.02.4-.06.91-.24,1.53-.02.08-.05.21-.11.4l-.18.57c-.06.19-.11.33-.13.41-.19.59-.43,1.09-.72,1.51-.29.41-.63.72-1.04.93-.41.2-.89.3-1.45.29Z"/>
          <path class="cls-13" d="M505.98,486.09c-.06,0-.09-.03-.12-.08-.02-.05-.02-.12.01-.2l2.55-5.71c.04-.08.08-.14.14-.18.06-.04.11-.06.17-.04l.37.03c.06,0,.1.04.12.1s.01.13-.02.2l-2.47,5.6c-.03.08-.08.14-.14.2-.06.05-.13.08-.19.08h-.42ZM510.1,480.42l-2.28-.04c-.07,0-.11-.03-.14-.08-.02-.05-.02-.12,0-.19l.13-.42c.02-.08.06-.14.11-.19.05-.05.11-.07.18-.07l2.38.04c.39,0,.7.13.93.36.23.23.37.56.42.98.04.43-.03.94-.21,1.54l-1.08,3.55c-.02.08-.06.14-.11.19-.05.05-.11.07-.18.07l-2.42-.04c-.06,0-.11-.03-.13-.08-.03-.05-.03-.12,0-.19l.12-.4c.02-.08.06-.14.12-.19s.11-.07.18-.07l1.78.03.86-2.82c.12-.4.17-.74.15-1.04s-.1-.53-.24-.69c-.14-.16-.33-.25-.57-.25Z"/>
          <path class="cls-13" d="M515.5,480.49c-.06,0-.11-.03-.13-.08s-.03-.12,0-.19l.12-.4c.02-.08.06-.14.12-.19.06-.05.12-.07.18-.07l4.02.07c.06,0,.11.03.13.08.02.05.03.12,0,.19l-.12.4c-.02.08-.06.14-.12.19-.06.05-.11.07-.18.07l-4.02-.07ZM516.3,486.27c-.14,0-.18-.09-.13-.26l1.26-4.17c.14-.46.29-.82.46-1.07.17-.25.31-.38.44-.38l.92.02c-.16,0-.33.14-.51.44-.19.29-.35.66-.48,1.09l-1.24,4.09c-.02.08-.06.14-.12.19-.06.05-.12.07-.18.07h-.42Z"/>
          <path class="cls-13" d="M520.57,485.74c-.29.19-.55.34-.79.44s-.47.18-.7.23c-.07,0-.12,0-.15-.03-.04-.02-.04-.07-.02-.15l.18-.58c.04-.13.14-.23.29-.29.05-.02.14-.06.28-.11.13-.05.28-.11.44-.17s.3-.14.42-.22c.19-.12.4-.28.61-.48.21-.2.4-.4.57-.61.17-.21.28-.4.33-.56l.57-.07c-.11.33-.27.67-.48,1.01-.22.34-.46.65-.72.93-.27.28-.53.5-.8.67ZM521.6,486.35c-.06,0-.1-.03-.12-.08-.02-.05-.02-.12-.01-.19l.51-3.6c.06-.41.09-.76.09-1.04s-.05-.49-.15-.64c-.1-.15-.27-.22-.51-.23h-.34c-.06,0-.11-.03-.13-.08-.03-.05-.03-.12,0-.19l.13-.42c.02-.08.06-.14.12-.19s.11-.07.18-.07h.35c.42.01.72.12.92.33.19.21.31.52.33.94.03.42,0,.93-.09,1.55l-.53,3.66c-.01.08-.05.14-.11.19-.06.05-.13.07-.19.07h-.45Z"/>
          <path class="cls-13" d="M523.24,486.38c-.06,0-.11-.03-.13-.08s-.03-.12,0-.19l.12-.4c.02-.08.06-.14.12-.19.06-.05.12-.07.18-.07l2.64.04-.21.71c-.02.08-.06.13-.11.17-.05.03-.11.05-.17.05l-2.43-.04ZM525.31,486.42c-.06,0-.1-.03-.12-.08-.02-.05-.02-.12-.01-.19l.91-3.61c.1-.38.18-.71.23-.99.05-.28.04-.5-.03-.66-.07-.16-.24-.24-.51-.24h-.38c-.06,0-.11-.03-.13-.08-.03-.05-.03-.12,0-.19l.12-.4c.02-.08.06-.14.12-.19s.11-.07.18-.07h.39c.36.01.62.08.8.21.18.13.29.32.34.57s.05.54,0,.89c-.05.34-.13.72-.24,1.15l-.92,3.65c-.02.08-.06.14-.12.19-.06.05-.12.07-.18.07h-.45Z"/>
          <path class="cls-13" d="M530.4,483.77c-.06,0-.11-.03-.13-.08-.02-.05-.03-.12,0-.19l1.02-3.42c.02-.08.06-.14.12-.19.06-.05.11-.07.18-.07h.45c.06,0,.1.03.13.09.02.05.02.12,0,.19l-1.02,3.42c-.02.08-.06.14-.11.19-.05.05-.11.07-.17.07h-.45Z"/>
          <path class="cls-13" d="M534.67,486.57c-.06,0-.11-.03-.13-.08-.03-.05-.03-.12,0-.19l1.04-3.5c.19-.62.2-1.11.06-1.46s-.5-.53-1.05-.54l-1.23-.02c-.06,0-.11-.03-.13-.08s-.03-.12,0-.19l.12-.4c.02-.08.06-.14.12-.19.06-.05.12-.07.18-.07l1.27.02c.54,0,.95.12,1.24.34.29.22.46.54.51.96.05.43-.02.96-.21,1.59l-1.06,3.55c-.02.08-.06.14-.12.19s-.12.07-.18.07h-.42Z"/>
          <path class="cls-13" d="M536.91,486.61c-.06,0-.11-.03-.13-.08-.03-.05-.03-.12,0-.19l1.82-6.13c.02-.08.06-.14.12-.19s.11-.07.18-.07h.44c.07,0,.11.03.14.09.02.05.02.12,0,.19l-1.82,6.13c-.02.08-.06.14-.11.19-.05.05-.11.07-.18.07h-.44Z"/>
          <path class="cls-13" d="M540.43,486.07c-.29.19-.55.34-.78.44s-.47.18-.7.23c-.07,0-.12,0-.15-.03-.04-.02-.04-.07-.02-.15l.17-.58c.04-.13.13-.23.28-.29.05-.02.14-.06.28-.11.13-.05.28-.11.44-.17.16-.07.3-.14.42-.22.19-.12.39-.28.6-.48.21-.2.4-.4.56-.61s.27-.4.32-.56l.57-.07c-.11.33-.26.67-.48,1.01-.21.34-.45.65-.72.93s-.53.5-.79.67ZM541.47,486.69c-.06,0-.1-.03-.12-.08-.02-.05-.02-.12-.01-.19l.49-3.6c.06-.41.09-.76.09-1.04s-.05-.49-.15-.64c-.1-.15-.27-.22-.51-.23h-.34c-.06,0-.11-.03-.13-.08-.03-.05-.03-.12,0-.19l.12-.42c.02-.08.06-.14.12-.19.06-.05.11-.07.18-.07h.35c.42.01.72.12.92.33.19.21.31.52.34.94.03.42,0,.93-.08,1.55l-.5,3.66c-.01.08-.05.14-.11.19-.06.05-.12.07-.19.07h-.45Z"/>
          <path class="cls-13" d="M544.48,480.97c-.06,0-.11-.03-.13-.08-.03-.05-.03-.12,0-.19l.12-.4c.02-.08.06-.14.12-.19s.11-.07.18-.07l2.27.04c.07,0,.11.03.14.08.02.05.02.12,0,.19l-.12.4c-.02.08-.06.14-.11.19-.05.05-.11.07-.18.07l-2.27-.04ZM543.57,486.72c-.14,0-.18-.09-.13-.26l1.23-4.17c.14-.46.28-.82.45-1.07.16-.25.31-.38.43-.38l.93.02c-.16,0-.33.14-.51.44-.18.29-.34.66-.47,1.09l-1.21,4.09c-.02.08-.06.14-.12.19-.06.05-.12.07-.18.07h-.42Z"/>
          <path class="cls-13" d="M551.43,486.85c-.06,0-.11-.03-.13-.08s-.03-.12,0-.19l1.02-3.5c.18-.62.2-1.11.05-1.46s-.5-.53-1.06-.54l-1.23-.02c-.06,0-.11-.03-.13-.08-.03-.05-.03-.12,0-.19l.12-.4c.02-.08.06-.14.12-.19s.11-.07.18-.07l1.27.02c.54,0,.95.12,1.24.34.29.22.46.54.51.96.05.43-.02.96-.2,1.59l-1.04,3.55c-.02.08-.06.14-.12.19-.06.05-.11.07-.18.07h-.42Z"/>
          <path class="cls-13" d="M553.67,486.89c-.06,0-.11-.03-.13-.08-.03-.05-.03-.12,0-.19l1.79-6.13c.02-.08.06-.14.12-.19.05-.05.11-.07.18-.07h.44c.07,0,.11.03.14.09.02.05.02.12,0,.19l-1.79,6.13c-.02.08-.06.14-.11.19-.05.05-.11.07-.18.07h-.44Z"/>
          <path class="cls-13" d="M555.76,486.92c-.06,0-.11-.03-.13-.08s-.03-.12,0-.19l.51-1.76c.1-.36.23-.7.38-1.02s.35-.63.6-.92c.25-.29.58-.56.99-.81l.2.79c-.28.17-.5.38-.68.6-.18.23-.32.46-.43.71s-.2.48-.26.71l-.5,1.71c-.02.08-.06.14-.12.19-.06.05-.11.07-.18.07h-.38ZM559.43,486.98c-.07,0-.12-.03-.14-.07l-.07-.13-1.69-6.07c-.02-.09-.02-.16,0-.22s.05-.12.11-.16c.05-.05.11-.07.16-.07h.44c.07,0,.12.03.14.08.03.05.05.09.06.13l1.7,6.08c0,.06.01.1.01.13s0,.06-.01.09c-.02.06-.05.12-.1.16s-.1.07-.15.07h-.46ZM559.3,484.83l-.15-.81c.36-.17.63-.36.82-.55s.32-.4.41-.61c.09-.21.16-.44.23-.67l.47-1.61c.02-.08.06-.14.12-.19.06-.05.11-.07.18-.07h.39c.06,0,.11.03.13.08s.03.12,0,.19l-.48,1.67c-.09.33-.22.64-.37.94s-.36.59-.63.85c-.27.27-.64.52-1.12.77Z"/>
          <path class="cls-13" d="M561.27,487.02c-.06,0-.1-.03-.12-.08-.02-.05-.02-.12.01-.2l2.45-5.71c.03-.08.08-.14.14-.18.06-.04.11-.06.17-.04l.37.03c.06,0,.1.04.12.1s.01.13-.02.2l-2.38,5.61c-.03.08-.07.14-.14.2-.06.05-.13.08-.19.08h-.42ZM565.29,481.34l-2.28-.04c-.07,0-.11-.03-.14-.08-.02-.05-.02-.12,0-.19l.12-.42c.02-.08.06-.14.11-.19.05-.05.11-.07.18-.07l2.38.04c.39,0,.7.13.94.36.24.23.38.56.43.99.05.43-.01.94-.19,1.54l-1.02,3.55c-.02.08-.06.14-.11.19-.05.05-.11.07-.18.07l-2.42-.04c-.06,0-.11-.03-.13-.08-.03-.05-.03-.12,0-.19l.11-.4c.02-.08.06-.14.12-.19s.11-.07.18-.07l1.78.03.81-2.82c.11-.4.16-.74.14-1.04s-.11-.53-.25-.69c-.14-.16-.34-.25-.57-.25Z"/>
          <path class="cls-13" d="M572.25,487.2c-.06,0-.11-.03-.13-.08-.03-.05-.03-.12,0-.19l1-3.5c.18-.62.19-1.11.04-1.46s-.5-.53-1.06-.54l-1.23-.02c-.06,0-.11-.03-.13-.08s-.03-.12,0-.19l.11-.4c.02-.08.06-.14.12-.19.06-.05.11-.07.18-.07l1.27.02c.54,0,.95.12,1.24.34.29.22.47.54.52.96.05.43,0,.96-.19,1.59l-1.02,3.56c-.02.08-.06.14-.12.19s-.11.07-.18.07h-.42Z"/>
          <path class="cls-13" d="M575.76,481.19c-.05,0-.08-.02-.1-.07s0-.11.02-.18l.69-1.66c.04-.09.09-.17.15-.24.06-.07.13-.1.21-.1h.63s.07.03.09.08.02.09,0,.13c-.02.06-.05.12-.09.19l-.94,1.59c-.05.08-.1.14-.15.19-.05.05-.12.07-.19.07h-.31ZM577.26,481.21c-.06,0-.09-.02-.1-.07s0-.11.02-.18l.69-1.66c.04-.09.09-.17.14-.24s.13-.1.22-.1h.62c.05.01.08.03.1.08s.02.09,0,.13c-.02.06-.05.12-.09.19l-.94,1.59c-.05.08-.1.14-.15.19-.06.05-.12.07-.2.07h-.3Z"/>
          <path class="cls-13" d="M579.88,487.44c-.78-.01-1.29-.28-1.53-.8s-.22-1.24.04-2.17l1.02-3.6c.02-.08.06-.14.12-.19s.11-.07.18-.07l2.26.04c.56,0,.97.12,1.24.34.27.22.43.53.46.94.04.41-.02.92-.17,1.52-.02.08-.05.2-.1.37l-.15.51c-.05.17-.09.3-.12.37-.18.59-.41,1.1-.7,1.51-.29.41-.64.72-1.06.93-.42.2-.92.3-1.5.29ZM580.15,486.48c.59,0,1.06-.14,1.39-.44.33-.3.59-.77.78-1.4.03-.08.06-.19.11-.35l.13-.46c.04-.15.07-.26.09-.34.16-.62.15-1.09-.03-1.41-.18-.32-.5-.48-.97-.49l-1.6-.03-.83,2.93c-.18.62-.19,1.11-.04,1.46.15.35.47.52.98.53Z"/>
          <path class="cls-13" d="M586.57,487.44c-.06,0-.11-.03-.13-.08s-.03-.12,0-.19l.99-3.5c.18-.62.19-1.11.04-1.46s-.51-.53-1.06-.54l-1.23-.02c-.06,0-.11-.03-.13-.08-.03-.05-.03-.12,0-.19l.11-.4c.02-.08.06-.14.12-.19s.11-.07.18-.07l1.27.02c.54,0,.95.12,1.25.34.29.22.47.54.52.96.06.43,0,.96-.18,1.59l-1,3.56c-.02.08-.06.14-.12.19-.05.05-.11.07-.18.07h-.42Z"/>
        </g>
        <polygon class="cls-12" points="587.21 500.35 389.31 497.31 389.6 496.54 587.44 499.58 587.21 500.35"/>
      </g>
      <g>
        <path class="cls-13" d="M457.28,353.45c-.05,0-.09-.02-.11-.05s-.02-.08,0-.13l1.63-4.42-1.72.99c-.06.03-.11.04-.15.04-.05,0-.08-.03-.1-.07l-.11-.26s0-.1.02-.14c.03-.05.07-.09.12-.12l2.26-1.3s.09-.04.12-.05c.03,0,.07,0,.11,0h.41c.05,0,.09.02.11.06.02.03.02.08,0,.13l-1.91,5.15c-.02.05-.05.1-.1.13s-.1.05-.15.05h-.43Z"/>
        <path class="cls-13" d="M460.9,353.58c-.34,0-.62-.05-.85-.13-.22-.09-.4-.2-.52-.34-.12-.14-.2-.29-.23-.46s-.01-.33.04-.5c.02-.05.05-.08.09-.11.04-.03.09-.04.14-.04h.4s.09.02.12.04c.03.02.05.07.04.14-.02.19.02.34.12.45.09.11.22.18.38.22.16.04.33.06.51.07.37,0,.71-.08,1.01-.25.3-.17.51-.42.63-.76s.11-.59-.05-.74-.42-.23-.8-.23h-.77c-.05-.01-.09-.03-.12-.06-.02-.03-.02-.08,0-.14l.08-.21s.04-.09.07-.12.06-.06.09-.09l2.19-1.65-2.39-.03c-.05,0-.09-.02-.12-.05-.02-.03-.02-.08,0-.13l.11-.3c.02-.06.06-.1.1-.14.05-.03.1-.05.15-.05l3.23.04c.06,0,.1.02.12.05.02.03.02.08,0,.14l-.1.28s-.04.07-.06.1c-.03.03-.06.06-.09.08l-2.19,1.67h.13c.35.03.64.09.87.21.23.12.37.29.43.52.06.23.03.52-.09.87s-.33.65-.6.9c-.27.25-.59.43-.95.56-.36.13-.74.19-1.14.19Z"/>
        <path class="cls-13" d="M465.16,350.79c-.05,0-.09-.02-.11-.05-.02-.03-.02-.08,0-.13l.2-.55c.02-.05.05-.1.1-.13.05-.03.1-.05.15-.05h.58c.05,0,.09.03.12.06.02.04.02.08,0,.13l-.2.55c-.02.05-.05.1-.1.13s-.1.05-.15.05h-.58ZM464.14,353.55c-.05,0-.09-.02-.12-.05-.02-.03-.02-.08,0-.13l.2-.55c.02-.05.05-.1.1-.13.05-.03.1-.05.15-.05h.58c.05,0,.09.03.12.06s.02.08,0,.13l-.2.55c-.02.05-.05.1-.1.13s-.1.05-.15.05h-.58Z"/>
        <path class="cls-13" d="M467.72,353.6c-.05,0-.09-.02-.12-.05s-.02-.08,0-.13l1.62-4.42-1.72.99c-.06.03-.11.04-.15.04-.05,0-.08-.03-.1-.07l-.12-.26s-.01-.1.02-.14c.03-.05.07-.09.12-.12l2.25-1.3s.09-.04.12-.05c.03,0,.07,0,.11,0h.41c.05,0,.09.02.12.06.02.03.02.08,0,.13l-1.89,5.16c-.02.05-.05.1-.1.13s-.1.05-.15.05h-.43Z"/>
        <path class="cls-13" d="M471.19,353.65c-.05,0-.09-.02-.12-.05s-.02-.08,0-.13l1.61-4.42-1.71.99c-.06.03-.11.04-.15.04-.05,0-.08-.03-.1-.07l-.12-.26s-.01-.1.02-.14c.03-.05.07-.09.12-.12l2.25-1.3s.09-.04.12-.05c.03,0,.07,0,.11,0h.41c.05,0,.09.02.12.06.02.03.02.08,0,.13l-1.88,5.16c-.02.05-.05.1-.1.13s-.1.05-.15.05h-.43Z"/>
      </g>
      <g>
        <path class="cls-13" d="M444.37,383.39c-.05,0-.09-.02-.12-.05s-.02-.08,0-.13l1.67-4.51-1.74,1.01c-.06.03-.11.04-.15.04-.05,0-.08-.03-.1-.07l-.11-.27s0-.1.02-.15c.03-.05.07-.09.12-.12l2.29-1.33s.09-.04.12-.05c.03,0,.07,0,.11,0h.42c.05,0,.09.02.12.06.02.04.02.08,0,.13l-1.95,5.27c-.02.05-.05.1-.1.13s-.1.05-.15.05h-.44Z"/>
        <path class="cls-13" d="M448.04,383.52c-.34,0-.63-.05-.86-.14-.23-.09-.4-.2-.52-.34-.12-.14-.2-.3-.23-.47s-.01-.34.05-.51c.02-.05.05-.09.09-.12.04-.03.09-.04.14-.04h.4s.09.02.12.04c.03.02.05.07.04.14-.02.19.02.35.12.46.09.11.22.19.39.23.16.04.33.07.52.07.38,0,.72-.08,1.02-.25.3-.17.51-.43.64-.78s.11-.6-.04-.75-.43-.23-.8-.24h-.78c-.05-.01-.09-.03-.12-.06-.02-.03-.02-.08,0-.14l.08-.22s.04-.09.08-.12.06-.06.1-.09l2.22-1.68-2.42-.03c-.05,0-.09-.02-.12-.05-.02-.03-.02-.08,0-.14l.11-.31c.02-.06.06-.11.11-.14.05-.03.1-.05.15-.05l3.27.05c.06,0,.1.02.12.05.02.04.02.08,0,.14l-.11.29s-.04.07-.07.1c-.03.03-.06.06-.09.08l-2.22,1.71h.13c.36.03.65.09.88.22.23.12.37.3.44.54.06.24.03.53-.1.89s-.34.67-.61.92c-.27.25-.59.44-.96.57-.37.13-.75.2-1.16.19Z"/>
        <path class="cls-13" d="M452.35,380.66c-.05,0-.09-.02-.12-.05-.02-.04-.02-.08,0-.13l.21-.56c.02-.05.05-.1.1-.13.05-.03.1-.05.15-.05h.59c.05,0,.09.03.12.06.02.04.02.08,0,.13l-.21.56c-.02.05-.05.1-.1.13s-.1.05-.15.05h-.59ZM451.31,383.48c-.05,0-.09-.02-.12-.05-.02-.04-.02-.08,0-.13l.21-.56c.02-.05.05-.1.1-.13.05-.03.1-.05.15-.05h.59c.05,0,.09.03.12.06s.02.08,0,.13l-.21.56c-.02.05-.05.1-.1.13s-.1.05-.15.05h-.59Z"/>
        <path class="cls-13" d="M455.08,383.62c-.34,0-.63-.05-.86-.14-.23-.09-.4-.2-.53-.34-.12-.14-.2-.3-.23-.47s-.01-.34.05-.51c.02-.05.05-.09.09-.12.04-.03.09-.04.14-.04h.4s.09.02.12.04c.03.02.05.07.04.14-.02.19.02.35.12.46.09.11.22.19.39.23.16.04.33.07.52.07.38,0,.72-.08,1.02-.25.3-.17.51-.43.64-.78s.11-.6-.05-.75-.43-.23-.8-.24h-.78c-.05-.01-.09-.03-.12-.06-.02-.03-.02-.08,0-.14l.08-.22s.04-.09.07-.12.06-.07.1-.09l2.22-1.68-2.42-.03c-.05,0-.09-.02-.12-.05-.02-.03-.02-.08,0-.14l.11-.31c.02-.06.06-.11.11-.14.05-.03.1-.05.15-.05l3.27.05c.06,0,.1.02.12.05.02.04.02.08,0,.14l-.11.29s-.04.07-.07.1c-.03.03-.06.06-.09.08l-2.22,1.71h.13c.36.03.65.09.88.22.23.12.37.3.44.54.06.24.03.53-.1.89s-.33.67-.61.92c-.27.25-.59.44-.96.57-.37.13-.75.2-1.16.19Z"/>
        <path class="cls-13" d="M460.17,383.69c-.38,0-.68-.07-.89-.19-.22-.12-.37-.28-.46-.49s-.12-.44-.1-.71.08-.54.18-.84c.05-.15.1-.3.16-.46.06-.16.12-.32.18-.49s.13-.32.19-.48c.11-.29.26-.57.43-.84.18-.26.38-.49.62-.69.24-.2.51-.35.81-.47.3-.11.64-.17,1.01-.16s.67.07.89.19c.22.12.37.28.46.48.09.2.13.44.11.7-.02.26-.08.54-.18.84-.05.15-.1.31-.16.48s-.12.33-.18.49c-.06.16-.12.31-.18.46-.11.3-.26.57-.43.84s-.38.49-.62.7c-.24.2-.51.36-.81.47-.3.11-.65.17-1.03.16ZM460.42,383c.43,0,.79-.13,1.1-.4s.55-.65.73-1.12c.07-.16.13-.31.18-.46l.16-.44c.05-.15.1-.29.14-.44.16-.47.2-.84.09-1.13s-.37-.43-.79-.44-.79.13-1.09.41c-.31.28-.55.65-.73,1.12-.05.15-.11.29-.16.44-.06.15-.11.3-.16.44s-.11.3-.16.46c-.16.48-.19.86-.08,1.13s.37.42.79.42Z"/>
      </g>
      <g>
        <path class="cls-13" d="M435.6,413.96c-.06,0-.09-.02-.12-.06s-.02-.08,0-.14l1.71-4.61-1.77,1.03c-.06.03-.11.05-.16.04-.05,0-.08-.03-.1-.08l-.11-.28s0-.1.02-.15c.03-.05.07-.09.12-.12l2.32-1.36s.09-.04.13-.05c.04,0,.07,0,.11,0h.42c.06,0,.09.03.12.06.02.04.02.08,0,.14l-1.99,5.39c-.02.06-.06.1-.1.14s-.1.05-.16.05h-.44Z"/>
        <path class="cls-13" d="M439.31,414.09c-.35,0-.64-.05-.87-.14-.23-.09-.41-.21-.53-.35-.12-.15-.2-.31-.23-.48s-.01-.35.05-.53c.02-.05.05-.09.09-.12.04-.03.09-.04.14-.04h.41s.09.02.12.05c.03.03.05.07.04.15-.02.2.02.35.12.47.09.11.22.19.39.23.16.04.34.07.52.07.38,0,.73-.08,1.03-.26.3-.18.52-.44.65-.79s.12-.61-.04-.77-.43-.24-.81-.24h-.79c-.06-.01-.09-.03-.12-.06-.02-.03-.02-.08,0-.14l.08-.22s.04-.09.08-.13.06-.07.1-.09l2.25-1.72-2.45-.04c-.06,0-.09-.02-.12-.05-.02-.03-.02-.08,0-.14l.12-.31c.02-.06.06-.11.11-.14.05-.03.1-.05.16-.05l3.31.05c.06,0,.1.02.13.06.02.04.02.08,0,.14l-.11.3s-.04.07-.07.1c-.03.03-.06.06-.09.09l-2.25,1.75h.13c.36.03.66.1.89.22.23.13.38.31.44.55.06.24.03.54-.1.91s-.34.68-.62.94c-.28.26-.6.45-.97.59-.37.14-.76.2-1.17.19Z"/>
        <path class="cls-13" d="M443.68,411.17c-.06,0-.09-.02-.12-.06-.02-.04-.02-.08,0-.14l.21-.58c.02-.05.05-.1.1-.14.05-.03.1-.05.16-.05h.6c.06,0,.09.03.12.06.02.04.02.08,0,.14l-.21.58c-.02.05-.05.1-.1.14s-.1.05-.16.05h-.6ZM442.62,414.06c-.06,0-.09-.02-.12-.06-.02-.04-.02-.08,0-.14l.21-.58c.02-.06.05-.1.1-.14.05-.04.1-.05.16-.05h.6c.06,0,.09.03.12.06s.02.08,0,.14l-.21.58c-.02.06-.05.1-.1.14s-.1.05-.16.05h-.6Z"/>
        <path class="cls-13" d="M446.27,414.11c-.06,0-.09-.02-.12-.06s-.02-.08,0-.14l1.69-4.62-1.76,1.03c-.06.03-.11.05-.16.04-.05,0-.08-.03-.1-.08l-.12-.28s0-.1.02-.15c.03-.05.07-.09.12-.12l2.31-1.36s.09-.04.13-.05c.04,0,.07,0,.11,0h.42c.06,0,.09.03.12.06.02.04.02.08,0,.14l-1.97,5.39c-.02.06-.05.1-.1.14s-.1.05-.16.05h-.44Z"/>
        <path class="cls-13" d="M450.14,414.25c-.32,0-.6-.05-.84-.13s-.43-.2-.56-.36c-.13-.16-.22-.34-.24-.56-.03-.21,0-.45.11-.72.12-.34.31-.62.56-.86.25-.24.54-.42.85-.54-.17-.13-.28-.3-.33-.5-.05-.21-.02-.45.08-.73.12-.33.3-.61.55-.83.25-.23.54-.4.88-.52.34-.12.71-.18,1.1-.17s.71.07.96.2c.25.13.42.31.49.54.08.23.06.51-.06.83-.1.28-.25.52-.45.73-.2.2-.42.37-.68.49.22.13.37.32.45.56.07.24.05.53-.07.87-.13.36-.33.67-.61.92-.28.26-.61.46-.98.59-.38.14-.78.2-1.21.19ZM450.39,413.59c.25,0,.5-.04.74-.12s.45-.21.63-.37c.18-.16.31-.35.39-.57s.09-.42.03-.58c-.07-.16-.18-.28-.36-.37-.17-.09-.39-.13-.64-.14s-.5.04-.74.12c-.24.08-.45.2-.63.36-.18.15-.31.34-.39.57s-.09.41-.03.58c.06.16.18.29.36.38.18.09.39.14.65.14ZM451.4,410.79c.21,0,.42-.03.63-.11.21-.07.39-.18.55-.31.16-.13.27-.29.34-.48s.08-.35.02-.49c-.05-.14-.16-.25-.31-.32-.15-.08-.34-.12-.56-.12s-.43.03-.64.1-.39.17-.54.31c-.16.14-.27.3-.33.48s-.08.36-.02.49c.06.14.16.24.31.32s.34.11.56.12Z"/>
      </g>
      <g>
        <path class="cls-13" d="M422.13,449.11c-.06,0-.1-.02-.12-.06s-.02-.08,0-.14l1.75-4.73-1.79,1.06c-.06.03-.11.05-.16.04-.05,0-.08-.03-.1-.08l-.11-.28c-.02-.05,0-.1.02-.15.03-.05.07-.09.13-.13l2.35-1.39s.09-.04.13-.05c.04,0,.07,0,.11,0h.43c.06,0,.1.03.12.06.02.04.02.08,0,.14l-2.04,5.53c-.02.06-.06.1-.11.14s-.1.05-.16.05h-.45Z"/>
        <path class="cls-13" d="M425.89,449.25c-.35,0-.65-.05-.88-.15s-.41-.21-.53-.36c-.12-.15-.2-.31-.23-.49-.03-.18,0-.36.05-.54.02-.05.05-.09.1-.12s.09-.05.14-.04h.41c.05,0,.09.02.12.05.03.03.05.08.04.15-.02.2.02.36.12.48s.23.19.39.24c.17.05.34.07.53.07.39,0,.73-.08,1.04-.27.31-.18.53-.45.66-.82s.12-.63-.04-.79-.43-.24-.82-.25h-.8c-.06-.01-.1-.03-.12-.06s-.02-.08,0-.14l.08-.23c.02-.05.04-.09.08-.13s.07-.07.1-.1l2.29-1.77-2.48-.04c-.06,0-.1-.02-.12-.05-.02-.03-.02-.08,0-.14l.12-.32c.02-.06.06-.11.11-.15.05-.04.1-.05.16-.05l3.35.05c.06,0,.1.02.13.06.02.04.02.09,0,.15l-.11.3s-.04.07-.07.1c-.03.03-.06.06-.1.09l-2.29,1.79h.13c.37.03.66.1.9.23.23.13.38.32.44.56s.03.56-.11.93-.35.7-.63.96c-.28.26-.61.46-.99.6-.38.14-.77.21-1.19.2Z"/>
        <path class="cls-13" d="M430.33,446.26c-.06,0-.1-.02-.12-.06-.02-.04-.02-.08,0-.14l.22-.59c.02-.06.06-.1.11-.14.05-.04.1-.05.16-.05h.6c.06,0,.1.03.12.07s.02.08,0,.14l-.22.59c-.02.06-.06.1-.11.14s-.1.05-.16.05h-.6ZM429.24,449.22c-.06,0-.1-.02-.12-.06-.02-.04-.02-.08,0-.14l.22-.59c.02-.06.06-.1.11-.14.05-.04.1-.05.16-.05h.61c.06,0,.1.03.12.07s.02.08,0,.14l-.22.59c-.02.06-.06.1-.11.14s-.1.05-.16.05h-.61Z"/>
        <path class="cls-13" d="M431.22,449.25c-.06,0-.1-.02-.12-.06s-.02-.08,0-.14l.1-.27c.02-.05.05-.11.1-.17.05-.06.13-.13.24-.2l2.44-1.77c.37-.24.68-.44.9-.61.23-.17.41-.33.53-.49.13-.16.22-.32.28-.49.12-.32.12-.58.01-.77-.11-.19-.34-.29-.69-.29-.22,0-.43.04-.63.13-.2.09-.37.21-.52.37-.15.16-.28.34-.38.54-.04.07-.09.12-.14.15-.06.03-.11.04-.15.04h-.44c-.05,0-.09-.02-.11-.06-.02-.03-.03-.07,0-.11.08-.21.21-.43.37-.64.16-.22.36-.41.59-.58.23-.18.49-.31.77-.42.28-.1.59-.15.91-.15.44,0,.77.09,1,.26.22.16.35.38.39.65s0,.56-.12.87c-.09.25-.22.47-.37.68s-.35.4-.58.59-.5.39-.81.59l-2.22,1.63,2.62.04c.06,0,.1.02.13.05s.02.08,0,.15l-.13.35c-.02.06-.06.1-.11.14s-.11.05-.17.05l-3.71-.06Z"/>
        <path class="cls-13" d="M436.16,449.32c-.06,0-.1-.02-.12-.06s-.02-.08,0-.14l.1-.27c.02-.05.05-.11.1-.17.05-.06.13-.13.24-.2l2.44-1.77c.37-.24.67-.44.9-.61.23-.17.41-.33.53-.49.13-.16.22-.32.28-.49.12-.32.12-.58,0-.77-.11-.19-.34-.29-.69-.29-.22,0-.43.04-.63.13-.2.09-.37.21-.52.37-.15.16-.28.34-.38.54-.04.07-.09.12-.14.15-.06.03-.11.04-.15.04h-.44c-.05,0-.09-.02-.11-.06-.02-.03-.03-.07,0-.11.08-.21.21-.43.37-.64.16-.22.36-.41.59-.58.23-.18.49-.31.77-.42.28-.1.59-.15.91-.15.44,0,.77.09,1,.26.22.16.36.38.39.65s0,.56-.11.87c-.09.25-.21.47-.37.68s-.35.4-.58.59-.5.39-.81.59l-2.21,1.63,2.62.04c.06,0,.1.02.13.05s.03.08,0,.15l-.13.35c-.02.06-.06.1-.11.14s-.11.05-.17.05l-3.71-.06Z"/>
      </g>
      <g>
        <path class="cls-13" d="M409.15,483.62c-.06,0-.1-.02-.12-.06s-.02-.09,0-.14l1.8-4.85-1.82,1.09c-.06.03-.11.05-.16.04-.05,0-.08-.03-.1-.08l-.11-.29c-.01-.05,0-.1.02-.16.03-.05.07-.1.13-.13l2.39-1.42c.05-.03.09-.05.13-.05.04,0,.07,0,.11,0h.43c.06,0,.1.03.12.06.02.04.02.09,0,.14l-2.09,5.66c-.02.06-.06.11-.11.14s-.1.06-.16.05h-.45Z"/>
        <path class="cls-13" d="M412.95,483.77c-.36,0-.65-.06-.89-.15-.23-.09-.41-.22-.54-.37-.13-.15-.2-.32-.23-.51s0-.37.05-.55c.02-.05.05-.09.1-.13s.09-.05.15-.05h.42c.05,0,.09.02.13.05.03.03.05.08.04.15-.02.21.02.37.11.49.1.12.23.2.4.25.17.05.35.07.53.07.39,0,.74-.08,1.06-.27.31-.19.54-.46.68-.84s.13-.64-.04-.81-.44-.25-.83-.26h-.81c-.06-.01-.1-.03-.12-.07-.02-.03-.02-.08,0-.15l.09-.23c.02-.05.05-.1.08-.13s.07-.07.1-.1l2.32-1.81-2.51-.04c-.06,0-.1-.02-.12-.05s-.02-.08,0-.15l.12-.33c.02-.06.06-.11.11-.15.05-.04.1-.05.16-.05l3.39.05c.06,0,.1.02.13.06.02.04.02.09,0,.15l-.11.31s-.04.08-.07.11c-.03.03-.06.06-.1.09l-2.32,1.83h.13c.37.03.67.1.9.23.23.13.38.32.45.58s.02.57-.12.95-.36.72-.64.98c-.29.27-.62.47-1,.62-.38.14-.78.21-1.2.2Z"/>
        <path class="cls-13" d="M417.46,480.7c-.06,0-.1-.02-.12-.06-.02-.04-.02-.09,0-.14l.22-.6c.02-.06.06-.1.11-.14.05-.04.1-.05.16-.05h.61c.06.01.1.03.12.07.02.04.02.09,0,.14l-.22.6c-.02.06-.06.1-.11.14s-.1.06-.16.05h-.61ZM416.34,483.73c-.06,0-.1-.02-.12-.06-.02-.04-.02-.09,0-.14l.22-.61c.02-.06.06-.11.11-.14.05-.04.1-.06.16-.05h.61c.06.01.1.03.12.07s.02.09,0,.14l-.22.61c-.02.06-.06.11-.11.14s-.1.06-.16.05h-.61Z"/>
        <path class="cls-13" d="M418.35,483.76c-.06,0-.1-.02-.12-.06s-.02-.09,0-.14l.1-.28c.02-.05.05-.11.11-.17.05-.06.13-.13.25-.21l2.48-1.81c.38-.24.69-.45.92-.63.23-.17.41-.34.54-.5.13-.16.23-.33.29-.5.12-.33.13-.59.01-.79-.11-.2-.34-.3-.7-.3-.23,0-.44.04-.64.13s-.37.22-.52.38c-.15.16-.28.35-.39.55-.04.07-.09.13-.15.15-.06.03-.11.04-.15.04h-.44c-.05,0-.09-.02-.11-.06-.02-.03-.03-.07,0-.12.09-.22.21-.44.38-.66.17-.22.37-.42.6-.6.23-.18.49-.32.78-.43.29-.11.59-.16.92-.15.45,0,.78.09,1.01.26.23.17.36.39.39.66s0,.57-.12.89c-.09.25-.22.49-.38.69-.16.21-.36.41-.59.61s-.51.4-.82.6l-2.25,1.67,2.65.04c.06,0,.11.02.13.05.02.03.03.08,0,.15l-.13.36c-.02.06-.06.11-.11.14s-.11.06-.17.05l-3.75-.06Z"/>
        <path class="cls-13" d="M425.41,483.96c-.33,0-.62-.05-.86-.14-.25-.09-.44-.21-.57-.38-.14-.16-.22-.36-.25-.58-.03-.22.01-.48.12-.76.13-.35.32-.66.58-.91.26-.25.55-.44.88-.57-.17-.14-.28-.31-.33-.53-.05-.22-.02-.47.09-.77.13-.35.32-.64.57-.87.25-.24.56-.42.91-.55.35-.13.73-.19,1.13-.18s.72.08.98.21c.26.13.42.32.5.57.08.24.06.54-.07.88-.11.29-.26.55-.47.76-.2.22-.44.39-.7.52.23.14.38.33.46.59.07.26.05.56-.08.91-.14.38-.35.7-.64.97-.29.27-.63.48-1.01.62-.39.14-.8.21-1.25.2ZM425.66,483.26c.26,0,.51-.04.76-.13.24-.09.46-.22.65-.39.19-.17.32-.37.41-.6s.1-.44.03-.61c-.07-.17-.19-.3-.36-.39-.18-.09-.4-.14-.66-.15s-.51.04-.76.12c-.24.09-.46.21-.64.37-.19.16-.32.36-.41.6s-.1.43-.03.6c.06.17.18.31.36.4.18.1.4.15.66.15ZM426.73,480.33c.22,0,.43-.03.64-.11.21-.08.4-.19.56-.32.16-.14.28-.3.35-.5s.08-.37.03-.51c-.05-.15-.16-.26-.31-.34-.16-.08-.35-.12-.57-.13s-.45.03-.66.11c-.21.08-.4.18-.56.33-.16.14-.28.31-.35.51s-.08.37-.03.52c.06.14.16.25.32.33s.35.12.58.12Z"/>
      </g>
    </g>
  </g>
  <g id="Layer_6" data-name="Layer 6">
    <g>
      <rect class="cls-4" x="268.76" y="310.82" width="125.31" height="40.34" rx="3.91" ry="3.91"/>
      <text class="cls-10" transform="translate(314.76 327.21)"><tspan x="0" y="0">098972950</tspan></text>
      <text class="cls-11" transform="translate(354.78 343.39)"><tspan x="0" y="0">13:30</tspan></text>
    </g>
    <g>
      <rect class="cls-4" x="197.97" y="414.41" width="125.31" height="40.34" rx="3.91" ry="3.91"/>
      <text class="cls-10" transform="translate(236.32 430.8)"><tspan x="0" y="0">0586695478</tspan></text>
      <text class="cls-11" transform="translate(284.43 446.98)"><tspan x="0" y="0">13:26</tspan></text>
    </g>
    <g>
      <rect class="cls-4" x="722.01" y="264.91" width="125.31" height="40.34" rx="3.91" ry="3.91"/>
      <text class="cls-10" transform="translate(762.02 281.3)"><tspan x="0" y="0">0526648512</tspan></text>
      <text class="cls-11" transform="translate(810.14 297.49)"><tspan x="0" y="0">13:19</tspan></text>
    </g>
    <g>
      <rect class="cls-4" x="689.15" y="385.87" width="125.31" height="40.34" rx="3.91" ry="3.91"/>
      <text class="cls-10" transform="translate(779.56 402.26)"><tspan x="0" y="0">1111</tspan></text>
      <text class="cls-11" transform="translate(775.77 418.44)"><tspan x="0" y="0">13:22</tspan></text>
    </g>
    <g>
      <rect class="cls-4" x="646.81" y="510.49" width="125.31" height="40.34" rx="3.91" ry="3.91"/>
      <text class="cls-10" transform="translate(686.25 526.88)"><tspan x="0" y="0">0502265481</tspan></text>
      <text class="cls-11" transform="translate(733.23 543.06)"><tspan x="0" y="0">13:35</tspan></text>
    </g>
  </g>
</svg>