<svg width="472" height="390" viewBox="0 0 472 390" fill="none" xmlns="http://www.w3.org/2000/svg">
<g clip-path="url(#clip0_102_8)">
<path d="M423.66 332.33C463.58 327.16 445.78 392.54 415.15 369.45C395.99 355.01 417.2 329.72 437.19 336.58C428.42 331.34 417.41 333.48 411.28 341.61C411.76 337.14 419.97 332.81 423.65 332.33H423.66Z" fill="#A2A2A2"/>
<path d="M461.56 371.77C477.01 368.97 474.08 394.68 459.24 388.01C452.52 384.99 454.53 373.04 461.56 371.77Z" fill="#A2A2A2"/>
<path d="M253.55 0.53011C293.9 -3.66989 331 17.1501 351 51.5801C386.18 42.1701 419.33 64.4101 423.31 100.69C423.74 104.58 421.49 112.74 422.54 115.38C422.79 116 432.08 121.18 433.75 122.73C484.65 169.68 456.69 240.67 389.67 248.02C385.86 248.44 380.32 246.34 377.3 247.25C375.81 247.7 360.12 265.29 354.87 268.91C330.98 285.37 301.48 288.55 273.66 281.28C269.44 280.18 258.94 274.01 255.87 274.32C254.24 274.48 243.67 280.98 240.4 282.05C210.43 291.88 184.37 290.33 156.1 276.64C153.99 275.62 145.93 268.99 145.27 268.91C144.08 268.76 127.4 274.82 122.07 275.1C104.17 276.02 84.73 268.12 72.96 254.6C69.73 250.89 60.68 232.88 59.43 232.56C58.98 232.44 52.68 233.79 50.15 233.33C-2.17002 223.84 -17.47 158.3 23.07 125.83C25.32 124.03 35.15 119.73 35.83 118.48C36.73 116.83 37.06 108.87 38.15 106.11C44.85 89.0601 58.78 74.2801 77.21 70.1501C81.97 69.0801 92.73 69.9501 95 69.3801C96.12 69.1001 106.56 54.4401 109.69 51.5901C124.35 38.2701 149.49 29.3001 169.24 30.7101C172.81 30.9601 190.55 36.4101 191.67 36.1201C192.65 35.8701 202.89 23.6201 205.59 21.4301C217.26 11.9501 238.53 2.11011 253.54 0.55011L253.55 0.53011Z" fill="#A2A2A2"/>
<path d="M338.23 39.2101C340.43 41.4401 345.62 45.3501 345.96 45.7801C348.41 48.8101 345.41 53.0301 351.37 53.9001C349.01 59.4001 354.12 55.5101 356.4 55.4501C382.23 54.7501 399.21 60.5001 414.79 81.7501C420.7 94.0101 419.76 100.29 420.98 113.07C421.01 113.38 419.18 114.15 419.43 115.39C419.59 116.17 431.07 124.68 431.03 126.22C431 127.54 427.35 126.37 430.26 130.09L427.17 130.86C430.43 137.68 455.14 166.62 455.79 171.08C456.51 176 453.58 172.9 451.92 171.08C441.65 159.85 431.5 136.25 422.53 127C420.66 125.08 417.79 123.36 417.89 127L455.01 181.91C452.62 182.29 450.08 178.14 448.82 176.5C442.08 167.73 427 140.96 420.2 135.51C416.52 132.56 416.63 135.61 413.24 132.42C411.92 131.17 409.44 124.31 408.99 124.3C408.66 124.29 408.57 126.77 406.67 126.62C404.77 126.47 399.51 117.81 398.16 115.79C391.71 114.32 411.29 135.09 400.87 130.87C401.73 132.92 411.62 143.66 406.67 143.63C405.39 143.63 394.87 124.55 392.36 122.36L391.2 124.29C384.37 120.87 396.82 134.46 397 135.5C397.11 136.11 394.65 136.89 394.68 137.05C394.82 137.76 399.17 141.32 396.61 142.85L390.81 137.82L401.25 154.45C394.72 151.9 379.61 121.94 376.11 120.81C375.38 120.57 374.79 122.46 373.02 122.36C372.51 123.89 382.84 133.77 383.07 135.51C383.22 136.63 381.36 137.17 381.52 140.15C381.55 140.69 383.95 141.72 383.84 143.24C383.83 143.4 380.77 142.43 381.52 145.56C382.64 150.25 393.54 160.92 395.44 166.44L371.08 135.89C370.7 137.88 375.14 140.39 371.47 140.92L368.76 136.67C368.39 141 384.91 159.94 384.62 161.81C383.66 167.82 373.32 148.09 371.86 147.5C370.84 147.09 369.73 149.13 369.54 149.05C367.42 148.13 365.15 147.63 364.9 147.5C362.5 146.25 361.83 139.42 360.26 145.95L357.94 142.86L372.25 164.9C372.63 165.69 370.45 166.84 370.32 166.83C368.9 166.73 356.87 145.66 355.63 145.95C355.22 146.04 358.73 154.41 353.31 146.72C351.68 146.48 352.6 147.88 352.92 148.65C354.6 152.71 371.69 173.35 371.48 174.95C370.69 180.95 362.17 162.89 359.11 167.6C357.27 165.16 355.82 162.56 353.31 160.64L351.38 161.8L352.54 165.28C351.35 160.89 348.91 162.39 348.67 162.19C344.69 158.75 330.28 134.49 328.56 134.35C328.42 134.34 326.66 136.15 326.63 136.28C326.19 138.26 328.76 139.67 328.95 140.92C329.2 142.54 326.84 141.48 327.4 144.01C327.67 145.2 331.36 146.36 331.27 149.42C331.27 149.74 328.19 155.95 328.56 152.13C324.7 152.72 328.58 154.27 328.17 155.61C327.56 157.64 324.29 157.75 323.53 158.7C322.99 159.38 324.84 160.34 324.3 161.02C323.6 161.91 314.72 165.33 319.66 169.53C315.61 173.77 313.04 163.47 311.54 162.96C305.94 161.05 313.2 171.28 309.22 169.92C307.67 169.39 306.46 165.39 306.13 165.28C305.8 165.17 302.28 168.59 300.33 167.99L309.22 180.75C305.83 179.84 304.47 170.72 301.87 175.72L306.51 182.68C301.34 179.37 297.78 175.22 293.75 169.15C289.51 172.95 280.07 172.86 279.83 179.2C277.78 180.87 273.36 169 270.55 172.24C269.64 173.36 274.65 181.85 275.58 183.07H274.81C274.47 182.46 266.58 172.46 265.92 172.24C261.85 170.88 261.04 174.49 260.51 174.56C259.76 174.65 258.37 171.53 258.19 171.47C256.45 170.87 255.11 176.96 254.32 176.88C254.04 176.85 252.07 172.48 251.23 172.24C248.28 171.4 246.15 175.37 245.82 175.33C243.82 175.13 227.65 145.24 223.39 142.07C223.96 145.14 218.38 145.96 218.36 146.32C218.25 148.86 244.19 182.39 247.75 187.7C249.12 189.74 261.61 207.21 260.9 208.2C257.12 213.43 249.59 189.92 245.43 196.99C244.57 194.28 223.9 162.6 221.84 162.19C221.23 162.07 215.53 164.43 212.95 161.03C216.4 167.31 220.47 167.31 214.11 173.02C208.97 160.2 204.08 168.71 203.28 168.38C202.43 168.03 197.05 158.45 196.32 158.33C195.39 158.17 193.56 162.25 191.68 162.2C190.22 161 185.6 152.35 184.72 152.15C183.92 151.96 180.36 155.26 180.08 155.24C179.32 155.18 176.32 149.13 173.89 149.83C173.68 149.89 172.85 153.45 170.8 152.92C170.39 152.82 166.74 146.16 166.16 145.96C163.63 145.08 162.57 149.99 161.52 149.83C160.78 149.72 153.96 135.97 151.85 145.58C151.16 148.74 154.01 149.36 154.17 150.22C154.22 150.49 152.28 151.42 152.62 152.54C153.14 154.21 157.79 157.73 156.87 160.66C149.39 150.87 141.3 141.66 134.05 131.66C124.02 117.82 109.61 89.6601 98.4698 79.0701C98.4198 79.0201 99.6098 78.1701 99.2398 77.9101C106.46 71.2601 111.26 62.5801 118.96 56.2501C135.8 42.4201 157.73 36.8201 179.29 37.6901C182.94 37.8401 193.21 41.2401 195.53 40.7801C196.5 40.5901 205.02 31.4701 207.13 29.9501C250.36 -1.17991 300.33 0.780083 338.23 39.2101Z" fill="#A2A2A2"/>
<path d="M99.2498 77.8801C99.6198 78.1401 98.4298 78.9901 98.4798 79.0401C109.62 89.6401 124.03 117.79 134.06 131.63C141.31 141.64 149.4 150.85 156.88 160.63C157.8 157.7 153.14 154.18 152.63 152.51C152.28 151.39 154.23 150.46 154.18 150.19C154.02 149.33 151.17 148.71 151.86 145.55C153.96 135.94 160.79 149.69 161.53 149.8C162.58 149.96 163.65 145.05 166.17 145.93C166.75 146.13 170.41 152.79 170.81 152.89C172.87 153.41 173.69 149.86 173.9 149.8C176.33 149.1 179.32 155.16 180.09 155.21C180.37 155.23 183.93 151.93 184.73 152.12C185.61 152.33 190.23 160.97 191.69 162.17C193.57 162.23 195.4 158.14 196.33 158.3C197.06 158.43 202.44 168 203.29 168.35C204.09 168.68 208.98 160.17 214.12 172.99C220.48 167.28 216.41 167.29 212.96 161C215.54 164.4 221.24 162.04 221.85 162.16C223.91 162.58 244.58 194.25 245.44 196.96C246.2 199.36 245.54 201.43 245.83 203.92C244.11 202.87 236.51 192.99 235.78 193.09C235.05 193.19 235.48 197.03 231.53 193.48L232.69 198.51C228.3 195.38 220.31 176.19 218 189.23C212.31 177.46 208.85 186.35 207.95 186.14C207.49 186.03 204.15 178.79 202.54 178.41C200.53 177.93 198.47 181.87 197.13 181.5C196.78 181.4 193.61 175.41 193.26 175.31C192.81 175.18 189.18 177.99 187.85 177.63C185.89 177.1 186.23 169.98 180.89 177.63C179.45 176.83 175.22 169.23 174.7 169.12C174.35 169.05 169.64 173.71 169.67 174.15C169.78 175.48 183.25 192.48 185.14 195.81C187.03 199.14 183.67 198.39 184.37 199.68C186.93 204.43 193.07 209.67 194.04 215.54C191.35 213.18 189.45 207.4 187.47 205.1C186.94 204.48 185.45 206.41 184.38 205.1C176.49 195.46 170.78 181.8 162.34 172.23C167.29 184.18 177.63 193.94 183.61 205.1C184.3 206.39 181.4 206.12 182.06 207.42C184.02 211.26 189.42 215.32 189.41 220.18C187.06 217.22 185.15 212.5 182.84 209.74C180.53 206.98 179.65 209.05 178.97 208.19C167.71 193.98 158.95 174.75 146.87 160.62L142.23 165.26C140.61 163.25 135.57 153.59 132.95 154.43C132.71 154.51 131.14 158.54 129.86 158.3C128.95 158.13 121.75 144.51 119.81 142.83L115.17 146.7C110.56 142.41 105.43 124.11 98.9298 132.78L66.8298 83.2801C73.3498 80.1601 93.1298 73.5301 99.3098 77.8701L99.2498 77.8801Z" fill="#A2A2A2"/>
<path d="M359.12 167.59C366.2 177 385.66 202.88 390.06 212.06C390.62 213.24 388.78 214.63 389.29 215.93C389.8 217.23 394.25 219.93 392.77 222.5L386.58 213.22L385.03 214.77L357.96 175.33L364.92 190.02L354.87 177.65C353.17 179.29 366.14 191.86 361.83 191.57C358.32 189.1 357.08 184.17 354.48 181.13C354.21 180.81 352.15 178.08 352.16 180.36C356.38 187.67 363.52 194.95 367.63 202.02C369.04 204.44 366.28 204.15 367.63 206.66C369.68 210.46 374.22 214.85 376.14 219.03L366.47 206.27C364.56 210.62 372.07 216.08 373.82 219.8C373.83 222.08 371.77 219.34 371.5 219.03C369.09 216.21 356.98 196.6 355.64 196.21C350.58 194.74 358.68 203.54 359.12 204.33C359.5 205.01 360.79 208.46 358.35 205.88C354.3 202.32 335.07 173.92 332.44 174.56C330.46 175.04 332.11 177.46 331.67 177.65C330.13 178.34 323.29 177.37 323.55 181.9C323.61 182.98 334.17 196.47 335.92 199.69C336.38 200.53 334.7 201.16 335.15 202.01C336.08 203.77 343.61 212.22 341.72 213.22C332.26 198.65 331.77 202.18 340.17 214.77L332.44 204.72C330.16 205.52 333.02 209.19 331.67 209.36C330.32 209.53 316.65 189.81 313.49 188.09C316.98 194.42 323.22 200.55 326.64 206.65C328.02 209.11 325.33 208.72 326.64 211.29C327.06 212.11 338.99 225.71 332.44 225.6C331.37 225.58 327.52 216.74 325.87 219.8L329.35 227.92C329.9 227.07 321.34 214.07 321.23 218.25L328.58 230.24L317.37 217.48L326.26 233.34L301.51 201.63L315.43 228.7C312.39 226.24 311.3 221.82 308.86 219.03C306.55 216.4 305.66 218.3 304.99 217.48C297.53 208.36 290.23 192.49 282.56 184.22C282.34 183.99 277.56 180.11 276.76 181.51L279.08 186.92C278.13 185.71 276.45 184.17 275.6 183.05C274.68 181.83 269.66 173.34 270.57 172.22C273.38 168.98 277.8 180.85 279.85 179.18C280.1 172.84 289.54 172.93 293.77 169.13C297.8 175.21 301.36 179.35 306.53 182.66L301.89 175.7C304.49 170.7 305.84 179.82 309.24 180.73L300.35 167.97C302.3 168.57 305.81 165.15 306.15 165.26C306.49 165.37 307.7 169.37 309.24 169.9C313.22 171.26 305.96 161.03 311.56 162.94C313.06 163.45 315.63 173.75 319.68 169.51C314.75 165.31 323.62 161.89 324.32 161C324.86 160.32 323.01 159.36 323.55 158.68C324.31 157.72 327.58 157.62 328.19 155.59C328.59 154.25 324.72 152.7 328.58 152.11C328.2 155.93 331.28 149.72 331.29 149.4C331.38 146.34 327.69 145.17 327.42 143.99C326.85 141.46 329.22 142.52 328.97 140.9C328.78 139.64 326.21 138.24 326.65 136.26C326.68 136.13 328.45 134.32 328.58 134.33C330.29 134.47 344.71 158.73 348.69 162.17C348.93 162.37 351.37 160.87 352.56 165.26L351.4 161.78L353.33 160.62C355.84 162.54 357.29 165.14 359.13 167.58L359.12 167.59Z" fill="#A2A2A2"/>
<path d="M338.23 39.2102C300.33 0.780205 250.36 -1.1798 207.14 29.9202C205.03 31.4402 196.51 40.5602 195.54 40.7502C193.22 41.2102 182.95 37.8002 179.3 37.6602C157.74 36.7902 135.81 42.3902 118.97 56.2202C111.27 62.5502 106.47 71.2302 99.2499 77.8802C93.0599 73.5402 73.2799 80.1802 66.7699 83.2902C53.6299 89.5702 41.3399 101.97 38.9299 116.93C38.4599 119.82 40.3999 124.45 39.6999 126.21C39.3099 127.2 28.8899 131.97 26.9399 133.56C7.13989 149.63 0.989887 173.4 6.82989 197.76C-4.48011 173.3 3.22989 144.14 23.8499 127.38C26.2499 125.43 36.6899 120.67 37.3799 119.26C37.9299 118.14 38.0899 110.61 38.9299 108.43C46.5199 88.6002 61.4799 74.7702 82.6299 70.9202C86.1799 70.2702 93.7999 71.8302 96.5499 70.9202C97.8199 70.5002 110.32 54.1102 114.34 50.8102C136.25 32.8102 165.89 29.3902 192.45 38.4402C229.4 -9.0598 302.08 -8.9898 338.24 39.2102H338.23Z" fill="#A2A2A2"/>
<path d="M274.81 183.06C277.7 188.35 274.47 186.46 274.04 187.31C270.31 194.75 272.58 189.25 270.56 190.02C264.73 192.25 272.03 194.24 269.01 196.98L262.05 187.7C259.38 189.87 261.84 193.17 261.28 193.89C257.1 195.17 254.49 185.54 253.55 185.38C252.78 185.25 250.88 189.07 247.75 187.7C244.19 182.39 218.25 148.86 218.36 146.32C218.38 145.96 223.96 145.13 223.39 142.07C227.65 145.23 243.82 175.13 245.82 175.33C246.15 175.36 248.28 171.4 251.23 172.24C252.08 172.48 254.05 176.85 254.32 176.88C255.11 176.96 256.44 170.87 258.19 171.47C258.37 171.53 259.76 174.65 260.51 174.56C261.05 174.49 261.85 170.88 265.92 172.24C266.58 172.46 274.48 182.45 274.81 183.07V183.06Z" fill="#A2A2A2"/>
<path d="M414.8 81.7403C399.22 60.4903 382.24 54.7503 356.41 55.4403C354.13 55.5003 349.02 59.3903 351.38 53.8903C355.85 54.5403 359.78 51.6003 360.27 51.5703C383.28 50.1803 404.62 60.6403 414.8 81.7303V81.7403Z" fill="#A2A2A2"/>
<path d="M378.8 263.5C431.76 258.12 429.25 340.26 374.93 333.11C336.27 328.02 338.54 267.59 378.8 263.5Z" fill="#A2A2A2"/>
<path d="M379.57 265.04C385.35 264.54 393.62 266.51 398.52 269.29C371.73 261.76 344.33 285.02 350.95 312.99C341.12 292.7 357.43 266.96 379.57 265.04Z" fill="#C2CAD8"/>
</g>
<defs>
<clipPath id="clip0_102_8">
<rect width="471.84" height="389.13" fill="white"/>
</clipPath>
</defs>
</svg>
