<svg width="477" height="643" viewBox="0 0 477 643" fill="none" xmlns="http://www.w3.org/2000/svg">
<rect width="389.063" height="566.184" transform="matrix(0.993316 0.115431 -0.102505 0.994732 58.0366 34.119)" fill="#E8E8E8"/>
<rect width="389.063" height="566.184" transform="matrix(0.993316 0.115431 -0.102505 0.994732 90.1658 0)" fill="white"/>
<line y1="-2.5" x2="283.977" y2="-2.5" transform="matrix(0.994694 0.102881 -0.091334 0.99582 128.629 147.849)" stroke="black" stroke-width="5"/>
<line y1="-2.5" x2="283.977" y2="-2.5" transform="matrix(0.994694 0.102881 -0.091334 0.99582 119.578 246.525)" stroke="black" stroke-width="5"/>
<line y1="-2.5" x2="283.977" y2="-2.5" transform="matrix(0.994694 0.102881 -0.091334 0.99582 99.0647 470.189)" stroke="black" stroke-width="5"/>
<line y1="-2.5" x2="283.977" y2="-2.5" transform="matrix(0.994694 0.102881 -0.091334 0.99582 109.925 351.779)" stroke="black" stroke-width="5"/>
<path d="M162.179 220.509C162.158 220.691 162.075 220.841 161.928 220.959C161.78 221.077 161.616 221.126 161.434 221.105L160.514 221.004C160.332 220.984 160.182 220.9 160.064 220.753C159.946 220.606 159.897 220.441 159.917 220.259L161.222 208.456C161.243 208.273 161.326 208.123 161.473 208.005C161.621 207.888 161.785 207.839 161.968 207.859L162.887 207.961C163.069 207.981 163.219 208.064 163.337 208.212C163.455 208.359 163.504 208.523 163.484 208.706L162.179 220.509ZM161.957 224.785C161.937 224.968 161.853 225.118 161.706 225.235C161.559 225.353 161.394 225.402 161.212 225.382L159.796 225.225C159.614 225.205 159.464 225.122 159.346 224.974C159.228 224.827 159.179 224.663 159.199 224.48L159.356 223.064C159.376 222.882 159.46 222.732 159.607 222.614C159.754 222.496 159.919 222.447 160.101 222.467L161.517 222.624C161.699 222.644 161.849 222.728 161.967 222.875C162.085 223.022 162.134 223.187 162.114 223.369L161.957 224.785ZM166.037 225.915C165.871 225.897 165.736 225.832 165.631 225.72C165.544 225.593 165.51 225.446 165.529 225.281L166.971 212.235C166.989 212.07 167.054 211.943 167.164 211.854C167.293 211.751 167.44 211.709 167.606 211.727L168.699 211.848C168.865 211.866 168.991 211.939 169.077 212.066C169.182 212.178 169.226 212.317 169.207 212.483L167.765 225.528C167.747 225.694 167.673 225.828 167.544 225.931C167.434 226.02 167.296 226.055 167.13 226.036L166.037 225.915ZM182.558 216.424C182.415 217.716 182.028 218.788 181.397 219.641C180.785 220.478 179.939 221.081 178.858 221.447L181.031 225.461C181.202 225.731 181.274 225.99 181.246 226.239L181.161 227.009C181.143 227.175 181.069 227.309 180.941 227.412C180.83 227.501 180.692 227.536 180.527 227.518L171.581 226.528C171.415 226.51 171.28 226.445 171.175 226.333C171.089 226.206 171.054 226.059 171.073 225.894L171.161 225.099C171.181 224.916 171.246 224.781 171.356 224.693C171.483 224.606 171.63 224.572 171.795 224.59L178.554 225.338L172.024 213.196C171.911 213 171.863 212.835 171.877 212.702C171.892 212.57 171.954 212.459 172.065 212.371C172.192 212.284 172.322 212.248 172.454 212.263L173.572 212.387C173.837 212.416 174.046 212.573 174.199 212.858L177.938 219.761C179.42 219.254 180.274 217.974 180.501 215.92L180.74 213.758C180.76 213.575 180.825 213.44 180.936 213.352C181.063 213.265 181.209 213.231 181.375 213.249L182.344 213.357C182.509 213.375 182.636 213.447 182.722 213.574C182.811 213.685 182.846 213.823 182.827 213.988L182.558 216.424ZM185.329 228.049C185.163 228.03 185.028 227.965 184.923 227.853C184.836 227.726 184.802 227.579 184.82 227.414L186.263 214.368C186.281 214.203 186.345 214.076 186.456 213.987C186.584 213.884 186.732 213.842 186.897 213.86L191.693 214.39C193.83 214.627 195.355 215.315 196.269 216.456C197.201 217.582 197.554 219.163 197.329 221.201L196.499 228.705C196.481 228.871 196.407 229.005 196.278 229.108C196.168 229.197 196.03 229.232 195.864 229.213L194.821 229.098C194.655 229.08 194.52 229.014 194.415 228.902C194.328 228.775 194.294 228.629 194.312 228.463L195.134 221.034C195.449 218.184 194.19 216.603 191.357 216.29L188.301 215.952L187.007 227.656C186.989 227.821 186.915 227.956 186.786 228.059C186.676 228.147 186.538 228.182 186.372 228.164L185.329 228.049ZM204.853 215.845C206.36 216.012 207.529 216.359 208.359 216.887C209.206 217.417 209.776 218.175 210.069 219.164C210.363 220.152 210.422 221.433 210.248 223.007C210.014 225.127 209.309 226.726 208.133 227.803C206.96 228.864 205.505 229.583 203.77 229.962L202.687 230.194C202.653 230.207 202.594 230.209 202.511 230.2C202.395 230.187 202.292 230.134 202.202 230.04C202.128 229.948 202.099 229.827 202.116 229.678L202.237 228.585C202.251 228.452 202.315 228.334 202.427 228.229C202.541 228.107 202.684 228.022 202.857 227.974L203.868 227.709C205.058 227.405 206.005 226.88 206.708 226.136C207.41 225.393 207.849 224.234 208.023 222.66C208.146 221.55 208.109 220.666 207.914 220.007C207.72 219.331 207.332 218.819 206.751 218.47C206.185 218.122 205.373 217.89 204.312 217.773L203.542 217.687L203.468 217.679L201.184 217.402C201.019 217.383 200.883 217.318 200.778 217.206C200.69 217.095 200.655 216.957 200.673 216.792L201.146 212.518C201.164 212.352 201.228 212.225 201.339 212.137C201.468 212.033 201.615 211.991 201.78 212.009L202.774 212.119C202.94 212.138 203.066 212.21 203.153 212.337C203.241 212.448 203.276 212.586 203.258 212.751L202.939 215.634L204.356 215.79L204.853 215.845ZM219.325 231.807C219.16 231.789 219.024 231.724 218.919 231.612C218.833 231.485 218.799 231.338 218.817 231.173L220.26 218.127C220.278 217.962 220.342 217.835 220.453 217.746C220.581 217.643 220.729 217.601 220.894 217.619L225.591 218.138C227.711 218.373 229.229 219.052 230.144 220.176C231.076 221.302 231.43 222.875 231.207 224.896L230.372 232.45C230.353 232.616 230.28 232.75 230.151 232.854C230.041 232.942 229.903 232.977 229.737 232.959L219.325 231.807ZM228.386 230.847L229.056 224.784C229.371 221.935 228.112 220.354 225.28 220.041L222.174 219.697L221.031 230.034L228.386 230.847ZM235.077 227.714C234.911 227.695 234.776 227.63 234.671 227.518C234.584 227.391 234.55 227.245 234.568 227.079L235.373 219.798C235.392 219.633 235.456 219.506 235.566 219.417C235.695 219.314 235.842 219.272 236.008 219.29L237.101 219.411C237.267 219.429 237.393 219.502 237.48 219.629C237.585 219.741 237.628 219.88 237.61 220.046L236.805 227.326C236.786 227.492 236.713 227.626 236.584 227.729C236.474 227.818 236.336 227.853 236.17 227.835L235.077 227.714ZM240.364 234.134C240.199 234.115 240.063 234.05 239.958 233.938C239.872 233.811 239.838 233.665 239.856 233.499L239.947 232.679C239.965 232.513 240.029 232.386 240.14 232.298C240.268 232.195 240.416 232.152 240.581 232.171L244.135 232.564C245.576 232.723 246.676 232.476 247.436 231.822C248.196 231.168 248.686 230.149 248.906 228.765C248.948 228.535 248.989 228.246 249.027 227.898C249.064 227.567 249.086 227.284 249.096 227.05C249.202 225.637 248.946 224.535 248.329 223.746C247.73 222.942 246.711 222.46 245.269 222.301L241.716 221.908C241.55 221.89 241.415 221.825 241.31 221.712C241.223 221.585 241.189 221.439 241.208 221.273L241.298 220.453C241.317 220.288 241.381 220.161 241.491 220.072C241.62 219.969 241.767 219.927 241.933 219.945L245.611 220.352C247.731 220.586 249.238 221.289 250.131 222.461C251.026 223.617 251.397 225.192 251.244 227.187C251.234 227.421 251.208 227.737 251.164 228.134C251.12 228.532 251.076 228.854 251.032 229.101C250.746 231.081 250.039 232.546 248.911 233.494C247.785 234.426 246.162 234.775 244.042 234.54L240.364 234.134ZM261.458 222.104C262.485 222.218 263.369 222.567 264.109 223.152C264.867 223.722 265.42 224.487 265.767 225.448C266.13 226.41 266.243 227.513 266.105 228.755L265.27 236.309C265.252 236.475 265.178 236.609 265.049 236.712C264.939 236.801 264.801 236.836 264.635 236.817L258.224 236.108C258.059 236.09 257.923 236.025 257.818 235.913C257.732 235.786 257.698 235.639 257.716 235.474L257.804 234.679C257.822 234.513 257.887 234.386 257.997 234.297C258.126 234.194 258.273 234.152 258.439 234.17L263.234 234.7L263.902 228.662C264.041 227.403 263.831 226.349 263.271 225.499C262.729 224.634 261.97 224.148 260.992 224.04L258.383 223.751L255.159 235.166C255.124 235.33 255.043 235.463 254.914 235.566C254.785 235.669 254.638 235.712 254.472 235.694L253.429 235.578C253.263 235.56 253.137 235.487 253.05 235.36C252.98 235.235 252.963 235.091 252.998 234.927L256.271 223.518L255.004 223.377C254.838 223.359 254.703 223.294 254.598 223.182C254.511 223.055 254.477 222.908 254.496 222.743L254.586 221.923C254.605 221.757 254.669 221.63 254.779 221.542C254.908 221.438 255.055 221.396 255.221 221.414L261.458 222.104ZM274.873 238.201C272.835 237.975 271.361 237.276 270.451 236.102C269.56 234.914 269.225 233.317 269.447 231.313L270.293 223.659C270.311 223.494 270.376 223.367 270.486 223.278C270.615 223.175 270.762 223.133 270.928 223.151L276.891 223.81C279.028 224.047 280.507 224.696 281.329 225.76C282.15 226.823 282.493 228.353 282.356 230.351C282.354 230.518 282.313 230.966 282.232 231.695C282.151 232.424 282.094 232.87 282.059 233.034C281.791 235 281.09 236.415 279.955 237.279C278.82 238.142 277.125 238.45 274.873 238.201ZM275.065 236.235C276.622 236.407 277.776 236.208 278.526 235.637C279.279 235.049 279.749 234.061 279.936 232.674C279.971 232.51 280.024 232.105 280.095 231.459C280.167 230.813 280.203 230.406 280.205 230.238C280.318 228.91 280.049 227.857 279.397 227.081C278.762 226.306 277.814 225.849 276.555 225.71L272.232 225.232L271.534 231.543C271.382 232.918 271.597 234.007 272.179 234.809C272.778 235.613 273.74 236.088 275.065 236.235ZM292.591 225.546C293.619 225.66 294.502 226.009 295.242 226.594C296.001 227.164 296.554 227.929 296.9 228.89C297.263 229.852 297.376 230.955 297.239 232.197L296.403 239.751C296.385 239.917 296.312 240.051 296.183 240.154C296.072 240.243 295.934 240.278 295.769 240.26L289.358 239.551C289.192 239.532 289.057 239.467 288.952 239.355C288.865 239.228 288.831 239.082 288.85 238.916L288.937 238.121C288.956 237.955 289.02 237.828 289.13 237.74C289.259 237.637 289.406 237.594 289.572 237.613L294.368 238.143L295.036 232.105C295.175 230.846 294.964 229.791 294.404 228.941C293.863 228.076 293.103 227.59 292.126 227.482L289.517 227.193L286.293 238.608C286.258 238.772 286.176 238.906 286.047 239.009C285.919 239.112 285.771 239.154 285.606 239.136L284.562 239.021C284.396 239.002 284.27 238.93 284.184 238.803C284.114 238.677 284.096 238.533 284.131 238.369L287.405 226.96L286.137 226.82C285.972 226.801 285.836 226.736 285.731 226.624C285.645 226.497 285.611 226.351 285.629 226.185L285.72 225.365C285.738 225.199 285.802 225.072 285.913 224.984C286.042 224.881 286.189 224.838 286.354 224.857L292.591 225.546ZM310.084 241.842C309.918 241.824 309.783 241.759 309.678 241.647C309.591 241.52 309.557 241.373 309.576 241.208L310.397 233.778C310.712 230.929 309.453 229.347 306.62 229.034L301.999 228.523C301.833 228.505 301.698 228.44 301.593 228.327C301.504 228.217 301.469 228.079 301.488 227.913L301.575 227.118C301.594 226.952 301.658 226.825 301.769 226.737C301.897 226.634 302.045 226.591 302.21 226.61L306.956 227.135C311.164 227.6 313.043 229.87 312.592 233.945L311.762 241.449C311.744 241.615 311.679 241.75 311.566 241.855C311.456 241.944 311.318 241.979 311.152 241.961L310.084 241.842ZM300.641 240.798C300.476 240.78 300.34 240.715 300.235 240.603C300.149 240.476 300.115 240.329 300.133 240.164L301.056 231.815C301.075 231.649 301.139 231.522 301.249 231.433C301.378 231.33 301.525 231.288 301.691 231.306L302.735 231.422C302.9 231.44 303.026 231.513 303.113 231.639C303.218 231.752 303.261 231.891 303.243 232.056L302.32 240.405C302.301 240.571 302.228 240.705 302.099 240.809C301.989 240.897 301.851 240.932 301.685 240.914L300.641 240.798ZM322.532 237.383C322.366 237.365 322.231 237.3 322.126 237.188C322.039 237.061 322.005 236.914 322.024 236.749L322.829 229.468C322.847 229.302 322.911 229.175 323.022 229.087C323.15 228.984 323.298 228.941 323.463 228.96L324.557 229.081C324.722 229.099 324.848 229.172 324.935 229.299C325.04 229.411 325.083 229.55 325.065 229.715L324.26 236.996C324.242 237.162 324.168 237.296 324.039 237.399C323.929 237.488 323.791 237.523 323.625 237.504L322.532 237.383ZM327.82 243.803C327.654 243.785 327.519 243.72 327.414 243.608C327.327 243.481 327.293 243.334 327.311 243.169L328.754 230.123C328.772 229.957 328.836 229.83 328.947 229.742C329.075 229.639 329.223 229.597 329.388 229.615L330.482 229.736C330.647 229.754 330.773 229.827 330.86 229.954C330.965 230.066 331.008 230.205 330.99 230.37L329.548 243.416C329.529 243.582 329.456 243.716 329.327 243.819C329.217 243.908 329.079 243.943 328.913 243.924L327.82 243.803ZM338.511 230.623C340.018 230.79 341.187 231.137 342.017 231.665C342.864 232.195 343.434 232.954 343.728 233.942C344.021 234.93 344.08 236.211 343.906 237.785C343.672 239.905 342.967 241.504 341.791 242.581C340.618 243.642 339.163 244.362 337.428 244.74L336.346 244.972C336.311 244.985 336.252 244.987 336.169 244.978C336.053 244.965 335.95 244.912 335.86 244.818C335.786 244.726 335.757 244.606 335.774 244.456L335.895 243.363C335.909 243.231 335.973 243.112 336.085 243.007C336.199 242.885 336.343 242.801 336.516 242.753L337.526 242.487C338.717 242.183 339.663 241.659 340.366 240.915C341.069 240.171 341.507 239.012 341.681 237.438C341.804 236.328 341.767 235.444 341.572 234.785C341.378 234.11 340.991 233.597 340.409 233.248C339.844 232.9 339.031 232.668 337.971 232.551L337.2 232.466L337.126 232.457L334.842 232.18C334.677 232.161 334.541 232.096 334.436 231.984C334.348 231.874 334.313 231.736 334.331 231.57L334.804 227.296C334.822 227.13 334.887 227.003 334.997 226.915C335.126 226.812 335.273 226.769 335.439 226.788L336.433 226.898C336.598 226.916 336.724 226.988 336.811 227.115C336.899 227.226 336.934 227.364 336.916 227.529L336.597 230.412L338.014 230.569L338.511 230.623ZM347.38 240.131C347.215 240.113 347.08 240.047 346.975 239.935C346.888 239.808 346.854 239.662 346.872 239.496L347.677 232.215C347.695 232.05 347.76 231.923 347.87 231.834C347.999 231.731 348.146 231.689 348.312 231.707L349.405 231.828C349.571 231.846 349.697 231.919 349.784 232.046C349.889 232.158 349.932 232.297 349.914 232.463L349.109 239.743C349.09 239.909 349.017 240.043 348.888 240.147C348.778 240.235 348.639 240.27 348.474 240.252L347.38 240.131ZM360.051 233.005C361.079 233.119 361.962 233.468 362.702 234.053C363.461 234.623 364.014 235.388 364.36 236.349C364.723 237.311 364.836 238.414 364.699 239.656L363.863 247.21C363.845 247.376 363.772 247.51 363.643 247.613C363.532 247.702 363.394 247.737 363.229 247.718L356.818 247.01C356.652 246.991 356.517 246.926 356.412 246.814C356.325 246.687 356.291 246.541 356.309 246.375L356.397 245.58C356.416 245.414 356.48 245.287 356.59 245.199C356.719 245.096 356.866 245.053 357.032 245.071L361.828 245.602L362.496 239.563C362.635 238.304 362.424 237.25 361.864 236.4C361.323 235.535 360.563 235.049 359.586 234.941L356.977 234.652L353.753 246.067C353.718 246.231 353.636 246.364 353.507 246.468C353.379 246.571 353.231 246.613 353.066 246.595L352.022 246.479C351.856 246.461 351.73 246.388 351.644 246.261C351.574 246.136 351.556 245.992 351.591 245.828L354.865 234.419L353.597 234.279C353.432 234.26 353.296 234.195 353.191 234.083C353.105 233.956 353.071 233.81 353.089 233.644L353.18 232.824C353.198 232.658 353.262 232.531 353.373 232.443C353.502 232.34 353.649 232.297 353.814 232.316L360.051 233.005ZM372.216 234.35C373.724 234.517 374.893 234.864 375.723 235.392C376.57 235.922 377.14 236.68 377.433 237.669C377.726 238.657 377.786 239.938 377.612 241.512C377.378 243.632 376.673 245.231 375.497 246.308C374.323 247.369 372.869 248.088 371.133 248.467L370.051 248.699C370.016 248.712 369.958 248.714 369.875 248.705C369.759 248.692 369.656 248.639 369.565 248.545C369.492 248.453 369.463 248.332 369.48 248.183L369.6 247.09C369.615 246.957 369.679 246.839 369.791 246.734C369.905 246.612 370.048 246.527 370.221 246.479L371.232 246.214C372.422 245.91 373.369 245.385 374.072 244.641C374.774 243.897 375.213 242.739 375.387 241.165C375.509 240.055 375.473 239.171 375.278 238.512C375.084 237.836 374.696 237.324 374.114 236.975C373.549 236.627 372.737 236.395 371.676 236.278L370.906 236.192L370.831 236.184L368.548 235.907C368.382 235.888 368.247 235.823 368.142 235.711C368.054 235.6 368.019 235.462 368.037 235.297L368.51 231.023C368.528 230.857 368.592 230.73 368.703 230.642C368.831 230.538 368.979 230.496 369.144 230.514L370.138 230.624C370.304 230.643 370.43 230.715 370.517 230.842C370.605 230.953 370.64 231.091 370.622 231.256L370.303 234.139L371.719 234.295L372.216 234.35Z" fill="black"/>
</svg>
