<svg width="678" height="469" viewBox="0 0 678 469" fill="none" xmlns="http://www.w3.org/2000/svg">
<g clip-path="url(#clip0_112_5)">
<path d="M332.643 38.2695L336.815 42.6647C359.809 56.6494 382.902 70.3234 406.194 83.8642C415.034 89.0142 419.703 94.2529 430.678 98.4705C431.721 98.8701 434.552 97.6714 436.439 98.8257C437.581 99.536 437.78 102.866 438.872 103.976C442.25 107.394 446.968 108.815 447.017 113.121C440.561 116.584 422.782 132.212 417.567 131.501C410.366 121.512 399.639 113.832 389.855 105.84C388.365 104.642 391.395 99.5804 380.171 101.578L82.4904 191.658L81.4475 197.074L7.89648 147.75L279.504 7.28101L332.594 38.3139L332.643 38.2695Z" fill="#E9E9E9"/>
<path d="M279.504 1.77584V7.23656L7.89643 147.75L81.3977 197.074L82.4407 191.658L380.121 101.578C391.345 99.5804 388.365 104.642 389.805 105.84L381.661 109.481L89.6418 196.142L121.128 230.06L131.508 231.881L436.936 181.447C438.872 182.557 438.376 185.664 438.872 186.108L426.606 189.749L128.429 239.028L258.149 423.361L261.774 424.826L340.838 401.34L300.014 237.119C357.276 244.933 415.034 250.927 472.246 259.317C475.077 259.717 487.84 261.138 487.939 262.647C487.939 262.78 485.556 262.381 485.903 264.467C490.274 263.801 500.008 266.376 502.242 262.647L615.325 277.52C619.05 278.541 617.808 281.249 618.653 282.714L620.689 286.355C620.888 287.376 620.739 288.885 620.689 289.995C620.59 291.505 620.44 292.925 618.653 293.636C618.206 291.46 619 288.663 618.653 286.31L306.173 245.288L361.597 457.635L376.545 459.766C470.21 457.635 563.825 463.051 657.44 461.497C662.307 465.404 671.445 462.518 677.851 463.317C677.95 464.827 678.795 468.645 676.659 468.822L358.071 465.315L339.745 408.666C327.727 411.418 262.122 435.348 255.516 431.885L119.191 237.119L106.08 223.268L0.744946 149.615L0 142.511L276.574 0C278.51 0 279.106 1.64265 279.553 1.77584H279.504Z" fill="#1D1818"/>
<path d="M428.592 133.188C424.272 137.495 433.559 145.175 436.836 148.638C460.724 173.855 490.919 201.558 516.446 226.242H514.41C482.874 197.296 451.835 167.773 420.448 138.649C422.384 134.609 426.059 134.565 428.592 133.188Z" fill="#5D5757"/>
<path d="M677.752 463.495C671.345 462.696 662.157 465.537 657.34 461.675C661.263 461.63 674.524 463.672 673.58 459.055L641.001 361.295L643.037 359.475C643.136 359.83 646.514 361.384 647.755 365.246C655.453 389.131 676.262 441.918 677.752 463.495Z" fill="#686767"/>
<path d="M389.805 105.796C399.589 113.787 410.316 121.512 417.517 131.457C422.732 132.167 440.511 116.54 446.968 113.077C448.855 112.056 450.941 111.523 453.076 111.256C453.275 111.878 453.275 114.275 453.076 114.897L449.004 118.537C443.044 124.797 436.34 128.882 428.592 133.144C426.01 134.564 422.335 134.564 420.448 138.604C414.289 132.877 397.007 115.163 391.991 112.056C388.365 109.791 386.379 108.682 381.661 109.436L389.805 105.796Z" fill="#282323"/>
<path d="M334.679 36.4492C355.587 49.3685 377.638 61.8438 398.596 75.1182C401.824 77.1604 408.628 79.8242 408.181 83.9086H406.144C382.853 70.3678 359.759 56.6938 336.765 42.7091L332.594 38.3139L334.63 36.4936L334.679 36.4492Z" fill="#584D4D"/>
<path d="M641.001 352.15L638.965 353.97C632.807 344.07 620.987 305.933 618.553 293.769C620.341 293.058 620.49 291.638 620.589 290.128C627.145 298.874 630.621 312.548 633.849 322.981C636.78 332.393 638.319 343.892 641.001 352.194V352.15Z" fill="#444343"/>
<path d="M334.679 36.4492L332.643 38.2694L279.553 7.23659V1.77588C295.594 6.92582 319.731 27.2148 334.679 36.4492Z" fill="#3B3232"/>
<path d="M530.699 240.849C531.047 241.248 534.672 239.916 534.821 241.781C534.871 249.151 509.096 255.055 503.385 259.007C501.249 260.472 502.491 262.159 502.094 262.78C499.859 266.51 490.125 263.935 485.754 264.601C485.407 262.514 487.791 262.913 487.791 262.78L495.935 260.96C495.389 258.651 494.892 255.81 493.899 253.679C506.514 253.501 517.241 244.889 528.614 240.893H530.65L530.699 240.849Z" fill="#241818"/>
<path d="M430.628 98.5149C419.653 94.2973 414.935 89.0585 406.145 83.9086H408.181C415.928 84.6633 427.847 91.5891 430.628 98.5149Z" fill="#756D6D"/>
<path d="M530.699 240.849H528.663C524.094 236.009 519.277 230.771 514.36 226.242H516.397C522.455 232.103 524.392 233.479 530.699 240.849Z" fill="#8D8C8C"/>
<path d="M453.126 111.301C450.94 111.567 448.904 112.1 447.017 113.121C446.918 108.815 442.249 107.394 438.872 103.976C443.988 103.62 451.685 106.773 453.175 111.257L453.126 111.301Z" fill="#998D8D"/>
<path d="M643.037 355.834H641.001C640.008 355.479 639.461 354.813 638.965 354.014L641.001 352.194C641.249 352.993 642.541 354.236 643.037 355.834Z" fill="#686767"/>
<path d="M643.037 359.475L641.001 361.295V355.834H643.037C643.385 356.856 642.689 358.454 643.037 359.475Z" fill="#444343"/>
<path d="M620.589 286.488L618.553 282.847C619.249 284.046 620.192 284.623 620.589 286.488Z" fill="#444343"/>
<path d="M449.004 118.582L453.076 114.941C452.331 117.383 449.947 117.561 449.004 118.582Z" fill="#998D8D"/>
<path d="M657.34 461.675C563.725 463.228 470.111 457.768 376.446 459.943L361.497 457.812L306.073 245.466L618.553 286.488C618.851 288.841 618.106 291.593 618.553 293.813C620.987 305.978 632.856 344.114 638.965 354.014C639.462 354.813 640.058 355.479 641.001 355.834V361.295L673.58 459.055C674.524 463.717 661.214 461.63 657.34 461.675Z" fill="#EAEAEA"/>
<path d="M495.985 260.916L487.84 262.736C487.741 261.226 475.027 259.806 472.147 259.406C414.984 251.015 357.226 244.977 299.915 237.208L340.738 401.429L261.675 424.915L258.049 423.45L128.329 239.117L426.506 189.838L438.922 192.413L495.935 261.004L495.985 260.916Z" fill="#E9E9E9"/>
<path d="M420.447 138.649C451.835 167.773 482.824 197.296 514.41 226.242C519.327 230.771 524.144 236.009 528.713 240.849C517.29 244.8 506.613 253.457 493.998 253.635C487.791 240.36 450.99 198.006 438.872 186.108C438.426 185.664 438.872 182.557 436.936 181.447L131.508 231.881L121.128 230.06L89.6418 196.142L381.661 109.481C386.379 108.726 388.365 109.88 391.991 112.1C397.006 115.208 414.289 132.922 420.447 138.649Z" fill="#E8E9E9"/>
<path d="M493.949 253.635C494.942 255.766 495.439 258.607 495.985 260.916L438.972 192.324L426.556 189.749L438.823 186.108C450.94 197.962 487.741 240.36 493.949 253.635Z" fill="#423F3F"/>
<path d="M195.569 182.644C195.569 182.805 195.51 182.945 195.393 183.062C195.275 183.179 195.136 183.238 194.975 183.238H194.161C193.999 183.238 193.86 183.179 193.743 183.062C193.625 182.945 193.567 182.805 193.567 182.644V172.194C193.567 172.033 193.625 171.893 193.743 171.776C193.86 171.659 193.999 171.6 194.161 171.6H194.975C195.136 171.6 195.275 171.659 195.393 171.776C195.51 171.893 195.569 172.033 195.569 172.194V182.644ZM195.789 186.406C195.789 186.567 195.73 186.707 195.613 186.824C195.495 186.941 195.356 187 195.195 187H193.941C193.779 187 193.64 186.941 193.523 186.824C193.405 186.707 193.347 186.567 193.347 186.406V185.152C193.347 184.991 193.405 184.851 193.523 184.734C193.64 184.617 193.779 184.558 193.941 184.558H195.195C195.356 184.558 195.495 184.617 195.613 184.734C195.73 184.851 195.789 184.991 195.789 185.152V186.406ZM199.466 187C199.319 187 199.195 186.956 199.092 186.868C199.004 186.765 198.96 186.641 198.96 186.494V174.944C198.96 174.797 199.004 174.68 199.092 174.592C199.195 174.489 199.319 174.438 199.466 174.438H203.624C205.501 174.438 206.895 174.885 207.804 175.78C208.728 176.675 209.19 178.017 209.19 179.806V186.494C209.19 186.641 209.139 186.765 209.036 186.868C208.948 186.956 208.831 187 208.684 187H199.466ZM207.298 185.284V179.916C207.298 177.393 206.044 176.132 203.536 176.132H200.786V185.284H207.298ZM212.847 181.896C212.701 181.896 212.576 181.852 212.473 181.764C212.385 181.661 212.341 181.537 212.341 181.39V174.944C212.341 174.797 212.385 174.68 212.473 174.592C212.576 174.489 212.701 174.438 212.847 174.438H213.815C213.962 174.438 214.079 174.489 214.167 174.592C214.27 174.68 214.321 174.797 214.321 174.944V181.39C214.321 181.537 214.27 181.661 214.167 181.764C214.079 181.852 213.962 181.896 213.815 181.896H212.847ZM218.093 187C217.946 187 217.822 186.956 217.719 186.868C217.631 186.765 217.587 186.641 217.587 186.494V185.768C217.587 185.621 217.631 185.504 217.719 185.416C217.822 185.313 217.946 185.262 218.093 185.262H221.239C222.515 185.262 223.454 184.939 224.055 184.294C224.656 183.649 224.986 182.71 225.045 181.478C225.06 181.273 225.067 181.016 225.067 180.708C225.067 180.415 225.06 180.165 225.045 179.96C225.001 178.713 224.671 177.775 224.055 177.144C223.454 176.499 222.515 176.176 221.239 176.176H218.093C217.946 176.176 217.822 176.132 217.719 176.044C217.631 175.941 217.587 175.817 217.587 175.67V174.944C217.587 174.797 217.631 174.68 217.719 174.592C217.822 174.489 217.946 174.438 218.093 174.438H221.349C223.226 174.438 224.612 174.907 225.507 175.846C226.402 176.77 226.878 178.112 226.937 179.872C226.952 180.077 226.959 180.356 226.959 180.708C226.959 181.06 226.952 181.346 226.937 181.566C226.878 183.326 226.402 184.675 225.507 185.614C224.612 186.538 223.226 187 221.349 187H218.093ZM235.38 174.438C236.289 174.438 237.096 174.658 237.8 175.098C238.518 175.523 239.076 176.139 239.472 176.946C239.882 177.753 240.088 178.706 240.088 179.806V186.494C240.088 186.641 240.036 186.765 239.934 186.868C239.846 186.956 239.728 187 239.582 187H233.906C233.759 187 233.634 186.956 233.532 186.868C233.444 186.765 233.4 186.641 233.4 186.494V185.79C233.4 185.643 233.444 185.526 233.532 185.438C233.634 185.335 233.759 185.284 233.906 185.284H238.152V179.938C238.152 178.823 237.866 177.921 237.294 177.232C236.736 176.528 236.025 176.176 235.16 176.176H232.85L231.134 186.472C231.119 186.619 231.06 186.743 230.958 186.846C230.855 186.949 230.73 187 230.584 187H229.66C229.513 187 229.396 186.949 229.308 186.846C229.234 186.743 229.205 186.619 229.22 186.472L230.98 176.176H229.858C229.711 176.176 229.586 176.132 229.484 176.044C229.396 175.941 229.352 175.817 229.352 175.67V174.944C229.352 174.797 229.396 174.68 229.484 174.592C229.586 174.489 229.711 174.438 229.858 174.438H235.38ZM248.67 187.22C246.866 187.22 245.509 186.751 244.6 185.812C243.705 184.859 243.258 183.495 243.258 181.72V174.944C243.258 174.797 243.302 174.68 243.39 174.592C243.492 174.489 243.617 174.438 243.764 174.438H249.044C250.936 174.438 252.292 174.863 253.114 175.714C253.935 176.565 254.382 177.87 254.456 179.63C254.47 179.777 254.478 180.173 254.478 180.818C254.478 181.463 254.47 181.859 254.456 182.006C254.412 183.751 253.935 185.057 253.026 185.922C252.116 186.787 250.664 187.22 248.67 187.22ZM248.648 185.482C250.026 185.482 251.016 185.196 251.618 184.624C252.219 184.037 252.534 183.128 252.564 181.896C252.578 181.749 252.586 181.39 252.586 180.818C252.586 180.246 252.578 179.887 252.564 179.74C252.534 178.567 252.197 177.672 251.552 177.056C250.921 176.44 250.048 176.132 248.934 176.132H245.106V181.72C245.106 182.937 245.399 183.869 245.986 184.514C246.587 185.159 247.474 185.482 248.648 185.482ZM262.944 174.438C263.854 174.438 264.66 174.658 265.364 175.098C266.083 175.523 266.64 176.139 267.036 176.946C267.447 177.753 267.652 178.706 267.652 179.806V186.494C267.652 186.641 267.601 186.765 267.498 186.868C267.41 186.956 267.293 187 267.146 187H261.47C261.324 187 261.199 186.956 261.096 186.868C261.008 186.765 260.964 186.641 260.964 186.494V185.79C260.964 185.643 261.008 185.526 261.096 185.438C261.199 185.335 261.324 185.284 261.47 185.284H265.716V179.938C265.716 178.823 265.43 177.921 264.858 177.232C264.301 176.528 263.59 176.176 262.724 176.176H260.414L258.698 186.472C258.684 186.619 258.625 186.743 258.522 186.846C258.42 186.949 258.295 187 258.148 187H257.224C257.078 187 256.96 186.949 256.872 186.846C256.799 186.743 256.77 186.619 256.784 186.472L258.544 176.176H257.422C257.276 176.176 257.151 176.132 257.048 176.044C256.96 175.941 256.916 175.817 256.916 175.67V174.944C256.916 174.797 256.96 174.68 257.048 174.592C257.151 174.489 257.276 174.438 257.422 174.438H262.944ZM273.715 174.438C275.049 174.438 276.105 174.629 276.883 175.01C277.675 175.391 278.247 176 278.599 176.836C278.951 177.672 279.127 178.787 279.127 180.18C279.127 182.057 278.665 183.524 277.741 184.58C276.817 185.621 275.614 186.391 274.133 186.89L273.209 187.198C273.179 187.213 273.128 187.22 273.055 187.22C272.952 187.22 272.857 187.183 272.769 187.11C272.695 187.037 272.659 186.934 272.659 186.802V185.834C272.659 185.717 272.703 185.607 272.791 185.504C272.879 185.387 272.996 185.299 273.143 185.24L274.001 184.91C275.013 184.529 275.79 183.979 276.333 183.26C276.875 182.541 277.147 181.485 277.147 180.092C277.147 179.109 277.029 178.339 276.795 177.782C276.56 177.21 276.171 176.799 275.629 176.55C275.101 176.301 274.367 176.176 273.429 176.176H272.747H272.681L270.657 176.154C270.51 176.154 270.385 176.11 270.283 176.022C270.195 175.934 270.151 175.817 270.151 175.67V171.886C270.151 171.739 270.195 171.622 270.283 171.534C270.385 171.431 270.51 171.38 270.657 171.38H271.537C271.683 171.38 271.801 171.431 271.889 171.534C271.977 171.622 272.021 171.739 272.021 171.886V174.438H273.275H273.715ZM294.539 187C294.393 187 294.268 186.956 294.165 186.868C294.077 186.765 294.033 186.641 294.033 186.494V179.916C294.033 177.393 292.772 176.132 290.249 176.132H287.411C287.265 176.132 287.14 176.088 287.037 176C286.949 175.912 286.905 175.795 286.905 175.648V174.944C286.905 174.797 286.949 174.68 287.037 174.592C287.14 174.489 287.265 174.438 287.411 174.438H290.381C294.107 174.438 295.969 176.227 295.969 179.806V186.494C295.969 186.641 295.918 186.765 295.815 186.868C295.727 186.956 295.61 187 295.463 187H294.539ZM299.227 187C299.08 187 298.955 186.956 298.853 186.868C298.765 186.765 298.721 186.641 298.721 186.494V185.79C298.721 185.643 298.765 185.526 298.853 185.438C298.955 185.335 299.08 185.284 299.227 185.284H305.563V179.916C305.563 177.408 304.309 176.154 301.801 176.154H299.447C299.3 176.154 299.175 176.11 299.073 176.022C298.985 175.919 298.941 175.795 298.941 175.648V174.944C298.941 174.797 298.985 174.68 299.073 174.592C299.175 174.489 299.3 174.438 299.447 174.438H301.911C303.788 174.438 305.196 174.893 306.135 175.802C307.073 176.711 307.543 178.053 307.543 179.828V185.284H308.357C308.503 185.284 308.621 185.335 308.709 185.438C308.811 185.526 308.863 185.643 308.863 185.79V186.494C308.863 186.641 308.811 186.765 308.709 186.868C308.621 186.956 308.503 187 308.357 187H299.227ZM320.082 174.438C320.243 174.438 320.368 174.482 320.456 174.57C320.544 174.658 320.588 174.783 320.588 174.944V181.016C320.588 182.307 320.163 183.473 319.312 184.514C318.476 185.541 317.339 186.267 315.902 186.692L311.106 188.21C311.062 188.225 311.003 188.232 310.93 188.232C310.813 188.232 310.71 188.195 310.622 188.122C310.534 188.049 310.49 187.953 310.49 187.836V187.154C310.49 186.817 310.607 186.611 310.842 186.538L313.724 185.592L310.864 175.318C310.791 175.069 310.754 174.922 310.754 174.878C310.754 174.761 310.798 174.658 310.886 174.57C310.974 174.482 311.077 174.438 311.194 174.438H312.206C312.338 174.438 312.448 174.475 312.536 174.548C312.624 174.607 312.683 174.68 312.712 174.768L315.528 184.976C316.687 184.565 317.493 183.986 317.948 183.238C318.417 182.49 318.652 181.551 318.652 180.422V174.944C318.652 174.797 318.696 174.68 318.784 174.592C318.887 174.489 319.011 174.438 319.158 174.438H320.082ZM329.546 174.438C330.455 174.438 331.262 174.658 331.966 175.098C332.684 175.523 333.242 176.139 333.638 176.946C334.048 177.753 334.254 178.706 334.254 179.806V186.494C334.254 186.641 334.202 186.765 334.1 186.868C334.012 186.956 333.894 187 333.748 187H328.072C327.925 187 327.8 186.956 327.698 186.868C327.61 186.765 327.566 186.641 327.566 186.494V185.79C327.566 185.643 327.61 185.526 327.698 185.438C327.8 185.335 327.925 185.284 328.072 185.284H332.318V179.938C332.318 178.823 332.032 177.921 331.46 177.232C330.902 176.528 330.191 176.176 329.326 176.176H327.016L325.3 186.472C325.285 186.619 325.226 186.743 325.124 186.846C325.021 186.949 324.896 187 324.75 187H323.826C323.679 187 323.562 186.949 323.474 186.846C323.4 186.743 323.371 186.619 323.386 186.472L325.146 176.176H324.024C323.877 176.176 323.752 176.132 323.65 176.044C323.562 175.941 323.518 175.817 323.518 175.67V174.944C323.518 174.797 323.562 174.68 323.65 174.592C323.752 174.489 323.877 174.438 324.024 174.438H329.546ZM340.316 174.438C341.651 174.438 342.707 174.629 343.484 175.01C344.276 175.391 344.848 176 345.2 176.836C345.552 177.672 345.728 178.787 345.728 180.18C345.728 182.057 345.266 183.524 344.342 184.58C343.418 185.621 342.215 186.391 340.734 186.89L339.81 187.198C339.781 187.213 339.729 187.22 339.656 187.22C339.553 187.22 339.458 187.183 339.37 187.11C339.297 187.037 339.26 186.934 339.26 186.802V185.834C339.26 185.717 339.304 185.607 339.392 185.504C339.48 185.387 339.597 185.299 339.744 185.24L340.602 184.91C341.614 184.529 342.391 183.979 342.934 183.26C343.477 182.541 343.748 181.485 343.748 180.092C343.748 179.109 343.631 178.339 343.396 177.782C343.161 177.21 342.773 176.799 342.23 176.55C341.702 176.301 340.969 176.176 340.03 176.176H339.348H339.282L337.258 176.154C337.111 176.154 336.987 176.11 336.884 176.022C336.796 175.934 336.752 175.817 336.752 175.67V171.886C336.752 171.739 336.796 171.622 336.884 171.534C336.987 171.431 337.111 171.38 337.258 171.38H338.138C338.285 171.38 338.402 171.431 338.49 171.534C338.578 171.622 338.622 171.739 338.622 171.886V174.438H339.876H340.316ZM354.519 187C354.372 187 354.248 186.956 354.145 186.868C354.057 186.765 354.013 186.641 354.013 186.494V174.944C354.013 174.797 354.057 174.68 354.145 174.592C354.248 174.489 354.372 174.438 354.519 174.438H355.487C355.634 174.438 355.751 174.489 355.839 174.592C355.942 174.68 355.993 174.797 355.993 174.944V186.494C355.993 186.641 355.942 186.765 355.839 186.868C355.751 186.956 355.634 187 355.487 187H354.519ZM368.051 177.1C368.051 178.244 367.817 179.219 367.347 180.026C366.893 180.818 366.211 181.427 365.301 181.852L367.589 185.152C367.765 185.372 367.853 185.592 367.853 185.812V186.494C367.853 186.641 367.802 186.765 367.699 186.868C367.611 186.956 367.494 187 367.347 187H359.427C359.281 187 359.156 186.956 359.053 186.868C358.965 186.765 358.921 186.641 358.921 186.494V185.79C358.921 185.629 358.965 185.504 359.053 185.416C359.156 185.328 359.281 185.284 359.427 185.284H365.411L358.525 175.296C358.408 175.135 358.349 174.995 358.349 174.878C358.349 174.761 358.393 174.658 358.481 174.57C358.584 174.482 358.694 174.438 358.811 174.438H359.801C360.036 174.438 360.234 174.555 360.395 174.79L364.333 180.466C365.58 179.879 366.203 178.677 366.203 176.858V174.944C366.203 174.783 366.247 174.658 366.335 174.57C366.438 174.482 366.563 174.438 366.709 174.438H367.567C367.714 174.438 367.831 174.489 367.919 174.592C368.007 174.68 368.051 174.797 368.051 174.944V177.1ZM371.599 187C371.452 187 371.328 186.956 371.225 186.868C371.137 186.765 371.093 186.641 371.093 186.494V174.944C371.093 174.797 371.137 174.68 371.225 174.592C371.328 174.489 371.452 174.438 371.599 174.438H375.845C377.737 174.438 379.138 174.893 380.047 175.802C380.971 176.697 381.433 178.046 381.433 179.85V186.494C381.433 186.641 381.382 186.765 381.279 186.868C381.191 186.956 381.074 187 380.927 187H380.003C379.856 187 379.732 186.956 379.629 186.868C379.541 186.765 379.497 186.641 379.497 186.494V179.916C379.497 177.393 378.243 176.132 375.735 176.132H373.029V186.494C373.029 186.641 372.978 186.765 372.875 186.868C372.787 186.956 372.67 187 372.523 187H371.599ZM387.496 174.438C388.831 174.438 389.887 174.629 390.664 175.01C391.456 175.391 392.028 176 392.38 176.836C392.732 177.672 392.908 178.787 392.908 180.18C392.908 182.057 392.446 183.524 391.522 184.58C390.598 185.621 389.395 186.391 387.914 186.89L386.99 187.198C386.961 187.213 386.909 187.22 386.836 187.22C386.733 187.22 386.638 187.183 386.55 187.11C386.477 187.037 386.44 186.934 386.44 186.802V185.834C386.44 185.717 386.484 185.607 386.572 185.504C386.66 185.387 386.777 185.299 386.924 185.24L387.782 184.91C388.794 184.529 389.571 183.979 390.114 183.26C390.657 182.541 390.928 181.485 390.928 180.092C390.928 179.109 390.811 178.339 390.576 177.782C390.341 177.21 389.953 176.799 389.41 176.55C388.882 176.301 388.149 176.176 387.21 176.176H386.528H386.462L384.438 176.154C384.291 176.154 384.167 176.11 384.064 176.022C383.976 175.934 383.932 175.817 383.932 175.67V171.886C383.932 171.739 383.976 171.622 384.064 171.534C384.167 171.431 384.291 171.38 384.438 171.38H385.318C385.465 171.38 385.582 171.431 385.67 171.534C385.758 171.622 385.802 171.739 385.802 171.886V174.438H387.056H387.496Z" fill="black"/>
</g>
<defs>
<clipPath id="clip0_112_5">
<rect width="678" height="469" fill="white"/>
</clipPath>
</defs>
</svg>
