<svg width="1397" height="1012" viewBox="0 0 1397 1012" fill="none" xmlns="http://www.w3.org/2000/svg">
<rect y="259.546" width="1262.1" height="767.983" transform="rotate(-11.8674 0 259.546)" fill="#846363"/>
<rect x="341.676" y="695" width="145.203" height="199.266" transform="rotate(6.24503 341.676 695)" fill="#E8E8E8"/>
<rect x="353.676" y="683" width="145.203" height="199.266" transform="rotate(6.24503 353.676 683)" fill="white"/>
<line x1="368.284" y1="732.512" x2="473.785" y2="742.787" stroke="black" stroke-width="5"/>
<line x1="364.904" y1="767.217" x2="470.405" y2="777.493" stroke="black" stroke-width="5"/>
<line x1="357.242" y1="845.882" x2="462.743" y2="856.158" stroke="black" stroke-width="5"/>
<line x1="361.298" y1="804.236" x2="466.799" y2="814.511" stroke="black" stroke-width="5"/>
<rect x="173" y="347.574" width="90.3566" height="157.44" transform="rotate(-15.1237 173 347.574)" fill="black"/>
<rect x="182" y="351.515" width="74.7973" height="145.071" transform="rotate(-15.1237 182 351.515)" fill="#D9D9D9"/>
<path d="M121.164 607.88C168.545 607.88 207.045 646.996 207.045 695.36C207.045 743.725 168.544 782.84 121.164 782.84C73.7837 782.84 35.2835 743.725 35.2832 695.36C35.2832 646.996 73.7836 607.88 121.164 607.88Z" fill="white" stroke="black" stroke-width="6"/>
<path d="M120.629 783.757L120.629 923.12" stroke="black" stroke-width="6"/>
<line y1="-3" x2="115.72" y2="-3" transform="matrix(0.777321 0.629104 -0.651191 0.758914 120.093 827.44)" stroke="black" stroke-width="6"/>
<line y1="-3" x2="98.5418" y2="-3" transform="matrix(-0.891095 0.453818 -0.475113 -0.879925 120.093 824.32)" stroke="black" stroke-width="6"/>
<path d="M120.629 583.5C146.051 583.5 168.994 588.015 185.525 595.254C193.793 598.874 200.39 603.147 204.899 607.814C209.401 612.475 211.758 617.455 211.758 622.56C211.758 627.664 209.401 632.645 204.899 637.306C200.39 641.974 193.793 646.246 185.525 649.866C168.994 657.105 146.051 661.62 120.629 661.62C95.2073 661.62 72.2642 657.105 55.7324 649.866C47.4644 646.246 40.8673 641.974 36.3584 637.306C31.8564 632.645 29.5 627.664 29.5 622.56C29.5001 617.455 31.8566 612.475 36.3584 607.814C40.8673 603.147 47.4644 598.874 55.7324 595.254C72.2642 588.015 95.2073 583.5 120.629 583.5Z" fill="#51502B" stroke="black" stroke-width="3"/>
<line y1="-3" x2="94.6088" y2="-3" transform="matrix(0.565938 0.824448 -0.839417 0.543487 119.022 920)" stroke="black" stroke-width="6"/>
<line y1="-3" x2="89.3615" y2="-3" transform="matrix(-0.56322 0.826307 -0.841163 -0.540782 116.881 920)" stroke="black" stroke-width="6"/>
<path d="M1304.16 583.88C1351.54 583.88 1390.04 622.996 1390.04 671.36C1390.04 719.725 1351.54 758.84 1304.16 758.84C1256.78 758.84 1218.28 719.725 1218.28 671.36C1218.28 622.996 1256.78 583.88 1304.16 583.88Z" fill="white" stroke="black" stroke-width="6"/>
<path d="M1303.63 759.757L1303.63 899.12" stroke="black" stroke-width="6"/>
<line y1="-3" x2="115.72" y2="-3" transform="matrix(0.777321 0.629104 -0.651191 0.758914 1303.09 803.44)" stroke="black" stroke-width="6"/>
<line y1="-3" x2="98.5418" y2="-3" transform="matrix(-0.891095 0.453818 -0.475113 -0.879925 1303.09 800.32)" stroke="black" stroke-width="6"/>
<path d="M1303.63 559.5C1329.05 559.5 1351.99 564.015 1368.53 571.254C1376.79 574.874 1383.39 579.147 1387.9 583.814C1392.4 588.475 1394.76 593.455 1394.76 598.56C1394.76 603.664 1392.4 608.645 1387.9 613.306C1383.39 617.974 1376.79 622.246 1368.53 625.866C1351.99 633.105 1329.05 637.62 1303.63 637.62C1278.21 637.62 1255.26 633.105 1238.73 625.866C1230.46 622.246 1223.87 617.974 1219.36 613.306C1214.86 608.645 1212.5 603.664 1212.5 598.56C1212.5 593.455 1214.86 588.475 1219.36 583.814C1223.87 579.147 1230.46 574.874 1238.73 571.254C1255.26 564.015 1278.21 559.5 1303.63 559.5Z" fill="#00328E" stroke="black" stroke-width="3"/>
<line y1="-3" x2="94.6088" y2="-3" transform="matrix(0.565938 0.824448 -0.839417 0.543487 1302.02 896)" stroke="black" stroke-width="6"/>
<line y1="-3" x2="89.3615" y2="-3" transform="matrix(-0.56322 0.826307 -0.841163 -0.540782 1299.88 896)" stroke="black" stroke-width="6"/>
</svg>
